<svg xmlns="http://www.w3.org/2000/svg" width="90" height="28"><g fill="#6B6B6B" fill-rule="evenodd"><path d="M55.75 21.575c-5.215 3.902-12.773 5.984-19.28 5.984-9.125 0-17.34-3.426-23.554-9.125-.489-.448-.051-1.059.535-.71 6.707 3.962 15 6.345 23.565 6.345 5.777 0 12.133-1.213 17.976-3.731.883-.381 1.621.587.758 1.237"/><path d="M57.918 19.057c-.664-.865-4.406-.409-6.086-.206-.512.063-.59-.389-.129-.714 2.98-2.13 7.87-1.515 8.441-.801.57.718-.148 5.694-2.949 8.07-.43.365-.84.17-.648-.314.629-1.594 2.039-5.167 1.37-6.035M51.95 3.103v-2.07c0-.313.234-.523.515-.523h9.128c.293 0 .528.214.528.523v1.773c-.004.297-.25.686-.688 1.3l-4.73 6.857c1.758-.043 3.613.222 5.207 1.134.36.206.457.508.484.805v2.21c0 .3-.328.653-.672.471-2.808-1.495-6.539-1.658-9.644.016-.316.174-.648-.175-.648-.476v-2.098c0-.337.004-.912.336-1.423l5.48-7.98h-4.77a.509.509 0 01-.527-.519M18.65 16.02h-2.777a.528.528 0 01-.496-.48V1.07c0-.29.238-.52.535-.52h2.59a.525.525 0 01.503.483v1.892h.051c.676-1.828 1.945-2.68 3.656-2.68 1.738 0 2.824.852 3.605 2.68.672-1.828 2.2-2.68 3.836-2.68 1.164 0 2.438.487 3.215 1.581.879 1.218.7 2.987.7 4.537l-.005 9.133c0 .29-.238.523-.535.523h-2.773a.532.532 0 01-.5-.523v-7.67c0-.61.055-2.133-.078-2.712-.207-.972-.828-1.245-1.633-1.245-.672 0-1.375.456-1.66 1.185-.285.73-.258 1.952-.258 2.772v7.67c0 .29-.238.523-.535.523h-2.773a.53.53 0 01-.5-.523l-.004-7.67c0-1.614.261-3.989-1.711-3.989-1.996 0-1.918 2.316-1.918 3.99v7.669c0 .29-.238.523-.535.523M69.98.244c4.12 0 6.351 3.593 6.351 8.161 0 4.414-2.465 7.916-6.351 7.916-4.047 0-6.25-3.593-6.25-8.07 0-4.505 2.23-8.007 6.25-8.007m.023 2.955c-2.047 0-2.176 2.831-2.176 4.596 0 1.768-.027 5.544 2.153 5.544 2.152 0 2.254-3.046 2.254-4.902 0-1.221-.051-2.68-.415-3.839-.312-1.007-.933-1.4-1.816-1.4M81.675 16.02h-2.766a.532.532 0 01-.5-.524L78.405 1.02a.528.528 0 01.535-.47h2.574a.533.533 0 01.496.404v2.213h.051C82.84 1.188 83.928.244 85.846.244c1.246 0 2.461.456 3.242 1.705.727 1.158.727 3.105.727 4.505v9.11a.536.536 0 01-.535.455h-2.785a.53.53 0 01-.493-.456v-7.86c0-1.582.18-3.898-1.738-3.898-.675 0-1.297.46-1.605 1.158-.39.885-.442 1.765-.442 2.74v7.793a.538.538 0 01-.542.523M44.672 9.107c0 1.099.028 2.015-.52 2.99-.44.793-1.144 1.281-1.921 1.281-1.066 0-1.691-.825-1.691-2.042 0-2.403 2.12-2.84 4.132-2.84v.611m2.8 6.873a.573.573 0 01-.655.067c-.922-.777-1.09-1.138-1.594-1.88-1.523 1.579-2.605 2.05-4.578 2.05-2.34 0-4.156-1.463-4.156-4.393 0-2.288 1.219-3.847 2.96-4.608 1.509-.674 3.614-.793 5.223-.98v-.365c0-.67.051-1.463-.34-2.042-.336-.52-.984-.734-1.558-.734-1.059 0-2 .552-2.23 1.694-.047.254-.231.503-.485.515l-2.691-.293c-.227-.052-.48-.238-.414-.591.617-3.315 3.57-4.315 6.21-4.315 1.352 0 3.117.365 4.184 1.404C48.699 2.79 48.57 4.5 48.57 6.36v4.394c0 1.32.54 1.9 1.047 2.613.176.254.215.56-.011.75a118.38 118.38 0 00-2.13 1.872l-.003-.008M8.264 9.107c0 1.099.027 2.015-.52 2.99-.441.793-1.14 1.281-1.922 1.281-1.066 0-1.687-.825-1.687-2.042 0-2.403 2.12-2.84 4.129-2.84v.611m2.8 6.873a.573.573 0 01-.656.067c-.922-.777-1.086-1.138-1.594-1.88-1.523 1.579-2.601 2.05-4.578 2.05-2.335 0-4.156-1.463-4.156-4.393 0-2.288 1.223-3.847 2.961-4.608 1.508-.674 3.613-.793 5.223-.98v-.365c0-.67.05-1.463-.336-2.042-.34-.52-.989-.734-1.559-.734-1.058 0-2.004.552-2.234 1.694-.047.254-.23.503-.48.515L.958 5.011C.733 4.959.483 4.773.545 4.42 1.166 1.105 4.115.105 6.755.105c1.352 0 3.118.365 4.184 1.404 1.352 1.281 1.223 2.99 1.223 4.85v4.394c0 1.32.539 1.9 1.047 2.613.18.254.218.56-.008.75a118.39 118.39 0 00-2.129 1.872l-.008-.008"/></g></svg>