<svg xmlns="http://www.w3.org/2000/svg" width="35" height="43"><path fill="#6B6B6B" d="M34.066 32.828a23.036 23.036 0 01-2.22 4.072c-1.169 1.697-2.125 2.873-2.862 3.525-1.142 1.072-2.366 1.62-3.677 1.652-.94 0-2.075-.273-3.396-.827-1.325-.552-2.543-.825-3.657-.825-1.167 0-2.42.273-3.76.825-1.341.554-2.422.842-3.249.87-1.256.055-2.51-.509-3.76-1.695-.798-.71-1.796-1.926-2.992-3.65-1.283-1.841-2.338-3.976-3.164-6.41C.444 27.736 0 25.191 0 22.726c0-2.823.598-5.257 1.796-7.298.942-1.639 2.195-2.931 3.763-3.88a9.975 9.975 0 015.086-1.464c.998 0 2.308.315 3.934.934 1.623.62 2.664.935 3.12.935.342 0 1.5-.368 3.461-1.102 1.855-.68 3.42-.962 4.703-.851 3.476.286 6.087 1.683 7.823 4.2-3.108 1.92-4.646 4.61-4.615 8.06.028 2.689.984 4.925 2.863 6.701a9.395 9.395 0 002.861 1.914c-.23.679-.471 1.329-.729 1.953zM26.096.843c0 2.106-.756 4.073-2.26 5.894-1.815 2.164-4.011 3.415-6.393 3.218a6.686 6.686 0 01-.048-.798c0-2.023.864-4.187 2.397-5.957.765-.896 1.739-1.641 2.92-2.235C23.89.379 25.004.055 26.052 0c.03.282.043.563.043.843z"/></svg>