<svg xmlns="http://www.w3.org/2000/svg" width="157" height="17"><g fill="#6B6B6B" fill-rule="evenodd"><path d="M141.908 16.322c4.57-3.915 10.885-7.663 14.457-9.079a60.03 60.03 0 01-2.326-1.415c-4.487 1.499-9.804 4.83-14.54 8.578.83.667 1.661 1.25 2.41 1.916zm-2.077-10.578a39.11 39.11 0 00-1.994-.916c-1.745.833-3.905 2.166-6.73 4.164.582.334 1.246.75 1.91 1.083 2.244-1.582 4.405-3.081 6.814-4.33zm4.071-1.915c-.83-.417-3.655-1.5-5.65-2-.581.25-1.412.584-1.994.75.748.167 3.407.916 5.65 2.083.582-.25 1.413-.583 1.994-.833zm-9.638-.25c-2.492 1.166-5.151 2.748-6.647 3.748.499.25.997.416 1.745.75 3.24-2.166 5.733-3.499 6.73-3.915-.748-.25-1.412-.417-1.828-.583zm11.549-.417c.582-.166 1.247-.333 1.828-.583-1.661-.75-3.822-1.499-5.733-1.915-.332.083-1.246.333-1.828.5.665.25 2.825.749 5.733 1.998zm-10.635 8.163c.665.416 1.413.999 2.16 1.415 4.736-3.664 9.39-6.496 14.54-8.162-.747-.333-1.329-.666-2.16-1.083-3.157.833-8.391 2.999-14.54 7.83z"/><path fill-rule="nonzero" d="M.66 15.156h3.49c1.744 0 2.575-.916 2.575-2.166 0-1-.581-1.749-1.662-1.915.997-.25 1.413-.833 1.413-1.75 0-1.165-.831-1.998-2.576-1.998H.66v7.829zm2.99-3.332c.666 0 1.081.333 1.081 1 0 .666-.415 1-1.08 1H2.488v-2H3.65zM3.403 8.66c.664 0 1.08.25 1.08.916 0 .667-.416.917-1.08.917h-.914V8.659h.914zm10.22-1.416H11.71l-2.99 7.913h1.993l.582-1.666h2.825l.582 1.666h1.994L13.62 7.243zm-.915 1.916l.914 2.915h-1.91l.996-2.915zM26.5 7.243h-1.828v5.33l-3.407-5.33h-1.994v7.913H21.1v-5.33l3.407 5.33H26.5V7.243zm8.309 7.913l-2.66-3.998v3.998h-1.91V7.243h1.91v3.832l2.493-3.832h2.16l-2.575 3.832 2.825 4.08h-2.243zm9.056-3.915c0 1.583.914 2.582 2.16 2.582 1.247 0 2.16-1 2.16-2.582 0-1.582-.913-2.582-2.16-2.582-1.246 0-2.16 1-2.16 2.582zm-2.077 0c0-2.332 1.662-4.164 4.237-4.164 2.576 0 4.238 1.832 4.238 4.164s-1.662 4.165-4.238 4.165c-2.575 0-4.154-1.833-4.237-4.165zm11.134 3.915h1.91v-3.082h2.493v-1.499h-2.492v-1.75h2.99l.333-1.498H52.84l.083 7.829zM67.13 7.243h-1.911l-2.992 7.913h1.995l.581-1.666h2.825l.582 1.666h1.994L67.13 7.243zm-.914 1.916l.914 2.915h-1.911l.997-2.915zm15.37-1.916h-2.243l-2.077 4.331-2.077-4.33h-2.243v7.912h1.745v-5.33l2.575 5.33 2.576-5.33v5.33h1.828l-.083-7.913zm3.74 7.913h5.4v-1.5h-3.49v-1.748h2.743v-1.5h-2.742V8.743h3.157l.332-1.5h-5.483v7.913h.083zm12.712 0h2.077l-1.994-3.332c1.08-.333 1.579-1.082 1.579-2.165 0-1.416-.831-2.416-2.825-2.416H93.8v7.913h1.91v-3.082h.5l1.827 3.082zm-1.412-6.413c.83 0 1.246.333 1.246 1 0 .665-.415.999-1.246.999h-.831v-2h.83zm6.397 6.413h1.911V7.243h-1.91v7.913zm11.383-2.082c-.747.5-1.412.666-2.077.666-1.495 0-2.492-1-2.492-2.499s.997-2.498 2.41-2.498c.664 0 1.328.166 1.993.666V7.577c-.665-.334-1.412-.5-2.243-.5-2.576 0-4.238 1.832-4.32 4.164 0 2.332 1.661 4.165 4.32 4.165.914 0 1.662-.167 2.326-.5l.083-1.832zm7.063-5.83h-1.911l-2.991 7.912h1.994l.581-1.666h2.825l.582 1.666h1.994l-3.074-7.913zm-.997 1.915l.914 2.915h-1.911l.997-2.915z"/></g></svg>