<svg xmlns="http://www.w3.org/2000/svg" width="98" height="23"><path fill="#6B6B6B" d="M7.889 17.621a6.775 6.775 0 01-4.242-1.486c1.358-3.103 4.124-7.265 7.895-11.33a6.956 6.956 0 013.205 5.875 6.993 6.993 0 01-.652 2.955c-1.197-.56-2.312-1.262-3.259-2.148l2.066 3.928A6.797 6.797 0 017.89 17.62zm-6.856-6.94c0-3.836 3.069-6.944 6.856-6.944 1.015 0 1.977.224 2.846.624-3.716 3.325-6.594 7.19-8.296 10.53a6.97 6.97 0 01-1.406-4.21zm13.923 3.327a7.92 7.92 0 00.726-3.328A7.907 7.907 0 0012.2 4.108 56.258 56.258 0 0116.244.289a35.18 35.18 0 00-4.74 3.4 7.687 7.687 0 00-3.615-.9C3.586 2.789.097 6.323.097 10.68a7.91 7.91 0 001.889 5.148C.493 19.097.232 21.722 1.547 22.61c1.408.95 4.47-.773 6.309-3.58 0 0-2.843 2.596-4.404 2-.96-.368-.964-1.856-.172-3.99a7.72 7.72 0 0010.085-.747l.277.528c3.396-.28 13.537-.551 13.537-.551 0-.493-6.715-.046-12.223-2.262zm46.491-4.053l1.27-1.708-4.423-.001 1.09-1.463h4.422l1.273-1.707h-8.83l-6.074 8.162h8.831l1.268-1.709h-4.42l1.168-1.574h4.425zm6.133-4.879l-6.072 8.162h4.405l6.073-8.162H67.58zm14.679 0L79.18 9.214l-.946-4.138h-3.443l-6.073 8.162h2.914l3.052-4.1.937 4.1h3.48l6.074-8.162h-2.917zm14.407 0h-7.083a3.691 3.691 0 00-2.966 1.499l-3.655 4.912c-.138.182-.218.41-.218.657 0 .603.483 1.094 1.08 1.094h7.08a3.697 3.697 0 002.97-1.5l.877-1.179h1.023l1.28-1.72h-5.425l-1.713 2.3a.955.955 0 01-.769.39H87.9a.283.283 0 01-.225-.454l2.905-3.904a.952.952 0 01.769-.388h1.248c.156 0 .281.127.281.284a.3.3 0 01-.057.172l-.472.634h4.402l.778-1.048c.135-.181.216-.407.216-.656 0-.603-.484-1.093-1.079-1.093zM47.712 7.24l-2.905 3.901a.953.953 0 01-.77.389H42.79a.281.281 0 01-.278-.283c0-.066.021-.125.055-.171l2.904-3.902a.968.968 0 01.77-.39h1.249c.155 0 .28.128.28.284a.299.299 0 01-.057.172zm4.924-1.07c0-.603-.482-1.093-1.08-1.093H44.48c-1.214 0-2.29.587-2.97 1.498l-3.655 4.913a1.09 1.09 0 00-.216.657c0 .603.482 1.094 1.078 1.094h7.079a3.695 3.695 0 002.97-1.5l3.655-4.911c.136-.183.216-.41.216-.658zm-18.38 1.07l-.465.622a.961.961 0 01-.77.386l-1.81-.001 1.091-1.463h1.728c.154 0 .28.128.28.284 0 .062-.02.123-.055.172zm-2.363 3.17l-.545.733a.955.955 0 01-.77.387H28.77l1.17-1.574h1.73c.154 0 .28.126.28.283a.282.282 0 01-.057.171zm4.09-1.053a3.699 3.699 0 002.14-1.404l.838-1.125c.136-.183.217-.41.217-.658 0-.603-.482-1.093-1.079-1.093h-8.933l-6.073 8.162h9.243a3.694 3.694 0 002.97-1.5l.856-1.151a.884.884 0 00-.18-1.231z"/></svg>