<svg xmlns="http://www.w3.org/2000/svg" width="126" height="28"><g fill="none" fill-rule="evenodd"><path fill="#FF9D28" d="M.077 10.308l11.54.002 7.017.001V3.338z"/><path fill="#68C5ED" d="M18.634 3.338v24.618L27.398.046z"/><path fill="#044D80" d="M18.634 10.311h-7.017l7.017 17.645z"/><path fill="#E54747" d="M.077 10.308l13.34 4.53-1.8-4.528z"/><path fill="#044D80" fill-rule="nonzero" d="M42.588 21.476a3.21 3.21 0 01-.509.382 5.565 5.565 0 01-.927.46 8.117 8.117 0 01-1.398.395 9.718 9.718 0 01-1.894.165c-1.373 0-2.559-.22-3.559-.663-1-.441-1.826-1.058-2.478-1.848-.652-.79-1.13-1.725-1.436-2.805-.305-1.079-.457-2.264-.457-3.556 0-1.292.165-2.486.495-3.582.33-1.097.826-2.044 1.487-2.843a6.835 6.835 0 012.478-1.874c.992-.45 2.157-.676 3.495-.676.661 0 1.259.06 1.792.179.534.119 1 .26 1.398.42.398.162.729.332.992.51.262.179.461.328.597.447.153.136.284.297.394.484.11.187.165.391.165.612 0 .34-.127.68-.381 1.02-.254.34-.534.654-.839.943a10.34 10.34 0 00-.686-.624 4.642 4.642 0 00-.852-.561 5.635 5.635 0 00-1.067-.408 4.994 4.994 0 00-1.335-.166c-.864 0-1.588.174-2.173.523a4.176 4.176 0 00-1.41 1.364 5.795 5.795 0 00-.763 1.925 11.208 11.208 0 000 4.5 5.48 5.48 0 00.788 1.937c.372.56.86 1.011 1.461 1.351.602.34 1.352.51 2.25.51.474 0 .91-.06 1.309-.178a5.24 5.24 0 001.855-.969c.23-.187.42-.348.572-.484.102.119.22.263.356.433.137.172.264.35.381.535.119.188.22.374.305.561.085.188.127.357.127.51 0 .221-.042.408-.127.561a2.43 2.43 0 01-.406.51zm13.098-1.955c0 1.35.196 2.334.589 2.95a5.136 5.136 0 01-.857.256 4.35 4.35 0 01-.831.077c-.614 0-1.078-.12-1.394-.36-.315-.239-.516-.58-.6-1.025-.376.393-.87.727-1.484 1-.613.273-1.364.41-2.25.41-.46 0-.92-.064-1.38-.191a3.624 3.624 0 01-1.254-.626 3.249 3.249 0 01-.92-1.164c-.24-.486-.358-1.078-.358-1.777 0-.869.208-1.577.626-2.122a4.464 4.464 0 011.573-1.291 7.106 7.106 0 012.046-.652c.732-.12 1.406-.196 2.02-.23.204-.017.404-.026.6-.026h.55v-.467c0-.657-.175-1.124-.524-1.4-.35-.277-.916-.416-1.7-.416-.734 0-1.386.12-1.957.36-.57.24-1.13.512-1.674.82a3.764 3.764 0 01-.576-.962c-.145-.35-.217-.61-.217-.782 0-.24.132-.47.396-.692.264-.222.627-.424 1.087-.603.46-.18.989-.325 1.585-.436a10.328 10.328 0 011.893-.167c.92 0 1.7.094 2.34.282.639.189 1.159.48 1.56.872.4.394.685.885.856 1.475.17.59.256 1.279.256 2.065v4.822zm-3.273-2.976h-.358c-.12 0-.239.01-.358.026a16 16 0 00-1.265.154 3.622 3.622 0 00-1.113.36 2.334 2.334 0 00-.792.666c-.205.274-.307.624-.307 1.052 0 .478.136.884.409 1.218.272.333.733.5 1.38.5.324 0 .631-.042.921-.128a3.14 3.14 0 00.767-.334c.222-.136.397-.286.525-.449.127-.162.191-.311.191-.448v-2.617zm9.64-5.052c.272-.325.697-.654 1.275-.988.577-.333 1.308-.5 2.192-.5.629 0 1.228.107 1.797.32.57.214 1.075.56 1.517 1.04.442.478.794 1.111 1.058 1.897.263.787.395 1.753.395 2.899 0 1.333-.153 2.432-.459 3.296-.306.863-.7 1.547-1.185 2.052-.484.504-1.024.859-1.619 1.064a5.444 5.444 0 01-1.784.308c-.493 0-.922-.056-1.287-.167a5.148 5.148 0 01-.93-.372 2.47 2.47 0 01-.842-.693v6.306h-3.477V10.364a6.14 6.14 0 01.67-.09c.137-.008.3-.013.49-.013.566 0 1.047.095 1.442.283.395.188.644.504.747.949zm4.603 4.745c0-.513-.042-.992-.127-1.437a3.5 3.5 0 00-.42-1.154 2.044 2.044 0 00-.788-.757c-.33-.18-.733-.269-1.207-.269-.712 0-1.208.137-1.488.41-.28.274-.42.574-.42.898v5.438c.136.137.377.3.725.487.348.189.75.282 1.208.282.864 0 1.5-.341 1.907-1.026.407-.683.61-1.641.61-2.872zm6.315 4.411a4.47 4.47 0 01-.23-1.077 12.409 12.409 0 01-.051-1.129v-11.9c.119-.018.247-.035.384-.052a6.207 6.207 0 01.792-.051c.273 0 .546.025.818.077.273.051.52.154.742.307.221.154.4.364.537.629.136.265.205.611.205 1.039v1.82h3.58v2.591h-3.58v5.47c0 1.193.485 1.789 1.457 1.789.239 0 .464-.038.678-.116a3.94 3.94 0 00.575-.256 3.612 3.612 0 00.716-.526c.256.377.452.703.588.978.136.275.205.533.205.775 0 .224-.09.444-.269.66-.179.216-.43.414-.754.596a4.684 4.684 0 01-1.176.44c-.46.112-.964.168-1.51.168-1.056 0-1.879-.205-2.467-.616a3.272 3.272 0 01-1.24-1.616zm15.584-.333a4.07 4.07 0 002.002-.487c.256-.137.479-.287.667-.45.188-.161.36-.311.513-.448.205.256.42.586.642.987.222.402.333.731.333.988 0 .376-.213.718-.639 1.026-.358.274-.865.509-1.521.705-.657.197-1.428.295-2.314.295-.802 0-1.59-.102-2.366-.308a5.225 5.225 0 01-2.071-1.077c-.605-.513-1.096-1.201-1.47-2.065-.376-.863-.563-1.953-.563-3.27 0-1.077.166-2.005.498-2.783.333-.778.776-1.423 1.33-1.936a5.239 5.239 0 011.88-1.129 6.59 6.59 0 012.148-.359c.954 0 1.764.15 2.429.449.665.3 1.206.701 1.624 1.205.417.505.72 1.082.907 1.732.188.65.282 1.333.282 2.052v.359c0 .137-.005.282-.013.436l-.025.448c-.01.146-.022.261-.039.347h-7.543c.068.94.359 1.723.872 2.347.513.624 1.325.936 2.437.936zm1.166-5.207c0-.82-.16-1.488-.476-2-.318-.513-.888-.77-1.71-.77-.704 0-1.265.244-1.685.731-.42.487-.63 1.167-.63 2.039h4.5zm9.197-3.552c.102-.152.238-.322.409-.509.17-.186.379-.356.626-.508.247-.153.52-.28.819-.382.298-.102.617-.153.959-.153.204 0 .421.017.652.05.23.035.443.099.639.192s.353.22.473.381c.119.161.179.36.179.598 0 .373-.094.801-.281 1.285-.188.484-.375.897-.563 1.239a3.79 3.79 0 00-.87-.552 2.513 2.513 0 00-1.022-.192c-.529 0-.972.154-1.33.463-.358.308-.537.677-.537 1.106v8.303h-3.477V10.364a6.108 6.108 0 01.664-.09c.137-.008.298-.013.486-.013.546 0 1.019.107 1.42.318.4.212.651.538.754.978zm9.887 0c.102-.152.239-.322.41-.509.17-.186.378-.356.626-.508.247-.153.52-.28.818-.382.298-.102.618-.153.959-.153.204 0 .422.017.652.05a2.3 2.3 0 01.64.192c.195.093.353.22.472.381.12.161.18.36.18.598 0 .373-.095.801-.282 1.285a10.54 10.54 0 01-.563 1.239c-.29-.24-.58-.423-.87-.552a2.512 2.512 0 00-1.022-.192c-.528 0-.972.154-1.33.463-.358.308-.536.677-.536 1.106v8.303h-3.478V10.364a6.118 6.118 0 01.665-.09 8.33 8.33 0 01.485-.013c.546 0 1.019.107 1.42.318.4.212.652.538.754.978zm16.596 7.964c0 1.35.196 2.334.588 2.95a5.136 5.136 0 01-.857.256 4.35 4.35 0 01-.83.077c-.615 0-1.08-.12-1.394-.36-.316-.239-.516-.58-.601-1.025-.375.393-.87.727-1.483 1-.614.273-1.365.41-2.25.41a5.18 5.18 0 01-1.382-.191 3.623 3.623 0 01-1.253-.626 3.25 3.25 0 01-.92-1.164c-.239-.486-.358-1.078-.358-1.777 0-.869.208-1.577.627-2.122a4.463 4.463 0 011.572-1.291 7.104 7.104 0 012.046-.652 19.4 19.4 0 012.02-.23c.204-.017.405-.026.6-.026h.55v-.467c0-.657-.174-1.124-.524-1.4-.35-.277-.916-.416-1.7-.416-.733 0-1.385.12-1.956.36-.572.24-1.13.512-1.675.82a3.768 3.768 0 01-.576-.962c-.144-.35-.217-.61-.217-.782 0-.24.132-.47.396-.692.265-.222.627-.424 1.087-.603a8.84 8.84 0 011.586-.436 10.331 10.331 0 011.892-.167c.92 0 1.7.094 2.34.282.639.189 1.159.48 1.56.872.4.394.685.885.856 1.475.17.59.256 1.279.256 2.065v4.822zm-3.273-2.976h-.358c-.12 0-.24.01-.358.026-.427.035-.849.086-1.266.154a3.624 3.624 0 00-1.112.36 2.335 2.335 0 00-.793.666c-.205.274-.307.624-.307 1.052 0 .478.136.884.41 1.218.272.333.732.5 1.38.5.324 0 .63-.042.92-.128.29-.085.546-.197.768-.334.22-.136.396-.286.524-.449.128-.162.192-.311.192-.448v-2.617z"/></g></svg>