<svg xmlns="http://www.w3.org/2000/svg" width="126" height="17"><path d="M106.314 15.925c.28 0 .72-.061.939-.143V14.39a3.41 3.41 0 01-.739.081c-.72 0-1.06-.388-1.06-1.535V.43h-3.078v1.393h1.4v11.196c0 1.904.74 2.907 2.538 2.907zm4.158-2.886V6.57h2.098V5.178h-2.098V2.477h-1.68v2.701h-1.598V6.57h1.599v6.55c0 1.883.82 2.805 2.758 2.805.3 0 .78-.061 1.019-.143V14.39c-.32.06-.6.081-.859.081-.84 0-1.24-.307-1.24-1.432zM83.408 6.305c2.199 0 3.338 1.596 3.518 3.377H79.71c.2-1.945 1.479-3.377 3.697-3.377zm8.135 4.175c0-2.415 1.5-4.155 3.618-4.155 2.139 0 3.598 1.78 3.598 4.155 0 2.374-1.46 4.156-3.598 4.156-2.118 0-3.618-1.74-3.618-4.156zm26.444 3.91h-1.4V9.64c0-2.21 1.1-3.316 3.039-3.316 1.739 0 2.858 1.106 2.858 3.316v4.749h-1.399v1.392h4.477V14.39h-1.399V9.64c0-2.64-1.539-4.77-4.337-4.77-1.46 0-2.539.574-3.238 1.495V.43h-3.078v1.393h1.399V14.39h-1.4v1.392h4.478V14.39zM66.539 6.837V1.862h1.499V.43h-4.737v1.433h1.5V14.35h-1.5v1.433h4.737V14.35h-1.499V8.23h7.515v6.12h-1.498v1.433h4.736V14.35h-1.499V1.862h1.5V.43h-4.737v1.433h1.498v4.975H66.54zm21.826 6.1h-1.679c-.6 1.064-1.678 1.719-3.217 1.719-2.34 0-3.598-1.454-3.758-3.603h8.894v-.757c0-3.234-2.018-5.424-5.197-5.424-3.197 0-5.416 2.313-5.416 5.608 0 3.316 2.219 5.609 5.416 5.609 2.339 0 4.138-1.208 4.957-3.153zM98.7 15.781h3.078V14.39h-1.4V6.57h1.4V5.178H98.7v1.576c-.88-1.166-2.2-1.882-3.758-1.882-2.938 0-5.116 2.415-5.116 5.608 0 3.193 2.178 5.609 5.116 5.609 1.559 0 2.879-.717 3.758-1.883v1.576zM5.356.02a2.18 2.18 0 00-1.569.668L.648 3.903a2.313 2.313 0 00.004 3.215l8.86 9.072 8.859-9.072a2.312 2.312 0 00-.002-3.215L15.233.69a2.178 2.178 0 00-3.142.002L9.51 3.335 6.928.689A2.184 2.184 0 005.356.02zM34.56.43h4.897l2.519 9.907L44.673.429h4.716l-5.036 15.332h-4.777L34.559.429zm1.02 9.375c-.26 4.032-2.859 6.385-7.156 6.385-4.777 0-7.695-3.11-7.695-8.084C20.728 3.09 23.666 0 28.323 0c4.337 0 6.895 2.251 7.176 6.222H30.92c-.14-1.555-1-2.374-2.538-2.374-1.88 0-2.818 1.413-2.818 4.258 0 2.784 1.02 4.236 2.957 4.236 1.46 0 2.379-.9 2.52-2.537h4.536zm17.648 1.166c.24 1.147.88 1.556 2.199 1.556 1.159 0 1.8-.43 1.8-1.106 0-.962-.86-1.043-2.64-1.514-2.078-.552-3.417-1.024-4.037-1.475-1.16-.838-1.719-2.026-1.719-3.54C48.83 1.924 51.108 0 55.086 0c3.858 0 6.136 1.74 6.396 4.831h-4.537c-.16-.921-.78-1.351-1.938-1.351-1.02 0-1.52.348-1.52 1.043 0 .82.78.963 2.22 1.351 1.858.492 3.337.799 4.276 1.454 1.32.9 1.919 2.006 1.919 3.582 0 3.336-2.339 5.28-6.676 5.28-4.017 0-6.376-1.944-6.676-5.219h4.677z" fill="#6B6B6B"/></svg>