<svg xmlns="http://www.w3.org/2000/svg" width="104" height="20"><path fill="#6B6B6B" d="M40.464 3.696h2.856v.956c.306-.261 1.296-1.19 3.125-1.19 2.152 0 3.862 1.557 3.862 4.003v6.349H47.29V8.252c0-1.364-.678-2.173-1.906-2.173-1.189 0-1.904.763-1.904 2.173v5.562h-3.016V3.696zm28.735 5.059c0-2.92 2.384-5.294 5.506-5.294 3.12 0 5.504 2.375 5.504 5.294 0 2.918-2.384 5.29-5.504 5.29-3.122 0-5.506-2.372-5.506-5.29zm2.978 0c0 1.397 1.065 2.547 2.546 2.547 1.482 0 2.549-1.15 2.549-2.547 0-1.399-1.067-2.548-2.55-2.548-1.48 0-2.545 1.15-2.545 2.548zm-44.41.002c0-2.92 2.385-5.295 5.504-5.295 3.123 0 5.507 2.375 5.507 5.295 0 2.917-2.384 5.288-5.507 5.288-3.12 0-5.504-2.371-5.504-5.288zm2.978-.001c0 1.398 1.065 2.548 2.547 2.548 1.483 0 2.548-1.15 2.548-2.548 0-1.4-1.065-2.548-2.548-2.548-1.482 0-2.547 1.148-2.547 2.548zm64.098-6.181h3.058V0h-3.058v2.575zm0 11.239h3.058V3.696h-3.058v10.118zm5.416 0h3.06V0h-3.06v13.814zm-15.382 0h-2.9V0h2.933v4.499c.146-.105 1.096-1.038 3.172-1.038 2.715 0 4.98 2.286 4.98 5.296 0 3.003-2.413 5.29-5.015 5.29-1.98 0-2.924-.853-3.137-1.012l-.033.779zm5.087-5.065c0-1.423-1.1-2.527-2.574-2.527-1.464 0-2.589 1.094-2.589 2.535 0 1.423 1.11 2.527 2.586 2.527 1.462 0 2.577-1.108 2.577-2.535zM9.98 13.814h3.537l3.18-4.007 1.982 1.97-4.537 5.569h3.55l2.905-3.692 5.468 5.457h4.285l-7.859-7.749 6.19-7.666h-3.553l-4.573 5.758-1.98-1.95 5.088-6.283h-3.542l-3.475 4.383-1.887-1.908h-4.226L14.79 7.91l-4.81 5.904zM0 0v13.814h9.278v-2.578H3.157v-3.3h5.847V5.437H3.157V2.574h6.121V0H0zm52.723 0v13.814h2.969V3.384h.134l2.555 10.43h3.334l2.614-10.43h.135v10.43h2.968V0h-4.847l-2.413 10.082h-.108L57.711 0h-4.988z"/></svg>