<svg xmlns="http://www.w3.org/2000/svg" width="78" height="30"><g fill="none" fill-rule="evenodd"><path fill="#6B6B6B" d="M38.701 29.572c21.184 0 38.357-6.57 38.357-14.694 0-8.125-17.173-14.72-38.357-14.72C17.493.158.32 6.753.32 14.878c0 8.124 17.174 14.694 38.382 14.694"/><path fill="#FFFFFE" d="M38.701 28.068C18.36 28.068 1.83 22.2 1.83 14.878c0-7.297 16.53-13.24 36.872-13.24 20.391 0 36.898 5.943 36.898 13.24 0 7.322-16.507 13.19-36.898 13.19"/><path fill="#6B6B6B" d="M38.701 27.04c19.723 0 35.734-5.442 35.734-12.162 0-6.695-16.01-12.137-35.734-12.137-19.748 0-35.71 5.442-35.71 12.137 0 6.72 15.962 12.162 35.71 12.162"/><path fill="#FFFFFE" d="M48.056 17.31c1.682-1.605 2.622-3.285 5.047-3.26 1.46.026 1.832 1.204 2.08 1.706l3.192-5.467h1.955l-5.296 9.503c-.1.201-.346.577-.322.878.05.477.644.351.421.351 1.064-.05 3.019-2.106 3.489-2.608.1-.125.273-.35.372-.35.098 0 .296.1.296.25 0 .1-.223.477-.395.702-.99 1.254-2.624 3.185-4.48 3.235-.915 0-1.262-.376-1.385-1.103-.421.376-1.857 1.028-3.316 1.028-1.213-.025-1.708-.752-1.956-1.33-.222-.476-.321-1.178-.148-1.88-.668.351-1.287.401-2.178.376-1.04-.025-1.682-.501-2.004-1.73-1.188 2.207-1.237 2.282-2.45 4.589h-2.104l2.698-4.639c.346-.627.52-1.129.643-1.655.074-.3-.148-.577-.47-.602-.347 0-.915.35-1.46.878 0 0-1.386 1.504-2.4 3.034-.966 1.454-2.624 3.11-4.43 3.11-1.312 0-2.5-.728-2.747-2.132 0 0-.124.326-1.287 1.003-.099.05-.346.2-.42.15-.223-.2-.347-.451-.372-.626.074.024.223-.101.693-.477.916-.702 1.114-1.254 1.114-1.254.223-.476.619-1.229.89-1.755.743-1.504 2.03-3.034 4.133-3.11.347 0 .446.151.52.276.198.15.124.452.124.452-1.485.225-2.5 1.103-3.118 1.956-.371.551-.768 1.454-.842 2.106-.148 1.129.372 1.88 1.139 2.056 1.435.226 2.623-.827 3.563-2.457.248-.426.421-1.53.421-2.132 0-.602-.322-1.228-.57-1.479 0-.426.273-.702.594-.702.1 0 .199 0 .297.1.496.501.767 1.455.767 2.181 0 .251 0 .502-.049.753 1.04-1.279 2.351-2.934 3.365-3.26.2-.1.397-.1.595-.1 1.856-.05 1.608 1.654 1.608 1.654.99-1.153 1.683-1.579 2.598-1.529.99.05 1.337.753 1.337 1.304-.025.652-.495 1.404-1.311 1.43-.718 0-1.139-.352-1.362-1.003-.47.175-.692.5-.791 1.153-.149.827.47 1.48 1.261 1.48 1.361 0 1.956-.603 2.45-1.054M49.54 6.503c0 .802-2.771 2.332-5.122 2.332-3.663 0-7.474-1.78-9.23-2.182-1.906-.451-3.638-.827-5-.827-4.776 0-6.904 2.081-6.805 3.986.05.778.668 1.28 1.584 1.104.99-.176 2.375-1.128 2.722-1.956.074-.175.272-.2.347-.15.148.125.098.3.098.3-.123.978-1.608 3.686-4.182 3.686-1.435 0-2.4-1.354-2.376-2.683.025-2.482 2.525-4.99 8.686-4.99 1.164 0 2.475.1 3.911.351 1.658.302 5.79 1.004 9.156 1.054 1.237 0 2.821.05 4.108-.151 1.36-.226 1.064-.276 1.608-.276.495 0 .495.2.495.402"/><path fill="#6B6B6B" d="M53.203 15.229c-.867-.1-1.955.652-2.846 1.755-.446.552-.916 1.605-.99 2.232-.099.627.074 1.254.297 1.43.223.175 1.213.701 2.747-.878.866-.878 1.707-2.307 1.707-2.307l-.272-.076c.52-.977.42-2.03-.643-2.156"/><path fill="#FFFFFE" d="M35.113 12.27c0 .276.371.501.693.526-.075.276-.05.402-.173.377-.743 0-1.04-.727-1.04-.727-.99.175-1.954.3-3.91.501-4.924 8.074-6.459 9.404-9.478 9.404-2.153 0-4.058-1.43-4.108-3.987-.024-1.555 1.213-3.46 3.514-4.038.273 0 .371.1.371.25 0 .101-.098.226-.321.327-.668.25-1.832 1.58-1.832 2.808 0 .928.57 1.956 1.535 2.182.272.075.52.05.767.05 2.4 0 5.098-2.733 8.018-6.896-.47.025-2.475.25-2.97.828-.222.176-.37.075-.42-.126 0-.05.074-.225.149-.326.791-.902 3.167-1.103 3.736-1.178 2.227-3.46 5.098-5.617 5.692-5.592.098 0 .322.15.222.401-.024.05-.272.326-.37.402-.496.451-2.179 1.554-4.01 4.689 1.485-.076 3.217-.376 3.217-.376s-.099-.327-.099-.603c.074-1.078.693-1.73 1.485-1.604a.877.877 0 01.742.853c0 .426-.321 1.053-.643 1.354a4.59 4.59 0 01-.767.501"/><path fill="#6B6B6B" d="M34.989 11.719s.248.024.619-.402c.148-.15.396-.602.346-.902-.025-.151-.099-.327-.271-.302-.372.076-.595.251-.694.627-.124.402-.074.677 0 .979"/></g></svg>