<svg xmlns="http://www.w3.org/2000/svg" width="100" height="28"><g fill="#436274" fill-rule="evenodd"><path d="M20.67 4.685c.447-.524.738-1.07.738-1.65 0-.971-.805-1.585-1.788-1.585-.916 0-1.676.591-1.821 1.584l-1.34-.323c.256-1.629 1.586-2.655 3.15-2.655 1.754 0 3.15 1.193 3.15 2.967 0 .97-.446 1.852-1.094 2.6-1.296 1.505-1.33 1.561-2.726 3.212h3.854v1.383h-6.212v-.59l4.09-4.943z"/><path d="M16.603 16.99l.012-5.043h10.96c.112.703.168 1.428.168 2.153 0 7.63-6.223 13.844-13.866 13.844C6.235 27.955.011 21.742.011 14.112.011 6.482 6.235.268 13.877.268v4.886c-4.95 0-8.972 4.016-8.972 8.958 0 4.941 4.022 8.957 8.972 8.957 3.933 0 7.296-2.543 8.503-6.08M38 13.51c0-3.649.223-5.132.827-6.025.76-1.115 2.223-1.729 4.134-1.729 1.687 0 3.095.491 3.843 1.372.57.625.805 1.495.805 2.867v.826h-3.095c-.045-1.562-.09-1.84-.313-2.176-.246-.379-.715-.613-1.285-.613-.614 0-1.117.268-1.33.67-.312.624-.402 1.773-.402 4.785 0 2.488.112 3.938.313 4.551.179.513.693.803 1.375.803 1.206 0 1.541-.613 1.642-2.911h3.084c-.023 1.94-.134 2.733-.548 3.492-.57 1.093-2.067 1.706-4.223 1.706-2.514 0-4.034-.926-4.536-2.71-.19-.726-.291-2.477-.291-4.909z"/><path fill-rule="nonzero" d="M49.385 5.99h4.794c2.301 0 2.715.09 3.52.737.714.59 1.072 1.561 1.072 3 0 1.205-.246 2.131-.715 2.756-.402.546-.894.78-1.944 1.015 2 .245 2.692 1.182 2.715 3.692 0 .402.045 1.228.09 2.254.044.714.066.848.245 1.472h-3.296c-.134-.97-.134-.992-.134-2.822 0-1.796-.134-2.688-.492-3.09-.246-.268-.514-.335-1.307-.335h-1.497v6.258h-3.05V5.99zm4.302 6.47c1.397 0 1.9-.59 1.9-2.152 0-.826-.224-1.495-.593-1.819-.268-.223-.469-.267-1.229-.267h-1.352v4.239h1.274zm7.028.971c0-3.48.157-4.685.76-5.734.715-1.283 2.201-1.94 4.313-1.94 2.335 0 3.921.87 4.536 2.51.313.802.447 2.375.447 5.242 0 3.135-.156 4.618-.592 5.466-.715 1.417-2.246 2.176-4.369 2.176-2.123 0-3.587-.647-4.324-1.941-.603-1.038-.77-2.276-.77-5.779zm5.028 5.422c.927 0 1.475-.447 1.665-1.328.112-.569.2-2.51.2-4.596 0-2.242-.11-3.558-.334-4.094-.201-.49-.782-.803-1.52-.803-.849 0-1.441.38-1.609 1.026-.156.625-.246 2.175-.246 4.552 0 1.974.067 3.268.18 3.893.167.903.714 1.35 1.664 1.35z"/><path d="M71.777 5.99h3.117l1.017 5.444c.357 1.975.447 3.77.614 7.207.626-4.574.827-5.846 1.117-7.207l1.185-5.444h3.497l1.117 5.444c.514 2.488.626 4.172.782 7.207.202-2.533.403-4.384.894-7.207l.972-5.444h2.738L85.81 20.927h-3.385l-1.42-6.938c-.245-1.205-.547-4.027-.614-5.556-.447 3.358-.47 3.838-.827 5.556l-1.452 6.938h-3.464L71.777 5.99z"/><path fill-rule="nonzero" d="M90.156 5.99h4.18c2.424 0 3.161.134 3.921.67.95.691 1.419 1.896 1.62 4.261.067.926.112 2.108.112 3.157 0 2.689-.19 4.005-.626 4.886-.626 1.26-2.067 1.975-3.922 1.975h-5.273L90.156 5.99zm4.459 12.584c1.072 0 1.664-.246 1.877-.803.223-.592.29-1.45.29-3.894 0-2.666-.09-3.837-.335-4.573-.224-.625-.827-.97-1.754-.97h-1.397v10.24h1.319z"/><path d="M32 0h1v28h-1z"/></g></svg>