<svg xmlns="http://www.w3.org/2000/svg" width="44" height="44"><g fill="none" fill-rule="evenodd"><path fill="#FFF" d="M21.71 43.391c11.994 0 21.714-9.712 21.714-21.694C43.424 9.717 33.704 0 21.71 0 9.72 0 0 9.716 0 21.697 0 33.68 9.72 43.391 21.71 43.391"/><path fill="#6B6B6B" fill-rule="nonzero" d="M26.582 16.047c0-2.467 1.672-4.86 2.584-4.41 1.04.521-.78 2.845-2.584 4.41m-11.365.899c0-1.984 1.958-5.753 3.155-5.354 1.414.47-1.172 4.272-3.155 5.354M13.23 31.132c-.9.04-1.503-.535-1.503-1.496 0-2.581 3.585-5.047 6.292-6.371-.48 3.604-1.699 7.728-4.79 7.867m16.54-8.412c-2.045 0-3.608 1.503-3.608 3.305 0 1.503.904 2.704 2.103 2.704.425 0 .845-.241.845-.778 0-.785-1.037-.974-.96-2.142.053-.77.78-1.286 1.501-1.286 1.442 0 2.116 1.397 2.116 2.837-.058 2.226-1.698 3.771-3.619 3.771-2.527 0-4.15-2.402-4.15-4.986 0-3.849 2.527-5.35 3.85-5.71.013 0 3.459.612 3.351-.905-.05-.668-1.043-.925-1.76-.952-.799-.031-1.605.256-1.605.256-.419-.213-.71-.628-.89-1.106 2.467-1.865 4.211-3.667 4.211-5.71 0-1.082-.723-2.043-2.106-2.043-2.467 0-4.331 3.125-4.331 5.95 0 .479 0 .961.124 1.381-1.565 1.14-2.729 1.852-4.832 3.114 0-.263.055-.943.232-1.821.72-.782 1.71-1.954 1.71-2.856 0-.42-.238-.782-.723-.782-1.201 0-2.101 1.805-2.342 3.067-.542.664-1.625 1.505-2.529 1.505-.72 0-.962-.661-1.023-.903 2.286-.782 5.113-3.907 5.113-6.732 0-.6-.241-1.923-2.044-1.923-2.707 0-4.99 4.028-4.99 7.15-.965 0-1.324-1.02-1.324-1.803 0-.782.3-1.56.3-1.803 0-.24-.12-.54-.482-.54-.9 0-1.442 1.202-1.442 2.584.062 1.924 1.324 3.129 3.007 3.247.24 1.143 1.262 2.225 2.524 2.225.783 0 1.745-.24 2.407-.84-.059.42-.117.782-.18 1.14-2.647 1.385-4.572 2.346-6.316 3.908-1.38 1.264-2.163 2.945-2.163 4.266 0 1.805 1.142 3.487 3.487 3.487 2.765 0 4.872-2.223 5.896-5.29.48-1.44.671-3.539.795-5.465 2.763-1.565 4.074-2.466 5.519-3.49.18.3.361.54.6.72-1.262.662-4.27 2.526-4.27 6.912 0 3.125 2.104 6.612 6.257 6.612 3.427 0 5.772-2.826 5.772-5.531 0-2.462-1.384-4.744-4.032-4.744m10.341 5.163c-.009.018-.042.043-.11.021-.054-.018-.065-.043-.065-.078.002-.033.726-2.173.72-4.624-.006-2.65-1.082-4.273-2.462-4.273-.844 0-1.445.603-1.445 1.507 0 1.622 1.983 1.743 1.983 5.288 0 1.44-.3 2.823-.779 4.325-2.228 7.511-9.324 10.998-16.238 10.998-3.189 0-5.454-.655-6.128-.957-.027-.016-.053-.068-.03-.121.014-.04.061-.071.089-.059.273.106 2.218.717 4.625.717 2.645 0 4.21-1.08 4.21-2.405 0-.84-.662-1.502-1.503-1.502-1.624 0-1.747 2.043-5.234 2.043-1.503 0-2.827-.3-4.39-.782-7.46-2.283-11.01-9.313-11.008-16.284.003-3.397.956-6.102.971-6.127.013-.017.055-.037.107-.017.054.017.065.06.062.077-.086.281-.717 2.22-.717 4.625 0 2.646 1.082 4.207 2.465 4.207.78 0 1.442-.6 1.442-1.44 0-1.626-1.986-1.805-1.986-5.292 0-1.503.303-2.826.782-4.387C7.758 5.891 14.796 2.398 21.713 2.344c3.214-.025 6.026.937 6.134 1.023.019.016.037.056.019.105-.026.059-.063.065-.081.061-.034-.002-1.863-.767-4.631-.767-2.586-.002-4.21 1.08-4.21 2.464 0 .78.603 1.44 1.502 1.44 1.625 0 1.745-1.981 5.235-1.981 1.5 0 2.824.297 4.387.78 7.52 2.283 10.942 9.374 11.006 16.228.036 3.509-.954 6.164-.964 6.186M21.714 1.023c-11.428 0-20.69 9.252-20.69 20.674 0 11.418 9.262 20.67 20.69 20.67 11.424 0 20.686-9.252 20.686-20.67 0-11.36-9.262-20.674-20.686-20.674m0 42.368C9.744 43.391 0 33.716 0 21.697 0 9.734 9.745 0 21.714 0c11.965 0 21.71 9.734 21.71 21.697 0 12.019-9.745 21.694-21.71 21.694"/></g></svg>