<svg xmlns="http://www.w3.org/2000/svg" width="44" height="44"><path fill="#6B6B6B" d="M21.747 43.376c-.215 0-.43-.004-.644-.01L25.53 31.21h6.092c1.07 0 2.244-.822 2.61-1.825L39.033 16.2c.786-2.158-.451-3.923-2.75-3.923h-8.451L20.74 31.75h-.003l-4.02 11.039C7.18 40.523.085 31.955.085 21.73.085 11.8 6.776 3.434 15.9.884l-4.15 11.394h-.001l-6.896 18.93 4.59.001 5.865-16.087h3.45L12.895 31.21l4.589.001 5.465-15.009c.787-2.158-.45-3.923-2.747-3.923h-3.859L20.773.108c.323-.014.648-.023.974-.023 11.963 0 21.662 9.691 21.662 21.646 0 11.954-9.699 21.645-21.662 21.645zm13.106-28.265h-3.449l-4.83 13.243h3.449l4.83-13.243z"/></svg>