<svg xmlns="http://www.w3.org/2000/svg" width="57" height="24"><path fill="#6B6B6B" d="M.148.124v1.574h11.018V.124H.148zm12.579 0v1.574h15.7S26.825.124 24.7.124H12.727zm18.78 0v1.574h9.5L40.443.124h-8.935zm16.31 0l-.564 1.574h9.412V.124h-8.848zM.148 3.184V4.76h11.018V3.185H.148zm12.579.003v1.572H30.25s-.205-1.212-.562-1.572H12.727zm18.78 0v1.572h10.541l-.522-1.572H31.508zm15.182 0l-.522 1.572h10.499V3.187h-9.977zM3.315 6.246v1.576h4.771V6.246H3.315zm12.578 0v1.576h4.772V6.246h-4.772zm9.413 0v1.576h4.771s.303-.833.303-1.576h-5.074zm9.368 0v1.576h8.46l-.564-1.576h-7.896zm10.976 0l-.566 1.576h8.501V6.246H45.65zM3.315 9.309v1.574h4.771V9.309H3.315zm12.578 0v1.574h12.188s1.02-.808 1.344-1.574H15.893zm18.781 0v1.574h4.772v-.877l.303.877h8.74l.325-.877v.877h4.772V9.309h-8.957l-.476 1.333-.477-1.333h-9.002zm-31.36 3.06v1.575h4.772v-1.575H3.315zm12.58 0v1.575h13.531c-.325-.764-1.344-1.575-1.344-1.575H15.893zm18.78 0v1.575h4.772v-1.575h-4.772zm5.639 0l.576 1.575h6.554l.548-1.575h-7.678zm8.5 0v1.575h4.773v-1.575h-4.772zM3.316 15.43v1.575h4.771V15.43H3.315zm12.578 0v1.575h4.772V15.43h-4.772zm9.413 0v1.575h5.074c0-.743-.303-1.575-.303-1.575h-4.771zm9.368 0v1.575h4.772V15.43h-4.772zm6.722 0l.56 1.575h4.393l.564-1.575h-5.517zm7.418 0v1.575h4.772V15.43h-4.772zM.234 18.491v1.576h11.018v-1.576H.234zm12.493 0v1.576h16.961c.357-.36.562-1.576.562-1.576H12.727zm18.867 0v1.576h7.852v-1.576h-7.852zm10.888 0l.574 1.576h2.236l.54-1.576h-3.35zm6.332 0v1.576h7.937v-1.576h-7.937zM.234 21.554v1.574h11.018v-1.574H.234zm12.493 0v1.572H24.7c2.124 0 3.728-1.572 3.728-1.572H12.727zm18.867 0v1.574h7.852v-1.574h-7.852zm11.978 0l.552 1.57.095.002.562-1.572h-1.21zm5.242 0v1.574h7.937v-1.574h-7.937z"/></svg>