<svg xmlns="http://www.w3.org/2000/svg" width="104" height="24" viewBox="0 0 104 24"><path fill="#E8501F" d="M8.371 4.443c4.415 0 6.442 2.653 6.442 7.645 0 4.534-2.099 7.549-6.442 7.549-1.545 0-2.904-.458-3.96-1.218l-.237-.181-.049.048.044 4.306a.636.636 0 01-.372.584l-.1.036-2.9.767a.636.636 0 01-.787-.499L0 23.364V5.353c0-.312.225-.57.52-.625l.115-.01h2.153c.244 0 .463.14.569.353l.038.095.296.965c1.134-1.061 2.582-1.688 4.68-1.688zM30 .113c.312 0 .57.225.625.521l.01.114v18.013c0 .311-.225.57-.52.624l-.115.01h-2.153a.636.636 0 01-.569-.352l-.038-.096-.296-.964c-1.134 1.06-2.582 1.688-4.68 1.688-4.415 0-6.442-2.653-6.442-7.645 0-4.534 2.099-7.549 6.441-7.549 1.546 0 2.905.457 3.96 1.218l.238.18.048-.047-.043-4.306a.636.636 0 01.372-.584l.1-.036 2.9-.767A.632.632 0 0130 .114zm54.946 4.52c4.15 0 6.823 2.362 6.823 6.8l-.008.305a18.9 18.9 0 01-.057.833.634.634 0 01-.632.58h-9.18c.215 2.123 1.646 3.054 4.437 3.054l.535-.003c.78-.011 1.088-.065 2.162-.322.113-.027.25-.074.41-.141a.635.635 0 01.777.24l.056.107.757 1.863a.636.636 0 01-.35.827l-.057.02c-1.984.592-3.581.873-4.79.844-5.653-.134-8.183-2.839-8.183-7.658 0-4.367 2.362-7.349 7.3-7.349zm17.253.074c.28 0 .544.019.788.05l.28.044c.344.067.569.4.503.744l-.02.078-.859 2.607a.634.634 0 01-.757.417l-.2-.045-.084-.015a5.214 5.214 0 00-.844-.062c-2.242 0-3.03 1.503-3.03 3.984v6.26a.634.634 0 01-.634.635h-2.834a.635.635 0 01-.635-.634V5.724c0-.35.285-.635.635-.635h2.097c.31 0 .575.223.626.528l.316 1.858h.072c1.002-1.813 2.624-2.768 4.58-2.768zm-43.546.798l.109.02 2.953.79a.608.608 0 01.444.487l.009.102v11.89a.61.61 0 01-.501.6l-.11.01h-2.953c-.3 0-.55-.216-.6-.5l-.01-.11V6.114a.606.606 0 01.552-.608h.107zM55.936 0a.636.636 0 01.63.718L56.54.83l-.86 2.661a.633.633 0 01-.488.43l-.115.01h-6.51v3.642h6c.318.003.575.23.626.527l.009.114-.025 2.397a.635.635 0 01-.522.618l-.113.01h-5.974v7.522c0 .311-.225.57-.52.624l-.115.01h-2.87a.635.635 0 01-.624-.52l-.01-.114V1.692c0-.88.67-1.602 1.529-1.684L46.121 0h9.815zm-15.72.088a10.373 10.373 0 012.022.197l.077.02a.612.612 0 01.415.664l-.025.107-.425 1.292a.611.611 0 01-.629.418l-.077-.005a8.729 8.729 0 00-.537-.016c-1.673 0-2.323.544-2.384 1.405l-.004.138v.458h3.032c.311 0 .57.225.624.521l.01.114v1.673c0 .312-.224.57-.52.624l-.114.01h-3.032v11.053c0 .311-.225.57-.521.624l-.114.01h-2.88a.635.635 0 01-.625-.52l-.01-.114V7.709h-1.536a.636.636 0 01-.625-.52l-.01-.115V5.401c0-.312.224-.57.52-.624l.115-.01h1.512v-.459c0-2.243 1.689-4.22 5.742-4.22zM72.02 1.993c.056 0 .111.007.165.022l2.881.775c.277.075.47.326.47.613v15.355c0 .35-.284.634-.635.634H72.02a.635.635 0 01-.635-.634V2.628c0-.351.284-.635.635-.635zm-6.679 0c.056 0 .111.007.165.022l2.881.775c.278.075.47.326.47.613v15.355c0 .35-.284.634-.635.634h-2.88a.635.635 0 01-.636-.634V2.628c0-.351.285-.635.635-.635zM23.47 8.023c-2.437 0-3.354 1.181-3.354 4.172 0 3.087.748 4.292 3.354 4.292 1.538 0 2.46-.593 2.908-1.164l.083-.114V9.23c-.555-.7-1.616-1.207-2.991-1.207zM7.165 7.625c-1.538 0-2.46.594-2.908 1.165l-.083.113v5.982c.555.699 1.616 1.205 2.991 1.205 2.437 0 3.354-1.181 3.354-4.172 0-3.087-.748-4.293-3.354-4.293zm77.894.276c-2.123 0-2.982.882-3.173 2.743h6.226c-.047-1.86-1.193-2.743-3.053-2.743zM58.649.51l.11.019 2.95.79a.61.61 0 01.444.488l.008.101v1.663a.61.61 0 01-.66.608l-.108-.018-2.95-.79a.61.61 0 01-.445-.488l-.009-.102V1.119a.61.61 0 01.553-.608L58.65.51z"/></svg>
