<svg xmlns="http://www.w3.org/2000/svg" width="146" height="32" viewBox="0 0 146 32"><path fill="#0777CF" d="M36.144 5.998c1.731 0 3.655.21 5.229.91.14.052.402.209.664.454.053.052.944-.175 2.693-.682a.833.833 0 01.997.437l.052.14.612 2.028a.862.862 0 01-.454.997l-.14.052-1.26.333c.106.664.158 1.189.158 1.556 0 3.725-2.29 6.138-8.516 6.138-1.014 0-2.028-.07-3.007-.228-.49.228-.752.56-.752.945 0 .454.35.734 1.189.856l.245.035 5.613.228c5.385.227 7.239 2.08 7.239 5.053 0 4.04-2.973 6.593-10.37 6.593-6.487-.018-9.057-2.361-9.057-5.404 0-1.206.56-2.308 1.59-3.13-.873-.682-1.503-1.66-1.503-2.972 0-1.33.787-2.64 2.64-3.498-1.503-.909-2.413-2.378-2.413-4.634 0-3.532 2.291-6.207 8.551-6.207zm-3.287 18.395c-.595.42-.857.98-.857 1.434 0 1.277 1.067 1.924 3.83 1.994h.384c4.494.017 5.578-.7 5.578-1.766 0-.77-.49-1.19-2.588-1.364l-.682-.035-5.665-.263zM106.002 5.91c6.925 0 9.862 3.48 9.862 10.3s-2.937 10.247-9.862 10.247c-6.89 0-9.897-3.41-9.897-10.247s3.008-10.3 9.897-10.3zm-97.486.053c1.783 0 3.567.262 5.21.734l.525.158c.403.14.647.542.577.944l-.035.157-.891 2.57a.757.757 0 01-.752.508l-.14-.018-.35-.087c-1.539-.35-3.182-.525-4.371-.525-1.854 0-2.903.595-2.903 1.54 0 2.832 10.544.839 10.544 7.798 0 3.847-2.448 6.715-8.55 6.715-2.361 0-4.442-.332-6.226-1.05l-.35-.157a.836.836 0 01-.49-.927l.036-.14.892-2.605a.696.696 0 01.734-.437l.14.035.594.21c1.61.524 3.375.752 4.757.752 2.255 0 3.2-.822 3.2-1.854 0-2.973-10.667-.91-10.667-8.096 0-3.725 2.745-6.225 8.516-6.225zm15.877 1.399c.018.07.035.14.035.21v17.713a.82.82 0 01-.821.822H19.62a.82.82 0 01-.822-.822V8.638c0-.367.245-.7.612-.804l3.987-1.067a.842.842 0 01.996.595zm29.29-1.557l.053.14.716 2.64c1.732-1.38 3.952-2.675 6.296-2.675 4.72 0 7.729 2.798 7.886 7.904v11.454c0 .42-.297.77-.7.84l-.157.017h-3.9a.847.847 0 01-.839-.7l-.017-.157V14.25c0-2.448-1.347-3.497-3.847-3.497-1.4 0-2.92.962-3.83 1.959l-.192.21v12.345c0 .42-.297.77-.7.84l-.157.017h-3.9a.847.847 0 01-.839-.7l-.017-.157V6.855c0-.333.192-.647.49-.787l.14-.053 2.482-.682c.35-.105.717.053.927.333l.105.14zM77.43.297l.104.123 10.3 14.373L87.78.962V.874c.035-.42.385-.734.787-.77h.158L92.52.49c.385.035.7.332.752.717l.018.14v23.92c0 .42-.298.77-.7.84l-.157.018h-2.868a.875.875 0 01-.612-.245l-.105-.123L77.604 8.988l.035 16.297c0 .42-.297.77-.7.84l-.156.017h-3.83a.847.847 0 01-.84-.7l-.017-.157V1.364a.86.86 0 01.63-.822l.14-.035 3.882-.42c.244-.07.49.035.682.21zm40.218 5.63l4.127 1.085c.315.087.56.35.63.665l2.273 12.1.244 1.644.315-1.661 2.396-11.07a.864.864 0 01.857-.681l5.368.087c.402 0 .752.28.822.682l2.325 10.999.245 1.609.28-1.609 2.343-11.856c.07-.35.35-.63.717-.682l3.725-.56a.867.867 0 01.979.718.733.733 0 01-.017.332l-4.32 17.731a.846.846 0 01-.839.647h-5.508a.864.864 0 01-.84-.664l-2.325-10.317-.245-1.731-.367 1.748-2.588 10.317a.847.847 0 01-.84.647h-5.49a.878.878 0 01-.84-.664L116.616 6.96a.862.862 0 01.63-1.032.782.782 0 01.402 0zm-11.646 4.425c-3.182 0-4.389 1.434-4.389 5.823 0 4.424 1.207 5.858 4.39 5.858 3.147 0 4.3-1.47 4.3-5.858 0-4.39-1.136-5.823-4.3-5.823zm-69.788-.315c-2.29 0-3.06.717-3.06 2.308 0 1.819 1.172 2.291 2.938 2.291 2.518 0 3.2-.647 3.2-2.29-.018-1.662-.857-2.309-3.078-2.309zM24.394.612c.017.07.034.14.034.21v2.256a.838.838 0 01-.612.804L19.83 4.949a.828.828 0 01-1.015-.577c-.017-.07-.035-.14-.035-.21V1.906c0-.367.245-.7.612-.804L23.38.035a.827.827 0 011.014.577z"/></svg>
