<svg xmlns="http://www.w3.org/2000/svg" width="102" height="15"><path d="M.252 1.124v12.864h2.832V5.406c0-.39-.035-1.298-.14-2.744.158.909.367 1.66.508 2.262l2.112 9.063h2.903l2.165-9.212c.15-.643.367-1.335.524-2.113-.087.927-.14 1.817-.14 2.687v8.638h3.042V1.124h-4.86L7.54 8.78c-.11.508-.28 1.279-.368 2.354-.052-.945-.168-1.708-.332-2.28l-2.22-7.73H.252v.001zm23.546.044c-.94-.323-1.807-.484-2.601-.484-3.342 0-5.329 1.882-5.329 4.874 0 2.885 2.059 4.84 5.076 4.84 1.137 0 2.13-.143 2.944-.432l-.072-2.42a3.654 3.654 0 01-1.933.538c-1.68 0-2.727-1.02-2.727-2.545 0-1.559.993-2.562 2.582-2.562.596 0 1.21.162 1.843.502l.217-2.31zm2.396-.044v12.864h3.456V8.019l4.073 5.969h4.298l-5.25-6.95 4.763-5.914h-3.867L29.65 6.685v-5.56zm13.092 0v12.864h9.211v-2.484h-5.754V8.575h5.23V6.13h-5.23V3.534h5.549v-2.41zm21.188.149C59.354.958 58.176.81 56.924.81c-3.513 0-5.4 1.464-5.4 4.021 0 1.91 1.103 2.93 3.439 3.763 1.588.575 2.596.741 2.596 1.705 0 .853-.822 1.41-2.205 1.41-.971 0-2.13-.26-3.4-.835l-.3 2.873c1.346.374 2.654.541 3.906.541 3.643 0 5.55-1.56 5.55-4.359 0-1.205-.412-2.076-1.328-2.78-.84-.63-2.055-.964-3.53-1.446-.804-.259-1.197-.666-1.197-1.205 0-.76.785-1.241 2.223-1.241.916 0 1.887.222 2.934.667l.262-2.651zm11.731 0C71.085.958 69.907.81 68.655.81c-3.512 0-5.4 1.464-5.4 4.021 0 1.91 1.103 2.93 3.439 3.763 1.588.575 2.597.741 2.597 1.705 0 .853-.823 1.41-2.205 1.41-.972 0-2.13-.26-3.401-.835l-.299 2.873a14.54 14.54 0 003.905.541c3.644 0 5.55-1.56 5.55-4.359 0-1.205-.411-2.076-1.327-2.78-.84-.63-2.056-.964-3.531-1.446-.804-.259-1.196-.666-1.196-1.205 0-.76.784-1.241 2.224-1.241.916 0 1.887.222 2.933.667l.261-2.651zM81.36.81c-4.017 0-6.446 2.502-6.446 6.746 0 4.245 2.41 6.731 6.447 6.731 4.017 0 6.427-2.487 6.427-6.73 0-4.245-2.41-6.747-6.427-6.747zm0 2.502c1.72 0 2.952 1.575 2.952 4.207 0 2.65-1.214 4.226-2.951 4.226-1.738 0-2.972-1.576-2.972-4.226s1.253-4.207 2.972-4.207zm8.465-2.188v12.864h3.12V7.204c0-.945-.112-2.224-.355-3.819.243.983.542 1.854.916 2.614l3.905 7.988h4.297V1.124h-3.12V8.41c0 .908.113 1.983.317 3.206-.41-1.334-.747-2.26-1.008-2.78l-3.756-7.71h-4.316zM16.716 11.8h7.07v2.3h-7.07z" fill="#6B6B6B" fill-rule="evenodd"/></svg>