<svg xmlns="http://www.w3.org/2000/svg" width="100" height="21"><g fill="#6B6B6B" fill-rule="evenodd"><path fill-rule="nonzero" d="M35.148 12.496l-.594 1.715h-.05c-.098-.386-.28-.975-.576-1.681l-3.182-8.157H27.63v13h2.061V9.351c0-.505 0-1.076-.016-1.783-.017-.353-.05-.622-.066-.824h.05c.098.505.213.875.296 1.11l3.825 9.486h1.45l3.792-9.57c.082-.219.165-.656.247-1.026h.05c-.05.959-.083 1.817-.1 2.338v8.24h2.194V4.34h-3l-3.265 8.157zm8.342-4.49h2.143v9.317H43.49V8.006zm1.088-3.936c-.363 0-.66.135-.907.37s-.38.538-.38.908c0 .353.133.656.38.892.247.235.544.353.907.353a1.3 1.3 0 00.907-.353c.247-.236.379-.539.379-.892s-.132-.656-.38-.908c-.214-.235-.527-.37-.906-.37zm8.655 3.851a5.865 5.865 0 00-1.204-.134c-.972 0-1.862.219-2.604.656-.742.437-1.336 1.043-1.715 1.8-.396.773-.593 1.664-.593 2.69 0 .892.197 1.682.577 2.405.379.707.906 1.278 1.615 1.665.676.387 1.467.589 2.358.589 1.022 0 1.896-.219 2.588-.622l.017-.017v-2.018l-.083.067a3.66 3.66 0 01-1.039.555 3.134 3.134 0 01-1.022.202c-.857 0-1.533-.253-2.01-.808-.496-.538-.743-1.278-.743-2.203 0-.958.247-1.715.759-2.27.51-.555 1.187-.841 2.01-.841.693 0 1.402.235 2.045.706l.083.068V8.275l-.017-.017c-.28-.118-.593-.252-1.022-.337zm7.072-.067c-.527 0-1.022.168-1.45.522-.363.302-.61.74-.825 1.26h-.016v-1.63H55.87v9.317h2.143v-4.76c0-.807.165-1.48.527-1.967.363-.505.825-.757 1.385-.757.198 0 .396.05.643.084.23.067.396.134.511.218l.083.068V8.022l-.05-.016c-.148-.101-.445-.152-.808-.152zm5.836-.05c-1.5 0-2.703.454-3.544 1.345-.857.892-1.27 2.12-1.27 3.667 0 1.446.43 2.623 1.253 3.48.825.842 1.946 1.28 3.347 1.28 1.467 0 2.638-.455 3.479-1.363.857-.908 1.269-2.12 1.269-3.616 0-1.48-.396-2.657-1.204-3.515-.774-.858-1.912-1.278-3.33-1.278zm1.715 7.164c-.396.522-1.022.774-1.797.774-.775 0-1.401-.252-1.847-.807-.445-.522-.659-1.279-.659-2.237 0-.992.23-1.75.66-2.287.445-.539 1.055-.808 1.83-.808.758 0 1.351.253 1.78.774.429.521.66 1.278.66 2.27-.034 1.01-.215 1.8-.627 2.321zm7.6-3.094c-.676-.286-1.105-.505-1.303-.69-.164-.168-.247-.403-.247-.706 0-.252.1-.505.346-.673.248-.168.528-.252.94-.252.363 0 .742.067 1.105.168.362.1.692.252.956.454l.082.067V8.191l-.05-.017a5.86 5.86 0 00-.972-.286 6.482 6.482 0 00-1.055-.101c-1.022 0-1.863.252-2.522.807-.66.522-.973 1.228-.973 2.052 0 .437.066.824.214 1.144.149.32.363.622.66.874.297.236.725.505 1.319.757.494.219.873.387 1.104.521.231.135.38.286.495.404a.971.971 0 01.132.521c0 .623-.462.925-1.402.925-.362 0-.742-.067-1.187-.218a4.553 4.553 0 01-1.203-.623l-.083-.067v2.136l.05.017c.313.151.692.252 1.154.37.462.084.874.151 1.236.151 1.105 0 2.012-.252 2.655-.807.659-.538 1.005-1.228 1.005-2.12 0-.621-.165-1.176-.527-1.597a6.659 6.659 0 00-1.93-1.16zm8.11-4.07c-1.5 0-2.703.454-3.544 1.345-.84.892-1.269 2.12-1.269 3.667 0 1.446.429 2.623 1.253 3.48.824.842 1.945 1.28 3.347 1.28 1.467 0 2.637-.455 3.478-1.363.857-.908 1.27-2.12 1.27-3.616 0-1.48-.396-2.657-1.204-3.515-.775-.858-1.912-1.278-3.33-1.278zm1.699 7.164c-.396.522-1.022.774-1.797.774-.791 0-1.401-.252-1.846-.807-.446-.522-.66-1.279-.66-2.237 0-.992.23-1.75.66-2.287.445-.539 1.055-.808 1.83-.808.741 0 1.351.253 1.78.774.429.521.66 1.278.66 2.27 0 1.01-.215 1.8-.627 2.321zm14.293-5.163v-1.8h-2.16V5.248l-.065.017-2.045.622-.05.017v2.103h-3.23V6.828c0-.538.132-.958.362-1.228.231-.269.577-.403 1.006-.403.297 0 .61.067.956.218l.083.051v-1.9l-.05-.017c-.297-.101-.692-.169-1.203-.169-.643 0-1.204.152-1.715.404-.51.286-.89.673-1.17 1.194a3.496 3.496 0 00-.429 1.733v1.295h-1.5v1.782h1.5v7.535h2.16V9.805h3.23v4.793c0 1.968.908 2.96 2.721 2.96.297 0 .61-.05.907-.1a2.92 2.92 0 00.676-.22l.016-.016v-1.8l-.082.068a1.38 1.38 0 01-.445.201c-.165.05-.314.068-.429.068-.429 0-.725-.101-.94-.353-.197-.236-.296-.623-.296-1.195V9.805h2.192z"/><path d="M0 0h9.733v9.726H0zm11.23 0h9.733v9.726H11.23zM0 11.222h9.733v9.725H0zm11.23 0h9.733v9.725H11.23z"/></g></svg>