<svg xmlns="http://www.w3.org/2000/svg" width="107" height="32"><g fill="none" fill-rule="evenodd"><path fill="#0B2639" d="M.019 9.152c.025-.094.061-.189.078-.285.218-1.275 1.275-2.193 2.554-2.216H18.06a52.251 52.251 0 00-7.25 8.702c-.038-.097-.066-.165-.091-.234-.537-1.432-1.072-2.866-1.61-4.297-.066-.174-.142-.341-.218-.51-.205-.457-.55-.682-1.051-.673-.528.008-1.057.002-1.585.002H4.198c1.122 2.492 1.974 5.062 2.697 7.675a72.977 72.977 0 011.714 7.95c-.065.004-.12.012-.173.012-1.338 0-2.678-.01-4.016.005a2.631 2.631 0 01-2.602-2.159c-.087-.469-.13-.947-.19-1.42l-.324-2.506c-.09-.701-.18-1.402-.268-2.103L.755 14.91c-.091-.707-.18-1.415-.27-2.124l-.278-2.143c-.038-.29-.072-.581-.11-.87-.006-.043.017-.123-.078-.106v-.514zM4.88 32c-.06-.028-.118-.066-.181-.081a2.62 2.62 0 01-2.025-2.65c.034-1.262.932-2.325 2.173-2.527 1.56-.253 2.796.853 3 2.165.22 1.415-.639 2.699-2.013 3.014-.08.019-.156.051-.235.079h-.718zm9.851 0c-.07-.028-.135-.066-.207-.081-1.197-.27-2.042-1.355-2.032-2.607.011-1.224.876-2.291 2.053-2.544 1.47-.317 2.9.654 3.128 2.16a2.62 2.62 0 01-1.976 2.986c-.085.02-.167.056-.25.086h-.716zm3.418-6.728h-6.358c.002-.534 1.834-5.178 2.85-7.25a52.315 52.315 0 013.924-6.716 51.809 51.809 0 014.89-6.066A50.123 50.123 0 0129.168.013c-5.91 7.414-9.596 15.822-11.019 25.26z"/><path fill="#0B2639" fill-rule="nonzero" d="M35.837 25.218h-2.41l-.473-3.791h-.186c-.83 0-1.664-.004-2.494.002-.672.004-1.332.094-1.956.373-.722.324-1.293.834-1.737 1.485-.226.333-.414.695-.607 1.05-.154.288-.29.586-.435.884h-2.473c.027-.06.05-.118.08-.17l6.193-10.88c.322-.563.698-1.088 1.17-1.538a3.49 3.49 0 012.405-.993c.459-.01.915-.004 1.374-.006.04 0 .08.006.118.009.207 1.161 1.446 12.907 1.431 13.575zm-3.64-11.177c-.25.099-.389.266-.503.457-1.072 1.768-2.141 3.536-3.213 5.306-.034.058-.065.118-.101.185h4.422c-.201-1.987-.402-3.957-.605-5.948zm68.407 11.186h-4.788a3.657 3.657 0 01-1.5-.294c-.662-.293-1.102-.799-1.37-1.468-.17-.42-.267-.86-.292-1.31a11.616 11.616 0 01.706-4.704c.222-.602.558-1.136 1.048-1.556.47-.4 1.019-.622 1.615-.737a6.764 6.764 0 011.281-.114c.83-.002 1.661 0 2.52 0 .184-1.14.33-2.283.51-3.431h2.354c-.693 4.54-1.389 9.07-2.084 13.614zM99.6 16.823h-.218c-.634 0-1.266.009-1.9-.002-.713-.01-1.241.304-1.62.902-.19.302-.323.63-.43.971-.223.71-.335 1.443-.417 2.18-.049.44-.07.88-.004 1.322.095.628.382 1.207 1.287 1.237.725.024 1.45.013 2.175.017.019 0 .04-.01.074-.023.347-2.187.698-4.381 1.053-6.604zM38.676 28.644h-2.32c-.024-.19 1.861-12.644 2.058-13.606.023-.005.049-.018.074-.018 1.655 0 3.312-.008 4.967.011.645.007 1.252.191 1.774.596.537.42.83.997.993 1.648.157.628.19 1.27.152 1.914-.06.993-.215 1.97-.488 2.928-.171.6-.406 1.17-.771 1.678-.489.678-1.155 1.07-1.951 1.258-.461.11-.933.146-1.404.146-.782.002-1.564 0-2.346 0h-.235c-.169 1.158-.336 2.291-.503 3.445zm1.795-11.853l-1.057 6.614c.023.009.036.02.048.02.746 0 1.495.012 2.24-.007.512-.013.935-.24 1.263-.643.232-.283.4-.604.518-.95a9.99 9.99 0 00.54-3.532 2.365 2.365 0 00-.094-.568c-.138-.488-.457-.795-.954-.887a3.104 3.104 0 00-.545-.045c-.585-.006-1.169-.002-1.754-.002h-.205zm7.867-1.758c.045-.006.066-.01.087-.01 1.642 0 3.283 0 4.925.006.389.002.77.084 1.135.22.816.312 1.321.918 1.592 1.743.198.603.262 1.228.245 1.859-.028 1.11-.2 2.2-.501 3.27-.123.44-.29.864-.51 1.265-.49.894-1.234 1.442-2.215 1.67a6.196 6.196 0 01-1.403.145c-.776.002-1.55 0-2.325 0h-.254c-.17 1.15-.334 2.29-.503 3.438h-2.357c.693-4.537 1.389-9.066 2.084-13.606zm1.006 8.387c.797 0 1.57.02 2.344-.006.554-.02.986-.309 1.307-.763.203-.285.346-.603.463-.933.215-.621.327-1.268.42-1.918.068-.467.108-.937.09-1.408a2.417 2.417 0 00-.172-.855c-.15-.35-.406-.585-.774-.667a3.292 3.292 0 00-.647-.077c-.598-.01-1.196-.004-1.796-.002-.055 0-.108.006-.176.01-.355 2.204-.706 4.4-1.059 6.62zm18.02 1.865c-.471-.004-1.084-.009-1.686-.144-.408-.09-.8-.227-1.148-.465-.571-.39-.865-.962-1.01-1.622-.117-.525-.149-1.061-.117-1.597.061-1.093.235-2.17.537-3.222.146-.507.338-.996.602-1.455.537-.936 1.345-1.474 2.387-1.665.949-.174 1.909-.16 2.864-.112a5.24 5.24 0 011.06.176c1.109.29 1.74 1.04 1.965 2.165.14.7.135 1.406.072 2.111-.074.81-.203 1.614-.415 2.4a6.787 6.787 0 01-.604 1.548c-.543.98-1.372 1.541-2.452 1.745-.634.113-1.273.128-2.055.137zm.229-1.856c.323-.032.613-.043.894-.095.581-.102 1.033-.411 1.3-.951a5.65 5.65 0 00.357-.932c.2-.708.3-1.437.38-2.165.045-.418.068-.838.009-1.26-.089-.644-.442-1.023-1.065-1.12a5.622 5.622 0 00-1.598-.002c-.603.08-1.055.384-1.317.944a6.092 6.092 0 00-.334.898c-.214.754-.328 1.532-.417 2.31-.046.412-.076.823-.012 1.237.082.542.361.885.894 1.007.31.073.627.09.909.129zm17.502-1.976c.02.325.017.62.065.904.108.626.569 1.027 1.197 1.074.182.013.365.021.547.021 1.197.003 2.395 0 3.592 0h.262l-.332 1.762c-.062.004-.116.013-.171.013h-4.332c-.41 0-.813-.058-1.204-.189-.884-.295-1.431-.923-1.717-1.806a5.37 5.37 0 01-.237-1.775c.026-1.22.21-2.416.58-3.577.101-.318.232-.628.382-.924.51-1.01 1.336-1.593 2.427-1.8.471-.09.947-.13 1.427-.13.528 0 1.057-.001 1.585.003.431.004.856.054 1.266.202.82.293 1.306.883 1.442 1.74.173 1.104-.024 2.158-.503 3.161-.13.27-.309.51-.522.723a1.99 1.99 0 01-1.448.593c-1.345.005-2.691.003-4.036.003-.074.002-.15.002-.27.002zm.175-1.505c.051.009.076.015.104.015.936 0 1.873.004 2.81-.006.612-.007.984-.305 1.16-.898.124-.42.156-.856.147-1.293-.002-.148-.03-.298-.052-.446a.52.52 0 00-.372-.426 1.162 1.162 0 00-.35-.071 25.02 25.02 0 00-1.267.002 1.6 1.6 0 00-1.04.414 2.43 2.43 0 00-.535.71c-.222.426-.357.882-.463 1.347-.049.217-.093.431-.142.652z"/><path fill="#0B2639" d="M75.194 25.22l-1.526-10.163h2.48c.297 2.561.595 5.116.893 7.669l.034.006c.032-.06.064-.12.093-.182 1.156-2.435 2.315-4.867 3.467-7.304.076-.161.165-.21.334-.208.712.008 1.422.004 2.135.004h.24l-5.17 10.179h-2.98zm-16.048.04h-2.357l1.568-10.225h2.345l-.176 1.192c.078-.05.14-.086.197-.126.454-.311.917-.605 1.43-.815a4.76 4.76 0 012.064-.353c.106.006.211.01.338.015-.023.038-.032.07-.053.09-.6.533-1.014 1.198-1.315 1.94-.059.143-.13.188-.276.19a3.792 3.792 0 00-1.283.225c-.884.326-1.415.973-1.567 1.906-.283 1.738-.537 3.48-.803 5.22-.04.239-.074.479-.112.74z"/><path fill="#F78D20" fill-rule="nonzero" d="M92.36 10.367c.302.791.598 1.57.9 2.367h-1.473c-.25-.75-.5-1.511-.757-2.283h-1.128l-.372 2.287h-1.305c.311-2.028.637-4.045.954-6.07.074-.004.137-.009.198-.009h2.767c.254 0 .505.017.753.093.507.154.803.518.852 1.052a3.37 3.37 0 01-.248 1.569c-.192.476-.518.81-1.019.945-.035.009-.065.026-.122.05zm-2.294-.964c.586 0 1.15.006 1.713-.004a.508.508 0 00.463-.292c.152-.313.217-.65.183-.997-.023-.246-.17-.379-.414-.411-.042-.007-.084-.004-.127-.004H90.49c-.048 0-.095.006-.152.01-.093.564-.18 1.12-.27 1.698zM59.74 12.776c-.362-.036-.715-.049-1.06-.109-.775-.133-1.176-.598-1.255-1.389-.065-.67.028-1.324.152-1.978.091-.472.227-.928.438-1.359.397-.814 1.053-1.235 1.936-1.32a7.221 7.221 0 011.581.004c.167.021.334.051.497.099.543.165.867.546.975 1.101.048.251.08.51.076.765-.02.81-.138 1.608-.406 2.373a3.93 3.93 0 01-.26.585 2.084 2.084 0 01-1.566 1.115c-.37.06-.742.077-1.108.113zm.87-5.124l-.454.021c-.558.024-.89.34-1.065.855-.021.06-.047.12-.06.183-.086.417-.179.835-.25 1.256-.058.33-.098.664-.05 1 .058.395.244.598.635.663.372.062.744.062 1.116-.002.378-.065.664-.268.833-.622.067-.141.137-.287.169-.437.095-.461.19-.922.251-1.387a3.92 3.92 0 00.007-.832c-.034-.392-.252-.604-.634-.655-.184-.024-.368-.033-.497-.043z"/><path fill="#F78D20" d="M53.204 9.261l.41-2.59h1.306c-.319 2.03-.636 4.05-.955 6.071h-1.306l.374-2.394c-.776-.017-1.539-.002-2.321-.009-.129.808-.254 1.602-.383 2.401h-1.306l.955-6.066h1.307l-.406 2.59c.776-.003 1.532-.003 2.325-.003zm32.102 2.379l-.175 1.098c-.07.004-.123.01-.178.01-.964 0-1.93.005-2.894-.004a2.216 2.216 0 01-.58-.083c-.462-.133-.694-.489-.641-.973.04-.369.103-.736.16-1.1.133-.853.269-1.704.404-2.557.017-.105.03-.212.057-.315.159-.607.569-.93 1.156-1.046a2.12 2.12 0 01.419-.043c.972-.004 1.945-.002 2.915-.002.042 0 .082.004.152.006l-.178 1.102h-2.597c-.079 0-.157-.002-.233.007-.228.025-.347.124-.389.353-.063.341-.114.684-.173 1.053h2.756c-.061.381-.118.74-.18 1.112h-2.745c-.038.227-.076.442-.11.658-.021.133-.045.268-.049.403-.006.186.072.28.25.31.076.014.154.011.232.011h2.621zm-44.062 1.11l.178-1.075h.23c.713 0 1.423.004 2.135-.005a2.25 2.25 0 00.52-.07c.233-.06.368-.225.402-.47.019-.141.046-.28.061-.424.023-.247-.09-.399-.332-.435-.097-.015-.196-.009-.296-.01-.444-.012-.885-.018-1.33-.033-.09-.002-.181-.026-.27-.047-.581-.144-.886-.532-.881-1.138.002-.41.067-.813.188-1.2.198-.641.657-.995 1.29-1.128.225-.047.46-.073.69-.075.837-.009 1.677-.004 2.514-.004.034 0 .07.004.133.006l-.146 1.076h-.24c-.698 0-1.396-.002-2.094 0-.141 0-.283.004-.42.022-.254.032-.434.169-.493.43a3.173 3.173 0 00-.074.506c-.01.238.093.358.33.386.167.02.338.02.505.021.393.009.79-.006 1.182.026.693.056 1.076.495 1.08 1.205.002.381-.063.754-.16 1.119-.206.763-.732 1.16-1.48 1.273-.207.032-.421.04-.632.043-.782.004-1.565.002-2.345.002h-.245z"/><path fill="#F78D20" fill-rule="nonzero" d="M66.498 6.636c.067-.005.122-.01.177-.01.958 0 1.917-.01 2.875.005.25.005.507.052.744.13.444.143.69.481.746.946a3.134 3.134 0 01-.327 1.805c-.277.551-.736.866-1.336.922-.49.045-.985.034-1.478.045-.224.004-.448 0-.685 0-.129.759-.256 1.502-.382 2.257h-1.307c.324-2.039.647-4.064.973-6.1zm1.147 1.022l-.276 1.75c.027.014.038.027.05.027.514.002 1.028.009 1.543-.002a.63.63 0 00.577-.371c.14-.279.203-.579.184-.892-.02-.321-.194-.49-.515-.51-.134-.008-.269-.002-.402-.002h-1.16zm7.225 2.821c-.13.767-.255 1.509-.384 2.261h-1.27c-.045-.152.893-5.823.955-6.102.05-.004.105-.01.158-.01h2.852c.262 0 .52.036.767.126.414.15.674.448.738.885a2.99 2.99 0 01-.434 2.068c-.276.444-.703.673-1.209.729-.334.036-.674.036-1.01.043-.38.004-.761 0-1.163 0zm.155-1.07c.027.015.04.026.053.026.507.002 1.014.009 1.521 0 .303-.004.518-.165.635-.45.103-.253.16-.517.145-.793-.016-.326-.18-.517-.496-.525-.52-.015-1.04-.005-1.581-.005-.093.588-.184 1.17-.277 1.747z"/><path fill="#0B2639" fill-rule="nonzero" d="M106.987 12.843c.034.793-.642 1.348-1.34 1.337-.767-.013-1.365-.608-1.355-1.367a1.349 1.349 0 011.372-1.329c.725.013 1.368.574 1.323 1.359zm-1.325 1.035c.52.026 1-.44.99-1.048-.011-.598-.432-1.057-.992-1.06-.569-.005-1.015.462-1.015 1.058.002.606.431 1.05 1.017 1.05z"/><path fill="#0B2639" fill-rule="nonzero" d="M106.29 13.52h-.345c-.023-.077-.048-.15-.067-.223-.074-.285-.091-.3-.417-.287v.508h-.321v-1.322c.296-.056.594-.088.886.015.243.085.283.407.086.574-.031.028-.07.047-.118.077.23.152.21.416.296.658zm-.827-.754c.112-.011.21-.009.303-.03.08-.02.128-.082.122-.174-.004-.08-.044-.133-.118-.154-.102-.03-.201-.058-.305.01-.002.101-.002.206-.002.348z"/></g></svg>