<svg xmlns="http://www.w3.org/2000/svg" width="82" height="19"><g fill="#6B6B6B" fill-rule="evenodd"><path d="M79.709.431l-4.453 9.445-1.674-3.579h-1.81l2.753 5.854h1.463l5.52-11.72z"/><path fill-rule="nonzero" d="M64.194 17.968v-6.506c0-1.488.868-2.533 2.158-2.533 1.24 0 1.885.861 1.885 2.103v6.936h3.584v-7.612c0-2.583-1.563-4.403-4.093-4.403-1.612 0-2.74.689-3.584 1.943h-.074V6.297h-3.473l.012 11.671h3.585zM53.565 5.978c-3.745 0-6.25 2.668-6.25 6.185 0 3.493 2.505 6.186 6.25 6.186s6.25-2.693 6.25-6.186c.013-3.517-2.505-6.185-6.25-6.185zm-.025 9.74c-1.699 0-2.604-1.415-2.604-3.555 0-2.164.893-3.554 2.604-3.554 1.7 0 2.642 1.39 2.642 3.554.012 2.14-.93 3.555-2.642 3.555zm-6.375 2.25v-2.804H41.46v-.074l5.457-6.063V6.285h-9.822v2.816h5.519v.074l-5.52 6.112v2.681h10.071zm-14.671 0h3.609V6.298h-3.61v11.67zm-8.372 0h3.597v-5.362c0-2.435 1.476-3.517 3.72-3.21h.075V6.322c-.186-.074-.397-.086-.732-.086-1.401 0-2.344.64-3.15 2.004h-.074V6.297h-3.436v11.671zm-6.598-2.238c-1.587 0-2.555-1.02-2.74-2.595h8.482c.025-2.509-.644-4.513-2.046-5.768-.992-.91-2.294-1.414-3.956-1.414-3.547 0-6.003 2.669-6.003 6.161 0 3.517 2.344 6.198 6.238 6.198 1.476 0 2.642-.393 3.61-1.045 1.029-.7 1.773-1.734 1.971-2.755h-3.447c-.335.763-1.055 1.218-2.109 1.218zm-.186-7.231c1.265 0 2.133.934 2.282 2.3h-4.812c.285-1.378 1.042-2.3 2.53-2.3zm-13.245 9.47h3.77l4.093-11.672h-3.61L6.053 13.8h-.05L3.709 6.297H0l4.093 11.671zm28.4-15.828h3.61v3.173h-3.61V2.14z"/></g></svg>