<svg xmlns="http://www.w3.org/2000/svg" width="109" height="26"><path d="M.544 5.634s2.679 10.891 3.106 12.66c.499 2.062 1.398 2.822 3.99 2.31l1.672-6.753c.424-1.677.708-2.873.98-4.579h.049c.191 1.723.464 2.907.813 4.585 0 0 .68 3.066 1.029 4.676.35 1.61 1.322 2.624 3.861 2.071l3.985-14.969h-3.217l-1.36 6.472c-.367 1.884-.699 3.356-.954 5.08h-.046c-.232-1.707-.528-3.12-.9-4.956l-1.417-6.596H8.783l-1.515 6.43c-.43 1.954-.83 3.531-1.086 5.196h-.046c-.262-1.568-.61-3.55-.987-5.442 0 0-.9-4.599-1.216-6.184H.545zm30.671 0v14.97h3.063V5.633h-3.063zm43.142 0v11.043c0 1.523.289 2.59.907 3.24.54.57 1.428.94 2.493.94.906 0 1.797-.17 2.217-.326l-.04-2.375a4.69 4.69 0 01-1.163.137c-1.044 0-1.394-.663-1.394-2.03v-4.225h2.668V9.174h-2.668v-3.54h-3.02zM24.37 9.104c-1.903 0-3.414.53-4.238 1.003l.603 2.048c.754-.471 1.954-.862 3.09-.862 1.882-.004 2.19 1.056 2.19 1.737v.16c-4.1-.006-6.69 1.402-6.69 4.272 0 1.753 1.318 3.395 3.61 3.395 1.412 0 2.592-.559 3.3-1.454h.069s.468 1.944 3.049 1.2c-.136-.808-.18-1.67-.18-2.71v-3.998c0-2.549-1.096-4.79-4.803-4.79zm18.324 0c-1.917 0-2.778.964-3.3 1.782h-.046V9.358h-2.923v11.246h3.08v-6.595c0-.31.035-.636.144-.92.255-.665.877-1.442 1.871-1.442 1.243 0 1.824 1.043 1.824 2.547v6.41h3.077v-6.675c0-.295.04-.65.128-.912.253-.755.924-1.37 1.848-1.37 1.26 0 1.864 1.025 1.864 2.795v6.162h3.078V13.98c0-3.493-1.787-4.876-3.805-4.876-.893 0-1.598.223-2.236.611-.536.326-1.016.79-1.435 1.4h-.045c-.488-1.211-1.633-2.01-3.124-2.01zm16.91 0c-1.903 0-3.414.53-4.238 1.003l.604 2.048c.753-.471 1.954-.862 3.09-.862 1.88-.004 2.189 1.056 2.189 1.737v.16c-4.1-.006-6.69 1.402-6.69 4.272 0 1.753 1.319 3.395 3.612 3.395 1.41 0 2.591-.559 3.297-1.454h.07s.468 1.944 3.05 1.2c-.136-.808-.18-1.67-.18-2.71v-3.998c0-2.549-1.097-4.79-4.804-4.79zm12.789 0c-1.18 0-2.521.756-3.084 2.375h-.086V9.358H66.45v11.246h3.16v-5.759c0-.31.019-.581.068-.83.234-1.206 1.164-1.977 2.498-1.977.367 0 .629.04.912.08V9.174c-.238-.048-.4-.07-.696-.07zm-46.28 6.08v1.402c0 .208-.017.422-.075.609-.237.78-1.05 1.438-2.068 1.438-.847 0-1.52-.478-1.52-1.488 0-1.545 1.713-1.972 3.664-1.962zm35.235 0v1.402c0 .208-.019.422-.076.609-.237.78-1.05 1.438-2.067 1.438-.848 0-1.522-.478-1.522-1.488 0-1.545 1.714-1.972 3.665-1.962zM96.607.22c-.989 0-1.775.549-1.775 1.216l.601 6.748c.066.407.568.72 1.175.72.608 0 1.108-.314 1.176-.72l.603-6.748c0-.667-.788-1.215-1.778-1.215h-.002zM86.82 5.635c-.513.012-1.096.398-1.467 1.036-.496.85-.408 1.8.172 2.133l6.189 2.86c.387.143.912-.13 1.216-.65.305-.523.282-1.11-.04-1.372l-5.59-3.89a.908.908 0 00-.48-.117zm19.574 0a.906.906 0 00-.479.117l-5.59 3.89c-.32.261-.344.849-.04 1.372.306.52.83.793 1.216.65l6.191-2.86c.583-.333.667-1.283.174-2.133-.373-.638-.957-1.024-1.47-1.036h-.002zm-14.449 8.903a.631.631 0 00-.23.039l-6.189 2.856c-.58.335-.668 1.285-.172 2.136.494.848 1.366 1.252 1.947.919l5.59-3.888c.322-.263.345-.851.04-1.373h.002c-.247-.425-.64-.684-.988-.689zm9.327 0c-.346.005-.74.264-.987.69l.002-.001c-.304.522-.28 1.11.04 1.374l5.59 3.887c.58.333 1.452-.07 1.949-.919.492-.85.409-1.8-.174-2.135l-6.19-2.857a.63.63 0 00-.23-.038zm-4.666 2.797c-.605.001-1.106.313-1.172.719l-.6 6.748c0 .668.785 1.215 1.774 1.215.99 0 1.778-.547 1.778-1.215l-.602-6.748c-.067-.406-.567-.718-1.175-.719h-.003z" fill="#6B6B6B"/></svg>