<svg width="152" height="48" viewBox="0 0 152 48" fill="none" xmlns="http://www.w3.org/2000/svg">
<path d="M26.0089 27.9277C23.5599 30.3533 18.9832 35.4608 18.9832 35.4608C19.2841 35.5002 19.6252 35.4214 20.0265 35.2044C20.8693 34.7509 29.8182 29.9392 35.8979 26.6656C35.8979 26.6656 34.9358 24.9766 34.2254 24.2784C33.5915 23.6554 31.8648 22.7019 31.8648 22.7019C31.8648 22.7019 27.8538 26.1004 26.0089 27.9277Z" fill="#FF3333"/>
<path d="M31.8649 22.7019C31.8649 22.7019 33.8532 21.817 34.5699 21.1091C35.1975 20.4891 35.8979 18.7185 35.8979 18.7185C35.8979 18.7185 20.9295 10.6924 20.0266 10.2191C19.6855 10.0219 19.3042 9.96273 18.9631 10.0219C18.9631 10.0219 22.8072 14.3407 24.8527 16.351C27.1078 18.5673 31.8649 22.7019 31.8649 22.7019Z" fill="#48FF48"/>
<path d="M31.8648 22.7019L18.9631 10.0219C18.4414 10.1402 18 10.5937 18 11.5206C18 12.9996 18 32.7197 18 33.9621C18 34.81 18.3411 35.4213 18.9832 35.4805L31.8648 22.7019Z" fill="#3BCCFF"/>
<path d="M35.8979 26.6657C38.9678 25.0092 41.3154 23.7471 41.5161 23.6485C42.1582 23.3133 42.8203 22.4259 41.5161 21.7357C41.0947 21.5188 38.8274 20.2961 35.8979 18.7185L31.8649 22.702L35.8979 26.6657Z" fill="#FFD400"/>
<path fill-rule="evenodd" clip-rule="evenodd" d="M57.2782 13.5449V14.0849C57.2782 15.0849 56.9575 15.8949 56.3159 16.5149C55.6744 17.1349 54.8458 17.4449 53.8301 17.4449C52.7476 17.4449 51.8505 17.0933 51.1388 16.3899C50.4271 15.6866 50.0713 14.8283 50.0713 13.8149C50.0713 12.7949 50.4238 11.9316 51.1288 11.2249C51.8338 10.5182 52.7075 10.1649 53.7499 10.1649C54.4048 10.1649 55.0029 10.3132 55.5441 10.6099C56.0854 10.9066 56.5064 11.3016 56.8071 11.7949L55.6243 12.4749C55.4573 12.1882 55.205 11.9549 54.8675 11.7749C54.5301 11.5949 54.1542 11.5049 53.7399 11.5049C53.0717 11.5049 52.522 11.7232 52.091 12.1599C51.66 12.5966 51.4445 13.1482 51.4445 13.8149C51.4445 14.4749 51.6634 15.0199 52.1011 15.4499C52.5387 15.8799 53.1184 16.0949 53.8401 16.0949C54.3747 16.0949 54.8174 15.9766 55.1683 15.7399C55.5191 15.5032 55.758 15.1783 55.8849 14.7649H53.7599V13.5449H57.2782ZM59.6437 15.9849H62.6007V17.3049H58.2605V10.3049H62.5506V11.6249H59.6437V13.1149H62.3V14.4149H59.6437V15.9849ZM68.2139 10.3049V11.6249H66.3194V17.3049H64.9362V11.6249H63.0518V10.3049H68.2139ZM71.4916 10.3049H72.8748V17.3049H71.4916V10.3049ZM78.8187 10.3049V11.6249H76.9243V17.3049H75.541V11.6249H73.6566V10.3049H78.8187ZM88.0003 16.3949C87.292 17.0949 86.43 17.4449 85.4143 17.4449C84.3985 17.4449 83.5382 17.0933 82.8332 16.3899C82.1282 15.6866 81.7757 14.8249 81.7757 13.8049C81.7757 12.7849 82.1282 11.9233 82.8332 11.2199C83.5382 10.5166 84.3985 10.1649 85.4143 10.1649C86.43 10.1649 87.292 10.5166 88.0003 11.2199C88.7087 11.9233 89.0628 12.7849 89.0628 13.8049C89.0628 14.8249 88.7087 15.6882 88.0003 16.3949ZM83.8005 15.4549C84.2348 15.8816 84.7727 16.0949 85.4142 16.0949C86.0558 16.0949 86.5937 15.8799 87.028 15.4499C87.4624 15.0199 87.6796 14.4716 87.6796 13.8049C87.6796 13.1382 87.4624 12.5882 87.028 12.1549C86.5937 11.7216 86.0558 11.5049 85.4142 11.5049C84.7727 11.5049 84.2348 11.7216 83.8005 12.1549C83.3661 12.5882 83.1489 13.1382 83.1489 13.8049C83.1489 14.4716 83.3661 15.0216 83.8005 15.4549ZM94.0947 10.3049H95.4779V17.3049H94.4255L91.4184 13.0249V17.3049H90.0352V10.3049H91.0876L94.0947 14.5749V10.3049Z" fill="white"/>
<path fill-rule="evenodd" clip-rule="evenodd" d="M56.3616 26.5346V28.2897H60.6154C60.495 29.2757 60.1539 30.0054 59.6523 30.4984C59.0303 31.1097 58.0672 31.7802 56.3616 31.7802C53.7331 31.7802 51.6865 29.6898 51.6865 27.0868C51.6865 24.4837 53.7331 22.3934 56.3616 22.3934C57.7863 22.3934 58.8096 22.9456 59.572 23.6555L60.8361 22.4131C59.7727 21.4074 58.3481 20.6383 56.3616 20.6383C52.77 20.6383 49.7402 23.5372 49.7402 27.0868C49.7402 30.6364 52.75 33.5353 56.3616 33.5353C58.3079 33.5353 59.7526 32.9042 60.9164 31.721C62.1002 30.5575 62.4614 28.9207 62.4614 27.5995C62.4614 27.1854 62.4212 26.8107 62.3611 26.4952L56.3616 26.5346ZM67.277 25.2528C64.9495 25.2528 63.0634 27.0079 63.0634 29.4137C63.0634 31.7999 64.9495 33.5747 67.277 33.5747C69.6045 33.5747 71.4906 31.8196 71.4906 29.4137C71.4906 27.0079 69.6045 25.2528 67.277 25.2528ZM72.2531 29.4137C72.2531 27.0079 74.1592 25.2528 76.4667 25.2528C78.7942 25.2528 80.6803 27.0079 80.6803 29.4137C80.6803 31.8196 78.7942 33.5747 76.4667 33.5747C74.1392 33.5747 72.2531 31.7999 72.2531 29.4137ZM74.099 29.4137C74.099 30.8928 75.2026 31.9379 76.4667 31.9379C77.7307 31.9379 78.8343 30.8928 78.8343 29.4137C78.8343 27.915 77.7307 26.8896 76.4667 26.8896C75.2026 26.8896 74.099 27.915 74.099 29.4137ZM64.9093 29.4137C64.9093 30.8928 66.0129 31.9379 67.277 31.9379C68.5611 31.9379 69.6446 30.8928 69.6446 29.4137C69.6446 27.915 68.541 26.8896 67.277 26.8896C66.0129 26.8896 64.9093 27.915 64.9093 29.4137ZM97.4546 25.2528C99.6216 25.2528 100.705 26.9685 101.046 27.8953L101.247 28.3686L95.6287 30.6758C96.0501 31.5238 96.7122 31.9379 97.6553 31.9379C98.5983 31.9379 99.2404 31.4844 99.7219 30.7942L101.147 31.7407C100.685 32.4112 99.5815 33.5747 97.6553 33.5747C95.2876 33.5747 93.5018 31.7407 93.5018 29.4137C93.5018 26.929 95.2876 25.2528 97.4546 25.2528ZM95.3277 29.2954C95.2876 27.6981 96.5918 26.8699 97.5148 26.8699C98.2572 26.8699 98.8591 27.2248 99.0798 27.7573L95.3277 29.2954ZM92.6189 33.3183H90.7729V21.1116H92.6189V33.3183ZM87.7432 26.1797H87.683C87.2616 25.6866 86.4791 25.2528 85.4759 25.2528C83.3691 25.2528 81.4629 27.0868 81.4629 29.4137C81.4629 31.7407 83.3891 33.555 85.4759 33.555C86.4791 33.555 87.2616 33.1211 87.683 32.6084H87.7432V33.2C87.7432 34.7973 86.8804 35.6453 85.4959 35.6453C84.3723 35.6453 83.67 34.8368 83.3891 34.1663L81.7839 34.8368C82.2454 35.9411 83.4694 37.3018 85.4959 37.3018C87.6629 37.3018 89.4888 36.0397 89.4888 32.9831V25.5092H87.7432V26.1797ZM83.3088 29.4335C83.3088 30.8928 84.3723 31.9379 85.6364 31.9379C86.8804 31.9379 87.8836 30.873 87.8836 29.4335C87.8836 27.9742 86.8804 26.9093 85.6364 26.9093C84.3723 26.9093 83.3088 27.9742 83.3088 29.4335ZM109.674 21.1116H105.26V33.3183H107.106V28.6841H109.674C111.721 28.6841 113.727 27.2248 113.727 24.8978C113.727 22.5709 111.721 21.1116 109.674 21.1116ZM107.106 26.9882H109.734C111.099 26.9882 111.881 25.8444 111.901 24.8978C111.901 23.9316 111.099 22.8075 109.734 22.8075H107.106V26.9882ZM121.111 25.2331C119.787 25.2331 118.402 25.805 117.84 27.1065L119.466 27.777C119.827 27.1065 120.469 26.8896 121.151 26.8896C122.114 26.8896 123.077 27.4615 123.097 28.4672V28.5855C122.756 28.3883 122.054 28.1122 121.171 28.1122C119.406 28.1122 117.62 29.0785 117.62 30.8533C117.62 32.4901 119.064 33.5353 120.67 33.5353C121.914 33.5353 122.596 32.9831 123.017 32.3323H123.077V33.2789H124.863V28.6052C124.843 26.4557 123.218 25.2331 121.111 25.2331ZM119.446 30.8928C119.446 31.6224 120.288 31.9182 120.89 31.9182C121.954 31.9182 122.937 31.1294 123.077 30.0054C122.576 29.7687 122.195 29.5912 121.392 29.5912C120.489 29.5912 119.446 29.9462 119.446 30.8928ZM131.324 25.5092L129.217 30.7942H129.157L126.97 25.5092H124.984L128.274 32.9042L126.408 37.0257H128.334L133.391 25.5092H131.324ZM116.596 33.3183H114.75V21.1116H116.596V33.3183Z" fill="white"/>
</svg>
