<svg width="152" height="40" viewBox="0 0 152 40" fill="none" xmlns="http://www.w3.org/2000/svg">
<path fill-rule="evenodd" clip-rule="evenodd" d="M0 4C0 1.79086 1.79086 0 4 0H148C150.209 0 152 1.79086 152 4V36C152 38.2091 150.209 40 148 40H4C1.79086 40 0 38.2091 0 36L0 4Z" fill="black"/>
<path fill-rule="evenodd" clip-rule="evenodd" d="M58.3221 12.6556C58.3221 13.1 58.2479 13.508 58.0994 13.8797C57.9509 14.2514 57.7422 14.5714 57.4733 14.8397C57.2044 15.108 56.8808 15.3162 56.5027 15.4643C56.1245 15.6124 55.7057 15.6865 55.2463 15.6865H52.9268V9.62468H55.2463C55.7057 9.62468 56.1245 9.69943 56.5027 9.84895C56.8808 9.99848 57.2044 10.2067 57.4733 10.4736C57.7422 10.7405 57.9509 11.0598 58.0994 11.4315C58.2479 11.8032 58.3221 12.2112 58.3221 12.6556ZM57.1664 12.6572C57.1664 12.3246 57.1216 12.0263 57.032 11.7622C56.9423 11.4981 56.8149 11.2745 56.6496 11.0914C56.4843 10.9084 56.2833 10.7679 56.0466 10.6701C55.8099 10.5723 55.5431 10.5234 55.2461 10.5234H54.0654V14.791H55.2461C55.5431 14.791 55.8099 14.7421 56.0466 14.6443C56.2833 14.5465 56.4843 14.406 56.6496 14.223C56.8149 14.0399 56.9423 13.8163 57.032 13.5522C57.1216 13.2881 57.1664 12.9898 57.1664 12.6572ZM60.9903 11.3164C61.3125 11.3164 61.6045 11.3681 61.8664 11.4715C62.1284 11.5749 62.3518 11.7216 62.5366 11.9117C62.7215 12.1017 62.8644 12.3337 62.9653 12.6075C63.0661 12.8814 63.1165 13.1875 63.1165 13.5256C63.1165 13.8666 63.0661 14.174 62.9653 14.4479C62.8644 14.7218 62.7215 14.9551 62.5366 15.148C62.3518 15.3408 62.1284 15.4889 61.8664 15.5923C61.6045 15.6958 61.3125 15.7475 60.9903 15.7475C60.6682 15.7475 60.3754 15.6958 60.1121 15.5923C59.8488 15.4889 59.624 15.3408 59.4377 15.148C59.2514 14.9551 59.1071 14.7218 59.0049 14.4479C58.9026 14.174 58.8515 13.8666 58.8515 13.5256C58.8515 13.1875 58.9026 12.8814 59.0049 12.6075C59.1071 12.3337 59.2514 12.1017 59.4377 11.9117C59.624 11.7216 59.8488 11.5749 60.1121 11.4715C60.3754 11.3681 60.6682 11.3164 60.9903 11.3164ZM60.9901 14.9516C61.3487 14.9516 61.6141 14.8314 61.7864 14.5911C61.9587 14.3507 62.0448 13.9986 62.0448 13.5347C62.0448 13.0707 61.9587 12.7172 61.7864 12.4741C61.6141 12.2309 61.3487 12.1093 60.9901 12.1093C60.6259 12.1093 60.357 12.2316 60.1833 12.4762C60.0096 12.7207 59.9228 13.0735 59.9228 13.5347C59.9228 13.9958 60.0096 14.3472 60.1833 14.589C60.357 14.8307 60.6259 14.9516 60.9901 14.9516ZM63.4023 11.3873H64.2259C64.3043 11.3873 64.3701 11.4054 64.4234 11.4418C64.4766 11.4781 64.5102 11.5242 64.5242 11.5801L65.1419 13.8774C65.1755 14.0031 65.2028 14.1261 65.2238 14.2463C65.2449 14.3665 65.2652 14.4866 65.2848 14.6068C65.3156 14.4866 65.3485 14.3665 65.3835 14.2463C65.4185 14.1261 65.4557 14.0031 65.4949 13.8774L66.2092 11.5717C66.226 11.5158 66.2596 11.4697 66.3101 11.4334C66.3605 11.397 66.4193 11.3789 66.4865 11.3789H66.9446C67.0202 11.3789 67.0832 11.397 67.1337 11.4334C67.1841 11.4697 67.2177 11.5158 67.2345 11.5717L67.9404 13.9193C67.9769 14.0395 68.0098 14.1562 68.0392 14.2693C68.0686 14.3825 68.0973 14.4964 68.1253 14.611C68.1449 14.4908 68.1666 14.3707 68.1905 14.2505C68.2143 14.1303 68.2444 14.0059 68.2808 13.8774L68.9195 11.5801C68.9335 11.5242 68.9671 11.4781 69.0203 11.4418C69.0736 11.4054 69.1352 11.3873 69.2052 11.3873H69.991L68.6254 15.6884H67.7892C67.6995 15.6884 67.6351 15.6269 67.5959 15.5039L66.8185 13.018C66.7933 12.9369 66.7702 12.8552 66.7492 12.7728C66.7282 12.6903 66.7106 12.6086 66.6966 12.5275C66.6798 12.6114 66.6616 12.6945 66.642 12.7769C66.6224 12.8594 66.6 12.9425 66.5748 13.0264L65.789 15.5039C65.7498 15.6269 65.6742 15.6884 65.5621 15.6884H64.7679L63.4023 11.3873ZM70.5751 15.6846V11.3834H71.2096C71.3441 11.3834 71.4323 11.4463 71.4744 11.5721L71.5458 11.9117C71.6326 11.8222 71.7244 11.7412 71.821 11.6685C71.9177 11.5958 72.0199 11.533 72.1278 11.4799C72.2356 11.4268 72.3512 11.3862 72.4744 11.3583C72.5977 11.3303 72.7322 11.3164 72.8778 11.3164C73.1131 11.3164 73.3218 11.3562 73.5039 11.4358C73.686 11.5155 73.838 11.6273 73.9598 11.7712C74.0817 11.9151 74.1741 12.087 74.2372 12.2868C74.3002 12.4867 74.3317 12.7068 74.3317 12.9471V15.6846H73.2938V12.9471C73.2938 12.6844 73.2329 12.4811 73.111 12.3372C72.9892 12.1932 72.8064 12.1213 72.5627 12.1213C72.3834 12.1213 72.2153 12.1618 72.0584 12.2428C71.9016 12.3239 71.7531 12.4343 71.613 12.574V15.6846H70.5751ZM76.4581 9.45703V15.6865H75.4202V9.45703H76.4581ZM79.4708 11.3164C79.7929 11.3164 80.085 11.3681 80.3469 11.4715C80.6088 11.5749 80.8322 11.7216 81.0171 11.9117C81.202 12.1017 81.3449 12.3337 81.4457 12.6075C81.5466 12.8814 81.597 13.1875 81.597 13.5256C81.597 13.8666 81.5466 14.174 81.4457 14.4479C81.3449 14.7218 81.202 14.9551 81.0171 15.148C80.8322 15.3408 80.6088 15.4889 80.3469 15.5923C80.085 15.6958 79.7929 15.7475 79.4708 15.7475C79.1486 15.7475 78.8559 15.6958 78.5926 15.5923C78.3292 15.4889 78.1044 15.3408 77.9181 15.148C77.7319 14.9551 77.5876 14.7218 77.4853 14.4479C77.3831 14.174 77.332 13.8666 77.332 13.5256C77.332 13.1875 77.3831 12.8814 77.4853 12.6075C77.5876 12.3337 77.7319 12.1017 77.9181 11.9117C78.1044 11.7216 78.3292 11.5749 78.5926 11.4715C78.8559 11.3681 79.1486 11.3164 79.4708 11.3164ZM79.4706 14.9516C79.8291 14.9516 80.0946 14.8314 80.2668 14.5911C80.4391 14.3507 80.5253 13.9986 80.5253 13.5347C80.5253 13.0707 80.4391 12.7172 80.2668 12.4741C80.0946 12.2309 79.8291 12.1093 79.4706 12.1093C79.1064 12.1093 78.8375 12.2316 78.6638 12.4762C78.4901 12.7207 78.4033 13.0735 78.4033 13.5347C78.4033 13.9958 78.4901 14.3472 78.6638 14.589C78.8375 14.8307 79.1064 14.9516 79.4706 14.9516ZM85.787 15.6854H85.3206C85.2225 15.6854 85.1455 15.6708 85.0894 15.6414C85.0334 15.6121 84.9914 15.5527 84.9634 15.4632L84.8709 15.1572C84.7617 15.255 84.6545 15.341 84.5495 15.415C84.4444 15.4891 84.3359 15.5513 84.2238 15.6016C84.1118 15.6519 83.9927 15.6896 83.8667 15.7148C83.7406 15.7399 83.6005 15.7525 83.4465 15.7525C83.2644 15.7525 83.0963 15.7281 82.9422 15.6791C82.7881 15.6302 82.6558 15.5569 82.5451 15.4591C82.4345 15.3612 82.3483 15.2397 82.2867 15.0943C82.2251 14.949 82.1943 14.7799 82.1943 14.5871C82.1943 14.425 82.237 14.265 82.3224 14.1071C82.4079 13.9492 82.55 13.8067 82.7489 13.6795C82.9478 13.5523 83.2126 13.4468 83.5431 13.363C83.8737 13.2791 84.2841 13.2316 84.7743 13.2205V12.9689C84.7743 12.6811 84.7134 12.468 84.5915 12.3296C84.4697 12.1913 84.2925 12.1221 84.06 12.1221C83.8919 12.1221 83.7518 12.1417 83.6398 12.1808C83.5277 12.2199 83.4304 12.264 83.3477 12.3129C83.2651 12.3618 83.1887 12.4058 83.1187 12.4449C83.0487 12.484 82.9716 12.5036 82.8876 12.5036C82.8176 12.5036 82.7573 12.4854 82.7069 12.4491C82.6565 12.4128 82.6159 12.3681 82.5851 12.315L82.396 11.9838C82.8918 11.531 83.4899 11.3047 84.1902 11.3047C84.4423 11.3047 84.6671 11.3459 84.8646 11.4283C85.0621 11.5108 85.2295 11.6253 85.3668 11.7721C85.504 11.9188 85.6084 12.0942 85.6798 12.2982C85.7513 12.5022 85.787 12.7258 85.787 12.9689V15.6854ZM83.7696 15.0421C83.876 15.0421 83.9741 15.0323 84.0637 15.0127C84.1533 14.9932 84.2381 14.9638 84.3179 14.9247C84.3978 14.8856 84.4748 14.8374 84.549 14.7801C84.6233 14.7228 84.6982 14.655 84.7738 14.5768V13.8515C84.4713 13.8655 84.2185 13.8914 84.0154 13.9291C83.8123 13.9668 83.6491 14.015 83.5258 14.0737C83.4026 14.1324 83.315 14.2009 83.2632 14.2791C83.2114 14.3574 83.1855 14.4426 83.1855 14.5348C83.1855 14.7165 83.2394 14.8465 83.3473 14.9247C83.4551 15.003 83.5959 15.0421 83.7696 15.0421ZM89.8415 15.6865C89.707 15.6865 89.6188 15.6237 89.5767 15.4979L89.4927 15.0829C89.4031 15.1835 89.3092 15.2743 89.2112 15.3554C89.1131 15.4364 89.0074 15.5063 88.8939 15.565C88.7805 15.6237 88.6586 15.6691 88.5283 15.7012C88.3981 15.7334 88.2573 15.7494 88.106 15.7494C87.8707 15.7494 87.655 15.7005 87.4589 15.6027C87.2628 15.5049 87.0941 15.3631 86.9526 15.1772C86.8111 14.9913 86.7019 14.7615 86.6248 14.4876C86.5478 14.2137 86.5093 13.9007 86.5093 13.5486C86.5093 13.23 86.5527 12.9337 86.6395 12.6598C86.7264 12.3859 86.851 12.1484 87.0135 11.9472C87.176 11.7459 87.3707 11.5887 87.5976 11.4755C87.8245 11.3624 88.0794 11.3058 88.3624 11.3058C88.6033 11.3058 88.8092 11.3442 88.9801 11.421C89.1509 11.4979 89.3036 11.6006 89.4381 11.7292V9.45703H90.476V15.6865H89.8415ZM88.4589 14.9278C88.6746 14.9278 88.8581 14.8831 89.0093 14.7936C89.1606 14.7042 89.3035 14.577 89.4379 14.4122V12.4838C89.3203 12.3412 89.1921 12.2406 89.0535 12.1819C88.9148 12.1232 88.7656 12.0939 88.6059 12.0939C88.4491 12.0939 88.3069 12.1232 88.1794 12.1819C88.052 12.2406 87.9441 12.3294 87.8559 12.4481C87.7676 12.5669 87.6997 12.7178 87.6521 12.9009C87.6045 13.0839 87.5807 13.2998 87.5807 13.5486C87.5807 13.8001 87.601 14.0132 87.6416 14.1879C87.6822 14.3625 87.7403 14.5051 87.816 14.6155C87.8916 14.7259 87.984 14.8055 88.0933 14.8544C88.2025 14.9033 88.3244 14.9278 88.4589 14.9278ZM95.0606 11.3164C95.3828 11.3164 95.6748 11.3681 95.9367 11.4715C96.1987 11.5749 96.4221 11.7216 96.607 11.9117C96.7918 12.1017 96.9347 12.3337 97.0356 12.6075C97.1364 12.8814 97.1868 13.1875 97.1868 13.5256C97.1868 13.8666 97.1364 14.174 97.0356 14.4479C96.9347 14.7218 96.7918 14.9551 96.607 15.148C96.4221 15.3408 96.1987 15.4889 95.9367 15.5923C95.6748 15.6958 95.3828 15.7475 95.0606 15.7475C94.7385 15.7475 94.4457 15.6958 94.1824 15.5923C93.9191 15.4889 93.6943 15.3408 93.508 15.148C93.3217 14.9551 93.1774 14.7218 93.0752 14.4479C92.9729 14.174 92.9218 13.8666 92.9218 13.5256C92.9218 13.1875 92.9729 12.8814 93.0752 12.6075C93.1774 12.3337 93.3217 12.1017 93.508 11.9117C93.6943 11.7216 93.9191 11.5749 94.1824 11.4715C94.4457 11.3681 94.7385 11.3164 95.0606 11.3164ZM95.0604 14.9516C95.419 14.9516 95.6844 14.8314 95.8567 14.5911C96.029 14.3507 96.1151 13.9986 96.1151 13.5347C96.1151 13.0707 96.029 12.7172 95.8567 12.4741C95.6844 12.2309 95.419 12.1093 95.0604 12.1093C94.6962 12.1093 94.4273 12.2316 94.2536 12.4762C94.0799 12.7207 93.9931 13.0735 93.9931 13.5347C93.9931 13.9958 94.0799 14.3472 94.2536 14.589C94.4273 14.8307 94.6962 14.9516 95.0604 14.9516ZM97.998 15.6846V11.3834H98.6325C98.7669 11.3834 98.8552 11.4463 98.8972 11.5721L98.9686 11.9117C99.0555 11.8222 99.1472 11.7412 99.2439 11.6685C99.3405 11.5958 99.4428 11.533 99.5506 11.4799C99.6585 11.4268 99.774 11.3862 99.8973 11.3583C100.021 11.3303 100.155 11.3164 100.301 11.3164C100.536 11.3164 100.745 11.3562 100.927 11.4358C101.109 11.5155 101.261 11.6273 101.383 11.7712C101.505 11.9151 101.597 12.087 101.66 12.2868C101.723 12.4867 101.755 12.7068 101.755 12.9471V15.6846H100.717V12.9471C100.717 12.6844 100.656 12.4811 100.534 12.3372C100.412 12.1932 100.229 12.1213 99.9855 12.1213C99.8062 12.1213 99.6382 12.1618 99.4813 12.2428C99.3244 12.3239 99.1759 12.4343 99.0359 12.574V15.6846H97.998ZM105.813 15.7548C105.44 15.7548 105.153 15.6493 104.951 15.4383C104.75 15.2273 104.649 14.9359 104.649 14.5642V12.1622H104.212C104.156 12.1622 104.107 12.144 104.067 12.1077C104.026 12.0713 104.006 12.0168 104.006 11.9442V11.5333L104.699 11.4201L104.918 10.2463C104.929 10.1904 104.955 10.1471 104.995 10.1164C105.036 10.0856 105.087 10.0703 105.149 10.0703H105.687V11.4243H106.821V12.1622H105.687V14.493C105.687 14.6271 105.72 14.7319 105.787 14.8074C105.855 14.8828 105.944 14.9206 106.056 14.9206C106.121 14.9206 106.175 14.9129 106.218 14.8975C106.262 14.8821 106.299 14.8661 106.332 14.8493C106.364 14.8325 106.393 14.8165 106.418 14.8011C106.443 14.7857 106.468 14.778 106.493 14.778C106.524 14.778 106.549 14.7857 106.569 14.8011C106.589 14.8165 106.61 14.8395 106.632 14.8703L106.943 15.3733C106.792 15.4991 106.618 15.5941 106.422 15.6584C106.226 15.7227 106.023 15.7548 105.813 15.7548ZM107.649 15.6865V9.45703H108.687V11.8507C108.855 11.6914 109.04 11.5629 109.242 11.4651C109.444 11.3672 109.68 11.3183 109.952 11.3183C110.187 11.3183 110.396 11.3582 110.578 11.4378C110.76 11.5175 110.912 11.6293 111.034 11.7732C111.156 11.9171 111.248 12.089 111.311 12.2888C111.374 12.4886 111.406 12.7087 111.406 12.9491V15.6865H110.368V12.9491C110.368 12.6864 110.307 12.4831 110.185 12.3391C110.063 12.1952 109.881 12.1232 109.637 12.1232C109.458 12.1232 109.289 12.1638 109.133 12.2448C108.976 12.3258 108.827 12.4362 108.687 12.576V15.6865H107.649ZM114.208 11.3164C114.48 11.3164 114.73 11.3597 114.958 11.4463C115.187 11.533 115.383 11.6594 115.549 11.8257C115.714 11.992 115.843 12.196 115.935 12.4378C116.028 12.6795 116.074 12.9555 116.074 13.2657C116.074 13.344 116.07 13.4089 116.063 13.4606C116.056 13.5123 116.044 13.5529 116.026 13.5822C116.007 13.6116 115.983 13.6325 115.952 13.6451C115.921 13.6577 115.882 13.664 115.834 13.664H113.17C113.201 14.1055 113.32 14.4297 113.528 14.6365C113.735 14.8434 114.009 14.9468 114.351 14.9468C114.519 14.9468 114.664 14.9272 114.786 14.8881C114.908 14.8489 115.014 14.8056 115.105 14.7581C115.196 14.7106 115.276 14.6673 115.345 14.6282C115.414 14.589 115.48 14.5695 115.544 14.5695C115.586 14.5695 115.623 14.5779 115.654 14.5946C115.685 14.6114 115.711 14.6351 115.734 14.6659L116.036 15.0432C115.921 15.1773 115.792 15.2898 115.65 15.3806C115.507 15.4715 115.357 15.5441 115.202 15.5986C115.047 15.6531 114.888 15.6916 114.727 15.7139C114.566 15.7363 114.41 15.7475 114.259 15.7475C113.959 15.7475 113.68 15.6979 113.422 15.5986C113.165 15.4994 112.941 15.3527 112.75 15.1585C112.56 14.9642 112.41 14.7239 112.301 14.4374C112.191 14.151 112.137 13.8191 112.137 13.4418C112.137 13.1483 112.184 12.8724 112.28 12.6138C112.375 12.3553 112.511 12.1303 112.689 11.9389C112.867 11.7475 113.084 11.5958 113.341 11.4841C113.597 11.3723 113.886 11.3164 114.208 11.3164ZM114.23 12.0586C113.928 12.0586 113.691 12.1438 113.52 12.3143C113.349 12.4848 113.24 12.7265 113.192 13.0395H115.142C115.142 12.9054 115.124 12.7789 115.087 12.6601C115.051 12.5414 114.995 12.4372 114.919 12.3478C114.844 12.2584 114.748 12.1878 114.634 12.1361C114.519 12.0844 114.384 12.0586 114.23 12.0586Z" fill="white"/>
<path fill-rule="evenodd" clip-rule="evenodd" d="M62.2367 29.6616H60.78C60.6166 29.6616 60.4823 29.6209 60.3773 29.5394C60.2722 29.4579 60.1964 29.3565 60.1497 29.2354L59.3933 27.1743H55.1983L54.442 29.2354C54.4046 29.3426 54.3311 29.4404 54.2214 29.5289C54.1116 29.6174 53.9774 29.6616 53.8187 29.6616H52.355L56.3329 19.5586H58.2588L62.2367 29.6616ZM55.6817 25.8453H58.9102L57.6776 22.4846C57.6216 22.3356 57.5597 22.1598 57.492 21.9571C57.4243 21.7545 57.3578 21.5344 57.2924 21.2969C57.2271 21.5344 57.1629 21.7557 57.0998 21.9606C57.0368 22.1656 56.975 22.3449 56.9143 22.4986L55.6817 25.8453ZM63.4625 32.0007V22.4916H64.52C64.6321 22.4916 64.7278 22.5172 64.8071 22.5684C64.8865 22.6197 64.9379 22.6989 64.9612 22.806L65.1013 23.4697C65.3908 23.139 65.7234 22.8712 66.0993 22.6662C66.4751 22.4613 66.9151 22.3588 67.4194 22.3588C67.8116 22.3588 68.1699 22.4403 68.4944 22.6034C68.8189 22.7664 69.099 23.0028 69.3348 23.3125C69.5706 23.6223 69.7527 24.0042 69.8811 24.4584C70.0095 24.9125 70.0736 25.4331 70.0736 26.02C70.0736 26.5556 70.0013 27.0517 69.8565 27.5082C69.7118 27.9646 69.5052 28.3606 69.2367 28.6959C68.9683 29.0313 68.6438 29.2933 68.2633 29.482C67.8828 29.6706 67.4567 29.7649 66.9852 29.7649C66.579 29.7649 66.2347 29.7032 65.9522 29.5798C65.6697 29.4563 65.4164 29.2852 65.1923 29.0662V32.0007H63.4625ZM66.8237 23.7227C66.4642 23.7227 66.1572 23.7983 65.9027 23.9497C65.6483 24.1011 65.4113 24.3142 65.1919 24.589V27.803C65.388 28.0452 65.6016 28.2141 65.8327 28.3096C66.0638 28.405 66.3124 28.4528 66.5786 28.4528C66.84 28.4528 67.077 28.4039 67.2894 28.3061C67.5018 28.2082 67.6816 28.0592 67.8286 27.8589C67.9757 27.6586 68.0889 27.4059 68.1683 27.1008C68.2477 26.7957 68.2874 26.4359 68.2874 26.0213C68.2874 25.6021 68.2535 25.247 68.1858 24.9558C68.1181 24.6647 68.0212 24.4283 67.8952 24.2467C67.7691 24.065 67.6162 23.9323 67.4365 23.8484C67.2567 23.7646 67.0524 23.7227 66.8237 23.7227ZM71.6634 32.0007V22.4916H72.7209C72.8329 22.4916 72.9286 22.5172 73.008 22.5684C73.0874 22.6197 73.1387 22.6989 73.1621 22.806L73.3021 23.4697C73.5916 23.139 73.9243 22.8712 74.3001 22.6662C74.676 22.4613 75.116 22.3588 75.6202 22.3588C76.0124 22.3588 76.3708 22.4403 76.6953 22.6034C77.0198 22.7664 77.2999 23.0028 77.5357 23.3125C77.7714 23.6223 77.9535 24.0042 78.0819 24.4584C78.2103 24.9125 78.2745 25.4331 78.2745 26.02C78.2745 26.5556 78.2021 27.0517 78.0574 27.5082C77.9127 27.9646 77.7061 28.3606 77.4376 28.6959C77.1692 29.0313 76.8447 29.2933 76.4641 29.482C76.0836 29.6706 75.6576 29.7649 75.186 29.7649C74.7798 29.7649 74.4355 29.7032 74.1531 29.5798C73.8706 29.4563 73.6173 29.2852 73.3932 29.0662V32.0007H71.6634ZM75.0248 23.7227C74.6653 23.7227 74.3584 23.7983 74.1039 23.9497C73.8494 24.1011 73.6125 24.3142 73.3931 24.589V27.803C73.5892 28.0452 73.8028 28.2141 74.0339 28.3096C74.265 28.405 74.5136 28.4528 74.7797 28.4528C75.0412 28.4528 75.2781 28.4039 75.4906 28.3061C75.703 28.2082 75.8827 28.0592 76.0298 27.8589C76.1769 27.6586 76.2901 27.4059 76.3695 27.1008C76.4489 26.7957 76.4885 26.4359 76.4885 26.0213C76.4885 25.6021 76.4547 25.247 76.387 24.9558C76.3193 24.6647 76.2224 24.4283 76.0964 24.2467C75.9703 24.065 75.8174 23.9323 75.6376 23.8484C75.4579 23.7646 75.2536 23.7227 75.0248 23.7227ZM88.3732 21.3947C88.3218 21.4971 88.2623 21.5693 88.1946 21.6112C88.1269 21.6532 88.0464 21.6741 87.953 21.6741C87.8596 21.6741 87.7546 21.638 87.6378 21.5658C87.5211 21.4936 87.3834 21.4133 87.2246 21.3248C87.0659 21.2363 86.8803 21.1559 86.6679 21.0837C86.4554 21.0115 86.2045 20.9754 85.915 20.9754C85.6535 20.9754 85.4259 21.0069 85.2322 21.0698C85.0384 21.1326 84.875 21.22 84.742 21.3318C84.6089 21.4436 84.5097 21.5775 84.4443 21.7335C84.3789 21.8896 84.3463 22.0607 84.3463 22.2471C84.3463 22.4846 84.4128 22.6826 84.5459 22.8409C84.6789 22.9993 84.8552 23.1344 85.0746 23.2462C85.294 23.358 85.5438 23.4581 85.824 23.5466C86.1041 23.6351 86.3901 23.7294 86.6819 23.8296C86.9737 23.9297 87.2596 24.0462 87.5398 24.1789C87.8199 24.3117 88.0697 24.4794 88.2891 24.682C88.5086 24.8846 88.6848 25.1326 88.8179 25.4261C88.951 25.7195 89.0175 26.0759 89.0175 26.4951C89.0175 26.9516 88.9393 27.3789 88.7829 27.7772C88.6265 28.1754 88.3977 28.5224 88.0965 28.8182C87.7954 29.114 87.4277 29.3469 86.9935 29.5169C86.5593 29.6869 86.0621 29.7719 85.5018 29.7719C85.1797 29.7719 84.8622 29.7405 84.5494 29.6776C84.2365 29.6147 83.9366 29.5251 83.6494 29.4086C83.3623 29.2922 83.0938 29.1524 82.844 28.9894C82.5943 28.8264 82.3713 28.6447 82.1752 28.4444L82.7215 27.5431C82.7728 27.4779 82.8347 27.4232 82.9071 27.3789C82.9794 27.3347 83.06 27.3126 83.1487 27.3126C83.2654 27.3126 83.3915 27.3603 83.5269 27.4558C83.6623 27.5513 83.8222 27.6572 84.0066 27.7737C84.191 27.8901 84.4081 27.9961 84.6579 28.0916C84.9077 28.1871 85.2077 28.2348 85.5578 28.2348C86.0948 28.2348 86.5103 28.1079 86.8044 27.854C87.0986 27.6002 87.2456 27.2357 87.2456 26.7606C87.2456 26.4951 87.1791 26.2785 87.046 26.1108C86.913 25.9431 86.7367 25.8022 86.5173 25.6881C86.2979 25.574 86.0481 25.4773 85.7679 25.3981C85.4878 25.319 85.203 25.2328 84.9135 25.1396C84.6241 25.0465 84.3393 24.9347 84.0591 24.8043C83.779 24.6738 83.5292 24.5038 83.3098 24.2942C83.0903 24.0846 82.9141 23.8226 82.781 23.5082C82.648 23.1938 82.5814 22.806 82.5814 22.3449C82.5814 21.9769 82.655 21.6182 82.802 21.2689C82.9491 20.9195 83.1639 20.6098 83.4463 20.3396C83.7288 20.0695 84.0755 19.8529 84.4863 19.6899C84.8972 19.5268 85.3664 19.4453 85.894 19.4453C86.4916 19.4453 87.0425 19.5385 87.5468 19.7248C88.051 19.9111 88.4806 20.1719 88.8354 20.5073L88.3732 21.3947ZM93.0023 29.772C92.3813 29.772 91.9028 29.5962 91.5666 29.2445C91.2304 28.8928 91.0624 28.4072 91.0624 27.7877V23.7842H90.334C90.2406 23.7842 90.1601 23.7539 90.0924 23.6934C90.0247 23.6328 89.9909 23.542 89.9909 23.4209V22.7362L91.1464 22.5475L91.5106 20.5912C91.5293 20.4981 91.5724 20.4259 91.6401 20.3746C91.7078 20.3234 91.793 20.2978 91.8958 20.2978H92.7922V22.5545H94.6831V23.7842H92.7922V27.6689C92.7922 27.8925 92.8482 28.0672 92.9603 28.1929C93.0723 28.3187 93.2217 28.3816 93.4085 28.3816C93.5159 28.3816 93.6057 28.3688 93.6781 28.3432C93.7505 28.3175 93.8135 28.2908 93.8672 28.2628C93.9209 28.2349 93.9688 28.2081 94.0108 28.1825C94.0528 28.1568 94.0948 28.144 94.1368 28.144C94.1882 28.144 94.2302 28.1568 94.2629 28.1825C94.2956 28.2081 94.3306 28.2465 94.3679 28.2978L94.8862 29.1362C94.6341 29.3458 94.3446 29.5042 94.0178 29.6113C93.6909 29.7184 93.3525 29.772 93.0023 29.772ZM99.4106 22.3798C99.9475 22.3798 100.434 22.466 100.871 22.6383C101.307 22.8107 101.68 23.0552 101.988 23.3719C102.296 23.6887 102.534 24.0753 102.702 24.5318C102.87 24.9882 102.954 25.4983 102.954 26.0619C102.954 26.6302 102.87 27.1425 102.702 27.599C102.534 28.0555 102.296 28.4444 101.988 28.7658C101.68 29.0872 101.307 29.3341 100.871 29.5064C100.434 29.6788 99.9475 29.765 99.4106 29.765C98.8737 29.765 98.3858 29.6788 97.9469 29.5064C97.508 29.3341 97.1334 29.0872 96.8229 28.7658C96.5124 28.4444 96.272 28.0555 96.1016 27.599C95.9311 27.1425 95.8459 26.6302 95.8459 26.0619C95.8459 25.4983 95.9311 24.9882 96.1016 24.5318C96.272 24.0753 96.5124 23.6887 96.8229 23.3719C97.1334 23.0552 97.508 22.8107 97.9469 22.6383C98.3858 22.466 98.8737 22.3798 99.4106 22.3798ZM99.4102 28.4363C100.008 28.4363 100.45 28.236 100.737 27.8355C101.024 27.4349 101.168 26.848 101.168 26.0748C101.168 25.3015 101.024 24.7123 100.737 24.3071C100.45 23.9018 100.008 23.6992 99.4102 23.6992C98.8032 23.6992 98.355 23.903 98.0656 24.3106C97.7761 24.7181 97.6313 25.3062 97.6313 26.0748C97.6313 26.8433 97.7761 27.4291 98.0656 27.832C98.355 28.2349 98.8032 28.4363 99.4102 28.4363ZM104.586 29.6601V22.4916H105.601C105.779 22.4916 105.903 22.5242 105.973 22.5894C106.043 22.6546 106.089 22.7664 106.113 22.9248L106.218 23.7911C106.475 23.3486 106.776 22.9993 107.121 22.7431C107.467 22.4869 107.854 22.3588 108.284 22.3588C108.639 22.3588 108.933 22.4403 109.166 22.6034L108.942 23.8959C108.928 23.9798 108.898 24.0392 108.851 24.0741C108.804 24.109 108.741 24.1265 108.662 24.1265C108.592 24.1265 108.496 24.1102 108.375 24.0776C108.253 24.045 108.092 24.0287 107.892 24.0287C107.532 24.0287 107.224 24.1277 106.967 24.3256C106.71 24.5236 106.493 24.8136 106.316 25.1955V29.6601H104.586ZM113.557 22.3798C114.01 22.3798 114.427 22.452 114.807 22.5964C115.188 22.7408 115.516 22.9516 115.791 23.2287C116.067 23.5059 116.281 23.8459 116.436 24.2488C116.59 24.6517 116.667 25.1117 116.667 25.6287C116.667 25.7591 116.661 25.8674 116.649 25.9536C116.637 26.0398 116.616 26.1073 116.586 26.1562C116.556 26.2051 116.515 26.2401 116.464 26.261C116.412 26.282 116.347 26.2925 116.267 26.2925H111.827C111.879 27.0284 112.077 27.5687 112.423 27.9134C112.768 28.2581 113.226 28.4305 113.795 28.4305C114.075 28.4305 114.317 28.3979 114.52 28.3326C114.723 28.2674 114.901 28.1952 115.052 28.116C115.204 28.0369 115.337 27.9647 115.452 27.8995C115.566 27.8342 115.677 27.8016 115.784 27.8016C115.854 27.8016 115.915 27.8156 115.966 27.8436C116.018 27.8715 116.062 27.9111 116.099 27.9623L116.604 28.5912C116.412 28.8147 116.197 29.0022 115.959 29.1536C115.721 29.305 115.473 29.4261 115.213 29.5169C114.954 29.6077 114.691 29.6718 114.422 29.7091C114.154 29.7463 113.893 29.765 113.641 29.765C113.142 29.765 112.677 29.6823 112.248 29.5169C111.818 29.3516 111.444 29.107 111.127 28.7833C110.81 28.4596 110.56 28.059 110.378 27.5815C110.196 27.1041 110.105 26.551 110.105 25.9222C110.105 25.4331 110.184 24.9731 110.343 24.5423C110.501 24.1114 110.729 23.7364 111.025 23.4174C111.322 23.0983 111.684 22.8456 112.111 22.6593C112.538 22.473 113.02 22.3798 113.557 22.3798ZM113.592 23.6165C113.088 23.6165 112.693 23.7585 112.409 24.0427C112.124 24.3268 111.942 24.7297 111.862 25.2514H115.112C115.112 25.0278 115.082 24.817 115.021 24.6191C114.96 24.4211 114.867 24.2476 114.741 24.0986C114.615 23.9495 114.456 23.8319 114.265 23.7457C114.073 23.6596 113.849 23.6165 113.592 23.6165Z" fill="white"/>
<path fill-rule="evenodd" clip-rule="evenodd" d="M38.4329 11.6875C39.2808 10.691 39.7061 9.61436 39.7061 8.46126V8.46125C39.7061 8.30831 39.6989 8.15415 39.6817 8C39.0911 8.03034 38.4631 8.20756 37.7992 8.52801C37.1339 8.85332 36.5852 9.26111 36.1538 9.75155C35.2898 10.7202 34.8032 11.9049 34.8032 13.0118C34.8032 13.1648 34.8131 13.3104 34.8302 13.4488C36.1722 13.5568 37.4098 12.8722 38.4329 11.6875ZM42.9467 28.197C43.4296 27.5153 43.8463 26.7738 44.1983 25.9682C44.3435 25.6267 44.48 25.2709 44.6093 24.8994C44.013 24.6518 43.477 24.3031 42.997 23.8519C41.9379 22.8799 41.3991 21.6556 41.3833 20.1845C41.366 18.2957 42.2325 16.8234 43.9842 15.7722C43.0056 14.3945 41.5341 13.6298 39.5755 13.4733C38.8527 13.4125 37.9704 13.5668 36.925 13.9394C35.8195 14.3412 35.1674 14.5427 34.9749 14.5427C34.7176 14.5427 34.1306 14.3703 33.2163 14.0305C32.2995 13.6918 31.5618 13.5194 30.9992 13.5194C29.971 13.5363 29.0163 13.8011 28.1327 14.3205C27.2491 14.84 26.5431 15.5476 26.0124 16.4447C25.3371 17.5615 25 18.8942 25 20.4393C25 21.7883 25.25 23.1816 25.7488 24.6205C26.2146 25.9526 26.809 27.121 27.5321 28.1287C28.2061 29.0723 28.7687 29.7383 29.2185 30.1269C29.9232 30.7759 30.6292 31.0847 31.3375 31.0548C31.8032 31.0392 32.4123 30.8812 33.1685 30.578C33.9235 30.2763 34.6294 30.1269 35.2875 30.1269C35.915 30.1269 36.6013 30.2763 37.3482 30.578C38.0925 30.8812 38.732 31.0306 39.2622 31.0306C40.0009 31.0135 40.6906 30.7132 41.3344 30.1269C41.7497 29.7696 42.2886 29.1264 42.9467 28.197Z" fill="white"/>
</svg>
