<svg width="152" height="48" viewBox="0 0 152 48" fill="none" xmlns="http://www.w3.org/2000/svg">
<path fill-rule="evenodd" clip-rule="evenodd" d="M57.7437 15.5517C57.7437 16.0817 57.6552 16.5684 57.4781 17.0117C57.301 17.455 57.0521 17.8367 56.7313 18.1567C56.4106 18.4767 56.0247 18.725 55.5736 18.9017C55.1225 19.0784 54.623 19.1667 54.0751 19.1667H51.3086V11.9367H54.0751C54.623 11.9367 55.1225 12.0259 55.5736 12.2042C56.0247 12.3825 56.4106 12.6309 56.7313 12.9492C57.0521 13.2675 57.301 13.6484 57.4781 14.0917C57.6552 14.535 57.7437 15.0217 57.7437 15.5517ZM56.3654 15.5517C56.3654 15.155 56.312 14.7992 56.2051 14.4842C56.0981 14.1692 55.9461 13.9025 55.749 13.6842C55.5519 13.4659 55.3121 13.2984 55.0298 13.1817C54.7475 13.065 54.4292 13.0067 54.0751 13.0067H52.6667V18.0967H54.0751C54.4292 18.0967 54.7475 18.0384 55.0298 17.9217C55.3121 17.805 55.5519 17.6375 55.749 17.4192C55.9461 17.2009 56.0981 16.9342 56.2051 16.6192C56.312 16.3042 56.3654 15.9484 56.3654 15.5517ZM60.9261 13.9567C61.3103 13.9567 61.6587 14.0184 61.9711 14.1417C62.2835 14.265 62.5499 14.44 62.7704 14.6667C62.991 14.8934 63.1614 15.17 63.2816 15.4967C63.4019 15.8234 63.4621 16.1884 63.4621 16.5917C63.4621 16.9984 63.4019 17.365 63.2816 17.6917C63.1614 18.0184 62.991 18.2967 62.7704 18.5267C62.5499 18.7567 62.2835 18.9334 61.9711 19.0567C61.6587 19.18 61.3103 19.2417 60.9261 19.2417C60.5419 19.2417 60.1927 19.18 59.8787 19.0567C59.5646 18.9334 59.2965 18.7567 59.0743 18.5267C58.8521 18.2967 58.68 18.0184 58.5581 17.6917C58.4361 17.365 58.3751 16.9984 58.3751 16.5917C58.3751 16.1884 58.4361 15.8234 58.5581 15.4967C58.68 15.17 58.8521 14.8934 59.0743 14.6667C59.2965 14.44 59.5646 14.265 59.8787 14.1417C60.1927 14.0184 60.5419 13.9567 60.9261 13.9567ZM60.9262 18.2917C61.3539 18.2917 61.6704 18.1484 61.8759 17.8617C62.0814 17.575 62.1841 17.155 62.1841 16.6017C62.1841 16.0484 62.0814 15.6267 61.8759 15.3367C61.6704 15.0467 61.3539 14.9017 60.9262 14.9017C60.4918 14.9017 60.1711 15.0475 59.9639 15.3392C59.7568 15.6309 59.6532 16.0517 59.6532 16.6017C59.6532 17.1517 59.7568 17.5709 59.9639 17.8592C60.1711 18.1475 60.4918 18.2917 60.9262 18.2917ZM63.803 14.0367H64.7853C64.8788 14.0367 64.9574 14.0584 65.0208 14.1017C65.0843 14.145 65.1244 14.2 65.1411 14.2667L65.8778 17.0067C65.9179 17.1567 65.9505 17.3034 65.9756 17.4467C66.0006 17.59 66.0249 17.7334 66.0482 17.8767C66.085 17.7334 66.1243 17.59 66.166 17.4467C66.2078 17.3034 66.2521 17.1567 66.2988 17.0067L67.1508 14.2567C67.1709 14.19 67.211 14.135 67.2711 14.0917C67.3313 14.0484 67.4014 14.0267 67.4816 14.0267H68.0279C68.1181 14.0267 68.1933 14.0484 68.2534 14.0917C68.3136 14.135 68.3537 14.19 68.3737 14.2567L69.2157 17.0567C69.2591 17.2 69.2984 17.3392 69.3335 17.4742C69.3685 17.6092 69.4028 17.745 69.4362 17.8817C69.4596 17.7384 69.4855 17.595 69.5139 17.4517C69.5423 17.3084 69.5782 17.16 69.6216 17.0067L70.3834 14.2667C70.4001 14.2 70.4402 14.145 70.5037 14.1017C70.5672 14.0584 70.6407 14.0367 70.7242 14.0367H71.6614L70.0326 19.1667H69.0353C68.9283 19.1667 68.8515 19.0934 68.8047 18.9467L67.8775 15.9817C67.8475 15.885 67.8199 15.7875 67.7948 15.6892C67.7698 15.5909 67.7489 15.4934 67.7322 15.3967C67.7122 15.4967 67.6904 15.5959 67.667 15.6942C67.6437 15.7925 67.6169 15.8917 67.5869 15.9917L66.6497 18.9467C66.6029 19.0934 66.5127 19.1667 66.379 19.1667H65.4318L63.803 14.0367ZM72.358 19.1667V14.0367H73.1148C73.2752 14.0367 73.3804 14.1117 73.4305 14.2617L73.5158 14.6667C73.6193 14.56 73.7288 14.4634 73.844 14.3767C73.9593 14.29 74.0812 14.215 74.2099 14.1517C74.3385 14.0884 74.4763 14.04 74.6234 14.0067C74.7704 13.9734 74.9307 13.9567 75.1045 13.9567C75.3851 13.9567 75.6341 14.0042 75.8512 14.0992C76.0684 14.1942 76.2497 14.3275 76.395 14.4992C76.5403 14.6709 76.6506 14.8759 76.7258 15.1142C76.801 15.3525 76.8386 15.615 76.8386 15.9017V19.1667H75.6006V15.9017C75.6006 15.5884 75.528 15.3459 75.3826 15.1742C75.2373 15.0025 75.0193 14.9167 74.7286 14.9167C74.5148 14.9167 74.3143 14.965 74.1272 15.0617C73.9401 15.1584 73.763 15.29 73.5959 15.4567V19.1667H72.358ZM79.3745 11.7367V19.1667H78.1366V11.7367H79.3745ZM82.9679 13.9567C83.3521 13.9567 83.7004 14.0184 84.0128 14.1417C84.3252 14.265 84.5917 14.44 84.8122 14.6667C85.0327 14.8934 85.2031 15.17 85.3234 15.4967C85.4437 15.8234 85.5038 16.1884 85.5038 16.5917C85.5038 16.9984 85.4437 17.365 85.3234 17.6917C85.2031 18.0184 85.0327 18.2967 84.8122 18.5267C84.5917 18.7567 84.3252 18.9334 84.0128 19.0567C83.7004 19.18 83.3521 19.2417 82.9679 19.2417C82.5836 19.2417 82.2345 19.18 81.9204 19.0567C81.6063 18.9334 81.3382 18.7567 81.116 18.5267C80.8938 18.2967 80.7218 18.0184 80.5998 17.6917C80.4778 17.365 80.4169 16.9984 80.4169 16.5917C80.4169 16.1884 80.4778 15.8234 80.5998 15.4967C80.7218 15.17 80.8938 14.8934 81.116 14.6667C81.3382 14.44 81.6063 14.265 81.9204 14.1417C82.2345 14.0184 82.5836 13.9567 82.9679 13.9567ZM82.9679 18.2917C83.3956 18.2917 83.7122 18.1484 83.9177 17.8617C84.1231 17.575 84.2259 17.155 84.2259 16.6017C84.2259 16.0484 84.1231 15.6267 83.9177 15.3367C83.7122 15.0467 83.3956 14.9017 82.9679 14.9017C82.5336 14.9017 82.2128 15.0475 82.0057 15.3392C81.7985 15.6309 81.6949 16.0517 81.6949 16.6017C81.6949 17.1517 81.7985 17.5709 82.0057 17.8592C82.2128 18.1475 82.5336 18.2917 82.9679 18.2917ZM90.5006 19.1667H89.9443C89.8274 19.1667 89.7355 19.1492 89.6687 19.1142C89.6019 19.0792 89.5517 19.0084 89.5183 18.9017L89.4081 18.5367C89.2778 18.6534 89.15 18.7559 89.0247 18.8442C88.8994 18.9325 88.7699 19.0067 88.6363 19.0667C88.5026 19.1267 88.3606 19.1717 88.2103 19.2017C88.0599 19.2317 87.8928 19.2467 87.7091 19.2467C87.4919 19.2467 87.2914 19.2175 87.1077 19.1592C86.9239 19.1009 86.766 19.0134 86.6341 18.8967C86.5021 18.78 86.3993 18.635 86.3258 18.4617C86.2523 18.2884 86.2156 18.0867 86.2156 17.8567C86.2156 17.6634 86.2665 17.4725 86.3684 17.2842C86.4703 17.0959 86.6399 16.9259 86.8771 16.7742C87.1144 16.6225 87.4301 16.4967 87.8244 16.3967C88.2186 16.2967 88.7081 16.24 89.2928 16.2267V15.9267C89.2928 15.5834 89.2201 15.3292 89.0748 15.1642C88.9294 14.9992 88.7181 14.9167 88.4408 14.9167C88.2403 14.9167 88.0733 14.94 87.9396 14.9867C87.806 15.0334 87.6899 15.0859 87.5913 15.1442C87.4927 15.2025 87.4017 15.255 87.3182 15.3017C87.2346 15.3484 87.1428 15.3717 87.0425 15.3717C86.959 15.3717 86.8872 15.35 86.827 15.3067C86.7669 15.2634 86.7184 15.21 86.6817 15.1467L86.4561 14.7517C87.0475 14.2117 87.7609 13.9417 88.5962 13.9417C88.8969 13.9417 89.165 13.9909 89.4006 14.0892C89.6361 14.1875 89.8357 14.3242 89.9995 14.4992C90.1632 14.6742 90.2876 14.8834 90.3728 15.1267C90.458 15.37 90.5006 15.6367 90.5006 15.9267V19.1667ZM88.095 18.3967C88.2219 18.3967 88.3389 18.385 88.4458 18.3617C88.5527 18.3384 88.6538 18.3034 88.749 18.2567C88.8442 18.21 88.9361 18.1525 89.0246 18.0842C89.1132 18.0159 89.2025 17.935 89.2928 17.8417V16.9767C88.9319 16.9934 88.6304 17.0242 88.3881 17.0692C88.1459 17.1142 87.9513 17.1717 87.8043 17.2417C87.6573 17.3117 87.5528 17.3934 87.491 17.4867C87.4292 17.58 87.3983 17.6817 87.3983 17.7917C87.3983 18.0084 87.4626 18.1634 87.5913 18.2567C87.7199 18.35 87.8878 18.3967 88.095 18.3967ZM95.3369 19.1667C95.1766 19.1667 95.0713 19.0917 95.0212 18.9417L94.921 18.4467C94.8141 18.5667 94.7021 18.675 94.5852 18.7717C94.4682 18.8684 94.3421 18.9517 94.2068 19.0217C94.0715 19.0917 93.9261 19.1459 93.7708 19.1842C93.6154 19.2225 93.4475 19.2417 93.2671 19.2417C92.9864 19.2417 92.7292 19.1834 92.4953 19.0667C92.2614 18.95 92.0601 18.7809 91.8914 18.5592C91.7226 18.3375 91.5923 18.0634 91.5004 17.7367C91.4086 17.41 91.3626 17.0367 91.3626 16.6167C91.3626 16.2367 91.4144 15.8834 91.518 15.5567C91.6216 15.23 91.7702 14.9467 91.964 14.7067C92.1578 14.4667 92.39 14.2792 92.6607 14.1442C92.9313 14.0092 93.2353 13.9417 93.5728 13.9417C93.8601 13.9417 94.1057 13.9875 94.3095 14.0792C94.5133 14.1709 94.6954 14.2934 94.8558 14.4467V11.7367H96.0937V19.1667H95.3369ZM93.6881 18.2617C93.9454 18.2617 94.1642 18.2084 94.3446 18.1017C94.5251 17.995 94.6954 17.8434 94.8558 17.6467V15.3467C94.7155 15.1767 94.5626 15.0567 94.3972 14.9867C94.2319 14.9167 94.0539 14.8817 93.8635 14.8817C93.6764 14.8817 93.5068 14.9167 93.3548 14.9867C93.2028 15.0567 93.0741 15.1625 92.9689 15.3042C92.8636 15.4459 92.7826 15.6259 92.7258 15.8442C92.669 16.0625 92.6406 16.32 92.6406 16.6167C92.6406 16.9167 92.6648 17.1709 92.7133 17.3792C92.7617 17.5875 92.8311 17.7575 92.9213 17.8892C93.0115 18.0209 93.1218 18.1159 93.2521 18.1742C93.3824 18.2325 93.5277 18.2617 93.6881 18.2617ZM101.562 13.9567C101.946 13.9567 102.294 14.0184 102.607 14.1417C102.919 14.265 103.185 14.44 103.406 14.6667C103.626 14.8934 103.797 15.17 103.917 15.4967C104.037 15.8234 104.098 16.1884 104.098 16.5917C104.098 16.9984 104.037 17.365 103.917 17.6917C103.797 18.0184 103.626 18.2967 103.406 18.5267C103.185 18.7567 102.919 18.9334 102.607 19.0567C102.294 19.18 101.946 19.2417 101.562 19.2417C101.177 19.2417 100.828 19.18 100.514 19.0567C100.2 18.9334 99.9319 18.7567 99.7098 18.5267C99.4876 18.2967 99.3155 18.0184 99.1936 17.6917C99.0716 17.365 99.0106 16.9984 99.0106 16.5917C99.0106 16.1884 99.0716 15.8234 99.1936 15.4967C99.3155 15.17 99.4876 14.8934 99.7098 14.6667C99.9319 14.44 100.2 14.265 100.514 14.1417C100.828 14.0184 101.177 13.9567 101.562 13.9567ZM101.562 18.2917C101.989 18.2917 102.306 18.1484 102.511 17.8617C102.717 17.575 102.82 17.155 102.82 16.6017C102.82 16.0484 102.717 15.6267 102.511 15.3367C102.306 15.0467 101.989 14.9017 101.562 14.9017C101.127 14.9017 100.806 15.0475 100.599 15.3392C100.392 15.6309 100.289 16.0517 100.289 16.6017C100.289 17.1517 100.392 17.5709 100.599 17.8592C100.806 18.1475 101.127 18.2917 101.562 18.2917ZM105.065 19.1667V14.0367H105.822C105.982 14.0367 106.087 14.1117 106.137 14.2617L106.223 14.6667C106.326 14.56 106.436 14.4634 106.551 14.3767C106.666 14.29 106.788 14.215 106.917 14.1517C107.045 14.0884 107.183 14.04 107.33 14.0067C107.477 13.9734 107.638 13.9567 107.811 13.9567C108.092 13.9567 108.341 14.0042 108.558 14.0992C108.775 14.1942 108.956 14.3275 109.102 14.4992C109.247 14.6709 109.357 14.8759 109.433 15.1142C109.508 15.3525 109.545 15.615 109.545 15.9017V19.1667H108.307V15.9017C108.307 15.5884 108.235 15.3459 108.089 15.1742C107.944 15.0025 107.726 14.9167 107.435 14.9167C107.222 14.9167 107.021 14.965 106.834 15.0617C106.647 15.1584 106.47 15.29 106.303 15.4567V19.1667H105.065ZM114.387 19.2467C113.942 19.2467 113.6 19.1209 113.359 18.8692C113.119 18.6175 112.998 18.27 112.998 17.8267V14.9617H112.477C112.41 14.9617 112.353 14.94 112.304 14.8967C112.256 14.8534 112.232 14.7884 112.232 14.7017V14.2117L113.059 14.0767L113.319 12.6767C113.332 12.61 113.363 12.5584 113.412 12.5217C113.46 12.485 113.521 12.4667 113.595 12.4667H114.236V14.0817H115.589V14.9617H114.236V17.7417C114.236 17.9017 114.276 18.0267 114.357 18.1167C114.437 18.2067 114.544 18.2517 114.677 18.2517C114.754 18.2517 114.818 18.2425 114.87 18.2242C114.922 18.2059 114.967 18.1867 115.006 18.1667C115.044 18.1467 115.078 18.1275 115.108 18.1092C115.138 18.0909 115.168 18.0817 115.199 18.0817C115.235 18.0817 115.265 18.0909 115.289 18.1092C115.312 18.1275 115.337 18.155 115.364 18.1917L115.735 18.7917C115.554 18.9417 115.347 19.055 115.113 19.1317C114.879 19.2084 114.637 19.2467 114.387 19.2467ZM116.577 19.1667V11.7367H117.815V14.5917C118.015 14.4017 118.236 14.2484 118.476 14.1317C118.717 14.015 118.999 13.9567 119.323 13.9567C119.604 13.9567 119.853 14.0042 120.07 14.0992C120.287 14.1942 120.468 14.3275 120.614 14.4992C120.759 14.6709 120.869 14.8759 120.945 15.1142C121.02 15.3525 121.057 15.615 121.057 15.9017V19.1667H119.819V15.9017C119.819 15.5884 119.747 15.3459 119.601 15.1742C119.456 15.0025 119.238 14.9167 118.947 14.9167C118.734 14.9167 118.533 14.965 118.346 15.0617C118.159 15.1584 117.982 15.29 117.815 15.4567V19.1667H116.577ZM124.4 13.9567C124.724 13.9567 125.022 14.0084 125.295 14.1117C125.567 14.215 125.802 14.3659 125.999 14.5642C126.196 14.7625 126.35 15.0059 126.46 15.2942C126.57 15.5825 126.625 15.9117 126.625 16.2817C126.625 16.375 126.621 16.4525 126.613 16.5142C126.604 16.5759 126.589 16.6242 126.568 16.6592C126.546 16.6942 126.517 16.7192 126.48 16.7342C126.443 16.7492 126.396 16.7567 126.34 16.7567H123.162C123.199 17.2834 123.341 17.67 123.588 17.9167C123.835 18.1634 124.163 18.2867 124.571 18.2867C124.771 18.2867 124.944 18.2634 125.089 18.2167C125.235 18.17 125.362 18.1184 125.47 18.0617C125.579 18.005 125.674 17.9534 125.756 17.9067C125.838 17.86 125.917 17.8367 125.994 17.8367C126.044 17.8367 126.087 17.8467 126.124 17.8667C126.161 17.8867 126.193 17.915 126.219 17.9517L126.58 18.4017C126.443 18.5617 126.29 18.6959 126.119 18.8042C125.949 18.9125 125.771 18.9992 125.585 19.0642C125.4 19.1292 125.211 19.175 125.019 19.2017C124.827 19.2284 124.641 19.2417 124.46 19.2417C124.103 19.2417 123.77 19.1825 123.463 19.0642C123.156 18.9459 122.888 18.7709 122.661 18.5392C122.434 18.3075 122.255 18.0209 122.125 17.6792C121.994 17.3375 121.929 16.9417 121.929 16.4917C121.929 16.1417 121.986 15.8125 122.1 15.5042C122.213 15.1959 122.376 14.9275 122.588 14.6992C122.801 14.4709 123.059 14.29 123.365 14.1567C123.671 14.0234 124.016 13.9567 124.4 13.9567ZM124.425 14.8417C124.064 14.8417 123.782 14.9434 123.578 15.1467C123.374 15.35 123.244 15.6384 123.187 16.0117H125.513C125.513 15.8517 125.491 15.7009 125.448 15.5592C125.404 15.4175 125.337 15.2934 125.247 15.1867C125.157 15.08 125.043 14.9959 124.906 14.9342C124.769 14.8725 124.609 14.8417 124.425 14.8417Z" fill="white"/>
<path fill-rule="evenodd" clip-rule="evenodd" d="M62.413 35.8334H60.6755C60.4806 35.8334 60.3205 35.7847 60.1952 35.6875C60.07 35.5903 59.9795 35.4695 59.9238 35.325L59.0217 32.8667H54.0182L53.1161 35.325C53.0716 35.4528 52.9839 35.5695 52.853 35.675C52.7221 35.7806 52.5621 35.8334 52.3727 35.8334H50.627L55.3714 23.7834H57.6685L62.413 35.8334ZM54.5946 31.2834H58.4453L56.9752 27.275C56.9084 27.0972 56.8346 26.8875 56.7538 26.6459C56.6731 26.4042 56.5937 26.1417 56.5158 25.8584C56.4378 26.1417 56.3613 26.4056 56.2861 26.65C56.2109 26.8945 56.1371 27.1084 56.0647 27.2917L54.5946 31.2834ZM63.8748 38.625V27.2834H65.1361C65.2697 27.2834 65.3839 27.3139 65.4785 27.375C65.5732 27.4361 65.6344 27.5306 65.6623 27.6584L65.8293 28.45C66.1746 28.0556 66.5714 27.7361 67.0196 27.4917C67.4679 27.2473 67.9928 27.125 68.5942 27.125C69.0619 27.125 69.4893 27.2223 69.8763 27.4167C70.2634 27.6111 70.5975 27.8931 70.8787 28.2625C71.1599 28.632 71.3771 29.0875 71.5302 29.6292C71.6834 30.1709 71.7599 30.7917 71.7599 31.4917C71.7599 32.1306 71.6736 32.7222 71.501 33.2667C71.3284 33.8111 71.082 34.2834 70.7618 34.6834C70.4416 35.0834 70.0545 35.3959 69.6007 35.6209C69.1469 35.8459 68.6387 35.9584 68.0763 35.9584C67.5918 35.9584 67.1811 35.8848 66.8442 35.7375C66.5073 35.5903 66.2052 35.3861 65.9379 35.125V38.625H63.8748ZM67.8841 28.75C67.4553 28.75 67.0892 28.8403 66.7857 29.0209C66.4822 29.2014 66.1996 29.4556 65.9379 29.7834V33.6167C66.1718 33.9056 66.4265 34.107 66.7022 34.2209C66.9778 34.3348 67.2743 34.3917 67.5917 34.3917C67.9036 34.3917 68.1862 34.3334 68.4396 34.2167C68.6929 34.1 68.9073 33.9223 69.0827 33.6834C69.2582 33.4445 69.3932 33.1431 69.4879 32.7792C69.5825 32.4153 69.6299 31.9861 69.6299 31.4917C69.6299 30.9917 69.5895 30.5681 69.5087 30.2209C69.428 29.8736 69.3125 29.5917 69.1621 29.375C69.0117 29.1584 68.8294 29 68.615 28.9C68.4006 28.8 68.157 28.75 67.8841 28.75ZM73.656 38.625V27.2834H74.9173C75.0509 27.2834 75.1651 27.3139 75.2598 27.375C75.3544 27.4361 75.4157 27.5306 75.4435 27.6584L75.6106 28.45C75.9559 28.0556 76.3526 27.7361 76.8009 27.4917C77.2492 27.2473 77.774 27.125 78.3754 27.125C78.8432 27.125 79.2706 27.2223 79.6576 27.4167C80.0446 27.6111 80.3787 27.8931 80.6599 28.2625C80.9412 28.632 81.1583 29.0875 81.3115 29.6292C81.4646 30.1709 81.5412 30.7917 81.5412 31.4917C81.5412 32.1306 81.4549 32.7222 81.2822 33.2667C81.1096 33.8111 80.8632 34.2834 80.543 34.6834C80.2228 35.0834 79.8358 35.3959 79.3819 35.6209C78.9281 35.8459 78.42 35.9584 77.8575 35.9584C77.3731 35.9584 76.9624 35.8848 76.6255 35.7375C76.2886 35.5903 75.9865 35.3861 75.7192 35.125V38.625H73.656ZM77.6655 28.75C77.2367 28.75 76.8706 28.8403 76.5671 29.0209C76.2636 29.2014 75.981 29.4556 75.7192 29.7834V33.6167C75.9531 33.9056 76.2079 34.107 76.4835 34.2209C76.7592 34.3348 77.0557 34.3917 77.3731 34.3917C77.685 34.3917 77.9676 34.3334 78.2209 34.2167C78.4743 34.1 78.6887 33.9223 78.8641 33.6834C79.0395 33.4445 79.1746 33.1431 79.2692 32.7792C79.3639 32.4153 79.4112 31.9861 79.4112 31.4917C79.4112 30.9917 79.3709 30.5681 79.2901 30.2209C79.2094 29.8736 79.0938 29.5917 78.9435 29.375C78.7931 29.1584 78.6107 29 78.3964 28.9C78.182 28.8 77.9383 28.75 77.6655 28.75ZM93.5861 25.975C93.5249 26.0972 93.4539 26.1834 93.3731 26.2334C93.2924 26.2834 93.1963 26.3084 93.085 26.3084C92.9736 26.3084 92.8483 26.2653 92.7091 26.1792C92.5699 26.0931 92.4056 25.9972 92.2162 25.8917C92.0269 25.7861 91.8056 25.6903 91.5522 25.6042C91.2988 25.5181 90.9995 25.475 90.6542 25.475C90.3424 25.475 90.0709 25.5125 89.8398 25.5875C89.6087 25.6625 89.4138 25.7667 89.2551 25.9C89.0964 26.0334 88.9781 26.1931 88.9001 26.3792C88.8222 26.5653 88.7832 26.7695 88.7832 26.9917C88.7832 27.275 88.8625 27.5111 89.0212 27.7C89.18 27.8889 89.3902 28.05 89.6519 28.1834C89.9136 28.3167 90.2115 28.4361 90.5457 28.5417C90.8798 28.6472 91.2209 28.7597 91.5689 28.8792C91.9169 28.9986 92.258 29.1375 92.5921 29.2959C92.9262 29.4542 93.2242 29.6542 93.4859 29.8959C93.7476 30.1375 93.9578 30.4334 94.1165 30.7834C94.2752 31.1334 94.3546 31.5584 94.3546 32.0584C94.3546 32.6028 94.2613 33.1125 94.0748 33.5875C93.8882 34.0625 93.6154 34.4764 93.2562 34.8292C92.897 35.182 92.4585 35.4597 91.9406 35.6625C91.4227 35.8653 90.8297 35.9667 90.1614 35.9667C89.7772 35.9667 89.3985 35.9292 89.0254 35.8542C88.6523 35.7792 88.2945 35.6722 87.9521 35.5334C87.6096 35.3945 87.2894 35.2278 86.9915 35.0334C86.6936 34.8389 86.4277 34.6222 86.1938 34.3834L86.8453 33.3084C86.9066 33.2306 86.9803 33.1653 87.0667 33.1125C87.153 33.0597 87.249 33.0334 87.3548 33.0334C87.494 33.0334 87.6444 33.0903 87.8059 33.2042C87.9674 33.3181 88.1581 33.4445 88.3781 33.5834C88.598 33.7222 88.857 33.8486 89.1549 33.9625C89.4528 34.0764 89.8106 34.1334 90.2282 34.1334C90.8686 34.1334 91.3642 33.982 91.7151 33.6792C92.0659 33.3764 92.2413 32.9417 92.2413 32.375C92.2413 32.0584 92.162 31.8 92.0032 31.6C91.8445 31.4 91.6343 31.232 91.3726 31.0959C91.1109 30.9597 90.813 30.8445 90.4788 30.75C90.1447 30.6556 89.805 30.5528 89.4598 30.4417C89.1145 30.3306 88.7748 30.1972 88.4407 30.0417C88.1066 29.8861 87.8087 29.6834 87.547 29.4334C87.2852 29.1834 87.075 28.8709 86.9163 28.4959C86.7576 28.1209 86.6782 27.6584 86.6782 27.1084C86.6782 26.6695 86.7659 26.2417 86.9414 25.825C87.1168 25.4084 87.3729 25.0389 87.7098 24.7167C88.0467 24.3945 88.4602 24.1361 88.9502 23.9417C89.4403 23.7472 89.9999 23.65 90.6292 23.65C91.342 23.65 91.9991 23.7611 92.6005 23.9834C93.2019 24.2056 93.7142 24.5167 94.1374 24.9167L93.5861 25.975ZM99.1074 35.9667C98.3668 35.9667 97.796 35.757 97.395 35.3375C96.9941 34.9181 96.7936 34.3389 96.7936 33.6V28.825H95.9249C95.8135 28.825 95.7175 28.7889 95.6367 28.7167C95.556 28.6445 95.5156 28.5361 95.5156 28.3917V27.575L96.8939 27.35L97.3282 25.0167C97.3505 24.9056 97.402 24.8195 97.4827 24.7584C97.5635 24.6972 97.6651 24.6667 97.7876 24.6667H98.8568V27.3584H101.112V28.825H98.8568V33.4584C98.8568 33.725 98.9236 33.9334 99.0573 34.0834C99.1909 34.2334 99.3691 34.3084 99.5919 34.3084C99.7199 34.3084 99.8271 34.2931 99.9134 34.2625C99.9998 34.232 100.075 34.2 100.139 34.1667C100.203 34.1334 100.26 34.1014 100.31 34.0709C100.36 34.0403 100.41 34.025 100.461 34.025C100.522 34.025 100.572 34.0403 100.611 34.0709C100.65 34.1014 100.692 34.1472 100.736 34.2084L101.354 35.2084C101.054 35.4584 100.708 35.6472 100.319 35.775C99.9288 35.9028 99.525 35.9667 99.1074 35.9667ZM106.75 27.15C107.391 27.15 107.971 27.2528 108.492 27.4584C109.013 27.6639 109.457 27.9556 109.824 28.3334C110.192 28.7111 110.476 29.1722 110.676 29.7167C110.877 30.2611 110.977 30.8695 110.977 31.5417C110.977 32.2195 110.877 32.8306 110.676 33.375C110.476 33.9195 110.192 34.3834 109.824 34.7667C109.457 35.15 109.013 35.4445 108.492 35.65C107.971 35.8556 107.391 35.9584 106.75 35.9584C106.11 35.9584 105.528 35.8556 105.005 35.65C104.481 35.4445 104.034 35.15 103.664 34.7667C103.294 34.3834 103.007 33.9195 102.804 33.375C102.6 32.8306 102.499 32.2195 102.499 31.5417C102.499 30.8695 102.6 30.2611 102.804 29.7167C103.007 29.1722 103.294 28.7111 103.664 28.3334C104.034 27.9556 104.481 27.6639 105.005 27.4584C105.528 27.2528 106.11 27.15 106.75 27.15ZM106.75 34.375C107.463 34.375 107.991 34.1361 108.333 33.6584C108.676 33.1806 108.847 32.4806 108.847 31.5584C108.847 30.6361 108.676 29.9334 108.333 29.45C107.991 28.9667 107.463 28.725 106.75 28.725C106.026 28.725 105.492 28.9681 105.147 29.4542C104.801 29.9403 104.629 30.6417 104.629 31.5584C104.629 32.475 104.801 33.1736 105.147 33.6542C105.492 34.1347 106.026 34.375 106.75 34.375ZM112.923 35.8334V27.2834H114.134C114.346 27.2834 114.494 27.3223 114.577 27.4C114.661 27.4778 114.716 27.6111 114.744 27.8L114.869 28.8334C115.176 28.3056 115.535 27.8889 115.947 27.5834C116.359 27.2778 116.821 27.125 117.334 27.125C117.757 27.125 118.108 27.2223 118.386 27.4167L118.119 28.9584C118.102 29.0584 118.066 29.1292 118.01 29.1709C117.954 29.2125 117.879 29.2334 117.785 29.2334C117.701 29.2334 117.587 29.2139 117.442 29.175C117.297 29.1361 117.105 29.1167 116.866 29.1167C116.437 29.1167 116.069 29.2348 115.763 29.4709C115.457 29.707 115.198 30.0528 114.986 30.5084V35.8334H112.923ZM123.623 27.15C124.163 27.15 124.66 27.2361 125.114 27.4084C125.568 27.5806 125.959 27.832 126.288 28.1625C126.616 28.4931 126.873 28.8986 127.056 29.3792C127.24 29.8597 127.332 30.4084 127.332 31.025C127.332 31.1806 127.325 31.3097 127.311 31.4125C127.297 31.5153 127.272 31.5959 127.236 31.6542C127.2 31.7125 127.151 31.7542 127.09 31.7792C127.028 31.8042 126.951 31.8167 126.856 31.8167H121.56C121.621 32.6945 121.858 33.3389 122.27 33.75C122.682 34.1611 123.228 34.3667 123.907 34.3667C124.241 34.3667 124.53 34.3278 124.772 34.25C125.014 34.1722 125.226 34.0861 125.407 33.9917C125.588 33.8972 125.746 33.8111 125.883 33.7334C126.019 33.6556 126.151 33.6167 126.279 33.6167C126.363 33.6167 126.435 33.6334 126.497 33.6667C126.558 33.7 126.611 33.7472 126.655 33.8084L127.257 34.5584C127.028 34.825 126.772 35.0486 126.488 35.2292C126.204 35.4097 125.908 35.5542 125.599 35.6625C125.29 35.7709 124.975 35.8472 124.655 35.8917C124.335 35.9361 124.024 35.9584 123.723 35.9584C123.128 35.9584 122.574 35.8597 122.061 35.6625C121.549 35.4653 121.103 35.1736 120.725 34.7875C120.346 34.4014 120.048 33.9236 119.831 33.3542C119.614 32.7847 119.505 32.125 119.505 31.375C119.505 30.7917 119.6 30.2431 119.789 29.7292C119.979 29.2153 120.25 28.7681 120.604 28.3875C120.957 28.007 121.389 27.7056 121.898 27.4834C122.408 27.2611 122.983 27.15 123.623 27.15ZM123.665 28.625C123.064 28.625 122.593 28.7945 122.253 29.1334C121.914 29.4723 121.697 29.9528 121.602 30.575H125.478C125.478 30.3084 125.441 30.057 125.369 29.8209C125.297 29.5848 125.185 29.3778 125.035 29.2C124.885 29.0223 124.695 28.882 124.467 28.7792C124.239 28.6764 123.971 28.625 123.665 28.625Z" fill="white"/>
<path fill-rule="evenodd" clip-rule="evenodd" d="M34.0218 14.3982C35.033 13.2096 35.5403 11.9255 35.5403 10.5502V10.5501C35.5403 10.3677 35.5317 10.1839 35.5112 10C34.8068 10.0362 34.0578 10.2476 33.2659 10.6298C32.4724 11.0178 31.818 11.5041 31.3035 12.0891C30.2729 13.2444 29.6926 14.6574 29.6926 15.9777C29.6926 16.1602 29.7044 16.3338 29.7248 16.4988C31.3254 16.6276 32.8015 15.8112 34.0218 14.3982ZM39.4052 34.0891C39.9811 33.276 40.4781 32.3916 40.8981 31.4309C41.0712 31.0235 41.234 30.5991 41.3882 30.156C40.677 29.8607 40.0377 29.4448 39.4652 28.9067C38.202 27.7473 37.5593 26.2872 37.5405 24.5325C37.5199 22.2797 38.5534 20.5237 40.6427 19.2699C39.4755 17.6268 37.7204 16.7147 35.3844 16.528C34.5222 16.4555 33.4699 16.6395 32.223 17.0839C30.9045 17.5631 30.1267 17.8035 29.8972 17.8035C29.5903 17.8035 28.8901 17.5979 27.7997 17.1926C26.7062 16.7886 25.8263 16.583 25.1553 16.583C23.929 16.6032 22.7903 16.9189 21.7364 17.5385C20.6825 18.1581 19.8404 19.0021 19.2075 20.072C18.4021 21.404 18 22.9935 18 24.8365C18 26.4454 18.2982 28.1072 18.8931 29.8233C19.4486 31.4122 20.1577 32.8058 21.0201 34.0076C21.8239 35.1331 22.4949 35.9275 23.0314 36.3909C23.8719 37.1649 24.714 37.5333 25.5588 37.4976C26.1142 37.479 26.8408 37.2906 27.7426 36.929C28.6431 36.5691 29.485 36.3909 30.27 36.3909C31.0185 36.3909 31.837 36.5691 32.7278 36.929C33.6156 37.2906 34.3783 37.4688 35.0107 37.4688C35.8917 37.4484 36.7144 37.0903 37.4822 36.3909C37.9775 35.9648 38.6202 35.1976 39.4052 34.0891Z" fill="white"/>
</svg>
