<svg width="152" height="40" viewBox="0 0 152 40" fill="none" xmlns="http://www.w3.org/2000/svg">
<path fill-rule="evenodd" clip-rule="evenodd" d="M0 4C0 1.79086 1.79086 0 4 0H148C150.209 0 152 1.79086 152 4V36C152 38.2091 150.209 40 148 40H4C1.79086 40 0 38.2091 0 36L0 4Z" fill="black"/>
<path d="M32.0403 23.7579C29.8876 25.8901 25.8643 30.3799 25.8643 30.3799C26.1288 30.4146 26.4287 30.3453 26.7815 30.1546C27.5223 29.7559 35.3889 25.5261 40.7334 22.6484C40.7334 22.6484 39.8877 21.1637 39.2632 20.5499C38.7059 20.0022 37.1881 19.1641 37.1881 19.1641C37.1881 19.1641 33.6621 22.1515 32.0403 23.7579Z" fill="#FF3333"/>
<path d="M37.1881 19.1658C37.1881 19.1658 38.936 18.3879 39.566 17.7656C40.1177 17.2206 40.7334 15.6641 40.7334 15.6641C40.7334 15.6641 27.5752 8.60864 26.7815 8.19259C26.4817 8.01924 26.1465 7.96723 25.8467 8.01924C25.8467 8.01924 29.2259 11.8157 31.0239 13.5829C33.0063 15.5312 37.1881 19.1658 37.1881 19.1658Z" fill="#48FF48"/>
<path d="M37.1881 19.1661L25.8466 8.01953C25.388 8.12354 25 8.52225 25 9.33701C25 10.6371 25 27.9724 25 29.0645C25 29.8099 25.2999 30.3473 25.8643 30.3993L37.1881 19.1661Z" fill="#3BCCFF"/>
<path d="M40.7333 22.6502C43.432 21.194 45.4956 20.0845 45.672 19.9979C46.2364 19.7032 46.8185 18.9231 45.672 18.3164C45.3016 18.1257 43.3085 17.0509 40.7333 15.6641L37.188 19.1658L40.7333 22.6502Z" fill="#FFD400"/>
<path fill-rule="evenodd" clip-rule="evenodd" d="M59.5277 11.1158V11.5905C59.5277 12.4696 59.2458 13.1816 58.6818 13.7266C58.1179 14.2717 57.3895 14.5442 56.4966 14.5442C55.545 14.5442 54.7564 14.235 54.1308 13.6167C53.5052 12.9985 53.1924 12.2439 53.1924 11.3532C53.1924 10.4565 53.5022 9.69759 54.122 9.07639C54.7417 8.45518 55.5098 8.14458 56.4261 8.14458C57.0018 8.14458 57.5275 8.27497 58.0034 8.53576C58.4792 8.79655 58.8492 9.14378 59.1136 9.57745L58.0739 10.1752C57.927 9.92322 57.7052 9.7181 57.4086 9.55987C57.1119 9.40164 56.7815 9.32252 56.4173 9.32252C55.8299 9.32252 55.3468 9.51445 54.9679 9.89831C54.589 10.2822 54.3995 10.7671 54.3995 11.3532C54.3995 11.9333 54.5919 12.4124 54.9767 12.7904C55.3614 13.1684 55.871 13.3574 56.5054 13.3574C56.9754 13.3574 57.3645 13.2534 57.6729 13.0454C57.9813 12.8373 58.1913 12.5516 58.3029 12.1883H56.4349V11.1158H59.5277ZM61.6076 13.2588H64.2069V14.4191H60.3916V8.26567H64.1628V9.42604H61.6076V10.7358H63.9426V11.8786H61.6076V13.2588ZM69.1404 8.26567V9.42604H67.475V14.4191H66.2591V9.42604H64.6025V8.26567H69.1404ZM72.0225 8.26567H73.2384V14.4191H72.0225V8.26567ZM78.4636 8.26567V9.42604H76.7983V14.4191H75.5823V9.42604H73.9258V8.26567H78.4636ZM86.5344 13.6211C85.9117 14.2364 85.1539 14.5441 84.261 14.5441C83.3682 14.5441 82.6119 14.235 81.9921 13.6167C81.3724 12.9984 81.0625 12.241 81.0625 11.3443C81.0625 10.4477 81.3724 9.69022 81.9921 9.07194C82.6119 8.45367 83.3682 8.14453 84.261 8.14453C85.1539 8.14453 85.9117 8.45367 86.5344 9.07194C87.157 9.69022 87.4684 10.4477 87.4684 11.3443C87.4684 12.241 87.157 12.9999 86.5344 13.6211ZM82.8423 12.7966C83.2241 13.1716 83.697 13.3592 84.2609 13.3592C84.8248 13.3592 85.2977 13.1702 85.6795 12.7922C86.0613 12.4142 86.2522 11.9322 86.2522 11.3461C86.2522 10.7601 86.0613 10.2766 85.6795 9.89566C85.2977 9.51473 84.8248 9.32427 84.2609 9.32427C83.697 9.32427 83.2241 9.51473 82.8423 9.89566C82.4604 10.2766 82.2695 10.7601 82.2695 11.3461C82.2695 11.9322 82.4604 12.4156 82.8423 12.7966ZM91.8918 8.26567H93.1078V14.4191H92.1826L89.5392 10.6567V14.4191H88.3232V8.26567H89.2484L91.8918 12.0193V8.26567Z" fill="white"/>
<path fill-rule="evenodd" clip-rule="evenodd" d="M58.722 22.5348V24.0776H62.4613C62.3555 24.9444 62.0557 25.5858 61.6147 26.0192C61.0679 26.5566 60.2213 27.146 58.722 27.146C56.4114 27.146 54.6123 25.3084 54.6123 23.0202C54.6123 20.7319 56.4114 18.8944 58.722 18.8944C59.9743 18.8944 60.8739 19.3798 61.5441 20.0039L62.6554 18.9117C61.7205 18.0276 60.4682 17.3516 58.722 17.3516C55.5648 17.3516 52.9014 19.8998 52.9014 23.0202C52.9014 26.1405 55.5471 28.6888 58.722 28.6888C60.4329 28.6888 61.7029 28.1341 62.7259 27.094C63.7666 26.0712 64.0841 24.6324 64.0841 23.4709C64.0841 23.1069 64.0488 22.7775 63.9959 22.5001L58.722 22.5348ZM68.3173 21.4062C66.2713 21.4062 64.6133 22.9491 64.6133 25.064C64.6133 27.1615 66.2713 28.7217 68.3173 28.7217C70.3634 28.7217 72.0214 27.1789 72.0214 25.064C72.0214 22.9491 70.3634 21.4062 68.3173 21.4062ZM72.6914 25.064C72.6914 22.9491 74.367 21.4062 76.3955 21.4062C78.4415 21.4062 80.0995 22.9491 80.0995 25.064C80.0995 27.1789 78.4415 28.7217 76.3955 28.7217C74.3494 28.7217 72.6914 27.1615 72.6914 25.064ZM74.3142 25.0657C74.3142 26.3659 75.2843 27.2847 76.3955 27.2847C77.5067 27.2847 78.4768 26.3659 78.4768 25.0657C78.4768 23.7483 77.5067 22.8468 76.3955 22.8468C75.2843 22.8468 74.3142 23.7483 74.3142 25.0657ZM66.2356 25.0657C66.2356 26.3659 67.2058 27.2847 68.317 27.2847C69.4458 27.2847 70.3983 26.3659 70.3983 25.0657C70.3983 23.7483 69.4282 22.8468 68.317 22.8468C67.2058 22.8468 66.2356 23.7483 66.2356 25.0657ZM94.8449 21.4062C96.7498 21.4062 97.7023 22.9144 98.0021 23.7292L98.1785 24.1452L93.2398 26.1734C93.6102 26.9188 94.1922 27.2829 95.0212 27.2829C95.8503 27.2829 96.4147 26.8842 96.838 26.2774L98.0903 27.1095C97.6846 27.6989 96.7145 28.7217 95.0212 28.7217C92.9399 28.7217 91.3701 27.1095 91.3701 25.064C91.3701 22.8797 92.9399 21.4062 94.8449 21.4062ZM92.9754 24.9604C92.9401 23.5562 94.0866 22.8281 94.898 22.8281C95.5506 22.8281 96.0797 23.1402 96.2738 23.6082L92.9754 24.9604ZM90.5944 28.5H88.9717V17.7695H90.5944V28.5ZM86.3079 22.221H86.255C85.8846 21.7876 85.1967 21.4062 84.3148 21.4062C82.4627 21.4062 80.7871 23.0184 80.7871 25.064C80.7871 27.1095 82.4804 28.7044 84.3148 28.7044C85.1967 28.7044 85.8846 28.323 86.255 27.8723H86.3079V28.3923C86.3079 29.7965 85.5495 30.5419 84.3324 30.5419C83.3447 30.5419 82.7273 29.8312 82.4804 29.2418L81.0693 29.8312C81.475 30.8019 82.5509 31.9981 84.3324 31.9981C86.2373 31.9981 87.8424 30.8886 87.8424 28.2017V21.6316H86.3079V22.221ZM82.4099 25.0831C82.4099 26.3659 83.3447 27.2847 84.4559 27.2847C85.5495 27.2847 86.4314 26.3486 86.4314 25.0831C86.4314 23.8003 85.5495 22.8642 84.4559 22.8642C83.3447 22.8642 82.4099 23.8003 82.4099 25.0831ZM105.586 17.7695H101.706V28.5H103.329V24.4263H105.586C107.386 24.4263 109.149 23.1434 109.149 21.0979C109.149 19.0523 107.386 17.7695 105.586 17.7695ZM103.329 22.9335H105.639C106.839 22.9335 107.527 21.9281 107.544 21.096C107.544 20.2466 106.839 19.2585 105.639 19.2585H103.329V22.9335ZM115.641 21.3908C114.476 21.3908 113.259 21.8935 112.765 23.0376L114.194 23.627C114.512 23.0376 115.076 22.8469 115.676 22.8469C116.522 22.8469 117.369 23.3497 117.387 24.2338V24.3378C117.087 24.1644 116.47 23.9217 115.693 23.9217C114.141 23.9217 112.571 24.7712 112.571 26.3313C112.571 27.7701 113.841 28.6889 115.252 28.6889C116.346 28.6889 116.946 28.2035 117.316 27.6315H117.369V28.4636H118.939V24.3551C118.921 22.4656 117.493 21.3908 115.641 21.3908ZM114.177 26.3659C114.177 27.0073 114.918 27.2673 115.447 27.2673C116.382 27.2673 117.246 26.5739 117.369 25.5858C116.928 25.3778 116.593 25.2218 115.888 25.2218C115.094 25.2218 114.177 25.5338 114.177 26.3659ZM124.618 21.6334L122.766 26.2792H122.713L120.791 21.6334H119.045L121.937 28.1341L120.297 31.7572H121.99L126.435 21.6334H124.618ZM111.672 28.5H110.049V17.7695H111.672V28.5Z" fill="white"/>
</svg>
