<svg width="42" height="42" viewBox="0 0 42 42" fill="none" xmlns="http://www.w3.org/2000/svg">
<path d="M34.3389 14.3306H27.6694C26.7486 14.3306 26.0021 13.5841 26.0021 12.6632V5.99377" stroke="#5AABE5" stroke-width="2" stroke-linecap="round" stroke-linejoin="round"/>
<path d="M10.9958 14.3306V9.3285C10.9958 7.48678 12.4889 5.99377 14.3306 5.99377H26.2889C27.1732 5.99377 28.0213 6.34542 28.6465 6.97085L33.3618 11.6861C33.9873 12.3114 34.3389 13.1594 34.3389 14.0438V32.6716C34.3389 34.5133 32.8459 36.0063 31.0042 36.0063H14.3306C12.4889 36.0063 10.9958 34.5133 10.9958 32.6716V31.0042" stroke="#5AABE5" stroke-width="2" stroke-linecap="round" stroke-linejoin="round"/>
<path d="M17.4352 20.9366L13.2668 25.105L10.7657 22.604" stroke="#5AABE5" stroke-width="2" stroke-linecap="round" stroke-linejoin="round"/>
<rect x="5.99374" y="14.3306" width="16.6736" height="16.6736" rx="3" stroke="#5AABE5" stroke-width="2" stroke-linecap="round" stroke-linejoin="round"/>
</svg>
