<?xml version="1.0" encoding="UTF-8"?>
<svg width="448px" height="252px" viewBox="0 0 448 252" version="1.1" xmlns="http://www.w3.org/2000/svg" xmlns:xlink="http://www.w3.org/1999/xlink">
    <!-- Generator: Sketch 64 (93537) - https://sketch.com -->
    <title>preview-video-red</title>
    <desc>Created with Sketch.</desc>
    <defs>
        <rect id="path-1" x="0" y="0" width="448" height="252" rx="4"></rect>
    </defs>
    <g id="Page-1" stroke="none" stroke-width="1" fill="none" fill-rule="evenodd">
        <g id="preview-video-red">
            <g id="a-link" fill="#E95E50" fill-rule="nonzero">
                <rect id="a" x="0" y="0" width="448" height="252" rx="4"></rect>
            </g>
            <g id="Clipped">
                <mask id="mask-2" fill="white">
                    <use xlink:href="#path-1"></use>
                </mask>
                <g id="a"></g>
                <path d="M231.66,76.453 L211.607,76.453 L211.607,1.083 L256.147,1.083 L256.147,17.425 L231.66,17.425 L231.66,31.808 L254.24,31.808 L254.24,48.15 L231.66,48.15 L231.66,76.453 L231.66,76.453 Z M310.052,76.453 L306.34,62.327 L281.853,62.327 L278.039,76.453 L255.665,76.453 L280.255,0.773 L307.423,0.773 L332.323,76.453 L310.053,76.453 L310.052,76.453 Z M302.113,45.624 L298.865,33.252 C298.109,30.502 297.19,26.945 296.107,22.58 C295.025,18.215 294.312,15.088 293.968,13.198 C293.658,14.95 293.048,17.838 292.138,21.858 C291.228,25.88 289.208,33.801 286.081,45.624 L302.113,45.624 Z M387.155,53.564 C387.155,58.237 385.97,62.387 383.598,66.014 C381.227,69.639 377.808,72.457 373.339,74.468 C368.871,76.478 363.63,77.484 357.616,77.484 C352.598,77.484 348.388,77.132 344.986,76.427 C341.583,75.722 338.044,74.494 334.366,72.741 L334.366,54.594 C338.225739,56.5783549 342.28734,58.1426495 346.481,59.26 C350.674,60.377 354.523,60.935 358.028,60.935 C361.053,60.935 363.27,60.411 364.678,59.363 C366.088,58.315 366.792,56.966 366.792,55.316 C366.792,54.285 366.509,53.383 365.942,52.61 C365.375,51.836 364.464,51.054 363.209,50.264 C361.955,49.474 358.613,47.858 353.183,45.418 C348.268,43.184 344.582,41.018 342.125,38.922 C339.667,36.826 337.845,34.42 336.66,31.705 C335.474,28.99 334.882,25.776 334.882,22.065 C334.882,15.122 337.408,9.709 342.46,5.825 C347.512,1.942 354.454,0 363.287,0 C371.088,0 379.044,1.804 387.155,5.413 L380.917,21.137 C373.872,17.906 367.789,16.291 362.668,16.291 C360.022,16.291 358.098,16.755 356.894,17.683 C355.691,18.611 355.09,19.762 355.09,21.137 C355.09,22.614 355.855,23.937 357.384,25.107 C358.914,26.275 363.064,28.406 369.834,31.499 C376.329,34.42 380.84,37.556 383.366,40.907 C385.892,44.258 387.156,48.477 387.156,53.563 L387.155,53.564 Z M429.461,76.453 L409.098,76.453 L409.098,17.734 L390.694,17.734 L390.694,1.083 L447.814,1.083 L447.814,17.734 L429.46,17.734 L429.46,76.453 L429.461,76.453 Z M113.789,228.08 C113.789,232.754 112.603,236.904 110.232,240.53 C107.861,244.155 104.442,246.974 99.973,248.984 C95.505,250.994 90.264,252 84.25,252 C79.232,252 75.022,251.648 71.62,250.943 C68.217,250.239 64.677,249.01 61,247.257 L61,229.111 C64.8597806,231.095011 68.9213801,232.65897 73.115,233.776 C77.308,234.893 81.157,235.452 84.662,235.452 C87.687,235.452 89.903,234.927 91.312,233.879 C92.722,232.831 93.426,231.482 93.426,229.832 C93.426,228.802 93.143,227.899 92.576,227.126 C92.008,226.353 91.098,225.571 89.843,224.78 C88.589,223.99 85.247,222.374 79.816,219.934 C74.902,217.7 71.216,215.535 68.759,213.439 C66.301,211.342 64.479,208.936 63.294,206.221 C62.108,203.506 61.516,200.293 61.516,196.581 C61.516,189.638 64.042,184.225 69.094,180.341 C74.146,176.458 81.088,174.516 89.921,174.516 C97.722,174.516 105.678,176.321 113.789,179.929 L107.551,195.653 C100.506,192.423 94.423,190.807 89.302,190.807 C86.656,190.807 84.732,191.271 83.528,192.199 C82.325,193.127 81.724,194.279 81.724,195.653 C81.724,197.131 82.489,198.453 84.018,199.623 C85.548,200.791 89.698,202.922 96.468,206.015 C102.963,208.936 107.474,212.072 110,215.423 C112.526,218.774 113.79,222.993 113.79,228.08 L113.789,228.08 Z M170.187,250.969 L125.44,250.969 L125.44,175.599 L170.187,175.599 L170.187,191.941 L145.803,191.941 L145.803,203.798 L168.383,203.798 L168.383,220.14 L145.803,220.14 L145.803,234.369 L170.187,234.369 L170.187,250.969 Z M216.944,191.219 C212.099,191.219 208.318,193.204 205.603,197.174 C202.888,201.144 201.53,206.616 201.53,213.594 C201.53,228.097 207.046,235.348 218.079,235.348 C221.359632,235.355835 224.62402,234.88728 227.77,233.957 C230.970273,233.003199 234.119136,231.884709 237.204,230.606 L237.204,247.824 C230.915,250.608 223.801,252 215.862,252 C204.486,252 195.765,248.7 189.699,242.102 C183.633,235.503 180.6,225.966 180.6,213.49 C180.6,205.688 182.07,198.832 185.008,192.92 C187.947,187.01 192.174,182.464 197.69,179.285 C203.206,176.105 209.693,174.516 217.15,174.516 C225.296,174.516 233.08,176.286 240.504,179.826 L234.266,195.859 C231.555359,194.5817 228.765641,193.479441 225.914,192.559 C223.131,191.666 220.141,191.219 216.944,191.219 L216.944,191.219 Z M315.976,175.599 L315.976,220.965 C315.976,230.829 313.183,238.467 307.598,243.88 C302.014,249.294 293.963,252 283.446,252 C273.17,252 265.274,249.37 259.758,244.112 C254.242,238.854 251.484,231.293 251.484,221.429 L251.484,175.6 L271.95,175.6 L271.95,219.832 C271.95,225.159 272.947,229.026 274.94,231.432 C276.934,233.837 279.872,235.04 283.756,235.04 C287.914,235.04 290.93,233.846 292.803,231.457 C294.676,229.069 295.613,225.159 295.613,219.729 L295.613,175.599 L315.976,175.599 L315.976,175.599 Z M352.165,223.543 L352.165,250.969 L331.802,250.969 L331.802,175.599 L356.495,175.599 C376.979,175.599 387.22,183.022 387.22,197.869 C387.22,206.599 382.959,213.353 374.435,218.129 L396.397,250.969 L373.3,250.969 L357.32,223.543 L352.164,223.543 L352.165,223.543 Z M352.165,208.232 L355.98,208.232 C363.094,208.232 366.651,205.087 366.651,198.798 C366.651,193.608 363.163,191.013 356.186,191.013 L352.165,191.013 L352.165,208.232 Z M448,250.969 L403.253,250.969 L403.253,175.599 L448,175.599 L448,191.941 L423.616,191.941 L423.616,203.798 L446.196,203.798 L446.196,220.14 L423.616,220.14 L423.616,234.369 L448,234.369 L448,250.969 L448,250.969 Z M220.224,166.159 L175.477,166.159 L175.477,90.789 L220.224,90.789 L220.224,107.131 L195.84,107.131 L195.84,118.988 L218.42,118.988 L218.42,135.33 L195.84,135.33 L195.84,149.559 L220.224,149.559 L220.224,166.159 L220.224,166.159 Z M289.352,166.159 L285.64,152.033 L261.153,152.033 L257.338,166.159 L234.965,166.159 L259.555,90.479 L286.723,90.479 L311.623,166.159 L289.352,166.159 L289.352,166.159 Z M281.413,135.33 L278.165,122.958 C277.409,120.208 276.49,116.651 275.407,112.286 C274.325,107.921 273.612,104.794 273.267,102.904 C272.959,104.656 272.349,107.544 271.437,111.564 C270.527,115.586 268.507,123.507 265.38,135.33 L281.413,135.33 L281.413,135.33 Z M371.647,143.27 C371.647,147.943 370.462,152.093 368.09,155.72 C365.719,159.345 362.3,162.163 357.832,164.174 C353.364,166.184 348.122,167.19 342.108,167.19 C337.09,167.19 332.88,166.838 329.478,166.133 C326.076,165.428 322.536,164.2 318.858,162.447 L318.858,144.3 C322.717739,146.284355 326.77934,147.84865 330.973,148.966 C335.166,150.083 339.015,150.641 342.521,150.641 C345.545,150.641 347.761,150.117 349.171,149.069 C350.58,148.021 351.284,146.672 351.284,145.022 C351.284,143.992 351.001,143.089 350.434,142.316 C349.867,141.542 348.956,140.76 347.702,139.97 C346.447,139.18 343.105,137.564 337.675,135.124 C332.76,132.89 329.075,130.724 326.617,128.628 C324.16,126.532 322.338,124.126 321.152,121.411 C319.967,118.696 319.374,115.482 319.374,111.771 C319.374,104.828 321.9,99.415 326.952,95.531 C332.004,91.648 338.946,89.706 347.779,89.706 C355.58,89.706 363.537,91.51 371.647,95.119 L365.41,110.843 C358.364,107.612 352.281,105.997 347.16,105.997 C344.514,105.997 342.59,106.461 341.386,107.389 C340.184,108.317 339.582,109.468 339.582,110.843 C339.582,112.32 340.347,113.643 341.876,114.813 C343.406,115.981 347.556,118.112 354.326,121.205 C360.822,124.126 365.332,127.262 367.858,130.613 C370.384,133.964 371.648,138.183 371.648,143.269 L371.647,143.27 Z M412.804,118.73 L425.796,90.789 L447.86,90.789 L423.063,136.722 L423.063,166.159 L402.546,166.159 L402.546,137.34 L377.749,90.788 L399.916,90.788 L412.804,118.729 L412.804,118.73 Z" id="Shape" fill="#FF7668" fill-rule="nonzero" opacity="0.6" mask="url(#mask-2)"></path>
            </g>
            <g id="Group" transform="translate(24.000000, 24.000000)" fill="#FFFFFF" fill-rule="nonzero">
                <g id="pdfFfiller-logo" transform="translate(-0.000000, 0.000000)">
                    <path d="M13.254779,7.03426682 C20.2450515,7.03426682 23.4537013,11.234729 23.4537013,19.1392351 C23.4537013,26.3182068 20.1304569,31.0914593 13.254779,31.0914593 C10.8073651,31.0914593 8.6563771,30.3670939 6.98531676,29.1629541 L6.60829041,28.8766702 L6.53189397,28.9530423 L6.60043305,35.770503 C6.60447692,36.1727393 6.36915177,36.5324968 6.01243667,36.6949528 L5.85247068,36.752046 L1.262419,37.9665487 C1.17848947,37.988756 1.09203567,38 1.00521606,38 C0.511735617,38 0.101308951,37.6445179 0.0161953766,37.1757359 L0,36.9951048 L0,8.47528661 C0,7.98196366 0.355595506,7.57166797 0.824527205,7.48658157 L1.00521606,7.47039135 L4.41403697,7.47039135 C4.80029298,7.47039135 5.14700093,7.6908182 5.31450478,8.02851754 L5.37491332,8.18012504 L5.84432619,9.7072882 C7.63964208,8.02710334 9.9315347,7.03426682 13.254779,7.03426682 Z M47.4984694,0.179990471 C47.9919499,0.179990471 48.4023766,0.535472492 48.4874901,1.00425454 L48.5036854,1.18488573 L48.5036854,29.7047038 C48.5036854,30.1980269 48.14809,30.6083225 47.6791583,30.6934089 L47.4984694,30.7095992 L44.0896485,30.7095992 C43.7033924,30.7095992 43.3566846,30.4891722 43.1891806,30.1514729 L43.1287721,29.9998654 L42.6593594,28.4727022 C40.8640435,30.152887 38.5721508,31.1457237 35.2489065,31.1457237 C28.258634,31.1457237 25.0499844,26.9452615 25.0499844,19.0407554 C25.0499844,11.8617836 28.3732287,7.08853115 35.2489065,7.08853115 C37.6963205,7.08853115 39.8473084,7.81289657 41.5183688,9.01703649 L41.895395,9.30332031 L41.9717915,9.22694826 L41.9032525,2.40948742 C41.8992086,2.0072512 42.1345338,1.6474937 42.4912488,1.48503754 L42.6512148,1.42794453 L47.2412666,0.21344178 C47.325196,0.191234483 47.4116498,0.179990471 47.4984694,0.179990471 Z M134.495956,7.33573516 C141.06817,7.33573516 145.29856,11.0755663 145.29856,18.1019157 L145.287278,18.5853106 C145.272236,18.9466901 145.24215,19.3863019 145.197022,19.904146 C145.151741,20.4233439 144.716932,20.8217928 144.195598,20.8217928 L129.661224,20.8217928 C130.001166,24.1838633 132.267447,25.65713 136.686694,25.65713 L137.533721,25.652984 C138.769462,25.6357857 139.256156,25.5502586 140.95602,25.143065 C141.134485,25.1003145 141.351055,25.0259051 141.605732,24.9198367 C142.061257,24.7301428 142.576861,24.9004941 142.835762,25.3004915 L142.923628,25.4693369 L142.923628,25.4693369 L144.122197,28.4196058 C144.331072,28.9338032 144.083447,29.519924 143.569093,29.7287509 L143.478012,29.7607281 L143.478012,29.7607281 C140.336502,30.6968854 137.80833,31.1422709 135.893496,31.0968845 C126.943914,30.8847562 122.937925,26.6015319 122.937925,18.9707653 C122.937925,12.0577442 126.677288,7.33573516 134.495956,7.33573516 Z M161.813446,7.4533172 C162.255427,7.4533172 162.674422,7.48205318 163.061465,7.53055836 L163.503482,7.6020743 L163.503482,7.6020743 C164.048569,7.70711227 164.405347,8.2339516 164.300353,8.7788801 L164.268127,8.9029254 L164.268127,8.9029254 L162.909433,13.0303923 C162.744782,13.5305168 162.221901,13.8188107 161.710927,13.6911824 L161.395305,13.6199457 C161.347747,13.6105993 161.302711,13.6025161 161.260198,13.595696 C160.852076,13.5302245 160.417141,13.4974887 159.924882,13.4974887 C156.374376,13.4974887 155.127918,15.8773812 155.127918,19.8060927 L155.127918,29.7184823 C155.127918,30.2734706 154.677868,30.7233775 154.122702,30.7233775 L149.636463,30.7233775 C149.081298,30.7233775 148.631247,30.2734706 148.631247,29.7184823 L148.631247,9.0626296 C148.631247,8.5076413 149.081298,8.05773435 149.636463,8.05773435 L152.957107,8.05773435 C153.447292,8.05773435 153.866,8.41118276 153.948117,8.89428641 L154.448034,11.8353416 L154.561348,11.8353416 C156.147745,8.96436008 158.716196,7.4533172 161.813446,7.4533172 Z M92.8662334,8.7168163 L93.0381947,8.74670236 L97.7139099,9.99777064 C98.0839848,10.0967906 98.3554434,10.4024757 98.4175256,10.7705682 L98.4309904,10.9317225 L98.4309904,29.7565512 C98.4309904,30.2311854 98.0888661,30.6259378 97.637699,30.7078006 L97.4638553,30.7233775 L92.7881403,30.7233775 C92.3133545,30.7233775 91.9184762,30.3813625 91.8365871,29.9303394 L91.8210052,29.7565512 L91.8210052,9.68065421 C91.8210052,9.59625156 91.8320609,9.51221224 91.8538902,9.4306795 C91.9613024,9.02949598 92.3059288,8.75509567 92.6965607,8.71790847 L92.8662334,8.7168163 Z M88.5658371,0 C88.6707016,0 88.7749204,0.0164034422 88.8747119,0.0486151265 C89.3443186,0.200199508 89.6256249,0.664556329 89.5625311,1.13680417 L89.5224226,1.31367154 L88.161145,5.52820225 C88.0462695,5.88385836 87.7459741,6.14125264 87.38785,6.20753558 L87.2045595,6.22432124 L76.8990288,6.22432124 L76.8990288,11.9904102 L86.3978765,11.9904102 C86.9006117,11.9955827 87.3083538,12.3553127 87.3887065,12.8249539 L87.4030385,13.0057436 L87.3636096,16.8002281 C87.3585211,17.289905 87.0037076,17.6947891 86.5378733,17.778718 L86.3584476,17.7946852 L76.8990288,17.7946852 L76.8990288,29.7047038 C76.8990288,30.1980269 76.5434334,30.6083225 76.0745017,30.6934089 L75.8938128,30.7095992 L71.3502363,30.7095992 C70.8567557,30.7095992 70.446329,30.3541171 70.3612155,29.8853351 L70.3450202,29.7047038 L70.3450202,2.67905076 C70.3450202,1.28648711 71.4078495,0.142081353 72.7668333,0.0122639408 L73.0249261,0 L88.5658371,0 Z M63.6764167,0.138675546 C64.3459234,0.138675546 65.0385753,0.184950958 65.7058307,0.263637212 C66.0258909,0.301380386 66.4165263,0.364054075 66.8777367,0.451658277 L66.9992494,0.483024366 L66.9992494,0.483024366 C67.4502944,0.631257485 67.7185786,1.07945596 67.6553806,1.53346397 L67.6158527,1.70341477 L66.9429927,3.74949195 C66.8037092,4.1730347 66.3926915,4.44637902 65.9480865,4.41132761 L65.8248759,4.40257352 C65.5433581,4.38530993 65.259257,4.37732375 64.9751558,4.37732375 C62.3261101,4.37732375 61.2973367,5.23889583 61.2010821,6.60190284 L61.193533,6.82122902 L61.193533,7.5467634 L65.9944451,7.5467634 C66.4879254,7.5467634 66.8983521,7.90224542 66.9834656,8.37102745 L66.9996612,8.55165866 L66.9996612,11.2005626 C66.9996612,11.6938855 66.6440655,12.1041812 66.1751338,12.1892676 L65.9944451,12.2054578 L61.193533,12.2054578 L61.193533,29.7047038 C61.193533,30.1980269 60.8379376,30.6083225 60.3690059,30.6934089 L60.1883171,30.7095992 L55.628657,30.7095992 C55.1351765,30.7095992 54.7247498,30.3541171 54.6396363,29.8853351 L54.623441,29.7047038 L54.623441,12.2054578 L52.1908181,12.2054578 C51.6973376,12.2054578 51.2869109,11.8499758 51.2017974,11.3811938 L51.185602,11.2005626 L51.185602,8.55165866 C51.185602,8.05833571 51.5411975,7.64804002 52.0101292,7.56295361 L52.1908181,7.5467634 L54.5852426,7.5467634 L54.5852426,6.82122902 C54.5852426,3.26992917 57.2591174,0.138675546 63.6764167,0.138675546 Z M114.03171,3.15537111 C114.119947,3.15537111 114.2078,3.16698521 114.293004,3.18991397 L118.854786,4.41751244 C119.293695,4.53562515 119.598708,4.93347617 119.598708,5.38786485 L119.598708,29.6998905 C119.598708,30.2548788 119.148658,30.7047857 118.593492,30.7047857 L114.03171,30.7047857 C113.476545,30.7047857 113.026494,30.2548788 113.026494,29.6998905 L113.026494,4.16026637 C113.026494,3.60527804 113.476545,3.15537111 114.03171,3.15537111 Z M103.456837,3.15537111 C103.545074,3.15537111 103.632927,3.16698521 103.718131,3.18991397 L108.279913,4.41751244 C108.718822,4.53562515 109.023835,4.93347617 109.023835,5.38786485 L109.023835,29.6998905 C109.023835,30.2548788 108.573785,30.7047857 108.018619,30.7047857 L103.456837,30.7047857 C102.901672,30.7047857 102.451621,30.2548788 102.451621,29.6998905 L102.451621,4.16026637 C102.451621,3.60527804 102.901672,3.15537111 103.456837,3.15537111 Z M37.158817,12.7018761 C33.3007979,12.7018761 31.8492657,14.572991 31.8492657,19.3080575 C31.8492657,24.195868 33.0334102,26.105169 37.158817,26.105169 C39.593953,26.105169 41.0554821,25.1654349 41.763725,24.2613604 L41.895395,24.0813099 L41.895395,14.6111771 C41.0168363,13.5037825 39.3361151,12.7018761 37.158817,12.7018761 Z M11.3448685,12.0748214 C8.90973257,12.0748214 7.4482034,13.0145555 6.73996045,13.91863 L6.60829041,14.0986805 L6.60829041,23.5688135 C7.48684924,24.676208 9.16757051,25.4781143 11.3448685,25.4781143 C15.2028877,25.4781143 16.6544197,23.6069995 16.6544197,18.871933 C16.6544197,13.9841224 15.4702752,12.0748214 11.3448685,12.0748214 Z M134.676365,12.511057 C131.314715,12.511057 129.954947,13.9087717 129.652776,16.8553053 L139.511097,16.8553053 C139.435554,13.9087717 137.62253,12.511057 134.676365,12.511057 Z M92.861816,0.807157004 L93.0337725,0.837070224 L97.7053071,2.08781078 C98.0753185,2.18687636 98.3467116,2.49254043 98.4087785,2.86058901 L98.4222399,3.02172311 L98.4222399,5.65384198 C98.4222399,5.73829586 98.4111708,5.8223857 98.3893152,5.90396448 C98.2664861,6.36244047 97.8338519,6.65527311 97.3768591,6.61766751 L97.2049026,6.58775427 L92.533368,5.33701268 C92.1633568,5.23794706 91.8919635,4.93228301 91.8298968,4.56423449 L91.8164352,4.4031004 L91.8164352,1.77098256 C91.8164352,1.68652875 91.8275044,1.60243896 91.8493599,1.52086026 C91.9568354,1.11969373 92.3015054,0.845347858 92.6921429,0.808222367 L92.861816,0.807157004 Z" id="Shape"></path>
                </g>
            </g>
            <path d="M26.73,234.234 L23.156,234.234 L23.156,217.102 L32.976,217.102 L32.976,220.078 L26.73,220.078 L26.73,224.496 L32.543,224.496 L32.543,227.461 L26.73,227.461 L26.73,234.234 Z M35.395,217.746 C35.395,216.582 36.043,216 37.34,216 C38.637,216 39.285,216.582 39.285,217.746 C39.285,218.301 39.123,218.732 38.799,219.041 C38.475,219.35 37.989,219.504 37.339,219.504 C36.043,219.504 35.395,218.918 35.395,217.746 L35.395,217.746 Z M39.121,234.234 L35.547,234.234 L35.547,221.133 L39.121,221.133 L39.121,234.234 Z M45.945,234.234 L42.371,234.234 L42.371,216 L45.945,216 L45.945,234.234 Z M52.77,234.234 L49.195,234.234 L49.195,216 L52.77,216 L52.77,234.234 Z M65.902,234.469 C64.363,234.469 63.154,233.871 62.275,232.676 C61.396,231.48 60.957,229.824 60.957,227.707 C60.957,225.559 61.404,223.885 62.299,222.686 C63.193,221.486 64.426,220.886 65.996,220.886 C67.645,220.886 68.902,221.527 69.77,222.809 L69.887,222.809 C69.707,221.832 69.617,220.961 69.617,220.195 L69.617,216 L73.203,216 L73.203,234.234 L70.461,234.234 L69.77,232.535 L69.617,232.535 C68.805,233.825 67.567,234.469 65.902,234.469 L65.902,234.469 Z M67.156,231.621 C68.07,231.621 68.74,231.355 69.166,230.824 C69.592,230.293 69.824,229.391 69.863,228.117 L69.863,227.73 C69.863,226.324 69.646,225.316 69.213,224.707 C68.779,224.097 68.074,223.793 67.098,223.793 C66.301,223.793 65.682,224.131 65.24,224.807 C64.799,225.482 64.578,226.465 64.578,227.754 C64.578,229.043 64.801,230.01 65.246,230.654 C65.691,231.299 66.328,231.621 67.156,231.621 L67.156,231.621 Z M79.289,227.661 C79.289,228.957 79.502,229.937 79.928,230.601 C80.354,231.266 81.047,231.598 82.008,231.598 C82.961,231.598 83.646,231.268 84.064,230.608 C84.482,229.948 84.691,228.965 84.691,227.66 C84.691,226.363 84.481,225.39 84.059,224.742 C83.637,224.094 82.945,223.77 81.984,223.77 C81.031,223.77 80.344,224.092 79.922,224.736 C79.5,225.381 79.289,226.356 79.289,227.66 L79.289,227.661 Z M88.348,227.661 C88.348,229.793 87.785,231.461 86.66,232.664 C85.535,233.867 83.969,234.469 81.96,234.469 C80.703,234.469 79.594,234.193 78.633,233.643 C77.672,233.092 76.933,232.301 76.418,231.27 C75.902,230.238 75.645,229.035 75.645,227.66 C75.645,225.52 76.203,223.855 77.32,222.668 C78.438,221.48 80.008,220.887 82.031,220.887 C83.289,220.887 84.398,221.16 85.359,221.707 C86.32,222.254 87.059,223.039 87.574,224.063 C88.09,225.086 88.348,226.285 88.348,227.66 L88.348,227.661 Z M96.121,234.469 C92.043,234.469 90.004,232.23 90.004,227.754 C90.004,225.527 90.559,223.826 91.668,222.65 C92.778,221.475 94.368,220.887 96.438,220.887 C97.953,220.887 99.312,221.184 100.516,221.777 L99.461,224.543 C98.946524,224.333254 98.4226321,224.147389 97.891,223.986 C97.419431,223.843609 96.9295969,223.770842 96.437,223.77 C94.578,223.77 93.648,225.09 93.648,227.73 C93.648,230.293 94.578,231.574 96.438,231.574 C97.084948,231.580015 97.7290266,231.487281 98.348,231.299 C98.9716628,231.096643 99.5632841,230.806388 100.105,230.437 L100.105,233.497 C99.567664,233.845955 98.9758731,234.102814 98.354,234.257 C97.764,234.398 97.02,234.469 96.121,234.469 L96.121,234.469 Z M111.921,234.234 L111.441,232.559 L111.254,232.559 C110.871,233.168 110.328,233.639 109.625,233.971 C108.922,234.303 108.121,234.469 107.223,234.469 C105.683,234.469 104.523,234.057 103.743,233.232 C102.961,232.408 102.57,231.222 102.57,229.676 L102.57,221.133 L106.145,221.133 L106.145,228.785 C106.145,229.73 106.312,230.439 106.648,230.912 C106.984,231.385 107.52,231.622 108.254,231.622 C109.254,231.622 109.977,231.287 110.422,230.619 C110.867,229.951 111.09,228.844 111.09,227.297 L111.09,221.133 L114.664,221.133 L114.664,234.234 L111.922,234.234 L111.921,234.234 Z M129.645,234.234 L126.07,234.234 L126.07,226.582 C126.07,225.637 125.912,224.928 125.596,224.455 C125.279,223.982 124.781,223.746 124.102,223.746 C123.187,223.746 122.523,224.082 122.109,224.754 C121.695,225.426 121.489,226.531 121.489,228.07 L121.489,234.234 L117.914,234.234 L117.914,221.133 L120.644,221.133 L121.125,222.809 L121.325,222.809 C121.675,222.207 122.184,221.736 122.848,221.396 C123.512,221.056 124.273,220.886 125.133,220.886 C127.093,220.886 128.422,221.527 129.117,222.809 L129.434,222.809 C129.785,222.199 130.303,221.727 130.986,221.391 C131.67,221.055 132.441,220.887 133.301,220.887 C134.785,220.887 135.908,221.267 136.67,222.029 C137.432,222.791 137.813,224.012 137.813,225.691 L137.813,234.234 L134.227,234.234 L134.227,226.582 C134.227,225.637 134.068,224.928 133.752,224.455 C133.436,223.982 132.938,223.746 132.258,223.746 C131.383,223.746 130.728,224.059 130.295,224.684 C129.861,225.309 129.645,226.301 129.645,227.66 L129.645,234.234 L129.645,234.234 Z M146.406,223.43 C145.648,223.43 145.055,223.67 144.625,224.15 C144.195,224.63 143.949,225.312 143.887,226.195 L148.902,226.195 C148.887,225.312 148.656,224.631 148.211,224.15 C147.766,223.67 147.164,223.43 146.406,223.43 L146.406,223.43 Z M146.91,234.469 C144.8,234.469 143.152,233.887 141.965,232.723 C140.777,231.559 140.184,229.91 140.184,227.777 C140.184,225.582 140.732,223.885 141.83,222.686 C142.928,221.486 144.445,220.886 146.383,220.886 C148.234,220.886 149.676,221.414 150.707,222.469 C151.738,223.523 152.254,224.98 152.254,226.839 L152.254,228.574 L143.804,228.574 C143.844,229.59 144.144,230.383 144.707,230.954 C145.27,231.524 146.059,231.809 147.074,231.809 C147.864,231.809 148.609,231.727 149.312,231.563 C150.072096,231.378674 150.810793,231.115237 151.516,230.777 L151.516,233.543 C150.880175,233.859173 150.206795,234.093377 149.512,234.24 C148.801,234.393 147.934,234.469 146.91,234.469 L146.91,234.469 Z M166.754,234.234 L163.18,234.234 L163.18,226.582 C163.18,225.637 163.012,224.928 162.676,224.455 C162.34,223.982 161.805,223.746 161.07,223.746 C160.07,223.746 159.348,224.08 158.902,224.748 C158.457,225.416 158.234,226.523 158.234,228.07 L158.234,234.234 L154.66,234.234 L154.66,221.133 L157.39,221.133 L157.871,222.809 L158.071,222.809 C158.466256,222.178663 159.038874,221.679101 159.717,221.373 C160.416,221.049 161.211,220.887 162.102,220.887 C163.625,220.887 164.782,221.299 165.57,222.123 C166.36,222.947 166.754,224.137 166.754,225.691 L166.754,234.234 L166.754,234.234 Z M175.454,231.621 C176.078,231.621 176.828,231.484 177.704,231.211 L177.704,233.871 C176.812,234.27 175.719,234.469 174.422,234.469 C172.992,234.469 171.952,234.107 171.299,233.385 C170.646,232.662 170.32,231.578 170.32,230.133 L170.32,223.816 L168.61,223.816 L168.61,222.305 L170.578,221.109 L171.609,218.344 L173.895,218.344 L173.895,221.133 L177.562,221.133 L177.562,223.816 L173.895,223.816 L173.895,230.133 C173.895,230.641 174.037,231.016 174.322,231.258 C174.607,231.5 174.984,231.621 175.453,231.621 L175.454,231.621 Z M188.992,230.344 C188.992,231.688 188.525,232.711 187.592,233.414 C186.658,234.117 185.262,234.469 183.402,234.469 C182.449,234.469 181.637,234.404 180.965,234.275 C180.317515,234.153623 179.684902,233.963202 179.078,233.707 L179.078,230.754 C179.799271,231.08659 180.55069,231.349453 181.322,231.539 C182.154,231.75 182.887,231.855 183.52,231.855 C184.816,231.855 185.465,231.48 185.465,230.73 C185.465,230.45 185.379,230.22 185.207,230.045 C185.035,229.869 184.738,229.67 184.317,229.447 C183.765309,229.164183 183.202161,228.904294 182.629,228.668 C181.621,228.246 180.881,227.855 180.409,227.496 C179.936,227.136 179.592,226.725 179.377,226.26 C179.162,225.795 179.055,225.223 179.055,224.543 C179.055,223.379 179.505,222.479 180.408,221.842 C181.311,221.205 182.59,220.887 184.246,220.887 C185.824,220.887 187.359,221.23 188.852,221.918 L187.773,224.496 C187.171464,224.235397 186.557377,224.004781 185.933,223.805 C185.368606,223.626112 184.780066,223.535049 184.188,223.535 C183.133,223.535 182.605,223.82 182.605,224.391 C182.605,224.711 182.775,224.988 183.115,225.223 C183.455,225.457 184.199,225.805 185.348,226.266 C186.371,226.68 187.121,227.066 187.598,227.426 C188.074,227.786 188.426,228.199 188.652,228.668 C188.879,229.137 188.992,229.695 188.992,230.344 L188.992,230.344 Z M199.863,227.66 C199.863,228.957 200.076,229.937 200.502,230.602 C200.928,231.266 201.622,231.598 202.582,231.598 C203.535,231.598 204.221,231.268 204.639,230.608 C205.057,229.948 205.266,228.965 205.266,227.66 C205.266,226.363 205.055,225.39 204.633,224.742 C204.211,224.094 203.52,223.77 202.559,223.77 C201.605,223.77 200.918,224.092 200.496,224.736 C200.074,225.381 199.863,226.356 199.863,227.66 Z M208.922,227.66 C208.922,229.793 208.359,231.46 207.234,232.664 C206.109,233.867 204.543,234.469 202.535,234.469 C201.277,234.469 200.168,234.193 199.207,233.643 C198.247,233.092 197.507,232.301 196.992,231.27 C196.477,230.238 196.219,229.035 196.219,227.66 C196.219,225.52 196.777,223.855 197.895,222.668 C199.012,221.48 200.582,220.887 202.605,220.887 C203.863,220.887 204.973,221.16 205.934,221.707 C206.894,222.254 207.633,223.039 208.148,224.063 C208.664,225.086 208.922,226.285 208.922,227.66 Z M223.469,234.234 L219.895,234.234 L219.895,226.582 C219.895,225.637 219.727,224.928 219.391,224.455 C219.055,223.982 218.52,223.746 217.785,223.746 C216.785,223.746 216.063,224.08 215.617,224.748 C215.172,225.416 214.949,226.523 214.949,228.07 L214.949,234.234 L211.375,234.234 L211.375,221.133 L214.105,221.133 L214.585,222.809 L214.785,222.809 C215.180523,222.178513 215.753506,221.678936 216.432,221.373 C217.131,221.049 217.926,220.887 218.816,220.887 C220.34,220.887 221.496,221.299 222.286,222.123 C223.074,222.947 223.469,224.137 223.469,225.691 L223.469,234.234 L223.469,234.234 Z M230.223,234.234 L226.648,234.234 L226.648,216 L230.223,216 L230.223,234.234 L230.223,234.234 Z M233.32,217.746 C233.32,216.582 233.969,216 235.266,216 C236.563,216 237.211,216.582 237.211,217.746 C237.211,218.301 237.049,218.732 236.725,219.041 C236.4,219.35 235.915,219.504 235.265,219.504 C233.969,219.504 233.32,218.918 233.32,217.746 L233.32,217.746 Z M237.047,234.234 L233.473,234.234 L233.473,221.133 L237.047,221.133 L237.047,234.234 Z M252.391,234.234 L248.816,234.234 L248.816,226.582 C248.816,225.637 248.648,224.928 248.312,224.455 C247.977,223.982 247.442,223.746 246.707,223.746 C245.707,223.746 244.984,224.08 244.539,224.748 C244.094,225.416 243.871,226.523 243.871,228.07 L243.871,234.234 L240.297,234.234 L240.297,221.133 L243.027,221.133 L243.507,222.809 L243.707,222.809 C244.102523,222.178513 244.675506,221.678936 245.354,221.373 C246.053,221.049 246.848,220.887 247.738,220.887 C249.262,220.887 250.418,221.299 251.207,222.123 C251.997,222.947 252.391,224.137 252.391,225.691 L252.391,234.234 L252.391,234.234 Z M260.996,223.43 C260.238,223.43 259.645,223.67 259.215,224.15 C258.785,224.63 258.539,225.312 258.477,226.195 L263.492,226.195 C263.477,225.312 263.246,224.631 262.801,224.15 C262.355,223.67 261.754,223.43 260.996,223.43 Z M261.5,234.469 C259.39,234.469 257.742,233.887 256.555,232.723 C255.367,231.559 254.773,229.91 254.773,227.777 C254.773,225.582 255.323,223.885 256.42,222.686 C257.518,221.486 259.035,220.886 260.973,220.886 C262.824,220.886 264.266,221.414 265.297,222.469 C266.328,223.523 266.844,224.98 266.844,226.839 L266.844,228.574 L258.394,228.574 C258.434,229.59 258.734,230.383 259.297,230.954 C259.859,231.524 260.648,231.809 261.664,231.809 C262.454,231.809 263.199,231.727 263.902,231.563 C264.661754,231.378608 265.400113,231.115171 266.105,230.777 L266.105,233.543 C265.469491,233.859094 264.796453,234.093296 264.102,234.24 C263.391,234.393 262.523,234.469 261.5,234.469 L261.5,234.469 Z" id="Shape" fill="#FFFFFF" fill-rule="nonzero"></path>
        </g>
    </g>
</svg>