<?xml version="1.0" encoding="UTF-8"?>
<svg width="448px" height="252px" viewBox="0 0 448 252" version="1.1" xmlns="http://www.w3.org/2000/svg" xmlns:xlink="http://www.w3.org/1999/xlink">
    <!-- Generator: Sketch 64 (93537) - https://sketch.com -->
    <title>preview-video-blue</title>
    <desc>Created with Sketch.</desc>
    <defs>
        <rect id="path-1" x="0" y="0" width="448" height="252" rx="4"></rect>
    </defs>
    <g id="Page-1" stroke="none" stroke-width="1" fill="none" fill-rule="evenodd">
        <g id="preview-video-blue">
            <g id="a-link" fill="#4258B4" fill-rule="nonzero">
                <rect id="a" x="0" y="0" width="448" height="252" rx="4"></rect>
            </g>
            <g id="Clipped">
                <mask id="mask-2" fill="white">
                    <use xlink:href="#path-1"></use>
                </mask>
                <g id="a"></g>
                <path d="M231.66,76.453 L211.607,76.453 L211.607,1.083 L256.147,1.083 L256.147,17.425 L231.66,17.425 L231.66,31.808 L254.24,31.808 L254.24,48.15 L231.66,48.15 L231.66,76.453 L231.66,76.453 Z M310.052,76.453 L306.34,62.327 L281.853,62.327 L278.039,76.453 L255.665,76.453 L280.255,0.773 L307.423,0.773 L332.323,76.453 L310.053,76.453 L310.052,76.453 Z M302.113,45.624 L298.865,33.252 C298.109,30.502 297.19,26.945 296.107,22.58 C295.025,18.215 294.312,15.088 293.968,13.198 C293.658,14.95 293.048,17.838 292.138,21.858 C291.228,25.88 289.208,33.801 286.081,45.624 L302.113,45.624 Z M387.155,53.564 C387.155,58.237 385.97,62.387 383.598,66.014 C381.227,69.639 377.808,72.457 373.339,74.468 C368.871,76.478 363.63,77.484 357.616,77.484 C352.598,77.484 348.388,77.132 344.986,76.427 C341.583,75.722 338.044,74.494 334.366,72.741 L334.366,54.594 C338.225739,56.5783549 342.28734,58.1426495 346.481,59.26 C350.674,60.377 354.523,60.935 358.028,60.935 C361.053,60.935 363.27,60.411 364.678,59.363 C366.088,58.315 366.792,56.966 366.792,55.316 C366.792,54.285 366.509,53.383 365.942,52.61 C365.375,51.836 364.464,51.054 363.209,50.264 C361.955,49.474 358.613,47.858 353.183,45.418 C348.268,43.184 344.582,41.018 342.125,38.922 C339.667,36.826 337.845,34.42 336.66,31.705 C335.474,28.99 334.882,25.776 334.882,22.065 C334.882,15.122 337.408,9.709 342.46,5.825 C347.512,1.942 354.454,0 363.287,0 C371.088,0 379.044,1.804 387.155,5.413 L380.917,21.137 C373.872,17.906 367.789,16.291 362.668,16.291 C360.022,16.291 358.098,16.755 356.894,17.683 C355.691,18.611 355.09,19.762 355.09,21.137 C355.09,22.614 355.855,23.937 357.384,25.107 C358.914,26.275 363.064,28.406 369.834,31.499 C376.329,34.42 380.84,37.556 383.366,40.907 C385.892,44.258 387.156,48.477 387.156,53.563 L387.155,53.564 Z M429.461,76.453 L409.098,76.453 L409.098,17.734 L390.694,17.734 L390.694,1.083 L447.814,1.083 L447.814,17.734 L429.46,17.734 L429.46,76.453 L429.461,76.453 Z M113.789,228.08 C113.789,232.754 112.603,236.904 110.232,240.53 C107.861,244.155 104.442,246.974 99.973,248.984 C95.505,250.994 90.264,252 84.25,252 C79.232,252 75.022,251.648 71.62,250.943 C68.217,250.239 64.677,249.01 61,247.257 L61,229.111 C64.8597806,231.095011 68.9213801,232.65897 73.115,233.776 C77.308,234.893 81.157,235.452 84.662,235.452 C87.687,235.452 89.903,234.927 91.312,233.879 C92.722,232.831 93.426,231.482 93.426,229.832 C93.426,228.802 93.143,227.899 92.576,227.126 C92.008,226.353 91.098,225.571 89.843,224.78 C88.589,223.99 85.247,222.374 79.816,219.934 C74.902,217.7 71.216,215.535 68.759,213.439 C66.301,211.342 64.479,208.936 63.294,206.221 C62.108,203.506 61.516,200.293 61.516,196.581 C61.516,189.638 64.042,184.225 69.094,180.341 C74.146,176.458 81.088,174.516 89.921,174.516 C97.722,174.516 105.678,176.321 113.789,179.929 L107.551,195.653 C100.506,192.423 94.423,190.807 89.302,190.807 C86.656,190.807 84.732,191.271 83.528,192.199 C82.325,193.127 81.724,194.279 81.724,195.653 C81.724,197.131 82.489,198.453 84.018,199.623 C85.548,200.791 89.698,202.922 96.468,206.015 C102.963,208.936 107.474,212.072 110,215.423 C112.526,218.774 113.79,222.993 113.79,228.08 L113.789,228.08 Z M170.187,250.969 L125.44,250.969 L125.44,175.599 L170.187,175.599 L170.187,191.941 L145.803,191.941 L145.803,203.798 L168.383,203.798 L168.383,220.14 L145.803,220.14 L145.803,234.369 L170.187,234.369 L170.187,250.969 Z M216.944,191.219 C212.099,191.219 208.318,193.204 205.603,197.174 C202.888,201.144 201.53,206.616 201.53,213.594 C201.53,228.097 207.046,235.348 218.079,235.348 C221.359632,235.355835 224.62402,234.88728 227.77,233.957 C230.970273,233.003199 234.119136,231.884709 237.204,230.606 L237.204,247.824 C230.915,250.608 223.801,252 215.862,252 C204.486,252 195.765,248.7 189.699,242.102 C183.633,235.503 180.6,225.966 180.6,213.49 C180.6,205.688 182.07,198.832 185.008,192.92 C187.947,187.01 192.174,182.464 197.69,179.285 C203.206,176.105 209.693,174.516 217.15,174.516 C225.296,174.516 233.08,176.286 240.504,179.826 L234.266,195.859 C231.555359,194.5817 228.765641,193.479441 225.914,192.559 C223.131,191.666 220.141,191.219 216.944,191.219 L216.944,191.219 Z M315.976,175.599 L315.976,220.965 C315.976,230.829 313.183,238.467 307.598,243.88 C302.014,249.294 293.963,252 283.446,252 C273.17,252 265.274,249.37 259.758,244.112 C254.242,238.854 251.484,231.293 251.484,221.429 L251.484,175.6 L271.95,175.6 L271.95,219.832 C271.95,225.159 272.947,229.026 274.94,231.432 C276.934,233.837 279.872,235.04 283.756,235.04 C287.914,235.04 290.93,233.846 292.803,231.457 C294.676,229.069 295.613,225.159 295.613,219.729 L295.613,175.599 L315.976,175.599 L315.976,175.599 Z M352.165,223.543 L352.165,250.969 L331.802,250.969 L331.802,175.599 L356.495,175.599 C376.979,175.599 387.22,183.022 387.22,197.869 C387.22,206.599 382.959,213.353 374.435,218.129 L396.397,250.969 L373.3,250.969 L357.32,223.543 L352.164,223.543 L352.165,223.543 Z M352.165,208.232 L355.98,208.232 C363.094,208.232 366.651,205.087 366.651,198.798 C366.651,193.608 363.163,191.013 356.186,191.013 L352.165,191.013 L352.165,208.232 Z M448,250.969 L403.253,250.969 L403.253,175.599 L448,175.599 L448,191.941 L423.616,191.941 L423.616,203.798 L446.196,203.798 L446.196,220.14 L423.616,220.14 L423.616,234.369 L448,234.369 L448,250.969 L448,250.969 Z M220.224,166.159 L175.477,166.159 L175.477,90.789 L220.224,90.789 L220.224,107.131 L195.84,107.131 L195.84,118.988 L218.42,118.988 L218.42,135.33 L195.84,135.33 L195.84,149.559 L220.224,149.559 L220.224,166.159 L220.224,166.159 Z M289.352,166.159 L285.64,152.033 L261.153,152.033 L257.338,166.159 L234.965,166.159 L259.555,90.479 L286.723,90.479 L311.623,166.159 L289.352,166.159 L289.352,166.159 Z M281.413,135.33 L278.165,122.958 C277.409,120.208 276.49,116.651 275.407,112.286 C274.325,107.921 273.612,104.794 273.267,102.904 C272.959,104.656 272.349,107.544 271.437,111.564 C270.527,115.586 268.507,123.507 265.38,135.33 L281.413,135.33 L281.413,135.33 Z M371.647,143.27 C371.647,147.943 370.462,152.093 368.09,155.72 C365.719,159.345 362.3,162.163 357.832,164.174 C353.364,166.184 348.122,167.19 342.108,167.19 C337.09,167.19 332.88,166.838 329.478,166.133 C326.076,165.428 322.536,164.2 318.858,162.447 L318.858,144.3 C322.717739,146.284355 326.77934,147.84865 330.973,148.966 C335.166,150.083 339.015,150.641 342.521,150.641 C345.545,150.641 347.761,150.117 349.171,149.069 C350.58,148.021 351.284,146.672 351.284,145.022 C351.284,143.992 351.001,143.089 350.434,142.316 C349.867,141.542 348.956,140.76 347.702,139.97 C346.447,139.18 343.105,137.564 337.675,135.124 C332.76,132.89 329.075,130.724 326.617,128.628 C324.16,126.532 322.338,124.126 321.152,121.411 C319.967,118.696 319.374,115.482 319.374,111.771 C319.374,104.828 321.9,99.415 326.952,95.531 C332.004,91.648 338.946,89.706 347.779,89.706 C355.58,89.706 363.537,91.51 371.647,95.119 L365.41,110.843 C358.364,107.612 352.281,105.997 347.16,105.997 C344.514,105.997 342.59,106.461 341.386,107.389 C340.184,108.317 339.582,109.468 339.582,110.843 C339.582,112.32 340.347,113.643 341.876,114.813 C343.406,115.981 347.556,118.112 354.326,121.205 C360.822,124.126 365.332,127.262 367.858,130.613 C370.384,133.964 371.648,138.183 371.648,143.269 L371.647,143.27 Z M412.804,118.73 L425.796,90.789 L447.86,90.789 L423.063,136.722 L423.063,166.159 L402.546,166.159 L402.546,137.34 L377.749,90.788 L399.916,90.788 L412.804,118.729 L412.804,118.73 Z" id="Shape" fill="#4B62C1" fill-rule="nonzero" mask="url(#mask-2)"></path>
            </g>
            <g id="Group" transform="translate(24.000000, 24.000000)" fill="#FFFFFF" fill-rule="nonzero">
                <g id="pdfFfiller-logo" transform="translate(-0.000000, 0.000000)">
                    <path d="M13.254779,7.03426682 C20.2450515,7.03426682 23.4537013,11.234729 23.4537013,19.1392351 C23.4537013,26.3182068 20.1304569,31.0914593 13.254779,31.0914593 C10.8073651,31.0914593 8.6563771,30.3670939 6.98531676,29.1629541 L6.60829041,28.8766702 L6.53189397,28.9530423 L6.60043305,35.770503 C6.60447692,36.1727393 6.36915177,36.5324968 6.01243667,36.6949528 L5.85247068,36.752046 L1.262419,37.9665487 C1.17848947,37.988756 1.09203567,38 1.00521606,38 C0.511735617,38 0.101308951,37.6445179 0.0161953766,37.1757359 L0,36.9951048 L0,8.47528661 C0,7.98196366 0.355595506,7.57166797 0.824527205,7.48658157 L1.00521606,7.47039135 L4.41403697,7.47039135 C4.80029298,7.47039135 5.14700093,7.6908182 5.31450478,8.02851754 L5.37491332,8.18012504 L5.84432619,9.7072882 C7.63964208,8.02710334 9.9315347,7.03426682 13.254779,7.03426682 Z M47.4984694,0.179990471 C47.9919499,0.179990471 48.4023766,0.535472492 48.4874901,1.00425454 L48.5036854,1.18488573 L48.5036854,29.7047038 C48.5036854,30.1980269 48.14809,30.6083225 47.6791583,30.6934089 L47.4984694,30.7095992 L44.0896485,30.7095992 C43.7033924,30.7095992 43.3566846,30.4891722 43.1891806,30.1514729 L43.1287721,29.9998654 L42.6593594,28.4727022 C40.8640435,30.152887 38.5721508,31.1457237 35.2489065,31.1457237 C28.258634,31.1457237 25.0499844,26.9452615 25.0499844,19.0407554 C25.0499844,11.8617836 28.3732287,7.08853115 35.2489065,7.08853115 C37.6963205,7.08853115 39.8473084,7.81289657 41.5183688,9.01703649 L41.895395,9.30332031 L41.9717915,9.22694826 L41.9032525,2.40948742 C41.8992086,2.0072512 42.1345338,1.6474937 42.4912488,1.48503754 L42.6512148,1.42794453 L47.2412666,0.21344178 C47.325196,0.191234483 47.4116498,0.179990471 47.4984694,0.179990471 Z M134.495956,7.33573516 C141.06817,7.33573516 145.29856,11.0755663 145.29856,18.1019157 L145.287278,18.5853106 C145.272236,18.9466901 145.24215,19.3863019 145.197022,19.904146 C145.151741,20.4233439 144.716932,20.8217928 144.195598,20.8217928 L129.661224,20.8217928 C130.001166,24.1838633 132.267447,25.65713 136.686694,25.65713 L137.533721,25.652984 C138.769462,25.6357857 139.256156,25.5502586 140.95602,25.143065 C141.134485,25.1003145 141.351055,25.0259051 141.605732,24.9198367 C142.061257,24.7301428 142.576861,24.9004941 142.835762,25.3004915 L142.923628,25.4693369 L142.923628,25.4693369 L144.122197,28.4196058 C144.331072,28.9338032 144.083447,29.519924 143.569093,29.7287509 L143.478012,29.7607281 L143.478012,29.7607281 C140.336502,30.6968854 137.80833,31.1422709 135.893496,31.0968845 C126.943914,30.8847562 122.937925,26.6015319 122.937925,18.9707653 C122.937925,12.0577442 126.677288,7.33573516 134.495956,7.33573516 Z M161.813446,7.4533172 C162.255427,7.4533172 162.674422,7.48205318 163.061465,7.53055836 L163.503482,7.6020743 L163.503482,7.6020743 C164.048569,7.70711227 164.405347,8.2339516 164.300353,8.7788801 L164.268127,8.9029254 L164.268127,8.9029254 L162.909433,13.0303923 C162.744782,13.5305168 162.221901,13.8188107 161.710927,13.6911824 L161.395305,13.6199457 C161.347747,13.6105993 161.302711,13.6025161 161.260198,13.595696 C160.852076,13.5302245 160.417141,13.4974887 159.924882,13.4974887 C156.374376,13.4974887 155.127918,15.8773812 155.127918,19.8060927 L155.127918,29.7184823 C155.127918,30.2734706 154.677868,30.7233775 154.122702,30.7233775 L149.636463,30.7233775 C149.081298,30.7233775 148.631247,30.2734706 148.631247,29.7184823 L148.631247,9.0626296 C148.631247,8.5076413 149.081298,8.05773435 149.636463,8.05773435 L152.957107,8.05773435 C153.447292,8.05773435 153.866,8.41118276 153.948117,8.89428641 L154.448034,11.8353416 L154.561348,11.8353416 C156.147745,8.96436008 158.716196,7.4533172 161.813446,7.4533172 Z M92.8662334,8.7168163 L93.0381947,8.74670236 L97.7139099,9.99777064 C98.0839848,10.0967906 98.3554434,10.4024757 98.4175256,10.7705682 L98.4309904,10.9317225 L98.4309904,29.7565512 C98.4309904,30.2311854 98.0888661,30.6259378 97.637699,30.7078006 L97.4638553,30.7233775 L92.7881403,30.7233775 C92.3133545,30.7233775 91.9184762,30.3813625 91.8365871,29.9303394 L91.8210052,29.7565512 L91.8210052,9.68065421 C91.8210052,9.59625156 91.8320609,9.51221224 91.8538902,9.4306795 C91.9613024,9.02949598 92.3059288,8.75509567 92.6965607,8.71790847 L92.8662334,8.7168163 Z M88.5658371,0 C88.6707016,0 88.7749204,0.0164034422 88.8747119,0.0486151265 C89.3443186,0.200199508 89.6256249,0.664556329 89.5625311,1.13680417 L89.5224226,1.31367154 L88.161145,5.52820225 C88.0462695,5.88385836 87.7459741,6.14125264 87.38785,6.20753558 L87.2045595,6.22432124 L76.8990288,6.22432124 L76.8990288,11.9904102 L86.3978765,11.9904102 C86.9006117,11.9955827 87.3083538,12.3553127 87.3887065,12.8249539 L87.4030385,13.0057436 L87.3636096,16.8002281 C87.3585211,17.289905 87.0037076,17.6947891 86.5378733,17.778718 L86.3584476,17.7946852 L76.8990288,17.7946852 L76.8990288,29.7047038 C76.8990288,30.1980269 76.5434334,30.6083225 76.0745017,30.6934089 L75.8938128,30.7095992 L71.3502363,30.7095992 C70.8567557,30.7095992 70.446329,30.3541171 70.3612155,29.8853351 L70.3450202,29.7047038 L70.3450202,2.67905076 C70.3450202,1.28648711 71.4078495,0.142081353 72.7668333,0.0122639408 L73.0249261,0 L88.5658371,0 Z M63.6764167,0.138675546 C64.3459234,0.138675546 65.0385753,0.184950958 65.7058307,0.263637212 C66.0258909,0.301380386 66.4165263,0.364054075 66.8777367,0.451658277 L66.9992494,0.483024366 L66.9992494,0.483024366 C67.4502944,0.631257485 67.7185786,1.07945596 67.6553806,1.53346397 L67.6158527,1.70341477 L66.9429927,3.74949195 C66.8037092,4.1730347 66.3926915,4.44637902 65.9480865,4.41132761 L65.8248759,4.40257352 C65.5433581,4.38530993 65.259257,4.37732375 64.9751558,4.37732375 C62.3261101,4.37732375 61.2973367,5.23889583 61.2010821,6.60190284 L61.193533,6.82122902 L61.193533,7.5467634 L65.9944451,7.5467634 C66.4879254,7.5467634 66.8983521,7.90224542 66.9834656,8.37102745 L66.9996612,8.55165866 L66.9996612,11.2005626 C66.9996612,11.6938855 66.6440655,12.1041812 66.1751338,12.1892676 L65.9944451,12.2054578 L61.193533,12.2054578 L61.193533,29.7047038 C61.193533,30.1980269 60.8379376,30.6083225 60.3690059,30.6934089 L60.1883171,30.7095992 L55.628657,30.7095992 C55.1351765,30.7095992 54.7247498,30.3541171 54.6396363,29.8853351 L54.623441,29.7047038 L54.623441,12.2054578 L52.1908181,12.2054578 C51.6973376,12.2054578 51.2869109,11.8499758 51.2017974,11.3811938 L51.185602,11.2005626 L51.185602,8.55165866 C51.185602,8.05833571 51.5411975,7.64804002 52.0101292,7.56295361 L52.1908181,7.5467634 L54.5852426,7.5467634 L54.5852426,6.82122902 C54.5852426,3.26992917 57.2591174,0.138675546 63.6764167,0.138675546 Z M114.03171,3.15537111 C114.119947,3.15537111 114.2078,3.16698521 114.293004,3.18991397 L118.854786,4.41751244 C119.293695,4.53562515 119.598708,4.93347617 119.598708,5.38786485 L119.598708,29.6998905 C119.598708,30.2548788 119.148658,30.7047857 118.593492,30.7047857 L114.03171,30.7047857 C113.476545,30.7047857 113.026494,30.2548788 113.026494,29.6998905 L113.026494,4.16026637 C113.026494,3.60527804 113.476545,3.15537111 114.03171,3.15537111 Z M103.456837,3.15537111 C103.545074,3.15537111 103.632927,3.16698521 103.718131,3.18991397 L108.279913,4.41751244 C108.718822,4.53562515 109.023835,4.93347617 109.023835,5.38786485 L109.023835,29.6998905 C109.023835,30.2548788 108.573785,30.7047857 108.018619,30.7047857 L103.456837,30.7047857 C102.901672,30.7047857 102.451621,30.2548788 102.451621,29.6998905 L102.451621,4.16026637 C102.451621,3.60527804 102.901672,3.15537111 103.456837,3.15537111 Z M37.158817,12.7018761 C33.3007979,12.7018761 31.8492657,14.572991 31.8492657,19.3080575 C31.8492657,24.195868 33.0334102,26.105169 37.158817,26.105169 C39.593953,26.105169 41.0554821,25.1654349 41.763725,24.2613604 L41.895395,24.0813099 L41.895395,14.6111771 C41.0168363,13.5037825 39.3361151,12.7018761 37.158817,12.7018761 Z M11.3448685,12.0748214 C8.90973257,12.0748214 7.4482034,13.0145555 6.73996045,13.91863 L6.60829041,14.0986805 L6.60829041,23.5688135 C7.48684924,24.676208 9.16757051,25.4781143 11.3448685,25.4781143 C15.2028877,25.4781143 16.6544197,23.6069995 16.6544197,18.871933 C16.6544197,13.9841224 15.4702752,12.0748214 11.3448685,12.0748214 Z M134.676365,12.511057 C131.314715,12.511057 129.954947,13.9087717 129.652776,16.8553053 L139.511097,16.8553053 C139.435554,13.9087717 137.62253,12.511057 134.676365,12.511057 Z M92.861816,0.807157004 L93.0337725,0.837070224 L97.7053071,2.08781078 C98.0753185,2.18687636 98.3467116,2.49254043 98.4087785,2.86058901 L98.4222399,3.02172311 L98.4222399,5.65384198 C98.4222399,5.73829586 98.4111708,5.8223857 98.3893152,5.90396448 C98.2664861,6.36244047 97.8338519,6.65527311 97.3768591,6.61766751 L97.2049026,6.58775427 L92.533368,5.33701268 C92.1633568,5.23794706 91.8919635,4.93228301 91.8298968,4.56423449 L91.8164352,4.4031004 L91.8164352,1.77098256 C91.8164352,1.68652875 91.8275044,1.60243896 91.8493599,1.52086026 C91.9568354,1.11969373 92.3015054,0.845347858 92.6921429,0.808222367 L92.861816,0.807157004 Z" id="Shape"></path>
                </g>
            </g>
            <path d="M26.73,228 L23.156,228 L23.156,210.867 L32.976,210.867 L32.976,213.844 L26.73,213.844 L26.73,218.262 L32.543,218.262 L32.543,221.227 L26.73,221.227 L26.73,228 Z M35.395,211.512 C35.395,210.348 36.043,209.766 37.34,209.766 C38.637,209.766 39.285,210.348 39.285,211.512 C39.285,212.066 39.123,212.498 38.799,212.807 C38.475,213.115 37.989,213.27 37.339,213.27 C36.043,213.27 35.395,212.684 35.395,211.512 L35.395,211.512 Z M39.12,228 L35.546,228 L35.546,214.898 L39.12,214.898 L39.12,228 Z M45.944,228 L42.37,228 L42.37,209.766 L45.944,209.766 L45.944,228 Z M52.769,228 L49.194,228 L49.194,209.766 L52.769,209.766 L52.769,228 Z M65.901,228.234 C64.362,228.234 63.153,227.637 62.274,226.441 C61.395,225.246 60.956,223.59 60.956,221.473 C60.956,219.324 61.403,217.65 62.298,216.451 C63.192,215.251 64.425,214.652 65.995,214.652 C67.644,214.652 68.901,215.293 69.769,216.574 L69.886,216.574 C69.706,215.598 69.616,214.727 69.616,213.961 L69.616,209.766 L73.202,209.766 L73.202,228 L70.46,228 L69.769,226.3 L69.616,226.3 C68.804,227.59 67.566,228.234 65.901,228.234 L65.901,228.234 Z M67.155,225.387 C68.069,225.387 68.739,225.121 69.165,224.59 C69.591,224.059 69.823,223.156 69.862,221.883 L69.862,221.496 C69.862,220.09 69.645,219.082 69.212,218.473 C68.778,217.863 68.073,217.559 67.097,217.559 C66.3,217.559 65.681,217.896 65.239,218.572 C64.798,219.248 64.577,220.23 64.577,221.52 C64.577,222.809 64.8,223.775 65.245,224.42 C65.69,225.064 66.327,225.387 67.155,225.387 L67.155,225.387 Z M79.288,221.426 C79.288,222.723 79.501,223.703 79.927,224.367 C80.353,225.031 81.046,225.363 82.007,225.363 C82.96,225.363 83.645,225.033 84.063,224.373 C84.481,223.713 84.69,222.73 84.69,221.426 C84.69,220.129 84.48,219.156 84.058,218.508 C83.636,217.859 82.944,217.535 81.983,217.535 C81.03,217.535 80.343,217.857 79.921,218.502 C79.499,219.146 79.288,220.122 79.288,221.426 L79.288,221.426 Z M88.347,221.426 C88.347,223.559 87.784,225.226 86.659,226.43 C85.534,227.633 83.968,228.234 81.959,228.234 C80.702,228.234 79.593,227.959 78.632,227.408 C77.671,226.858 76.932,226.066 76.417,225.035 C75.901,224.004 75.644,222.801 75.644,221.425 C75.644,219.285 76.202,217.621 77.319,216.434 C78.437,215.246 80.007,214.652 82.03,214.652 C83.288,214.652 84.397,214.926 85.358,215.472 C86.319,216.02 87.058,216.805 87.573,217.828 C88.089,218.852 88.347,220.051 88.347,221.426 L88.347,221.426 Z M96.12,228.234 C92.042,228.234 90.003,225.996 90.003,221.52 C90.003,219.293 90.558,217.592 91.667,216.416 C92.777,215.24 94.367,214.652 96.437,214.652 C97.952,214.652 99.311,214.949 100.515,215.543 L99.46,218.309 C98.945524,218.099254 98.4216321,217.913389 97.89,217.752 C97.4184813,217.609271 96.9286461,217.536166 96.436,217.535 C94.577,217.535 93.647,218.855 93.647,221.496 C93.647,224.059 94.577,225.34 96.437,225.34 C97.0839994,225.345691 97.728079,225.25262 98.347,225.064 C98.9705519,224.862267 99.5621678,224.572688 100.104,224.204 L100.104,227.262 C99.5667303,227.611306 98.9749359,227.868505 98.353,228.023 C97.763,228.164 97.019,228.234 96.12,228.234 L96.12,228.234 Z M111.92,228 L111.44,226.324 L111.253,226.324 C110.87,226.934 110.327,227.404 109.624,227.736 C108.921,228.068 108.12,228.234 107.222,228.234 C105.682,228.234 104.522,227.822 103.742,226.998 C102.96,226.174 102.569,224.988 102.569,223.441 L102.569,214.898 L106.144,214.898 L106.144,222.551 C106.144,223.496 106.311,224.205 106.647,224.678 C106.983,225.15 107.519,225.387 108.253,225.387 C109.253,225.387 109.976,225.053 110.421,224.385 C110.866,223.717 111.089,222.609 111.089,221.063 L111.089,214.898 L114.663,214.898 L114.663,228 L111.921,228 L111.92,228 Z M129.644,228 L126.069,228 L126.069,220.348 C126.069,219.402 125.911,218.693 125.595,218.221 C125.278,217.748 124.78,217.511 124.101,217.511 C123.186,217.511 122.522,217.848 122.108,218.52 C121.694,219.191 121.488,220.297 121.488,221.836 L121.488,228 L117.913,228 L117.913,214.898 L120.643,214.898 L121.124,216.574 L121.324,216.574 C121.674,215.973 122.183,215.502 122.847,215.162 C123.511,214.822 124.272,214.652 125.132,214.652 C127.092,214.652 128.421,215.293 129.116,216.574 L129.433,216.574 C129.784,215.964 130.302,215.492 130.985,215.156 C131.669,214.82 132.44,214.652 133.3,214.652 C134.784,214.652 135.907,215.033 136.669,215.795 C137.431,216.557 137.812,217.777 137.812,219.457 L137.812,228 L134.226,228 L134.226,220.348 C134.226,219.402 134.067,218.693 133.751,218.221 C133.435,217.748 132.937,217.511 132.257,217.511 C131.382,217.511 130.727,217.824 130.294,218.449 C129.86,219.074 129.644,220.066 129.644,221.426 L129.644,228 L129.644,228 Z M146.405,217.195 C145.647,217.195 145.054,217.435 144.624,217.916 C144.194,218.396 143.948,219.078 143.886,219.961 L148.901,219.961 C148.886,219.078 148.655,218.396 148.21,217.916 C147.765,217.436 147.163,217.196 146.405,217.196 L146.405,217.195 Z M146.909,228.235 C144.799,228.235 143.151,227.652 141.964,226.488 C140.776,225.324 140.183,223.676 140.183,221.543 C140.183,219.348 140.731,217.65 141.829,216.451 C142.927,215.251 144.444,214.652 146.382,214.652 C148.233,214.652 149.675,215.18 150.706,216.234 C151.737,217.289 152.253,218.746 152.253,220.605 L152.253,222.34 L143.803,222.34 C143.843,223.355 144.143,224.148 144.706,224.719 C145.269,225.289 146.058,225.574 147.073,225.574 C147.863,225.574 148.608,225.492 149.311,225.328 C150.071057,225.143995 150.809753,224.880894 151.515,224.543 L151.515,227.309 C150.879175,227.625173 150.205795,227.859377 149.511,228.006 C148.8,228.158 147.933,228.234 146.909,228.234 L146.909,228.235 Z M166.753,228 L163.179,228 L163.179,220.348 C163.179,219.402 163.011,218.693 162.675,218.221 C162.339,217.748 161.804,217.511 161.069,217.511 C160.069,217.511 159.347,217.846 158.901,218.514 C158.456,219.182 158.233,220.289 158.233,221.836 L158.233,228 L154.659,228 L154.659,214.898 L157.389,214.898 L157.87,216.574 L158.07,216.574 C158.465407,215.944033 159.038009,215.444832 159.716,215.139 C160.415,214.814 161.21,214.652 162.101,214.652 C163.624,214.652 164.781,215.064 165.569,215.889 C166.359,216.713 166.753,217.902 166.753,219.457 L166.753,228 L166.753,228 Z M175.453,225.387 C176.077,225.387 176.827,225.25 177.703,224.977 L177.703,227.637 C176.811,228.035 175.718,228.234 174.421,228.234 C172.991,228.234 171.951,227.873 171.298,227.15 C170.645,226.428 170.319,225.344 170.319,223.898 L170.319,217.582 L168.609,217.582 L168.609,216.07 L170.577,214.875 L171.608,212.109 L173.894,212.109 L173.894,214.899 L177.561,214.899 L177.561,217.582 L173.894,217.582 L173.894,223.898 C173.894,224.406 174.036,224.781 174.321,225.023 C174.606,225.266 174.983,225.387 175.452,225.387 L175.453,225.387 Z M188.991,224.109 C188.991,225.453 188.524,226.477 187.591,227.179 C186.657,227.883 185.261,228.234 183.401,228.234 C182.448,228.234 181.636,228.17 180.964,228.041 C180.316515,227.919623 179.683902,227.729202 179.077,227.473 L179.077,224.52 C179.798271,224.85259 180.54969,225.115453 181.321,225.305 C182.153,225.515 182.886,225.621 183.519,225.621 C184.815,225.621 185.464,225.246 185.464,224.496 C185.464,224.215 185.378,223.986 185.206,223.811 C185.034,223.635 184.737,223.436 184.316,223.213 C183.764325,222.929844 183.201177,222.669622 182.628,222.433 C181.62,222.012 180.88,221.621 180.408,221.262 C179.935,220.902 179.591,220.49 179.376,220.025 C179.161,219.561 179.054,218.988 179.054,218.309 C179.054,217.145 179.504,216.244 180.407,215.607 C181.31,214.971 182.589,214.652 184.245,214.652 C185.823,214.652 187.358,214.996 188.851,215.684 L187.772,218.262 C187.170482,218.00106 186.556395,217.77011 185.932,217.57 C185.367606,217.391112 184.779066,217.300049 184.187,217.3 C183.132,217.3 182.604,217.586 182.604,218.156 C182.604,218.476 182.774,218.754 183.114,218.988 C183.454,219.223 184.198,219.57 185.347,220.031 C186.37,220.445 187.12,220.832 187.597,221.191 C188.073,221.551 188.425,221.965 188.651,222.434 C188.878,222.902 188.991,223.461 188.991,224.109 L188.991,224.109 Z M199.862,221.426 C199.862,222.723 200.075,223.703 200.501,224.367 C200.927,225.031 201.621,225.363 202.581,225.363 C203.534,225.363 204.22,225.033 204.638,224.373 C205.056,223.713 205.265,222.73 205.265,221.426 C205.265,220.129 205.054,219.156 204.632,218.508 C204.21,217.859 203.519,217.535 202.558,217.535 C201.604,217.535 200.917,217.857 200.495,218.502 C200.073,219.146 199.862,220.122 199.862,221.426 Z M208.921,221.426 C208.921,223.559 208.358,225.226 207.233,226.43 C206.108,227.633 204.542,228.234 202.534,228.234 C201.276,228.234 200.167,227.959 199.206,227.408 C198.246,226.858 197.506,226.066 196.991,225.035 C196.476,224.004 196.218,222.801 196.218,221.425 C196.218,219.285 196.776,217.621 197.894,216.434 C199.011,215.246 200.581,214.652 202.604,214.652 C203.862,214.652 204.972,214.926 205.933,215.472 C206.893,216.02 207.632,216.805 208.147,217.828 C208.663,218.852 208.921,220.051 208.921,221.426 Z M223.469,228 L219.895,228 L219.895,220.348 C219.895,219.402 219.727,218.693 219.391,218.221 C219.055,217.748 218.52,217.511 217.785,217.511 C216.785,217.511 216.063,217.846 215.617,218.514 C215.172,219.182 214.949,220.289 214.949,221.836 L214.949,228 L211.375,228 L211.375,214.898 L214.105,214.898 L214.585,216.574 L214.785,216.574 C215.180673,215.943884 215.753641,215.444668 216.432,215.139 C217.131,214.814 217.926,214.652 218.816,214.652 C220.34,214.652 221.496,215.064 222.286,215.889 C223.074,216.713 223.469,217.902 223.469,219.457 L223.469,228 L223.469,228 Z M230.223,228 L226.648,228 L226.648,209.766 L230.223,209.766 L230.223,228 Z M233.32,211.512 C233.32,210.348 233.969,209.766 235.266,209.766 C236.563,209.766 237.211,210.348 237.211,211.512 C237.211,212.066 237.049,212.498 236.725,212.807 C236.4,213.115 235.915,213.27 235.265,213.27 C233.969,213.27 233.32,212.684 233.32,211.512 L233.32,211.512 Z M237.047,228 L233.473,228 L233.473,214.898 L237.047,214.898 L237.047,228 Z M252.391,228 L248.816,228 L248.816,220.348 C248.816,219.402 248.648,218.693 248.312,218.221 C247.977,217.748 247.442,217.511 246.707,217.511 C245.707,217.511 244.984,217.846 244.539,218.514 C244.094,219.182 243.871,220.289 243.871,221.836 L243.871,228 L240.297,228 L240.297,214.898 L243.027,214.898 L243.507,216.574 L243.707,216.574 C244.102673,215.943884 244.675641,215.444668 245.354,215.139 C246.053,214.814 246.848,214.652 247.738,214.652 C249.262,214.652 250.418,215.064 251.207,215.889 C251.997,216.713 252.391,217.902 252.391,219.457 L252.391,228 L252.391,228 Z M260.996,217.195 C260.238,217.195 259.645,217.435 259.215,217.916 C258.785,218.396 258.539,219.078 258.477,219.961 L263.492,219.961 C263.477,219.078 263.246,218.396 262.801,217.916 C262.355,217.436 261.754,217.196 260.996,217.196 L260.996,217.195 Z M261.5,228.235 C259.39,228.235 257.742,227.652 256.555,226.488 C255.367,225.324 254.773,223.676 254.773,221.543 C254.773,219.348 255.323,217.65 256.42,216.451 C257.518,215.251 259.035,214.652 260.973,214.652 C262.824,214.652 264.266,215.18 265.297,216.234 C266.328,217.289 266.844,218.746 266.844,220.605 L266.844,222.34 L258.394,222.34 C258.434,223.355 258.734,224.148 259.297,224.719 C259.859,225.289 260.648,225.574 261.664,225.574 C262.454,225.574 263.199,225.492 263.902,225.328 C264.661715,225.143929 265.400073,224.880828 266.105,224.543 L266.105,227.309 C265.469491,227.625094 264.796453,227.859296 264.102,228.006 C263.391,228.158 262.523,228.234 261.5,228.234 L261.5,228.235 Z" id="Shape" fill="#FFFFFF" fill-rule="nonzero"></path>
        </g>
    </g>
</svg>