<svg xmlns="http://www.w3.org/2000/svg" width="40" height="40"><g fill="none" fill-rule="evenodd"><path d="M0 0h40v40H0z"/><path fill="#842124" d="M12.01 7.919c.255 0 .455.052.455.21 0 .13-.228.235-.455.287l-.882.157c-.512.105-.938.523-.938 1.177l-.029 9.002c-.028 2.46 1.905 3.899 4.293 3.899 2.047 0 3.895-1.047 3.866-3.638l-.085-9c-.028-1.1-.426-1.335-.739-1.492-.256-.132-.512-.21-.512-.393 0-.157.228-.21.512-.21h4.406c.256 0 .455.053.455.21 0 .131-.227.236-.455.288l-.682.157c-.512.131-.966.55-.966 1.177l-.199 9.185c-.086 3.375-2.19 5.103-5.714 5.103-4.009 0-6.425-1.702-6.454-5.103l-.113-9.21c-.029-.629-.427-1.047-.938-1.152l-.882-.157c-.256-.052-.454-.157-.454-.288 0-.157.2-.21.455-.21h6.055zM27.653 7.5c2.559 0 3.923.366 5.487.471.198 0 .37.13.37.34l.028 4.056c0 .367-.398.34-.455.078-.654-2.826-2.274-3.793-5.373-3.793-1.62 0-2.872.706-2.872 2.067 0 4.213 9.581 2.878 9.581 8.765 0 3.22-2.73 4.449-5.941 4.449-2.133 0-3.44-.367-5.032-.472-.199 0-.398-.34-.398-.34l-.455-4.055c-.028-.314.341-.392.455-.079 1.137 3.01 2.814 3.847 5.685 3.847 1.962 0 3.64-.812 3.64-2.591 0-4.553-9.61-3.27-9.61-8.583 0-2.642 2.047-4.16 4.89-4.16z"/><path fill="#0A0B09" d="M22.67 30.04l2.009-2.7c.512 0 4.267.196 8.722.43l-1.369 1.518-11.604 3.974-11.552-3.978-1.37-1.519c4.454-.234 8.376-.433 8.89-.433.024 0 1.477 2.225 1.799 2.711l.917-2.435c-.983-.459-1.518.185-1.518.185l-.045-.02.475-1.221 1.92-.386.836-.297.969.229.938 3.945-.018-.004z"/></g></svg>