<svg xmlns="http://www.w3.org/2000/svg" xmlns:xlink="http://www.w3.org/1999/xlink" viewBox="0 0 16 16"><defs><circle id="a" cx="8" cy="8" r="8"/></defs><clipPath id="b"><use xlink:href="#a" overflow="visible"/></clipPath><g clip-path="url(#b)"><defs><path id="c" d="M0 0h16v15H0z"/></defs><clipPath id="d"><use xlink:href="#c" overflow="visible"/></clipPath><g clip-path="url(#d)"><defs><path id="e" d="M1 0C-.1 0-1 .9-1 2v11c0 1.1.9 2 2 2h17c1.1 0 2-.9 2-2V2c0-1.1-.9-2-2-2H1z"/></defs><clipPath id="f"><use xlink:href="#e" overflow="visible"/></clipPath><g clip-path="url(#f)"><defs><path id="g" d="M0 0h16v15H0z"/></defs><clipPath id="h"><use xlink:href="#g" overflow="visible"/></clipPath><g clip-path="url(#h)"><defs><path id="i" d="M0 0h16v15H0z"/></defs><clipPath id="j"><use xlink:href="#i" overflow="visible"/></clipPath><g clip-path="url(#j)"><defs><path id="k" d="M0 0h16v15H0z"/></defs><clipPath id="l"><use xlink:href="#k" overflow="visible"/></clipPath><path clip-path="url(#l)" fill="#FFF" d="M-6-5h31v25H-6z"/></g><g clip-path="url(#j)"><defs><path id="m" d="M-1 0h9v7h-9z"/></defs><clipPath id="n"><use xlink:href="#m" overflow="visible"/></clipPath><g clip-path="url(#n)"><defs><path id="o" d="M0 0h16v15H0z"/></defs><clipPath id="p"><use xlink:href="#o" overflow="visible"/></clipPath><path clip-path="url(#p)" fill="#435DB0" d="M-6-5h19v17H-6z"/></g></g><g clip-path="url(#j)"><defs><path id="q" d="M1 4v1h1V4H1zm2 0v1h1V4H3zm2 0v1h1V4H5zm1 1v1h1V5H6zM4 5v1h1V5H4zM2 5v1h1V5H2zM0 5v1h1V5H0zm6-2v1h1V3H6zM4 3v1h1V3H4zM2 3v1h1V3H2zM0 3v1h1V3H0zm1-1v1h1V2H1zm2 0v1h1V2H3zm2 0v1h1V2H5zm1-1v1h1V1H6zM4 1v1h1V1H4zM2 1v1h1V1H2zM0 1v1h1V1H0z"/></defs><clipPath id="r"><use xlink:href="#q" overflow="visible"/></clipPath><g clip-path="url(#r)"><defs><path id="s" d="M0 0h16v15H0z"/></defs><clipPath id="t"><use xlink:href="#s" overflow="visible"/></clipPath><path clip-path="url(#t)" fill="#A7B6E6" d="M-5-4h17v15H-5z"/></g></g><g clip-path="url(#j)"><defs><path id="u" d="M-1 14v1h21v-1H-1zm0-2v1h21v-1H-1zm0-2v1h21v-1H-1zm0-2v1h21V8H-1zm9-2v1h12V6H8zm0-2v1h12V4H8zm0-2v1h12V2H8zm0-2v1h12V0H8z"/></defs><clipPath id="v"><use xlink:href="#u" overflow="visible"/></clipPath><g clip-path="url(#v)"><defs><path id="w" d="M0 0h16v15H0z"/></defs><clipPath id="x"><use xlink:href="#w" overflow="visible"/></clipPath><path clip-path="url(#x)" fill="#ED4C49" d="M-6-5h31v25H-6z"/></g></g></g></g></g></g></svg>