<svg xmlns="http://www.w3.org/2000/svg" width="48" height="48"><g fill="none"><path d="M0 0h48v48H0z"/><circle cx="19.5" cy="27.5" r="13.5" fill="#A6CDFF"/><path stroke="#414141" stroke-width="2" d="M8.293 12h8.915c3.94 0 6.135 2.686 6.135 6s-2.194 6-6.135 6H8.293"/><path fill="#414141" d="M9.172 12l4.242 4.243L12 17.657l-4.243-4.243L6.343 12 12 6.343l1.414 1.414L9.172 12z"/><path stroke="#414141" stroke-width="2" d="M39.707 27h-8.915c-3.94 0-6.135 2.686-6.135 6s2.194 6 6.135 6h8.915"/><path fill="#414141" d="M38.828 27l-4.242 4.243L36 32.657l4.243-4.243L41.657 27 36 21.343l-1.414 1.414L38.828 27z"/></g></svg>