<svg xmlns="http://www.w3.org/2000/svg" width="48" height="48"><g fill="none"><path d="M0 0h48v48H0z"/><path fill="#FFBA00" d="M14 14h30v30H14z"/><g fill="#414141"><path d="M38 6h-9v2h9v9h2V6h-2zM8 40h9v-2H8v-9H6v11h2zM6 8v9h2V8h9V6H6v2z"/><path d="M7 16.185l-4.243-4.242-1.414 1.414 4.243 4.242L7 19.014l5.657-5.657-1.414-1.414L7 16.185zM38 40h-9v-2h9v-9h2v11h-2z"/></g><path fill="#FFF" stroke="#414141" stroke-width="2" d="M12 31h22V14H18.179L12 20.057V31z"/><path fill="#414141" d="M18 20v-6h2v8h-8v-2h6z"/></g></svg>