<svg xmlns="http://www.w3.org/2000/svg" width="48" height="48"><g fill="none" fill-rule="evenodd"><path d="M0 0h48v48H0z"/><path fill="#ADD039" d="M12 11h28v34H12z"/><path fill="#414141" fill-rule="nonzero" d="M21.586 24.828l5.657-5.656 1.414 1.414L23 26.243l-1.414 1.414-4.243-4.243L18.757 22l2.829 2.828z"/><path fill="#414141" fill-rule="nonzero" d="M16 7v2h-6v30h24V9h-6V7h7a1 1 0 011 1v32a1 1 0 01-1 1H9a1 1 0 01-1-1V8a1 1 0 011-1h7z"/><path stroke="#414141" stroke-width="2" d="M20 5a2 2 0 114 0h4a1 1 0 011 1v4a1 1 0 01-1 1H16a1 1 0 01-1-1V6a1 1 0 011-1h4z"/></g></svg>