<svg xmlns="http://www.w3.org/2000/svg" width="48" height="48"><g fill="none"><path d="M0 0h48v48H0z"/><circle cx="25" cy="26" r="18" fill="#C2AFFF"/><path stroke="#414141" stroke-linecap="round" stroke-linejoin="round" stroke-width="2" d="M8.819 4c3.598 3.205 5.398 8.495 5.398 15.87 0 11.063-4.918 14.908-7.602 14.003-2.064-.696-3.433-4.829-2.064-10.245 1.59-6.29 8.693-13.589 13.189-13.589 3.512 0 6.24 3.23 5.526 10.307-.223 2.206-1.364 5.917-3.422 11.134 2.695-5.933 4.971-8.55 6.83-7.852 1.858.7 1.858 2.927 0 6.685 2.463-4.855 4.57-7.282 6.323-7.282 2.63 0 .654 8.436 3.342 7.143 1.792-.863 3.013-1.551 3.661-2.066"/></g></svg>