<svg xmlns="http://www.w3.org/2000/svg" width="48" height="48"><g fill="none" fill-rule="evenodd"><path d="M0 0h48v48H0z"/><path fill="#FFBA00" fill-rule="nonzero" d="M12 13h30v30H12z"/><g fill-rule="nonzero"><g fill="#414141"><path d="M12 13h8v8h-8v-8zm2 2v4h4v-4h-4z"/><path d="M15 16h2v2h-2z"/></g><g fill="#414141"><path d="M12 23h8v8h-8v-8zm2 2v4h4v-4h-4z"/><path d="M15 26h2v2h-2z"/></g><g fill="#414141"><path d="M22 13h8v8h-8v-8zm2 2v4h4v-4h-4z"/><path d="M25 16h2v2h-2z"/></g><path stroke="#414141" stroke-width="2" d="M27 28h-1l1 1v-1 1l1-1h-1 1l-1-1v1-1l-1 1h1z"/><path fill="#414141" d="M26 27h-2v-2h2v-2h4v2h-2v2h2v4h-2v-2h-2v-2zm-2-2h-2v-2h2zm0 4h-2v-2h2z"/><path fill="#414141" d="M26 31h-2v-2h2z"/></g><path stroke="#414141" stroke-width="2" d="M7 8h28v28H7z"/><path fill="#FFF" fill-rule="nonzero" stroke="#414141" stroke-width="2" d="M5 34h4v4H5zM33 6h4v4h-4zM5 6h4v4H5z"/><path fill="#FFBA00" fill-rule="nonzero" stroke="#414141" stroke-width="2" d="M33 34h4v4h-4z"/></g></svg>