<svg xmlns="http://www.w3.org/2000/svg" width="48" height="48"><g fill="none" fill-rule="evenodd"><path d="M0 0h48v48H0z"/><path fill="#ADD039" fill-rule="nonzero" d="M43 14.933V43H18V9h19.219z"/><path fill="#414141" fill-rule="nonzero" d="M27.965 5H29v.07L35 11v10H10V5h17.965zM27 7H12v12h21v-6h-6V7zm2 .882V11h3.155L29 7.882zM10 33h25v6H10v-6zm2 2v2h21v-2H12z"/><path fill="#414141" fill-rule="nonzero" d="M7 19h31a2 2 0 012 2v12a2 2 0 01-2 2H7a2 2 0 01-2-2V21a2 2 0 012-2zm0 2v12h31V21H7z"/><path fill="#414141" fill-rule="nonzero" d="M10 24h8v2h-8v-2zm0 4h5v2h-5v-2z"/></g></svg>