<svg xmlns="http://www.w3.org/2000/svg" width="48" height="48"><g fill="none" fill-rule="evenodd"><path d="M0 0h48v48H0z"/><path fill="#0071C5" fill-rule="nonzero" d="M39.412 17.911c-.25 0-.495.026-.732.074a9.754 9.754 0 00-4.95-5.234c.02-.147.031-.296.032-.444 0-1.955-1.606-3.54-3.588-3.54a3.6 3.6 0 00-2.22.764v5.551a3.599 3.599 0 002.22.764c1.177 0 2.28-.57 2.95-1.529a8.064 8.064 0 014.022 4.39 3.512 3.512 0 00-1.32 2.76 3.513 3.513 0 001.349 2.746 8.063 8.063 0 01-4.05 4.468 3.596 3.596 0 00-2.95-1.528 3.6 3.6 0 00-2.222.763v5.551a3.598 3.598 0 002.221.764c1.981 0 3.588-1.585 3.588-3.54 0-.15-.013-.299-.032-.444a9.753 9.753 0 004.984-5.326c.23.045.464.067.699.068 1.98 0 3.587-1.585 3.587-3.54 0-1.954-1.606-3.538-3.587-3.538zM16.78 28.378c-1.699 1.216-3.923.702-5.71-.023a283.694 283.694 0 00-.084-3.085c1.148.837 2.846 2.07 4.214.925 1.06-1.752-1.021-2.867-2.223-3.716-2.583-1.54-2.679-5.751-.174-7.397 1.465-.914 3.253-.625 4.868-.402l.07 2.909c-1.345-.419-3.06-1.263-4.167.088-.77 1.989 1.669 2.738 2.847 3.775 2.302 1.47 2.499 5.245.359 6.926zM5.045 7.74L5 35.301l20.96 3.74V4L5.045 7.74z"/><g transform="translate(28 28)"><circle cx="9" cy="9" r="8" fill="#FFF" stroke="#414141" stroke-width="2"/><g fill="#414141" transform="translate(5 5)"><rect width="2" height="8" x="3" rx="1"/><rect width="8" height="2" y="3" rx="1"/></g></g></g></svg>