<svg xmlns="http://www.w3.org/2000/svg" width="48" height="48"><defs><linearGradient id="a" x1="-.003%" y1="50.001%" y2="50.001%"><stop offset="0%" stop-color="#C8C8C8"/><stop offset="100%" stop-color="#CDCDCD"/></linearGradient><linearGradient id="b" x1="-.002%" y1="50%" y2="50%"><stop offset="0%" stop-color="#D9D9D9"/><stop offset="100%" stop-color="#E2E2E2"/></linearGradient></defs><g fill="none" fill-rule="evenodd"><path d="M0 0h48v48H0z"/><g fill-rule="nonzero"><path fill="#EAEAEA" d="M39.75 34H8.25C7.007 34 6 33.03 6 31.833V10.167C6 8.97 7.007 8 8.25 8h31.5c1.243 0 2.25.97 2.25 2.167v21.666C42 33.03 40.993 34 39.75 34z"/><path fill="#D54C3F" d="M10.5 34H8.25C7.007 34 6 33.03 6 31.833V10.167C6 8.97 7.007 8 8.25 8s2.25.97 2.25 2.167V34z"/><path fill="#B63524" d="M37.5 34h2.25c1.243 0 2.25-.97 2.25-2.167V10.167C42 8.97 40.993 8 39.75 8s-2.25.97-2.25 2.167V34z"/><path fill="#DE5145" d="M41.038 11.943A2.143 2.143 0 0042 10.167C42 8.97 40.993 8 39.75 8c-.48 0-.924.144-1.288.39l-14.46 10.138h-.004L9.538 8.39A2.301 2.301 0 008.25 8C7.007 8 6 8.97 6 10.167c0 .735.38 1.384.962 1.776l-.06-.042L24 23.889M41.1 11.9L24 23.89"/><path fill="#EFEFEF" d="M39.75 8c-.48 0-.924.144-1.288.39l-14.46 10.138h-.004L9.538 8.39A2.301 2.301 0 008.25 8h31.5z"/><path fill="#C64132" d="M10.5 15.358l-3.79-3.617-.002.003c.08.072.165.139.255.2l-.06-.043 3.6 2.524-.001.959"/><path fill="#E3E3E3" d="M21.501 25.76L10.5 34V15.268l11 10.49"/><path fill="url(#a)" d="M15.501 17.76L18 15.89 4.5 6.425v.843l11 10.49z" transform="translate(6 8)"/><path fill="url(#b)" d="M24.046 26H31.5V6.424L18 15.89l-2.501 1.868z" transform="translate(6 8)"/></g><g transform="translate(28 28)"><circle cx="9" cy="9" r="8" fill="#FFF" stroke="#414141" stroke-width="2"/><g fill="#414141" transform="translate(5 5)"><rect width="2" height="8" x="3" rx="1"/><rect width="8" height="2" y="3" rx="1"/></g></g></g></svg>