<svg xmlns="http://www.w3.org/2000/svg" width="48" height="48"><g fill="none" fill-rule="evenodd"><g fill-rule="nonzero"><path d="M0 0h48v48H0z"/><path fill="#A6CDFF" d="M21 9h19.38L46 14.55V46H21z"/><path stroke="#414141" stroke-width="2" d="M17 5v14h20v-8.593L31.733 5H17z"/><path fill="#414141" d="M32 10h6v2h-8V4h2v6z"/><path stroke="#414141" stroke-width="2" d="M14 19a1 1 0 00-1 1v17a1 1 0 001 1h26a1 1 0 001-1V20a1 1 0 00-1-1H14z"/></g><rect width="8" height="23" x="5" y="17" stroke="#414141" stroke-width="2" rx="1"/></g></svg>