<svg xmlns="http://www.w3.org/2000/svg" width="48" height="48"><g fill="none"><path d="M0 0h48v48H0z"/><g transform="translate(2 6)"><g fill="#FFBA00" transform="translate(10 1)"><path d="M29 28c0-8.284-6.492-15-14.5-15S0 19.716 0 28"/><circle cx="14.5" cy="7.5" r="7.5"/></g><g fill="#FFBA00" transform="translate(32 11)"><path d="M12 12a6 6 0 10-12 0"/><circle cx="6" cy="3" r="3"/></g><g fill="#FFBA00" transform="translate(4 11)"><path d="M12 12a6 6 0 10-12 0"/><circle cx="6" cy="3" r="3"/></g><circle cx="21" cy="7" r="7" stroke="#414141" stroke-linecap="round" stroke-linejoin="round" stroke-width="2"/><circle cx="7" cy="13" r="3" stroke="#414141" stroke-linecap="round" stroke-linejoin="round" stroke-width="2"/><circle cx="35" cy="13" r="3" stroke="#414141" stroke-linecap="round" stroke-linejoin="round" stroke-width="2"/><path stroke="#414141" stroke-linecap="round" stroke-linejoin="round" stroke-width="2" d="M35 28c0-7.732-6.268-14-14-14S7 20.268 7 28"/><path fill="#414141" d="M10.541 19.47A5 5 0 002 23a1 1 0 01-2 0 7 7 0 0112.053-4.844l-1.512 1.314zm21.065-.142l-1.415-1.415A7 7 0 0142 23a1 1 0 01-2 0 5 5 0 00-8.394-3.672z"/></g></g></svg>