<svg xmlns="http://www.w3.org/2000/svg" width="48" height="48"><g fill="none" fill-rule="evenodd"><path d="M0 0h48v48H0z"/><path fill="#ADD039" d="M4 14h44v16H4z"/><path fill="#FFF" stroke="#414141" stroke-width="2" d="M3 21h44v14H3z"/><g fill="#414141"><path d="M11.134 24.036l1.732 1-4 6.928-1.732-1z"/><path d="M8.866 24.036l-1.732 1 4 6.928 1.732-1z"/><path d="M6 27h8v2H6zm15.134-2.964l1.732 1-4 6.928-1.732-1z"/><path d="M18.866 24.036l-1.732 1 4 6.928 1.732-1z"/><path d="M16 27h8v2h-8zm15.134-2.964l1.732 1-4 6.928-1.732-1z"/><path d="M28.866 24.036l-1.732 1 4 6.928 1.732-1z"/><path d="M26 27h8v2h-8z"/></g><path fill="#414141" d="M36 30h8v2h-8z"/></g></svg>