<svg xmlns="http://www.w3.org/2000/svg" width="48" height="48"><g fill="none"><path d="M0 0h48v48H0z"/><path fill="#FFF" stroke="#414141" stroke-width="2" d="M32.236 22c.432-.932.94-1.902 1.635-3.154a177.445 177.445 0 01.688-1.23c1.294-2.308 1.912-3.493 2.503-4.897.6-1.429 1.187-3.675 1.746-6.719H16.843c-.443 3.482-.974 5.968-1.612 7.493-.66 1.578-1.372 2.9-2.68 5.108a924.752 924.752 0 01-.765 1.29c-.476.81-.859 1.486-1.185 2.109h21.635z"/><path fill="#A6CDFF" d="M34 21c-.741 1.157-1.389 2.33-1.814 3.551-1.093 3.144-1.41 6.294-.95 9.449h-24.1c-.364-3.144.003-6.294 1.1-9.449.441-1.27 1.103-2.427 1.859-3.551H34z"/><path fill="#414141" d="M7 20h29a1 1 0 010 2H7a1 1 0 010-2zm11.189-5h13.17l-1.189 2H17l1.189-2zm1.523-4H33l-.66 2H19.052l.66-2zM18 39.232V28h2v11.232l3.5-3.297 1.5 1.413L19 43l-1.5-1.413-4.5-4.239 1.5-1.413 3.5 3.297z"/></g></svg>