<svg xmlns="http://www.w3.org/2000/svg" width="48" height="48"><g fill="none" fill-rule="evenodd"><path d="M0 0h48v48H0z"/><path fill="#A6CDFF" d="M12 23.092L31.092 4l15.556 15.556-19.092 19.092z"/><path d="M6.02 38H2.832C2.231 38 2 38.448 2 39s.23 1 .833 1H6.02c.603 0 .981-.448.981-1s-.379-1-.98-1zm2.847 3.219L6.614 43.47c-.426.427-.272.906.118 1.297.39.39.87.544 1.297.118l2.252-2.253c.426-.426.377-1.01-.013-1.4-.39-.391-.975-.44-1.401-.014zm31.108-3.239H22.011L40.4 19.853a2.002 2.002 0 000-2.857L27.815 4.59a2.072 2.072 0 00-2.898 0L4.8 24.42A5.978 5.978 0 003 28.706c0 1.619.64 3.14 1.801 4.286l6.06 5.972A3.59 3.59 0 0013.397 40h26.578c.566 0 1.025-.453 1.025-1.01 0-.558-.458-1.01-1.025-1.01zm-26.578 0a1.54 1.54 0 01-1.087-.445l-6.06-5.972a4.005 4.005 0 010-5.715l3.29-3.243 10.816 10.662a1.034 1.034 0 001.449 0 1 1 0 000-1.429L10.989 21.177 26.366 6.019l12.585 12.406L19.112 37.98h-5.715z" fill="#414141"/></g></svg>