<svg xmlns="http://www.w3.org/2000/svg" width="48" height="48"><g fill="none"><path d="M0 0h48v48H0z"/><path fill="#FFBA00" d="M19.474 10h13.052C39.968 10 46 16.032 46 23.474v.14c0 7.364-5.97 13.333-13.333 13.333V42l-8.19-5.053h-5.003C12.032 36.947 6 30.915 6 23.474 6 16.032 12.032 10 19.474 10z"/><path fill="#414141" d="M25.667 31.947h2C33.926 31.947 39 26.873 39 20.614v-.14C39 14.137 33.863 9 27.526 9H14.474C8.137 9 3 14.137 3 20.474c0 6.336 5.137 11.473 11.474 11.473h5.57l5.623 3.469v-3.469zM14.474 7h13.052C34.968 7 41 13.032 41 20.474v.14c0 7.364-5.97 13.333-13.333 13.333V39l-8.19-5.053h-5.003C7.032 33.947 1 27.915 1 20.474 1 13.032 7.032 7 14.474 7z"/><path fill="#414141" d="M13 20h3v3h-3v-3zm6 0h3v3h-3v-3zm6 0h3v3h-3v-3z"/></g></svg>