<svg xmlns="http://www.w3.org/2000/svg" width="48" height="48"><g fill="none"><path d="M0 0h48v48H0z"/><path fill="#ADD039" d="M3 5h32v34H3z"/><path d="M40.232 37H29v-2h11.232l-3.297-3.5 1.413-1.5L44 36l-1.413 1.5-4.239 4.5-1.413-1.5 3.297-3.5zM9 15h2.026v5.325c0 .845.025 1.393.075 1.643.087.403.293.726.62.97.325.243.771.365 1.337.365.575 0 1.008-.115 1.3-.345a1.36 1.36 0 00.527-.849c.06-.335.09-.892.09-1.67V15H17v5.164c0 1.18-.055 2.015-.164 2.502-.11.487-.312.899-.606 1.234-.294.335-.688.603-1.18.802-.493.199-1.136.298-1.93.298-.958 0-1.685-.108-2.18-.325-.495-.217-.886-.499-1.174-.845a2.69 2.69 0 01-.568-1.09C9.066 22.176 9 21.345 9 20.245V15zm9 6.684l1.933-.184c.116.637.352 1.105.708 1.404.356.299.836.448 1.44.448.64 0 1.121-.133 1.446-.399.324-.266.486-.577.486-.933a.87.87 0 00-.204-.583c-.137-.16-.375-.3-.715-.419-.233-.079-.763-.22-1.59-.421-1.066-.26-1.813-.578-2.242-.956-.604-.532-.906-1.18-.906-1.945 0-.492.142-.952.426-1.38.284-.43.693-.756 1.228-.98.535-.224 1.18-.336 1.936-.336 1.235 0 2.165.266 2.789.798.624.531.952 1.241.983 2.129l-1.986.086c-.085-.497-.268-.854-.547-1.072-.28-.217-.7-.326-1.259-.326-.577 0-1.029.116-1.356.35a.7.7 0 00-.315.6c0 .228.098.423.295.586.25.207.86.422 1.826.646.966.224 1.681.456 2.144.695.463.24.826.567 1.087.983.262.415.393.928.393 1.539a2.81 2.81 0 01-.47 1.556c-.313.483-.756.842-1.329 1.077-.572.235-1.286.353-2.14.353-1.244 0-2.2-.282-2.866-.847-.667-.565-1.065-1.388-1.195-2.469zM27 25V15h3.384c1.282 0 2.118.05 2.507.15.599.15 1.1.476 1.503.979.404.502.606 1.152.606 1.947 0 .614-.116 1.13-.35 1.549a2.78 2.78 0 01-.886.986 3.123 3.123 0 01-1.093.474c-.504.095-1.233.143-2.187.143h-1.487V25H27zm2.004-8.2v2.742h1.42c.897 0 1.497-.05 1.8-.152.302-.1.539-.259.71-.474a1.17 1.17 0 00.258-.752c0-.351-.12-.641-.361-.87a1.662 1.662 0 00-.916-.428c-.271-.044-.818-.066-1.638-.066h-1.273zM36 21.684l1.933-.184c.116.637.352 1.105.708 1.404.356.299.836.448 1.44.448.64 0 1.121-.133 1.446-.399.324-.266.486-.577.486-.933a.87.87 0 00-.204-.583c-.137-.16-.375-.3-.715-.419-.233-.079-.763-.22-1.59-.421-1.066-.26-1.813-.578-2.242-.956-.604-.532-.906-1.18-.906-1.945 0-.492.142-.952.426-1.38.284-.43.693-.756 1.228-.98.535-.224 1.18-.336 1.936-.336 1.235 0 2.165.266 2.789.798.624.531.952 1.241.983 2.129l-1.986.086c-.085-.497-.268-.854-.547-1.072-.28-.217-.7-.326-1.259-.326-.577 0-1.029.116-1.356.35a.7.7 0 00-.315.6c0 .228.098.423.295.586.25.207.86.422 1.826.646.966.224 1.681.456 2.144.695.463.24.826.567 1.087.983.262.415.393.928.393 1.539a2.81 2.81 0 01-.47 1.556c-.313.483-.756.842-1.329 1.077-.572.235-1.286.353-2.14.353-1.244 0-2.2-.282-2.866-.847-.667-.565-1.065-1.388-1.195-2.469z" fill="#414141"/></g></svg>