<svg xmlns="http://www.w3.org/2000/svg" width="48" height="48"><defs><linearGradient id="a" x1="99.14%" x2="33.859%" y1="115.493%" y2="37.211%"><stop offset="18%" stop-color="#0052CC"/><stop offset="100%" stop-color="#2684FF"/></linearGradient><linearGradient id="b" x1="12.671%" x2="66.18%" y1="-1.283%" y2="62.852%"><stop offset="0%" stop-color="#0052CC"/><stop offset="100%" stop-color="#2684FF"/></linearGradient></defs><g fill="none" fill-rule="evenodd"><g fill-rule="nonzero"><path d="M0 0h48v48H0z"/><path fill="url(#a)" d="M1.29 26.653c-.368.612-.781 1.324-1.132 1.89a1.17 1.17 0 00.379 1.573L7.89 34.74a1.114 1.114 0 001.567-.393c.294-.503.673-1.156 1.086-1.855 2.913-4.914 5.843-4.313 11.127-1.735l7.292 3.544c.276.134.593.149.88.04.287-.11.518-.332.641-.618l3.502-8.094a1.167 1.167 0 00-.566-1.514 880.13 880.13 0 01-7.354-3.573c-9.91-4.92-18.334-4.602-24.777 6.11z" transform="translate(4 6)"/><path fill="url(#b)" d="M34.264 8.285c.368-.613.78-1.324 1.131-1.89a1.17 1.17 0 00-.379-1.573L27.662.197a1.108 1.108 0 00-.887-.167 1.134 1.134 0 00-.725.549c-.294.503-.673 1.156-1.086 1.856-2.913 4.913-5.844 4.312-11.127 1.734L6.567.642a1.11 1.11 0 00-.88-.04 1.142 1.142 0 00-.641.619L1.544 9.314a1.167 1.167 0 00.566 1.515c1.539.74 4.6 2.214 7.354 3.572 9.934 4.914 18.357 4.585 24.8-6.116z" transform="translate(4 6)"/></g><g transform="translate(28 28)"><circle cx="9" cy="9" r="8" fill="#FFF" stroke="#414141" stroke-width="2"/><g fill="#414141" transform="translate(5 5)"><rect width="2" height="8" x="3" rx="1"/><rect width="8" height="2" y="3" rx="1"/></g></g></g></svg>