<svg xmlns="http://www.w3.org/2000/svg" xmlns:xlink="http://www.w3.org/1999/xlink" width="48" height="48"><defs><path id="a" d="M2.315 0H18.75L30 11.25v26.435A2.315 2.315 0 0127.685 40H2.315A2.315 2.315 0 010 37.685V2.315A2.315 2.315 0 012.315 0z"/><path id="e" d="M18.947 0L30 11.2h-8.738a2.315 2.315 0 01-2.315-2.315V0z"/><linearGradient id="b" x1="24.121%" x2="50%" y1="1.829%" y2="100%"><stop offset="0%" stop-color="#1FA866"/><stop offset="100%" stop-color="#0F9A5C"/></linearGradient><filter id="d" width="154.3%" height="153.6%" x="-27.1%" y="-26.8%" filterUnits="objectBoundingBox"><feOffset in="SourceAlpha" result="shadowOffsetOuter1"/><feGaussianBlur in="shadowOffsetOuter1" result="shadowBlurOuter1" stdDeviation="1"/><feColorMatrix in="shadowBlurOuter1" values="0 0 0 0 0 0 0 0 0 0.399711277 0 0 0 0 0.221658072 0 0 0 1 0"/></filter></defs><g fill="none" fill-rule="evenodd"><path d="M0 0h48v48H0z"/><g transform="translate(9 2)"><mask id="c" fill="#fff"><use xlink:href="#a"/></mask><use fill="url(#b)" fill-rule="nonzero" xlink:href="#a"/><g fill-rule="nonzero" mask="url(#c)"><path stroke="#FFF" stroke-width="1.6" d="M8.695 15.8v9.6h12.61v-9.6H8.695z"/><path fill="#FFF" d="M14.21 15h1.58v10.4h-1.58z"/><path fill="#FFF" d="M8.684 19.8v-1.6h12.384v1.6zm0 3.2v-1.6h12.384V23z"/></g><g fill-rule="nonzero" mask="url(#c)"><use fill="#000" filter="url(#d)" xlink:href="#e"/><use fill="#8CD1B0" xlink:href="#e"/></g></g><g transform="translate(28 28)"><circle cx="9" cy="9" r="8" fill="#FFF" stroke="#414141" stroke-width="2"/><g fill="#414141" transform="translate(5 5)"><rect width="2" height="8" x="3" rx="1"/><rect width="8" height="2" y="3" rx="1"/></g></g></g></svg>