<svg xmlns="http://www.w3.org/2000/svg" width="48" height="48"><g fill="none" fill-rule="evenodd"><g fill-rule="nonzero"><path d="M0 0h48v48H0z"/><path fill="#A6CDFF" d="M13 13h30v30H13z"/><path stroke="#414141" stroke-width="2" d="M7 7v30h30V7H7z"/></g><path stroke="#414141" stroke-linecap="round" stroke-linejoin="round" stroke-width="2" d="M11 24.01h3.008l2.994 5.988L21.02 16h11.986"/><path fill="#414141" d="M26.106 26.002l-2.86-3.285a1 1 0 01.125-1.434l.08-.064a1 1 0 011.382.121l2.666 3.062 2.665-3.062a1 1 0 011.383-.12l.08.063a1 1 0 01.125 1.434l-2.86 3.285 2.86 3.284a1 1 0 01-.126 1.434l-.079.064a1 1 0 01-1.383-.12L27.5 27.601l-2.666 3.061a1 1 0 01-1.383.121l-.079-.064a1 1 0 01-.125-1.434l2.86-3.284z"/></g></svg>