<svg xmlns="http://www.w3.org/2000/svg" width="48" height="48"><g fill="none" fill-rule="evenodd"><path d="M0 0h48v48H0z"/><path fill="#C2AFFF" fill-rule="nonzero" d="M12 12h30v30H12z"/><path fill="#FFF" fill-rule="nonzero" stroke="#414141" stroke-width="2" d="M6 34h4v4H6zM34 6h4v4h-4zM6 6h4v4H6z"/><path fill="#C2AFFF" fill-rule="nonzero" stroke="#414141" stroke-width="2" d="M34 34h4v4h-4z"/><path d="M7 34v-3h2v3zm0-5v-6h2v6zm0-8v-6h2v6zm0-8v-3h2v3zm28 21v-3h2v3zm0-5v-6h2v6zm0-8v-6h2v6zm0-8v-3h2v3zM15 36h6v2h-6zm8-28h6v2h-6zM10 8h3v2h-3zm0 28h3v2h-3zm5-28h6v2h-6zm8 28h6v2h-6zm8-28h2v2h-2zm0 28h3v2h-3z" fill="#414141"/></g></svg>