<svg xmlns="http://www.w3.org/2000/svg" width="48" height="48"><g fill="none"><path d="M0 0h48v48H0z"/><path fill="#414141" d="M24 44C12.954 44 4 35.046 4 24S12.954 4 24 4s20 8.954 20 20-8.954 20-20 20zm0-2c9.941 0 18-8.059 18-18S33.941 6 24 6 6 14.059 6 24s8.059 18 18 18z"/><path fill="#ADD039" d="M13.714 34.2L24 24V9.008c7.777.264 14 6.651 14 14.492C38 31.508 31.508 38 23.5 38a14.45 14.45 0 01-9.786-3.8z"/><rect width="2" height="15" x="23" y="9" fill="#414141" rx="1"/><path fill="#414141" d="M13.787 34.194a1 1 0 010-1.414l8.357-8.357a1 1 0 111.414 1.415L15.2 34.194a1 1 0 01-1.414 0z"/><circle cx="24" cy="24" r="3" fill="#FFF" stroke="#414141" stroke-width="2"/></g></svg>