<svg xmlns="http://www.w3.org/2000/svg" width="48" height="48"><g fill="none" fill-rule="evenodd"><path d="M0 0h48v48H0z"/><g transform="translate(3 4)"><circle cx="23" cy="21.077" r="18" fill="#FFBA00"/><circle cx="17" cy="17" r="16" stroke="#414141" stroke-width="2"/><circle cx="17" cy="17.103" r="12" fill="#FFF" stroke="#414141" stroke-width="2"/><path fill="#414141" fill-rule="nonzero" d="M17 16.476c-1.155 0-2.095-.858-2.095-1.912 0-1.054.94-1.912 2.095-1.912 1.155 0 2.095.858 2.095 1.912 0 .555.427 1.004.953 1.004s.952-.45.952-1.004c0-1.84-1.3-3.387-3.048-3.807v-.522c0-.555-.426-1.004-.952-1.004s-.952.45-.952 1.004v.522C14.3 11.177 13 12.724 13 14.564c0 2.162 1.794 3.92 4 3.92 1.155 0 2.095.858 2.095 1.912 0 1.054-.94 1.912-2.095 1.912-1.155 0-2.095-.858-2.095-1.912 0-.554-.427-1.004-.953-1.004s-.952.45-.952 1.004c0 1.84 1.3 3.387 3.048 3.807v.434c0 .554.426 1.004.952 1.004s.952-.45.952-1.004v-.434C19.7 23.783 21 22.236 21 20.396c0-2.161-1.794-3.92-4-3.92z"/></g></g></svg>