<svg xmlns="http://www.w3.org/2000/svg" width="48" height="48"><g fill="none" fill-rule="evenodd"><path d="M0 0h48v48H0z"/><rect width="41" height="32" x="5" y="10" fill="#A6CDFF" rx="2"/><path d="M25.69 18.964c-.02-2.17 1.777-3.212 1.855-3.264-1.005-1.466-2.582-1.667-3.139-1.693-1.336-.136-2.615.782-3.296.782-.674 0-1.725-.762-2.835-.744-1.46.02-2.801.847-3.553 2.146-1.52 2.624-.39 6.503 1.09 8.635.718 1.035 1.582 2.204 2.71 2.166 1.09-.046 1.499-.705 2.816-.705 1.316 0 1.687.705 2.84.685 1.168-.026 1.914-1.067 2.628-2.108.83-1.207 1.174-2.377 1.194-2.435-.027-.013-2.283-.874-2.31-3.465zm-2.508-6.321c.576-.699.97-1.675.856-2.643-.83.032-1.837.557-2.437 1.256-.538.62-1 1.606-.875 2.563.925.069 1.875-.475 2.456-1.176z" fill="#414141"/><rect width="38" height="26" x="2" y="6" stroke="#414141" stroke-width="2" rx="4"/><path fill="#414141" d="M17 31h8v7h-8z"/><path fill="#414141" d="M10 37h22a2 2 0 012 2H8a2 2 0 012-2z"/></g></svg>