<svg xmlns="http://www.w3.org/2000/svg" xmlns:xlink="http://www.w3.org/1999/xlink" width="48" height="48"><defs><path id="a" d="M0 0h18v17.997H0z"/></defs><g fill="none" fill-rule="evenodd"><path d="M0 0h48v48H0z"/><rect width="41" height="32" x="5" y="10" fill="#ADD039" rx="2"/><g transform="translate(12 10)"><mask id="b" fill="#fff"><use xlink:href="#a"/></mask><path fill="#414141" d="M1.006 8.467L1 3.265l6.4-.869v6.07H1.006zm7.46-6.226L16.999 1v7.467H8.467V2.24zM17 9.533L16.998 17l-8.531-1.2V9.533H17zm-9.6 6.13l-6.395-.876V9.533H7.4v6.13z" mask="url(#b)"/></g><rect width="38" height="26" x="2" y="6" stroke="#414141" stroke-width="2" rx="4"/><path fill="#414141" d="M17 31h8v7h-8z"/><path fill="#414141" d="M10 37h22a2 2 0 012 2H8a2 2 0 012-2z"/></g></svg>