<svg xmlns="http://www.w3.org/2000/svg" width="48" height="48"><g fill="none" fill-rule="evenodd"><path d="M0 0h48v48H0z"/><path fill="#C2AFFF" fill-rule="nonzero" d="M14 14h30v30H14z"/><g fill="#414141"><path d="M20 19h2v2h-2zm-1 8h8v2h-8z"/><path d="M22 17h2v12h-2z"/></g><path fill="#414141" fill-rule="nonzero" d="M8 16h2v-2H8V8h6v2h2V8h22v30H8V16zm2-6v26h26V10H10z"/><path fill="#FFF" fill-rule="nonzero" stroke="#414141" stroke-width="2" d="M7 35h4v4H7zM35 7h4v4h-4z"/><path fill="#C2AFFF" fill-rule="nonzero" stroke="#414141" stroke-width="2" d="M35 35h4v4h-4z"/><g fill="#414141"><path d="M8 4h2v10H8z"/><path d="M14 8v2H4V8z"/></g></g></svg>