<svg xmlns="http://www.w3.org/2000/svg" width="48" height="48"><g fill="none" fill-rule="evenodd"><path d="M0 0h48v48H0z"/><path fill="#ADD039" fill-rule="nonzero" d="M14 14h30v30H14z"/><g fill="#414141" transform="translate(14 16)"><circle cx="16" cy="2" r="2"/><path d="M10.06 7.904l1.415-1.414 6.364 6.364-1.414 1.414z"/><path d="M5.11 12.854l6.365-6.364 1.414 1.414-6.364 6.364zm-4.949-.708l2.121-2.12 1.415 1.413-2.122 2.122z"/><path d="M2.282 10.025l1.415-1.414 4.242 4.243-1.414 1.414z"/></g><path fill="#414141" fill-rule="nonzero" d="M8 16h2v-2H8V8h6v2h2V8h22v30H8V16zm2-6v26h26V10H10z"/><path fill="#FFF" fill-rule="nonzero" stroke="#414141" stroke-width="2" d="M7 35h4v4H7zM35 7h4v4h-4z"/><path fill="#ADD039" fill-rule="nonzero" stroke="#414141" stroke-width="2" d="M35 35h4v4h-4z"/><g fill="#414141"><path d="M8 4h2v10H8z"/><path d="M14 8v2H4V8z"/></g></g></svg>