<svg xmlns="http://www.w3.org/2000/svg" width="48" height="48"><g fill="none"><path d="M0-1h48v48H0z"/><g transform="translate(2 2)"><circle cx="28" cy="24.657" r="14" fill="#C2AFFF"/><path d="M32.411 2.242A5.272 5.272 0 0028.633.657a5.285 5.285 0 00-3.777 1.585.965.965 0 000 1.354.937.937 0 001.338 0 3.402 3.402 0 012.44-1.02c.92 0 1.786.367 2.44 1.02a3.526 3.526 0 010 4.94c-.024.024-.048.047-.064.071-.023.024-.047.04-.07.064l-1.433 1.45-7.965-8.054a.937.937 0 00-1.338 0L8.005 14.415a.965.965 0 000 1.354.942.942 0 001.338 0L20.873 4.09l1.078 1.092-18.51 18.745a.951.951 0 00-.276.677c0 .255.102.494.275.677l.598.606-2.636 2.66a.951.951 0 00-.276.678.99.99 0 00.276.677l1.173 1.187-2.251 2.278a.965.965 0 000 1.354.942.942 0 001.338 0l2.25-2.278 1.173 1.187a.928.928 0 00.67.279.962.962 0 00.668-.279l2.637-2.669.598.606a.942.942 0 001.338 0l21.281-21.542a.407.407 0 00.063-.071c.024-.024.048-.04.071-.064 2.078-2.12 2.078-5.545 0-7.648zM5.746 31.6l-2.345-2.374 1.968-1.992L6.54 28.42l1.173 1.187-1.968 1.992zm4.573-2.064l-.598-.605-1.842-1.864-2.44-2.47 17.85-18.06 4.88 4.94-17.85 18.06zM36 37H1v2h35z" fill="#414141"/></g></g></svg>