<svg xmlns="http://www.w3.org/2000/svg" width="48" height="48"><g fill="none" fill-rule="evenodd"><path d="M0 0h48v48H0z"/><g transform="translate(4 4)"><path fill="#FFBA00" fill-rule="nonzero" d="M10 10h30v30H10z"/><path fill="#414141" fill-rule="nonzero" d="M6 10H4V4h6v2H6v4zm0 2v20h26V6H12V4h22v30H4V12h2z"/><path fill="#FFF" fill-rule="nonzero" stroke="#414141" stroke-width="2" d="M3 31h4v4H3zM31 3h4v4h-4z"/><path fill="#FFBA00" fill-rule="nonzero" stroke="#414141" stroke-width="2" d="M31 31h4v4h-4z"/><circle cx="26" cy="12" r="2" fill="#414141"/><g fill="#414141"><path d="M20.06 17.904l1.415-1.414 6.364 6.364-1.414 1.414z"/><path d="M15.11 22.854l6.365-6.364 1.414 1.414-6.364 6.364zm-4.949-.708l2.121-2.12 1.415 1.413-2.122 2.122z"/><path d="M12.282 20.025l1.415-1.414 4.242 4.243-1.414 1.414z"/></g><g fill="#414141"><path d="M4 0h2v10H4z"/><path d="M10 4v2H0V4z"/></g></g></g></svg>