<svg xmlns="http://www.w3.org/2000/svg" width="48" height="48"><g fill="none" fill-rule="evenodd"><path d="M0 0h48v48H0z"/><path fill="#A6CDFF" fill-rule="nonzero" d="M14 14h30v30H14z"/><path fill="#414141" fill-rule="nonzero" d="M22 29V18h-4v1h-2v-3h14v3h-2v-1h-4v11h1v2h-4v-2h1z"/><path fill="#414141" fill-rule="nonzero" d="M8 16h2v-2H8V8h6v2h2V8h22v30H8V16zm2-6v26h26V10H10z"/><path fill="#FFF" fill-rule="nonzero" stroke="#414141" stroke-width="2" d="M7 35h4v4H7zM35 7h4v4h-4z"/><path fill="#A6CDFF" fill-rule="nonzero" stroke="#414141" stroke-width="2" d="M35 35h4v4h-4z"/><g fill="#414141"><path d="M8 4h2v10H8z"/><path d="M14 8v2H4V8z"/></g></g></svg>