<svg xmlns="http://www.w3.org/2000/svg" width="48" height="48"><g fill="none"><path d="M0 0h48v48H0z"/><circle cx="26" cy="26" r="10" fill="#ADD039"/><path stroke="#414141" stroke-linecap="round" stroke-linejoin="round" stroke-width="2" d="M16.543 15c1.9 1.71 2.85 4.53 2.85 8.464 0 5.9-2.596 7.95-4.013 7.468-1.09-.37-1.812-2.575-1.09-5.464.84-3.354 4.589-7.247 6.961-7.247 1.854 0 3.294 1.723 2.917 5.497-.118 1.176-.72 3.156-1.806 5.938 1.422-3.165 2.624-4.56 3.605-4.188.98.373.98 1.561 0 3.565 1.3-2.589 2.412-3.883 3.337-3.883 1.388 0 .345 4.5 1.764 3.81.946-.46 1.59-.828 1.932-1.102"/><path d="M40 6h-9v2h9v9h2V6h-2zM8 42h9v-2H8v-9H6v11h2zM6 8v9h2V8h9V6H6v2zm34 34h-9v-2h9v-9h2v11h-2z" fill="#414141"/></g></svg>