<svg xmlns="http://www.w3.org/2000/svg" width="48" height="48"><g fill="none" fill-rule="evenodd"><path d="M0 0h48v48H0z"/><rect width="41" height="32" x="5" y="10" fill="#A6CDFF" rx="2"/><rect width="38" height="26" x="2" y="6" stroke="#414141" stroke-width="2" rx="4"/><path stroke="#414141" stroke-linecap="round" stroke-linejoin="round" stroke-width="2" d="M15.874 13c1.4 1.282 2.1 3.398 2.1 6.348 0 4.425-1.913 5.963-2.957 5.601-.803-.278-1.335-1.931-.803-4.098.619-2.516 3.38-5.435 5.13-5.435 1.365 0 2.426 1.292 2.148 4.122-.086.883-.53 2.367-1.33 4.454 1.047-2.373 1.933-3.42 2.656-3.14.722.279.722 1.17 0 2.673.957-1.942 1.777-2.913 2.459-2.913 1.022 0 .254 3.375 1.3 2.857.696-.344 1.17-.62 1.423-.826"/><path fill="#414141" d="M17 31h8v7h-8z"/><path fill="#414141" d="M10 37h22a2 2 0 012 2H8a2 2 0 012-2z"/></g></svg>