<svg xmlns="http://www.w3.org/2000/svg" width="48" height="48"><g fill="none"><path d="M0 0h48v48H0z"/><g transform="translate(5 4)"><circle cx="22" cy="24" r="16" fill="#FF8A7E"/><path fill="#414141" d="M21.371 20.219l-.497-.503c-.682-.69-1.088-1.713-1.088-2.735 0-1.167.564-2.323 1.51-3.093a7.77 7.77 0 002.87-6.053c0-4.274-3.465-7.842-7.812-7.76-4.303.081-7.525 3.521-7.515 7.76.005 2.389 1.072 4.658 2.994 6.156.852.664 1.381 1.808 1.381 2.99 0 1.022-.406 2.045-1.088 2.735l-.497.503c-1.58.241 11.322.241 9.742 0zm-8.203-7.986a5.492 5.492 0 01-2.144-4.26c-.066-3.062 2.178-5.64 5.403-5.679 3.133-.037 5.549 2.537 5.549 5.541a5.55 5.55 0 01-2.052 4.324c-1.459 1.187-2.329 2.989-2.329 4.822 0 1.14.312 2.253.879 3.201h-3.947a6.27 6.27 0 00.878-3.206c0-1.88-.836-3.653-2.237-4.743z"/><path stroke="#414141" stroke-width="2" d="M10 24h13v-1a3 3 0 00-3-3h-7a3 3 0 00-3 3v1zm-9 5h31v-2a3 3 0 00-3-3H4a3 3 0 00-3 3v2zm3 0v3a1 1 0 001 1h23a1 1 0 001-1v-3H4z"/></g></g></svg>