<svg xmlns="http://www.w3.org/2000/svg" width="48" height="48"><g fill="none" fill-rule="evenodd"><path d="M0 0h48v48H0z"/><path fill="#A6CDFF" d="M15.262 31.725l-.712-.438c-.488-.3-.855-.932-.872-1.504l-.073-2.44a2.612 2.612 0 00-.241-.901l-1.16-2.153c-.272-.503-.272-1.233 0-1.736l1.16-2.151c.116-.217.233-.656.241-.904l.074-2.44c.018-.572.386-1.204.874-1.505l2.084-1.281a2.6 2.6 0 00.663-.66l1.286-2.078c.302-.487.938-.853 1.512-.87l2.448-.072c.246-.007.688-.125.906-.242l2.158-1.155c.487-.26 1.259-.26 1.745 0l2.16 1.156c.217.116.658.234.905.241l2.449.073c.572.016 1.209.381 1.51.87l1.288 2.078c.13.209.45.53.661.66l2.085 1.28c.49.301.856.934.873 1.505l.075 2.442c.008.246.125.685.24.902l1.16 2.15c.272.504.272 1.234 0 1.737l-1.16 2.153a2.6 2.6 0 00-.24.902l-.075 2.44c-.018.571-.385 1.205-.873 1.504l-.075.045 3.49 6.006-5.75.505-3.315 4.694-3.451-5.939-1.957 1.048c-.244.13-.553.201-.872.201-.32 0-.629-.07-.872-.201l-1.3-.695-3.246 5.586-3.315-4.694-5.75-.505 3.262-5.614z"/><path fill="#FFF" stroke="#414141" stroke-width="2" d="M13.67 25.304l8.66 5-6 10.392-3.167-4.514-5.493-.486z"/><path fill="#FFF" stroke="#414141" stroke-width="2" d="M30.33 25.304l-8.66 5 6 10.392 3.167-4.514 5.493-.486z"/><g transform="translate(8 8)"><path fill="#FFF" stroke="#414141" stroke-width="2" d="M27.803 13.149l-1.121-2.086a2.553 2.553 0 01-.233-.875l-.073-2.369c-.016-.554-.37-1.169-.843-1.46l-2.015-1.243a2.504 2.504 0 01-.64-.64L21.634 2.46c-.292-.474-.907-.829-1.461-.845l-2.367-.07a2.533 2.533 0 01-.875-.234L14.843.19c-.47-.253-1.216-.253-1.686 0L11.07 1.31a2.53 2.53 0 01-.876.235l-2.365.07c-.555.016-1.17.372-1.462.844L5.123 4.475a2.51 2.51 0 01-.64.64L2.468 6.358c-.472.292-.827.905-.845 1.461l-.071 2.367a2.558 2.558 0 01-.234.877L.196 13.15c-.262.487-.262 1.195.001 1.684l1.121 2.088c.113.21.225.636.234.875l.07 2.368c.017.554.372 1.168.843 1.459l2.017 1.244c.203.126.515.438.641.64l1.243 2.016c.291.472.906.827 1.461.844l2.366.072c.24.008.667.122.877.234l2.087 1.12c.235.127.534.196.843.196.309 0 .607-.069.843-.195l2.087-1.121a2.54 2.54 0 01.876-.234l2.367-.072c.554-.017 1.169-.372 1.46-.844l1.243-2.014c.126-.204.438-.516.64-.64l2.016-1.246c.472-.29.827-.904.844-1.46l.073-2.366a2.53 2.53 0 01.233-.876l1.121-2.088c.263-.489.263-1.197 0-1.686z"/><circle cx="16" cy="16" r="9" fill="#A6CDFF"/><circle cx="14" cy="14" r="9" stroke="#414141" stroke-width="2"/></g></g></svg>