<svg xmlns="http://www.w3.org/2000/svg" width="48" height="48"><g fill="none"><path d="M0 0h48v48H0z"/><path d="M0 0h48v48H0z"/><path fill="#FFBA00" d="M20.5 13.737H38V39H3V9h14.318l3.182 4.737z"/><path fill="#414141" d="M12.544 19L8.785 34.84c-.21.802-.45 1.522-.73 2.16H37.95c.306-.036.594-.207.93-.605.454-.54.788-1.288 1-2.354L43.467 19H12.544zm-1.581-2H46l-4.175 17.505c-.257 1.304-.73 2.364-1.416 3.18-.687.814-1.478 1.253-2.372 1.315H3c1.002-.21 1.798-.673 2.389-1.389.59-.715 1.078-1.807 1.46-3.276L10.964 17z"/><path stroke="#414141" stroke-width="2" d="M26 28.476v2.439-2.44zm0 2.439V33v-2.085zm0-2.44v-.353l.667-.236a2.001 2.001 0 10-1.334 0l.667.236v.354z"/></g></svg>