<svg xmlns="http://www.w3.org/2000/svg" width="48" height="48"><g fill="none"><path d="M0 0h48v48H0z"/><path fill="#C2AFFF" d="M9 9h34v34H9z"/><path d="M32 32h-3v-3h3zm3 0h-3v-3h3zm0 3h-3v-3h3zm-3-6h-3v-3h3zm0-3h-3v-3h3zm3 0h-3v-3h3zm-6 3h-3v-3h3zm-3-3h-3v-3h3zm0 6h-3v-3h3zm3 3h-3v-3h3z" fill="#414141"/><path stroke="#414141" stroke-width="2" d="M24 6v10h10V6H24z"/><path fill="#414141" d="M27 9h4v4h-4z"/><path stroke="#414141" stroke-width="2" d="M6 6v10h10V6H6z"/><path fill="#414141" d="M9 9h4v4H9z"/><path stroke="#414141" stroke-width="2" d="M6 24v10h10V24H6z"/><path fill="#414141" d="M9 27h4v4H9z"/></g></svg>