<svg xmlns="http://www.w3.org/2000/svg" width="48" height="48"><g fill="none" fill-rule="evenodd"><path d="M0 0h48v48H0z"/><path fill="#414141" fill-rule="nonzero" d="M38.645 12.908C35.059 7.538 28.942 4 22 4 10.954 4 2 12.954 2 24s8.954 20 20 20 20-8.954 20-20c0-.542-.022-1.08-.064-1.611l-1.951.868c.01.247.015.494.015.743 0 9.941-8.059 18-18 18S4 33.941 4 24 12.059 6 22 6c6.126 0 11.536 3.06 14.788 7.734l1.857-.826z"/><path fill="#414141" fill-rule="nonzero" d="M40.84 24.178l-4.528 3.937L35 26.605l4.528-3.936 1.51-1.312 5.248 6.038-1.51 1.312-3.936-4.529z"/><path fill="#C2AFFF" d="M13.684 33.256L22 24V11.01c6.672.262 12 5.754 12 12.49C34 30.404 28.404 36 21.5 36a12.447 12.447 0 01-7.816-2.744z"/><g fill-rule="nonzero" transform="translate(13 11)"><rect width="2" height="14" x="8" fill="#414141" rx="1"/><path fill="#414141" d="M.707 22.192a1 1 0 010-1.414l7.071-7.07a1 1 0 011.414 1.413l-7.07 7.071a1 1 0 01-1.415 0z"/><circle cx="9" cy="13" r="3" fill="#FFF" stroke="#414141" stroke-width="2"/></g></g></svg>