<svg xmlns="http://www.w3.org/2000/svg" width="48" height="48"><g fill="none" fill-rule="evenodd"><path d="M1 1h46v46H1z"/><g transform="translate(3 4)"><circle cx="27" cy="25" r="15" fill="#ADD039" fill-rule="nonzero"/><path stroke="#414141" stroke-width="2" d="M29.348 8.165l-5.196-3 1-1.732a3 3 0 015.196 3l-1 1.732z"/><path fill="#414141" fill-rule="nonzero" d="M17.08 33.414a5 5 0 11-8.66-5l1.732 1a3 3 0 105.196 3l1.732 1z"/><path stroke="#414141" stroke-width="2" d="M11.224 11.557c3.313-5.74 10.265-7.93 15.526-4.892 5.261 3.038 6.84 10.153 3.526 15.892l-5.5 9.527-19.052-11 5.5-9.527z"/><rect width="28" height="5" y="26.249" stroke="#414141" stroke-width="2" rx="2.5" transform="rotate(30 14 28.749)"/></g></g></svg>