<svg xmlns="http://www.w3.org/2000/svg" width="48" height="48"><g fill="none"><path d="M0 0h48v48H0z"/><g transform="translate(6 4)"><path fill="#414141" d="M9 9a1 1 0 110-2h15c5.498 0 9 2.001 9 7 0 4.999-3.502 7-9 7H13a1 1 0 010-2h11c4.443 0 7-1.162 7-5s-2.557-5-7-5H9z"/><path fill="#414141" d="M24 31a1 1 0 010 2H12c-5.498 0-9-2.001-9-7 0-4.999 3.502-7 9-7h11a1 1 0 010 2H12c-4.443 0-7 1.162-7 5s2.557 5 7 5h12z"/><path fill="#A6CDFF" d="M0 0h16v16H0z"/><circle cx="28" cy="32" r="7" fill="#FFF" stroke="#414141" stroke-width="2"/></g></g></svg>