<svg xmlns="http://www.w3.org/2000/svg" width="48" height="48"><g fill="none" fill-rule="evenodd"><path d="M0 0h48v48H0z"/><circle cx="22" cy="24" r="12" fill="#ADD039"/><g fill="#414141" fill-rule="nonzero"><path d="M38.645 12.908C35.059 7.538 28.942 4 22 4 10.954 4 2 12.954 2 24s8.954 20 20 20 20-8.954 20-20c0-.542-.022-1.08-.064-1.611l-1.951.868c.01.247.015.494.015.743 0 9.941-8.059 18-18 18S4 33.941 4 24 12.059 6 22 6c6.126 0 11.536 3.06 14.788 7.734l1.857-.826z"/><path d="M40.84 24.178l-4.528 3.937L35 26.605l4.528-3.936 1.51-1.312 5.248 6.038-1.51 1.312-3.936-4.529z"/></g></g></svg>