<svg xmlns="http://www.w3.org/2000/svg" width="48" height="48"><g fill="none" fill-rule="evenodd"><g fill-rule="nonzero"><path d="M0 0h48v48H0z"/><path fill="#A6CDFF" d="M16.2 11H43c-.705 3.667-1.454 6.336-2.248 8.006-2.033 4.283-5.399 8.077-6.745 12.365C32.79 35.24 32.439 39.117 32.95 43H6.15c-.403-3.87.004-7.746 1.224-11.63 1.414-4.5 4.86-7.856 6.989-12.364.72-1.523 1.332-4.192 1.838-8.006z"/></g><g transform="translate(6 4)"><circle cx="11" cy="11" r="10" fill="#FFF"/><path fill="#414141" fill-rule="nonzero" d="M11 22c6.075 0 11-4.925 11-11S17.075 0 11 0 0 4.925 0 11s4.925 11 11 11zm0-2a9 9 0 110-18 9 9 0 010 18z"/><circle cx="8" cy="7" r="2" fill="#414141"/><path fill="#414141" d="M6.95 15.364L5.536 13.95l-2.122 2.12L2 14.657l2.121-2.121 1.415-1.415 2.828 2.829 3.535-3.536L13.314 9l6.364 6.364-1.415 1.414-4.95-4.95-4.949 4.95-1.414-1.414z"/></g></g></svg>