<svg xmlns="http://www.w3.org/2000/svg" width="48" height="48"><g fill="none" fill-rule="evenodd"><path d="M0 0h48v48H0z"/><g transform="translate(4 6)"><rect width="42" height="30" x="1" y="5" fill="#FFBA00" rx="1"/><path stroke="#414141" stroke-linejoin="round" stroke-width="2" d="M-1-1h39v28H-1z"/><path stroke="#414141" stroke-linecap="round" stroke-linejoin="round" stroke-width="2" d="M0 0l18.5 13L37 0"/><g transform="translate(19 11)"><circle cx="11" cy="11" r="10" fill="#FFF"/><path fill="#414141" fill-rule="nonzero" d="M11 22c6.075 0 11-4.925 11-11S17.075 0 11 0 0 4.925 0 11s4.925 11 11 11zm0-2a9 9 0 110-18 9 9 0 010 18z"/><circle cx="8" cy="7" r="2" fill="#414141"/><path fill="#414141" d="M6.95 15.364L5.536 13.95l-2.122 2.12L2 14.657l2.121-2.121 1.415-1.415 2.828 2.829 3.535-3.536L13.314 9l6.364 6.364-1.415 1.414-4.95-4.95-4.949 4.95-1.414-1.414z"/></g></g></g></svg>