<svg xmlns="http://www.w3.org/2000/svg" width="48" height="48"><g fill="none" fill-rule="evenodd"><path d="M0 0h48v48H0z"/><g transform="translate(4 6)"><circle cx="21.5" cy="21.5" r="16.5" fill="#ADD039"/><g fill="#414141" fill-rule="nonzero"><path d="M17 25a8 8 0 100-16 8 8 0 000 16zm0-2a6 6 0 110-12 6 6 0 010 12z"/><path d="M34 17h-2c0-8.284-6.716-15-15-15C8.716 2 2 8.716 2 17c0 8.284 6.716 15 15 15 3.79 0 6.76-.975 9.892-3.724l.003-.002 1.443 1.393C24.862 32.78 21.356 34 17 34 7.611 34 0 26.389 0 17S7.611 0 17 0s17 7.611 17 17z"/><path d="M32 13.248A5.478 5.478 0 0134 17c.015.164 0 .332 0 .5a5.5 5.5 0 11-10.978-.5H25c-.023.162 0 .331 0 .5a3.5 3.5 0 007 0v-4.252z"/></g></g></g></svg>