<svg xmlns="http://www.w3.org/2000/svg" width="48" height="48"><g fill="none"><path d="M0 0h48v48H0z"/><path fill="#414141" d="M18 39.232V28h2v11.232l3.5-3.297 1.5 1.413L19 43l-1.5-1.413-4.5-4.239 1.5-1.413 3.5 3.297z"/><path fill="#FFF" stroke="#414141" stroke-width="2" d="M14.764 17c-.432.932-.94 1.902-1.635 3.154a177.445 177.445 0 01-.688 1.23c-1.294 2.308-1.912 3.493-2.503 4.897-.6 1.429-1.187 3.675-1.746 6.719h21.965c.443-3.482.974-5.968 1.612-7.493.66-1.578 1.372-2.9 2.68-5.108a924.752 924.752 0 01.765-1.29c.476-.81.859-1.486 1.185-2.109H14.764z"/><path fill="#ADD039" d="M13 18c.741-1.157 1.389-2.33 1.814-3.551 1.093-3.144 1.41-6.294.95-9.449h24.1c.364 3.144-.003 6.294-1.1 9.449-.441 1.27-1.103 2.427-1.859 3.551H13z"/><path fill="#414141" d="M40 19H11a1 1 0 010-2h29a1 1 0 010 2zm-11.189 5h-13.17l1.189-2H30l-1.189 2zm-1.523 4H14l.66-2h13.288l-.66 2z"/></g></svg>