<svg xmlns="http://www.w3.org/2000/svg" width="48" height="48"><g fill="none"><path d="M0 0h48v48H0z"/><path fill="#FFBA00" d="M12.925 6H39c-.686 3.667-1.415 6.336-2.187 8.006-1.979 4.283-5.253 8.077-6.563 12.365-1.183 3.87-1.525 7.746-1.028 11.629H3.147c-.393-3.87.003-7.746 1.19-11.63 1.375-4.5 4.728-7.856 6.8-12.364.7-1.523 1.296-4.192 1.788-8.006z"/><path fill="#FFF" stroke="#414141" stroke-width="1.8" d="M19.713 10.9c-.483 3.484-1.062 5.967-1.759 7.482-.715 1.557-1.485 2.86-2.903 5.039a899.953 899.953 0 01-.829 1.273c-1.612 2.496-2.463 4.103-3.025 5.94-1.069 3.499-1.477 6.985-1.225 10.466h24.246c-.337-3.672.054-7.338 1.171-10.992.597-1.954 1.503-3.73 3.143-6.422a171.376 171.376 0 01.746-1.215c1.405-2.28 2.076-3.453 2.718-4.842.66-1.427 1.301-3.676 1.913-6.729H19.713z"/><path fill="#414141" d="M15.73 30h15.544l-.61 2H15l.73-2zm2.63-5h15.154l-1 2H17l1.36-2zm3.102-5h14.783l-1 2H20.462l1-2z"/></g></svg>