<svg xmlns="http://www.w3.org/2000/svg" width="48" height="48"><g fill="none" fill-rule="evenodd"><path d="M0 0h48v48H0z"/><g fill-rule="nonzero"><path fill="#00A1E0" d="M19.895 12.28c1.389-1.434 3.324-2.34 5.457-2.34 2.845 0 5.31 1.582 6.632 3.923a9.17 9.17 0 013.754-.792c5.127 0 9.262 4.17 9.262 9.314 0 5.142-4.151 9.313-9.262 9.313a9.28 9.28 0 01-1.819-.182A6.786 6.786 0 0128 34.978a6.844 6.844 0 01-2.96-.676 7.741 7.741 0 01-14.373-.346 7.31 7.31 0 01-1.472.148c-3.969 0-7.177-3.23-7.177-7.236a7.239 7.239 0 013.588-6.264 8.14 8.14 0 01-.694-3.313C4.894 12.725 8.648 9 13.246 9a8.344 8.344 0 016.649 3.28"/><path fill="#FFF" d="M8.235 24.56l.182-.478c.033-.082.083-.049.116-.033.05.033.082.05.149.1.512.329.992.329 1.14.329.381 0 .63-.198.63-.478v-.016c0-.297-.365-.413-.795-.544l-.099-.033c-.579-.165-1.207-.412-1.207-1.138v-.016c0-.693.562-1.187 1.372-1.187h.083c.48 0 .926.132 1.257.346.033.017.066.05.05.099-.017.05-.166.429-.182.478-.033.082-.116.033-.116.033a2.52 2.52 0 00-1.125-.28c-.347 0-.562.181-.562.428v.017c0 .28.38.412.81.544l.083.016c.579.182 1.19.429 1.19 1.138v.016c0 .758-.545 1.22-1.421 1.22-.43 0-.844-.066-1.29-.297-.083-.05-.166-.082-.248-.148-.017-.033-.05-.05-.017-.116zm12.9 0l.182-.478c.033-.082.1-.049.116-.033.05.033.082.05.149.1.512.329.992.329 1.14.329.381 0 .63-.198.63-.478v-.016c0-.297-.365-.413-.795-.544l-.099-.033c-.579-.165-1.207-.412-1.207-1.138v-.016c0-.693.562-1.187 1.372-1.187h.083c.48 0 .926.132 1.257.346.033.017.066.05.05.099-.017.05-.166.429-.182.478-.033.082-.116.033-.116.033a2.52 2.52 0 00-1.125-.28c-.347 0-.562.181-.562.428v.017c0 .28.38.412.81.544l.083.016c.579.182 1.19.429 1.19 1.138v.016c0 .758-.545 1.22-1.421 1.22-.43 0-.844-.066-1.29-.297-.083-.05-.166-.082-.248-.148 0-.033-.034-.05-.017-.116zm9.56-2.258c.065.247.115.511.115.791s-.033.544-.116.792a1.699 1.699 0 01-.33.642c-.15.182-.348.33-.563.429a2.005 2.005 0 01-.794.148c-.297 0-.562-.05-.794-.148a1.462 1.462 0 01-.562-.429 1.699 1.699 0 01-.33-.642 3.047 3.047 0 01-.116-.792c0-.28.033-.544.115-.79.067-.248.182-.462.331-.644.149-.181.347-.33.562-.428.232-.1.497-.165.794-.165.298 0 .563.05.794.165.232.099.414.247.562.428.15.182.265.396.331.643zm-.745.775c0-.429-.083-.758-.232-.99-.148-.23-.396-.345-.71-.345-.331 0-.563.115-.712.346-.149.23-.231.56-.231.989 0 .428.082.758.231 1.005.149.231.38.347.711.347.331 0 .563-.116.711-.347.166-.23.232-.577.232-1.005zm6.797 1.236l.182.495c.017.066-.033.082-.033.082a2.869 2.869 0 01-1.042.181c-.645 0-1.124-.18-1.455-.544-.33-.362-.496-.857-.496-1.467 0-.28.033-.544.115-.79a1.72 1.72 0 01.96-1.071 2.11 2.11 0 01.827-.166c.215 0 .397.016.545.033.166.033.397.082.497.132.016 0 .066.033.05.082-.067.198-.117.33-.183.495-.033.082-.082.05-.082.05a2.332 2.332 0 00-.778-.116c-.364 0-.645.115-.81.362-.182.231-.281.544-.281.973 0 .461.115.791.314 1.005.198.215.48.314.843.314a2.8 2.8 0 00.397-.033c.116-.017.232-.05.348-.1-.017.034.05.017.082.083zm3.755-2.16c.165.561.082 1.04.066 1.072 0 .066-.066.066-.066.066h-2.498c.017.38.1.643.298.824.182.182.463.297.86.297.595 0 .843-.115 1.025-.181 0 0 .066-.017.1.05l.165.46c.033.083 0 .1-.017.116-.148.083-.529.247-1.257.247a2.53 2.53 0 01-.91-.148 1.668 1.668 0 01-.628-.412 1.834 1.834 0 01-.363-.626 2.477 2.477 0 01-.116-.792c0-.28.033-.544.116-.79.066-.248.181-.462.33-.644.15-.181.348-.33.58-.428.23-.116.512-.165.826-.165.265 0 .513.05.711.148.15.066.314.182.48.363.083.066.231.313.298.544zm-2.481.528h1.77a1.314 1.314 0 00-.166-.593c-.149-.23-.364-.363-.695-.363-.33 0-.562.132-.71.363-.1.148-.15.346-.2.593zm-17.481-.527c.165.56.082 1.038.082 1.071 0 .066-.066.066-.066.066H18.06c.016.38.1.643.298.824.181.182.463.297.86.297.595 0 .843-.115 1.025-.181 0 0 .066-.017.1.05l.165.46c.033.083 0 .1-.017.116-.149.083-.53.247-1.257.247a2.53 2.53 0 01-.91-.148 1.668 1.668 0 01-.628-.412 1.834 1.834 0 01-.364-.626 2.477 2.477 0 01-.116-.792c0-.28.033-.544.116-.79.066-.248.182-.462.33-.644.15-.181.348-.33.58-.428.231-.116.512-.165.827-.165.264 0 .512.05.71.148.15.066.315.182.48.363.067.066.232.313.282.544zm-2.481.527h1.786a1.314 1.314 0 00-.165-.593c-.15-.23-.364-.363-.695-.363-.33 0-.562.132-.711.363-.116.148-.166.346-.215.593zm-4.383-.132s.199.017.414.05V22.5c0-.33-.067-.495-.199-.593-.132-.1-.347-.165-.612-.165 0 0-.612 0-1.091.247-.017.016-.033.016-.033.016s-.067.017-.083-.032l-.182-.478c-.033-.066.017-.1.017-.1.231-.18.76-.28.76-.28.182-.033.48-.066.662-.066.496 0 .876.116 1.141.347.265.23.397.593.397 1.104v2.275s0 .066-.05.082c0 0-.099.033-.182.05-.082.016-.38.082-.628.115-.248.05-.496.066-.76.066-.249 0-.464-.017-.662-.066a1.6 1.6 0 01-.513-.214 1.117 1.117 0 01-.33-.396c-.084-.148-.117-.346-.117-.56 0-.215.05-.412.133-.577.082-.165.215-.297.364-.412.148-.116.33-.182.512-.248a2.49 2.49 0 01.612-.082c.199.016.33.016.43.016zm-.992 1.748s.231.181.728.148c.363-.016.678-.082.678-.082v-1.138s-.315-.05-.678-.05c-.513 0-.728.182-.728.182-.149.099-.215.264-.215.478 0 .132.033.247.083.33.016.033.033.066.132.132zM33.77 21.28c-.016.066-.148.412-.182.528-.016.05-.05.066-.099.066 0 0-.149-.033-.28-.033-.084 0-.216.016-.332.05a.868.868 0 00-.314.18c-.1.083-.165.215-.215.363a2.28 2.28 0 00-.083.66v1.846a.078.078 0 01-.082.082h-.662c-.05 0-.083-.033-.083-.082v-3.71c0-.049.034-.082.067-.082h.645c.05 0 .066.033.066.083v.296c.099-.131.264-.247.413-.313.15-.066.331-.115.645-.099.166.017.38.05.414.066.066.017.099.033.082.1zm-6.135-1.714c.016 0 .066.033.05.082l-.2.528c-.016.033-.032.066-.115.033-.017 0-.05-.017-.132-.033-.05-.017-.133-.017-.199-.017-.099 0-.182.017-.264.033a.426.426 0 00-.215.132.824.824 0 00-.182.264c-.1.264-.133.544-.133.56h.794c.066 0 .083.033.083.083l-.1.51c-.016.083-.082.067-.082.067h-.827l-.53 3.181c-.065.33-.131.61-.214.84a1.594 1.594 0 01-.33.561.97.97 0 01-.464.313 1.7 1.7 0 01-.612.1c-.116 0-.231 0-.364-.034a.95.95 0 01-.231-.066c-.033-.016-.05-.05-.033-.099.016-.05.165-.445.182-.51.033-.067.082-.034.082-.034.05.017.083.033.133.05a.808.808 0 00.198.016.804.804 0 00.298-.05.497.497 0 00.231-.18c.066-.083.116-.198.182-.347.05-.148.1-.362.149-.61l.562-3.115h-.545c-.067 0-.083-.033-.083-.082l.1-.511c.016-.083.082-.066.082-.066h.562l.033-.165c.083-.495.248-.874.496-1.12.248-.248.612-.38 1.059-.38.132 0 .248.016.347.033a.398.398 0 01.232.033zm-11.147 5.357c0 .05-.033.082-.066.082h-.662c-.05 0-.066-.032-.066-.082v-5.291c0-.033.033-.083.066-.083h.662c.05 0 .066.033.066.083v5.291z"/></g><g transform="translate(28 28)"><circle cx="9" cy="9" r="8" fill="#FFF" stroke="#414141" stroke-width="2"/><g fill="#414141" transform="translate(5 5)"><rect width="2" height="8" x="3" rx="1"/><rect width="8" height="2" y="3" rx="1"/></g></g></g></svg>