<svg xmlns="http://www.w3.org/2000/svg" xmlns:xlink="http://www.w3.org/1999/xlink" width="48" height="48"><defs><path id="a" d="M2.374 0H18.75L30 11.25v26.376A2.374 2.374 0 0127.626 40H2.374A2.374 2.374 0 010 37.626V2.374A2.374 2.374 0 012.374 0z"/><path id="e" d="M18.947 0L30 11.2h-8.678a2.374 2.374 0 01-2.375-2.374V0z"/><linearGradient id="b" x1="24.121%" x2="50%" y1="1.829%" y2="100%"><stop offset="0%" stop-color="#5190F8"/><stop offset="100%" stop-color="#4086F7"/></linearGradient><filter id="d" width="154.3%" height="153.6%" x="-27.1%" y="-26.8%" filterUnits="objectBoundingBox"><feOffset in="SourceAlpha" result="shadowOffsetOuter1"/><feGaussianBlur in="shadowOffsetOuter1" result="shadowBlurOuter1" stdDeviation="1"/><feColorMatrix in="shadowBlurOuter1" values="0 0 0 0 0 0 0 0 0 0.280824099 0 0 0 0 0.747424139 0 0 0 0.552802666 0"/></filter></defs><g fill="none" fill-rule="evenodd"><path d="M0 0h48v48H0z"/><g transform="translate(9 2)"><mask id="c" fill="#fff"><use xlink:href="#a"/></mask><use fill="url(#b)" fill-rule="nonzero" xlink:href="#a"/><path fill="#FFF" fill-rule="nonzero" d="M7.895 17h14.21v1.6H7.895V17zm0 3.2h14.21v1.6H7.895v-1.6zm0 3.2h14.21V25H7.895v-1.6zm0 3.2h10.263v1.6H7.895v-1.6z" mask="url(#c)"/><g fill-rule="nonzero" mask="url(#c)"><use fill="#000" filter="url(#d)" xlink:href="#e"/><use fill="#A5C5FC" xlink:href="#e"/></g></g><g transform="translate(28 28)"><circle cx="9" cy="9" r="8" fill="#FFF" stroke="#414141" stroke-width="2"/><g fill="#414141" transform="translate(5 5)"><rect width="2" height="8" x="3" rx="1"/><rect width="8" height="2" y="3" rx="1"/></g></g></g></svg>