<svg xmlns="http://www.w3.org/2000/svg" width="48" height="48"><g fill="none" fill-rule="evenodd"><path d="M0 0h48v48H0z"/><g fill-rule="nonzero"><path fill="#13B5EA" d="M23.618 41.557c10.835 0 19.618-8.759 19.618-19.561 0-10.805-8.782-19.561-19.618-19.561C12.783 2.435 4 11.19 4 21.995c0 10.803 8.783 19.562 19.618 19.562"/><path fill="#FFF" d="M13.391 21.943l3.348-3.347a.596.596 0 00-.031-.819.603.603 0 00-.823-.02L12.54 21.09l-3.36-3.34a.603.603 0 00-.85.006.596.596 0 00.007.846l3.347 3.336-3.346 3.34a.597.597 0 00.254 1.017.603.603 0 00.588-.165l3.355-3.34 3.342 3.327a.6.6 0 001.034-.41.59.59 0 00-.175-.423L13.39 21.94l.001.003zm19.902 0c0 .6.489 1.087 1.092 1.087a1.09 1.09 0 001.091-1.088c0-.6-.49-1.087-1.092-1.086-.6 0-1.089.487-1.089 1.087h-.002zm-2.066 0a3.157 3.157 0 016.314 0 3.157 3.157 0 01-6.314 0zm-1.243 0c0 2.417 1.975 4.386 4.4 4.386 2.425 0 4.4-1.967 4.4-4.386 0-2.417-1.975-4.386-4.4-4.386-2.43.005-4.399 1.967-4.4 4.386zm-.312-4.31h-.183c-.555 0-1.09.173-1.536.517a.607.607 0 00-.589-.47.595.595 0 00-.594.595l.002 7.387a.599.599 0 00.6.564c.32 0 .582-.249.599-.566v-4.543c0-1.513.14-2.125 1.44-2.287.122-.014.251-.012.253-.012.354-.013.608-.257.608-.587a.601.601 0 00-.603-.598h.003zm-11.519 3.589c0-.018.002-.035.003-.05a3.175 3.175 0 013.105-2.387 3.174 3.174 0 013.067 2.434h-6.176l.001.003zm7.402-.113c-.258-1.22-.928-2.223-1.948-2.866a4.441 4.441 0 00-4.9.13 4.423 4.423 0 00-1.724 4.658 4.431 4.431 0 003.733 3.276 4.163 4.163 0 001.582-.104 4.348 4.348 0 001.315-.56c.426-.273.781-.633 1.127-1.063.005-.009.012-.015.02-.023.239-.296.194-.719-.068-.919-.222-.17-.594-.238-.886.136-.063.09-.133.183-.21.274a3.463 3.463 0 01-.868.697 3.18 3.18 0 01-1.476.372c-1.746-.02-2.679-1.235-3.011-2.101a3.22 3.22 0 01-.134-.505l-.009-.091h6.264c.858-.02 1.319-.623 1.191-1.313l.002.002z"/></g><g transform="translate(28 28)"><circle cx="9" cy="9" r="8" fill="#FFF" stroke="#414141" stroke-width="2"/><g fill="#414141" transform="translate(5 5)"><rect width="2" height="8" x="3" rx="1"/><rect width="8" height="2" y="3" rx="1"/></g></g></g></svg>