<svg xmlns="http://www.w3.org/2000/svg" width="48" height="48"><g fill="none" fill-rule="evenodd"><path d="M0 0h48v48H0z"/><path fill="#094AB1" fill-rule="nonzero" d="M16.265 35.84c-2.663-.664-4.146-2.778-4.151-5.915-.002-1.002.071-1.483.322-2.128.614-1.581 2.24-2.774 4.38-3.213 1.066-.218 1.394-.453 1.394-.996 0-.17.127-.678.282-1.127.703-2.044 2.006-3.747 3.399-4.444 1.457-.729 2.193-.893 3.956-.884 2.503.014 3.752.556 5.5 2.389l.96 1.007.86-.297c4.166-1.44 8.32 1.011 8.654 5.107l.091 1.12.82.294c2.343.839 3.445 2.6 3.245 5.187-.13 1.693-.923 3.044-2.178 3.715l-.59.315-13.112.025c-10.076.02-13.279-.016-13.832-.154zm-9.83-1.809c-1.554-.369-3.201-1.74-3.974-3.308-.438-.89-.461-1.02-.461-2.594 0-1.497.037-1.737.386-2.48.735-1.567 2.144-2.7 3.912-3.144.373-.094.723-.244.779-.333.055-.09.117-.575.136-1.08.123-3.135 2.183-5.897 5.058-6.784 1.554-.48 3.505-.361 5.195.314.536.214.475.26 1.608-1.224.67-.878 2.025-1.97 3.133-2.525 1.196-.6 2.44-.877 3.928-.873 4.158.01 7.741 2.608 9.066 6.572.424 1.267.403 1.622-.097 1.632-.218.005-.842.125-1.387.267l-.992.258-.904-.904c-2.551-2.547-6.714-3.098-10.252-1.356a8.506 8.506 0 00-3.408 2.997c-.612.929-1.392 2.66-1.392 3.09 0 .306-.247.458-1.303.804-3.27 1.07-5.178 3.544-5.177 6.71 0 1.151.297 2.56.71 3.368.155.304.242.594.192.643-.126.126-4.193.084-4.756-.05z"/><g transform="translate(28 28)"><circle cx="9" cy="9" r="8" fill="#FFF" stroke="#414141" stroke-width="2"/><g fill="#414141" transform="translate(5 5)"><rect width="2" height="8" x="3" rx="1"/><rect width="8" height="2" y="3" rx="1"/></g></g></g></svg>