<svg xmlns="http://www.w3.org/2000/svg" width="48" height="48"><g fill="none" fill-rule="evenodd"><path d="M0 0h48v48H0z"/><path d="M12.596 4L2 10.75l10.596 6.75 10.597-6.75zM33.79 4l-10.597 6.75L33.79 17.5l10.596-6.75zM2 24.25L12.596 31l10.597-6.75-10.597-6.75zm31.79-6.75l-10.597 6.75L33.79 31l10.596-6.75zM12.596 33.25L23.193 40l10.596-6.75-10.596-6.75z" fill="#0061FF" fill-rule="nonzero"/><g transform="translate(28 28)"><circle cx="9" cy="9" r="8" fill="#FFF" stroke="#414141" stroke-width="2"/><g fill="#414141" transform="translate(5 5)"><rect width="2" height="8" x="3" rx="1"/><rect width="8" height="2" y="3" rx="1"/></g></g></g></svg>