<svg xmlns="http://www.w3.org/2000/svg" width="48" height="48"><g fill="none"><path d="M0 0h48v48H0z"/><circle cx="29.5" cy="29.5" r="13.5" fill="#FF8A7E"/><path fill="#414141" d="M33.607 7.322l7.07 7.071a3 3 0 01-4.242 4.243l-7.071-7.071a3 3 0 114.243-4.243zm-1.415 1.415a1 1 0 10-1.414 1.414l7.071 7.07a1 1 0 001.414-1.413l-7.07-7.071z"/><path stroke="#414141" stroke-width="2" d="M11.686 20.757l15.557 15.557a8 8 0 000-11.314L23 20.757a8 8 0 00-11.314 0z"/><path fill="#414141" d="M18.757 27.828l1.415 1.415-9.9 9.9a1 1 0 01-1.414-1.415l9.9-9.9zm17.159-12.54l1.226 1.227-8.485 11.313-1.63-1.63 1.413-1.414 6.061-8.082zm-3.204-3.204l-1.227-1.226-11.313 8.485 1.63 1.63 1.414-1.413 8.082-6.061z"/></g></svg>