<svg xmlns="http://www.w3.org/2000/svg" width="48" height="48"><g fill="none" fill-rule="evenodd"><path d="M0 0h48v48H0z"/><g fill="#22A7F0" fill-rule="nonzero"><path d="M23.016 28.264c-2.622.016-4.763-2.106-4.777-4.741a4.753 4.753 0 014.717-4.8c2.623-.019 4.762 2.103 4.78 4.738.018 2.637-2.094 4.787-4.72 4.803m-13.987.09c-2.624.017-4.764-2.105-4.78-4.738-.018-2.637 2.094-4.787 4.72-4.803 2.62-.018 4.761 2.104 4.78 4.738.014 2.637-2.1 4.788-4.72 4.802m13.905-12.816a7.918 7.918 0 00-6.967 4.272c-1.348-2.506-3.988-4.202-7.019-4.18a7.855 7.855 0 00-4.74 1.618l-.044-6.698A1.581 1.581 0 101 10.57l.08 13.197h.005c.096 4.334 3.634 7.8 7.963 7.773 3.03-.02 5.65-1.75 6.968-4.273a7.908 7.908 0 007.02 4.182c4.373-.028 7.894-3.613 7.868-8.006-.03-4.393-3.595-7.933-7.97-7.905"/><path d="M43.5 28.814l-4.446-5.418 4.377-5.476h-.003c.542-.703.377-1.682-.374-2.199-.758-.515-1.819-.376-2.39.307v-.003l-3.781 4.728-3.837-4.678v.004c-.58-.677-1.647-.804-2.392-.278-.75.527-.9 1.506-.348 2.206l4.442 5.416-4.374 5.475c-.543.706-.378 1.683.38 2.199.751.517 1.815.378 2.386-.307l3.776-4.723 3.84 4.676c.58.677 1.644.802 2.396.277.747-.53.897-1.507.347-2.206"/></g><g transform="translate(28 28)"><circle cx="9" cy="9" r="8" fill="#FFF" stroke="#414141" stroke-width="2"/><g fill="#414141" transform="translate(5 5)"><rect width="2" height="8" x="3" rx="1"/><rect width="8" height="2" y="3" rx="1"/></g></g></g></svg>