<svg xmlns="http://www.w3.org/2000/svg" width="48" height="48"><defs><linearGradient id="a" x1="93.827%" x2="19.38%" y1="41.478%" y2="41.478%"><stop offset="0%" stop-color="#4386F4"/><stop offset="100%" stop-color="#4788F4"/></linearGradient><linearGradient id="b" x1="50%" x2="77.024%" y1="50%" y2="61.251%"><stop offset="0%" stop-color="#3D6CC6"/><stop offset="100%" stop-color="#4281ED"/></linearGradient><linearGradient id="c" x1="66.851%" x2="26.418%" y1="1.058%" y2="82.912%"><stop offset="0%" stop-color="#269E64"/><stop offset="100%" stop-color="#159F5C"/></linearGradient><linearGradient id="d" x1="22.338%" x2="74.349%" y1="13.26%" y2="86.74%"><stop offset="0%" stop-color="#FFD150"/><stop offset="100%" stop-color="#FFCE44"/></linearGradient></defs><g fill="none" fill-rule="evenodd"><path d="M0 0h48v48H0z"/><g fill-rule="nonzero"><path fill="url(#a)" d="M40 23.013l-6.422 11.658H6.58L0 23.013z" transform="translate(4 4)"/><path fill="url(#b)" d="M13.323 23.013l6.313 11.658H6.581L0 23.013z" transform="translate(4 4)"/><path fill="url(#c)" d="M13.818.57H26.91L6.581 34.67 0 23.014z" transform="translate(4 4)"/><path fill="url(#d)" d="M13.818.57H26.91L40 23.013H27.098z" transform="translate(4 4)"/></g><g transform="translate(28 28)"><circle cx="9" cy="9" r="8" fill="#FFF" stroke="#414141" stroke-width="2"/><g fill="#414141" transform="translate(5 5)"><rect width="2" height="8" x="3" rx="1"/><rect width="8" height="2" y="3" rx="1"/></g></g></g></svg>