<svg xmlns="http://www.w3.org/2000/svg" xmlns:xlink="http://www.w3.org/1999/xlink" width="48" height="48"><defs><path id="a" d="M.05 0h32v38.994h-32z"/></defs><g fill="none" fill-rule="evenodd"><path d="M0 0h48v48H0z"/><path fill="#C2AFFF" d="M42 11L30 7c-.988-.07-2.011-.07-3 0l-12 4c-1.358.13-2 .982-2 2v10c0 4.918 1.421 9.483 4 13 2.736 4.182 6.39 7.107 11 9-.058-.054.22 0 1 0-.22 0 .058-.054 0 0 4.61-1.893 8.264-4.818 11-9 2.578-3.517 4-8.082 4-13V13c0-1.018-.642-1.87-2-2z"/><g transform="translate(4 3)"><mask id="b" fill="#fff"><use xlink:href="#a"/></mask><path fill="#414141" fill-rule="nonzero" d="M17.571 20.571V10.4h2v12.172H13.4v-2h4.172z" mask="url(#b)" transform="rotate(45 16.485 16.485)"/><path fill="#414141" d="M30.387 3.962L17.527.218a5.452 5.452 0 00-3.054 0L1.613 3.962A2.236 2.236 0 000 6.09v10.512c0 4.866 1.467 9.55 4.243 13.548a24.23 24.23 0 0010.907 8.684 2.282 2.282 0 001.7 0 24.23 24.23 0 0010.907-8.684A23.648 23.648 0 0032 16.603V6.091c0-.978-.663-1.853-1.613-2.13zM30 16.649c0 4.435-1.34 8.705-3.872 12.348a22.12 22.12 0 01-9.958 7.918.455.455 0 01-.34 0 22.12 22.12 0 01-9.958-7.918A21.532 21.532 0 012 16.65V6.3a.44.44 0 01.318-.419l12.679-3.685a3.597 3.597 0 012.006 0l12.68 3.685a.44.44 0 01.317.42v10.348z" mask="url(#b)"/></g></g></svg>