<svg xmlns="http://www.w3.org/2000/svg" width="48" height="48"><g fill="none" fill-rule="evenodd"><path d="M0 0h48v48H0z"/><g transform="translate(5 8)"><circle cx="19" cy="16" r="16" stroke="#414141" stroke-width="2"/><path fill="#ADD039" stroke="#414141" stroke-width="2" d="M0 8h37v16H0z"/><g fill="#414141"><path d="M3 11h2v10H3z"/><path d="M3 11h6v2H3zm0 4h5v2H3zm17-4h2v10h-2z"/><path d="M20 11h6v2h-6zm0 4h5v2h-5zm0 4h6v2h-6zm8-8h2v10h-2z"/><path d="M28 11h6v2h-6zm0 4h5v2h-5zm0 4h6v2h-6zm-17-8h2v10h-2z"/><path d="M11 11h4.2v2H11zm0 4h4.2v2H11z"/><path d="M15.902 16.539L17.946 21h-2.191l-1.835-4.056z"/><path fill-rule="nonzero" d="M15 11a3 3 0 110 6v-2a1 1 0 100-2v-2z"/></g></g></g></svg>