<svg xmlns="http://www.w3.org/2000/svg" width="48" height="48"><g fill="none" fill-rule="evenodd"><path d="M0 0h48v48H0z"/><path fill="#A6CDFF" d="M14 14h30a2 2 0 012 2v28H12V16a2 2 0 012-2z"/><g transform="translate(4 6)"><path stroke="#414141" stroke-width="2" d="M2-1h30a3 3 0 013 3v29H-1V2a3 3 0 013-3z"/><path fill="#414141" d="M0 4h34v2H0z"/><circle cx="3" cy="2" r="1" fill="#414141"/><circle cx="6" cy="2" r="1" fill="#414141"/><circle cx="9" cy="2" r="1" fill="#414141"/></g><g fill="#414141"><path d="M7.464 23l5.657-5.657 1.415 1.414-5.657 5.657z"/><path d="M8.878 21.586l5.657 5.657-1.414 1.414L7.464 23zM34.535 23l-5.657 5.657-1.414-1.415 5.657-5.656z"/><path d="M33.121 24.414l-5.657-5.657 1.415-1.414L34.536 23zm-9.525-10.089l1.841.781-7.033 16.57-1.841-.782z"/></g></g></svg>