<svg xmlns="http://www.w3.org/2000/svg" width="48" height="48"><g fill="none" fill-rule="evenodd"><path d="M0 0h48v48H0z"/><circle cx="26" cy="26" r="19" fill="#ADD039" fill-rule="nonzero"/><g transform="translate(2 3)"><circle cx="18.5" cy="18.5" r="17.5" stroke="#414141" stroke-width="2"/><path fill="#ADD039" d="M25.991 4.11c1.088.136 2.002.296 2.742.478.74.181 1.88.588 3.42 1.22 3.565 4.217 5.364 7.37 5.397 9.456.032 2.087-1.831 2.61-5.59 1.567L25.99 4.109z"/><path stroke="#414141" stroke-width="2" d="M9 10h18v16H9z"/><path fill="#414141" d="M12 13h5v2h-5zm0 4h5v2h-5zm0 4h5v2h-5zm7-8h5v2h-5zm0 4h5v2h-5zm0 4h5v2h-5z"/><path fill="#414141" fill-rule="nonzero" d="M36.04 17.835l-4.528 3.937-1.312-1.51 4.528-3.936 1.51-1.312 5.248 6.037-1.51 1.313-3.936-4.529z"/></g></g></svg>