<svg xmlns="http://www.w3.org/2000/svg" width="48" height="48"><g fill="none" fill-rule="evenodd"><path d="M0 0h48v48H0z"/><circle cx="26" cy="26" r="19" fill="#C2AFFF" fill-rule="nonzero"/><g transform="translate(2 3)"><circle cx="18.5" cy="18.5" r="17.5" stroke="#414141" stroke-width="2"/><path fill="#C2AFFF" d="M25.991 4.11c1.088.136 2.002.296 2.742.478.74.181 1.88.588 3.42 1.22 3.565 4.217 5.364 7.37 5.397 9.456.032 2.087-1.831 2.61-5.59 1.567L25.99 4.109z"/><g fill="#414141" transform="translate(8 10)"><circle cx="16" cy="2" r="2"/><path d="M10.06 7.904l1.415-1.414 6.364 6.364-1.414 1.414z"/><path d="M5.11 12.854l6.365-6.364 1.414 1.414-6.364 6.364zm-4.949-.708l2.121-2.12 1.415 1.413-2.122 2.122z"/><path d="M2.282 10.025l1.415-1.414 4.242 4.243-1.414 1.414z"/></g><path fill="#414141" fill-rule="nonzero" d="M36.04 17.835l-4.528 3.937-1.312-1.51 4.528-3.936 1.51-1.312 5.248 6.037-1.51 1.313-3.936-4.529z"/></g></g></svg>