<svg xmlns="http://www.w3.org/2000/svg" width="48" height="48"><g fill="none"><path d="M0 0h48v48H0z"/><circle cx="22.5" cy="26.5" r="13.5" fill="#A6CDFF"/><path stroke="#414141" stroke-width="2" d="M24.95 12.657h8.915c3.94 0 6.135 2.686 6.135 6s-2.195 6-6.135 6H24.95"/><path fill="#414141" d="M25.828 12.657l4.243 4.242-1.414 1.415-4.243-4.243L23 12.657 28.657 7l1.414 1.414-4.243 4.243z"/><path stroke="#414141" stroke-width="2" d="M21.05 20.314h-8.915C8.195 20.314 6 23 6 26.314c0 3.313 2.195 6 6.135 6h8.915"/><path fill="#414141" d="M21.586 21.728l-4.243 4.243-1.414-1.415 4.243-4.242-4.243-4.243 1.414-1.414L23 20.314l-1.414 1.414z"/></g></svg>