<svg xmlns="http://www.w3.org/2000/svg" width="48" height="48"><g fill="none" fill-rule="evenodd"><path d="M0 0h48v48H0z"/><path fill="#ADD039" d="M11 11h34v34H11z"/><path fill="#FFF" stroke="#414141" stroke-width="2" d="M3 3h36v36H3z"/><g transform="translate(10 7)"><path fill="#414141" fill-rule="nonzero" d="M16.704.94a.54.54 0 000-.783.636.636 0 00-.837 0l-1.744 1.63A7.53 7.53 0 0011 1.104a7.382 7.382 0 00-3.135.694L6.109.157a.62.62 0 00-.825 0 .52.52 0 000 .782l1.544 1.443c-1.756 1.212-2.9 3.129-2.9 5.332h14.143c0-2.203-1.178-4.13-2.91-5.332L16.703.94zm2.153 9.166v7.56c0 .894.704 1.62 1.572 1.62.867 0 1.571-.726 1.571-1.62v-7.56c0-.895-.704-1.62-1.571-1.62-.868 0-1.572.725-1.572 1.62zM0 10.106v7.56c0 .894.704 1.62 1.571 1.62.868 0 1.572-.726 1.572-1.62v-7.56c0-.895-.704-1.62-1.572-1.62C.704 8.486 0 9.21 0 10.106zM3.929 20.46c0 .64.527 1.157 1.178 1.157h1.179v3.647c0 .959.603 1.736 1.579 1.736s1.594-.777 1.594-1.736v-3.647h3.12v3.647c0 .959.568 1.736 1.544 1.736.977 0 1.591-.777 1.591-1.736v-3.647h1.179c.65 0 1.178-.518 1.178-1.157V8.486H3.93V20.46z"/><circle cx="14" cy="5" r="1" fill="#FFF"/><circle cx="8" cy="5" r="1" fill="#FFF"/></g></g></svg>