<svg xmlns="http://www.w3.org/2000/svg" width="48" height="48"><g fill="none" fill-rule="evenodd"><path d="M0 0h48v48H0z"/><path fill="#A6CDFF" d="M11 11h34v34H11z"/><path fill="#FFF" stroke="#414141" stroke-width="2" d="M3 3h36v36H3z"/><path fill="#414141" fill-rule="nonzero" d="M9 28H7V17h2v11zM7 13.995c0-.377.095-.595.286-.755.19-.16.428-.24.714-.24.272 0 .507.081.704.244.197.163.296.414.296.751 0 .338-.099.59-.296.756A1.059 1.059 0 018 15c-.286 0-.524-.083-.714-.249-.19-.166-.286-.378-.286-.756zm17 6.5c0 2.332-.572 4.166-1.716 5.502C21.141 27.332 19.551 28 17.514 28c-2.08 0-3.687-.656-4.818-1.968C11.566 24.719 11 22.867 11 20.475c0-2.372.567-4.21 1.701-5.517C13.835 13.653 15.446 13 17.534 13c2.03 0 3.615.664 4.755 1.993C23.43 16.323 24 18.156 24 20.495zm-11-.013c0 1.809.385 3.18 1.156 4.116.77.935 1.89 1.402 3.358 1.402 1.48 0 2.598-.466 3.353-1.398.755-.932 1.133-2.305 1.133-4.12 0-1.797-.376-3.16-1.128-4.089-.753-.929-1.866-1.393-3.34-1.393-1.48 0-2.606.467-3.376 1.402-.77.935-1.156 2.295-1.156 4.08zm22 3.436c0 1.284-.457 2.286-1.37 3.004-.913.719-2.152 1.078-3.717 1.078-1.696 0-3-.223-3.913-.669v-1.78c.587.253 1.177.369 1.868.515.692.147 1.367.185 2.045.185.475 0 .935-.023 1.31-.101a2.92 2.92 0 001.207-.537c.56-.43.787-.768.787-1.534 0-.505-.153-.973-.352-1.296-.199-.322-.542-.548-1.008-.82-.467-.274-1.124-.586-2.077-.932-1.33-.486-2.326-1.096-2.896-1.762-.57-.665-.884-1.495-.884-2.566 0-1.125.482-2.104 1.31-2.769.829-.665 2.042-.934 3.405-.934 1.422 0 2.73.266 3.923.798l-.518 1.477c-1.18-.505-2.356-.482-3.471-.482-.88 0-1.644.309-2.019.617-.375.309-.67.544-.762 1.293-.06.495.092.92.274 1.242.183.323.534.591.968.86.433.27 1.054.596 1.948.922 1.5.545 2.532 1.13 3.096 1.756.564.625.846 1.437.846 2.435z"/></g></svg>