<svg xmlns="http://www.w3.org/2000/svg" width="48" height="48"><g fill="none" fill-rule="evenodd"><path d="M0 0h48v48H0z"/><path d="M0 0h48v48H0z"/><circle cx="28" cy="28" r="16" fill="#FFBA00"/><g stroke="#414141" stroke-width="2" transform="translate(5 5)"><path d="M18 27.652V30h-6v-2.348a12.92 12.92 0 01-3.636-1.47l-1.698 1.697-4.545-4.545 1.698-1.698A12.92 12.92 0 012.348 18H0v-6h2.348a12.92 12.92 0 011.47-3.636L2.122 6.666l4.545-4.545 1.698 1.698A12.92 12.92 0 0112 2.348V0h6v2.348a12.92 12.92 0 013.636 1.47l1.698-1.697 4.545 4.545-1.698 1.698A12.92 12.92 0 0127.652 12H30v6h-2.348a12.92 12.92 0 01-1.47 3.636l1.697 1.698-4.545 4.545-1.698-1.698A12.92 12.92 0 0118 27.652z"/><circle cx="15" cy="15" r="8"/><circle cx="15" cy="15" r="4" fill="#F9F9F9"/></g></g></svg>