<svg width="25" height="24" viewBox="0 0 25 24" xmlns="http://www.w3.org/2000/svg" xmlns:xlink="http://www.w3.org/1999/xlink"><defs><path d="M24.934 9.068a1.326 1.326 0 0 0-1.144-.912L16.575 7.5 13.722.83a1.33 1.33 0 0 0-2.444.002L8.425 7.5l-7.217.655a1.328 1.328 0 0 0-.754 2.322l5.454 4.78L4.3 22.334a1.326 1.326 0 0 0 1.976 1.434l6.224-3.717 6.222 3.717a1.327 1.327 0 0 0 1.977-1.434l-1.609-7.078 5.455-4.778c.4-.35.554-.904.39-1.41z" id="a"/></defs><g fill="none" fill-rule="evenodd"><mask id="b" fill="#fff"><use xlink:href="#a"/></mask><use fill="#EEE" fill-rule="nonzero" xlink:href="#a"/><path d="M12.5.024c.488 0 .931.266 1.164.687l.058.118 2.853 6.672 7.215.655a1.327 1.327 0 1 1 .857 2.223l-.102.1-5.455 4.778 1.609 7.078a1.327 1.327 0 0 1-1.85 1.5l-.127-.066-6.222-3.717-6.224 3.717a1.324 1.324 0 0 1-1.46-.064 1.325 1.325 0 0 1-.54-1.228l.024-.142 1.608-7.078-5.454-4.779a1.328 1.328 0 1 1 .623-2.304l.131-.018L8.425 7.5 11.278.83c.21-.49.69-.807 1.222-.807zm0 1a.327.327 0 0 0-.264.132l-.039.068-2.853 6.67a1 1 0 0 1-.709.585l-.12.018-7.215.654a.328.328 0 0 0-.24.518l.053.057 5.454 4.779a1 1 0 0 1 .336.854l-.02.12-1.608 7.076c-.03.13.02.262.127.34a.327.327 0 0 0 .306.042l.055-.027 6.224-3.716a1 1 0 0 1 .904-.062l.122.062 6.224 3.718c.111.067.252.06.359-.017a.327.327 0 0 0 .136-.262l-.008-.077-1.609-7.077a1 1 0 0 1 .23-.889l.087-.085 5.454-4.778a.328.328 0 0 0-.11-.56l-.076-.015-7.215-.655a1 1 0 0 1-.775-.494l-.055-.109-2.852-6.67a.33.33 0 0 0-.303-.2z" fill="#E3E1E1" fill-rule="nonzero" mask="url(#b)"/><path d="M12.5.024c-.533 0-1.012.317-1.222.807L8.425 7.5l-7.217.655a1.328 1.328 0 0 0-.754 2.322l5.454 4.78L4.3 22.334a1.326 1.326 0 0 0 1.976 1.434l6.224-3.717C12.446 6.7 12.446.024 12.5.024z" fill="#FFCA00" fill-rule="nonzero" mask="url(#b)"/></g></svg>