<svg width="144" height="40" viewBox="0 0 144 40" fill="none" xmlns="http://www.w3.org/2000/svg">
<path d="M23.848 1.55001L22.856 1.78201C22.116 1.97401 21.456 2.59001 21.456 3.51601L21.168 17.042C21.044 22.012 17.992 24.556 12.876 24.556C7.05996 24.556 3.55596 22.05 3.51596 17.042L3.34796 3.48001C3.30796 2.55401 2.72796 1.94001 1.98796 1.78601L0.709955 1.55201C0.339955 1.47601 0.0539551 1.32201 0.0539551 1.12801C0.0539551 0.898012 0.341955 0.818012 0.713955 0.818012H9.49996C9.87195 0.818012 10.16 0.896012 10.16 1.12801C10.16 1.32001 9.82996 1.47601 9.49996 1.55201L8.21996 1.78601C7.47996 1.93801 6.85996 2.55401 6.85996 3.51801L6.81996 16.774C6.77796 20.396 9.58395 22.514 13.046 22.514C16.016 22.514 18.696 20.974 18.656 17.16L18.532 3.90401C18.492 2.28601 17.912 1.93801 17.458 1.70801C17.086 1.51401 16.718 1.40201 16.718 1.13001C16.718 0.900012 17.046 0.822012 17.458 0.822012H23.854C24.226 0.822012 24.514 0.898012 24.514 1.13001C24.508 1.32001 24.176 1.47201 23.848 1.55001ZM33.168 24.4C30.076 24.4 28.178 23.86 25.868 23.706C25.58 23.706 25.29 23.206 25.29 23.206L24.63 17.234C24.59 16.772 25.126 16.656 25.29 17.12C26.942 21.552 29.374 22.784 33.538 22.784C36.386 22.784 38.818 21.588 38.818 18.968C38.818 12.262 24.878 14.152 24.878 6.32801C24.878 2.43601 27.848 0.200012 31.972 0.200012C35.684 0.200012 37.664 0.740012 39.932 0.896012C40.22 0.896012 40.47 1.08601 40.47 1.39601L40.51 7.36801C40.51 7.90801 39.932 7.86801 39.85 7.48201C38.9 3.32201 36.552 1.90001 32.054 1.90001C29.704 1.90001 27.888 2.94001 27.888 4.94401C27.888 11.148 41.788 9.18201 41.788 17.852C41.788 22.592 37.828 24.402 33.168 24.402V24.4ZM61.958 23.516C61.918 23.744 61.668 23.94 61.378 23.94H45.338C44.964 23.94 44.678 23.862 44.678 23.668C44.678 23.438 44.964 23.282 45.338 23.206C46.078 23.052 46.614 22.436 46.614 21.472L46.654 12.34L46.614 3.47801C46.614 2.51401 45.994 1.89801 45.254 1.78201L43.562 1.55001C43.19 1.51001 42.902 1.32001 42.902 1.12601C42.902 0.896012 43.192 0.816012 43.562 0.816012H52.842C53.214 0.816012 53.502 0.892012 53.502 1.08401C53.502 1.31601 53.17 1.47001 52.842 1.54601L51.562 1.78001C50.822 1.93201 50.078 2.54801 50.078 3.51201L50.038 12.336L50.078 21.7C50.078 22.086 50.532 22.392 50.946 22.392L56.102 22.316C60.392 22.24 61.174 20.426 62.04 17.462C62.248 16.846 63.194 16.574 62.948 17.846L61.958 23.516ZM80.312 23.516C80.2719 23.786 79.94 23.94 79.652 23.94H64.968C64.556 23.94 64.268 23.824 64.268 23.592C64.268 22.972 65.96 23.438 65.96 21.896L66 14.652L65.96 7.67601C65.96 7.02201 65.464 6.59801 64.846 6.48401C64.226 6.36801 63.402 6.28801 63.402 6.28801C62.99 6.21201 62.702 6.02001 62.702 5.82601C62.702 5.59601 63.034 5.44001 63.442 5.44001H79.406C79.736 5.44001 79.9 5.67001 79.942 5.90201L80.27 10.064C80.31 10.872 79.61 10.718 79.364 10.218C78.086 7.52001 77.178 6.90401 74.334 6.90401H70.084C69.63 6.90401 69.26 7.17401 69.26 7.48401L69.22 13.3C69.22 13.34 69.3 13.416 69.384 13.416L76.23 13.22C76.48 13.22 76.726 13.416 76.726 13.646V14.916C76.726 15.186 76.48 15.34 76.23 15.34L69.302 15.186C69.262 15.186 69.22 15.226 69.22 15.34L69.26 22.044C69.26 22.278 69.5099 22.508 69.84 22.47L74.996 22.43C78.708 22.392 79.368 21.004 80.15 18.652C80.356 18.036 81.43 17.88 81.182 19.038L80.312 23.516ZM102.5 15.58L101.386 15.77C100.766 15.888 100.314 16.35 100.314 17.042V22.746C100.314 23.516 100.768 23.442 100.768 23.862C100.768 24.326 100.108 24.248 99.776 24.134C99.036 23.862 97.508 23.286 97.508 23.286C97.302 23.208 97.096 23.17 96.888 23.286C96.106 23.862 94.374 24.364 92.804 24.364C87.648 24.364 83.07 21.204 83.07 14.656C83.07 8.79601 87.278 5.06001 92.35 5.06001C94.3699 5.06001 96.516 5.40801 98.536 5.48401C98.866 5.52401 99.116 5.79401 99.116 6.02401V11.186C99.116 11.842 98.536 11.88 98.372 11.302C98.044 10.184 97.258 8.52801 96.272 7.64201C95.28 6.75401 93.754 6.52401 92.312 6.52401C87.4859 6.52401 86.786 11.65 86.786 15.118C86.786 18.856 88.312 22.786 92.93 22.786C94.91 22.786 97.384 21.438 97.384 19.704L97.344 16.66C97.344 16.196 97.262 15.734 96.848 15.504C96.684 15.424 96.476 15.35 96.476 15.118C96.476 14.886 96.68 14.808 97.096 14.808H102.496C102.83 14.808 103.076 14.962 103.076 15.194C103.078 15.384 102.832 15.54 102.5 15.578V15.58ZM125.064 23.94H117.514C117.104 23.94 116.814 23.824 116.814 23.592C116.814 23.398 117.104 23.206 117.474 23.128L118.63 22.934C119.042 22.858 119.37 22.628 119.37 22.28C119.37 22.204 119.37 22.126 119.33 22.048L117.97 18.848C117.926 18.774 117.762 18.656 117.638 18.656H109.76C109.636 18.656 109.514 18.732 109.472 18.85L108.03 22.474L107.948 22.704C107.66 23.4 108.402 23.128 108.402 23.592C108.402 23.822 108.072 23.94 107.662 23.94H103.536C103.124 23.94 102.836 23.824 102.836 23.592C102.836 23.398 103.122 23.244 103.496 23.128C103.99 23.014 104.94 22.9 105.186 22.36L112.9 5.63801C113.106 5.13801 114.92 5.13801 115.17 5.63801L123.252 22.398C123.542 23.052 124.49 23.052 125.108 23.128C125.48 23.206 125.808 23.4 125.808 23.592C125.808 23.822 125.476 23.94 125.064 23.94ZM113.636 8.98801C113.596 8.91201 113.512 8.91201 113.512 8.98801L110.172 17.042C110.172 17.12 110.214 17.196 110.296 17.196H117.142C117.224 17.196 117.268 17.156 117.224 17.082L113.636 8.98801ZM142.26 23.516C142.22 23.786 141.888 23.94 141.6 23.94H127.496C127.084 23.94 126.796 23.824 126.796 23.592C126.796 22.972 128.486 23.398 128.486 21.858L128.526 14.652L128.486 7.63801C128.486 6.29201 126.92 6.36801 125.93 6.25401C125.602 6.21401 125.23 6.06201 125.23 5.79001C125.23 5.56001 125.516 5.44201 125.93 5.44201H134.096C134.508 5.44201 134.796 5.55801 134.796 5.79001C134.796 5.98401 134.506 6.17601 134.096 6.25401L132.984 6.44401C132.364 6.52201 131.788 7.02401 131.788 7.67601L131.748 14.652L131.788 22.052C131.788 22.322 132.074 22.59 132.57 22.552L136.942 22.436C140.654 22.322 141.314 21.01 142.096 18.658C142.302 18.042 143.376 17.886 143.128 19.044L142.26 23.516Z" fill="#981B1E"/>
<path d="M49.39 33.52C38.416 32.82 13.956 31.76 14.456 31.496C15.036 31.44 36.416 30.828 46.516 30.286L49.39 33.518V33.52ZM73.356 33.962L73.328 33.958L76.568 29.538C77.394 29.538 83.452 29.858 90.634 30.242L88.428 32.728L69.718 39.232L51.09 32.72L48.882 30.23C56.064 29.848 62.388 29.522 63.216 29.522C63.256 29.522 65.598 33.166 66.116 33.96L67.596 29.974C66.012 29.224 65.15 30.278 65.15 30.278L65.078 30.248L65.842 28.246L68.938 27.614L70.288 27.126L71.85 27.502L73.356 33.962ZM90.174 33.52C101.148 32.82 125.612 31.76 125.108 31.496C124.528 31.44 103.148 30.828 93.048 30.286L90.174 33.518V33.52ZM29.79 34.312L51.778 35.18L63.206 38.8L29.79 34.312ZM110.072 34.312L88.086 35.18L76.66 38.8L110.072 34.312Z" fill="black"/>
</svg>
