<svg xmlns="http://www.w3.org/2000/svg" width="104" height="32"><g fill="none"><path fill="#666" d="M34.447 10.39v10.39h3.727c3.154 0 4.704-1.88 4.704-5.223 0-3.318-1.527-5.168-4.704-5.168h-3.727zm1.848 1.517h1.603c2.106 0 2.954 1.353 2.954 3.614 0 2.622-1.091 3.605-2.954 3.605h-1.603v-7.22zm12.791 7.768h.07v.982h1.731V15.18c0-1.829-1.383-2.712-3.222-2.712-2.24 0-3.152 1.18-3.221 2.544h1.715c.053-.686.572-1.158 1.468-1.158.927 0 1.452.495 1.452 1.379v.747h-2.04c-1.884.008-2.897.921-2.897 2.361 0 1.5 1.097 2.439 2.681 2.439 1.205 0 1.917-.496 2.264-1.105zm-1.897-.24c-.725 0-1.412-.383-1.412-1.188 0-.638.45-1.082 1.397-1.082h1.68v.864c0 .835-.725 1.405-1.665 1.405zm5.384-9.046v10.39H56.3c3.154 0 4.704-1.88 4.704-5.222 0-3.318-1.527-5.168-4.704-5.168h-3.727zm2.038 1.518h1.603c2.107 0 2.955 1.353 2.955 3.614 0 2.622-1.093 3.605-2.955 3.605h-1.603v-7.22zm12.601 7.768h.07v.982h1.73V15.18c0-1.829-1.382-2.712-3.22-2.712-2.24 0-3.153 1.18-3.222 2.544h1.715c.054-.686.571-1.158 1.467-1.158.928 0 1.453.495 1.453 1.379v.747h-2.04c-1.885.008-2.898.921-2.898 2.361 0 1.5 1.097 2.439 2.681 2.439 1.206 0 1.916-.496 2.264-1.105zm-1.706-.24c-.726 0-1.414-.383-1.414-1.188 0-.638.451-1.082 1.398-1.082h1.68v.864c0 .835-.726 1.405-1.664 1.405zm5.615-9.046v10.39h3.727c3.154 0 4.703-1.88 4.703-5.222 0-3.318-1.526-5.168-4.703-5.168H71.12zm1.805 1.518h1.604c2.106 0 2.954 1.353 2.954 3.614 0 2.622-1.091 3.605-2.954 3.605h-1.604v-7.22zm11.48.56c-2.315 0-3.59 1.627-3.59 3.83v.622c0 2.287 1.267 3.86 3.59 3.86 2.316 0 3.575-1.573 3.575-3.866v-.624c0-2.203-1.266-3.821-3.575-3.821zm-.058 1.491c1.222 0 1.802 1 1.802 2.397v.616c0 1.36-.573 2.396-1.802 2.396-1.237 0-1.817-1.037-1.817-2.396v-.616c0-1.39.588-2.397 1.817-2.397zm4.898 2.977c0 2.286 1.3 3.845 3.475 3.845 1.873 0 3.074-.95 3.27-2.623h-1.67c-.105.616-.58 1.156-1.494 1.156-1.103 0-1.79-.92-1.79-2.378v-.668c0-1.452.664-2.34 1.782-2.34.77 0 1.33.592 1.457 1.26h1.677c-.06-1.451-1.253-2.72-3.225-2.72-2.19 0-3.482 1.55-3.482 3.76v.708zm8.166-1.976c0 1.482 1.228 1.998 2.73 2.302 1.088.214 2.058.343 2.058 1.156 0 .569-.484 1.063-1.541 1.063-.947 0-1.518-.433-1.604-1.064h-1.8c0 1.436 1.253 2.364 3.294 2.364 2.121 0 3.451-.95 3.451-2.592 0-1.51-1.173-1.982-2.708-2.248-.938-.168-2.104-.32-2.104-1.156 0-.645.571-1.025 1.424-1.025 1.088 0 1.44.608 1.494 1.147h1.651c0-1.45-1.134-2.438-3.098-2.438-1.698 0-3.247.737-3.247 2.491z"/><path fill="#CF4436" d="M18.12 15.831l-6.317 3.701v10.39c0 .368.335.554.843.416l13.904-9.104c.494-.396.406-.63 0-.831l-8.43-4.572z"/><path fill="#E95E50" d="M26.556 19.532c.747.202 1.265-.1 1.265-.83V11.22c0-.851-.51-1.724-1.265-2.077L12.646.832c-.756-.204-.843.076-.843.83v9.974l14.753 7.896z"/><path fill="#666" d="M9.695 31.584c.749.203 1.265-.107 1.265-.831V1.247c0-.757-.507-1.039-1.265-.831l-8.43 5.402C.483 6.404 0 6.988 0 7.896v17.04c0 .672.514 1.529 1.265 2.077l8.43 4.571z"/></g></svg>