<svg xmlns="http://www.w3.org/2000/svg" viewBox="0 0 118 24" width="118" height="24"><path fill="#2C435C" d="M98.137 9.7H94.33v8.377c0 1.494.789 2.138 2.454 2.138.21 0 .458-.019.703-.05.105-.014.224-.035.356-.063a.78.78 0 01.872.445l.892 2.003a.78.78 0 01-.568 1.083c-.643.12-1.224.204-1.741.25-.746.068-1.498.11-2.062.11-4.032 0-5.96-2.255-5.96-5.77v-7.11l.007-3.601v-4.38a.78.78 0 01.983-.752l3.49.948c.339.092.574.4.574.752v2.022h3.808c.43 0 .779.348.779.779v2.04a.78.78 0 01-.779.78zM66.631 23.712h-3.526a.78.78 0 01-.779-.779V3.136a.78.78 0 01.981-.753l3.527.951c.34.092.576.4.576.753v18.846a.78.78 0 01-.779.78zm-6.888-7.254c0 4.601-3.697 7.534-9.828 7.534a20.09 20.09 0 01-5.34-.702c-.578-.16-1.347-.438-2.306-.835a.78.78 0 01-.44-.97l1.128-3.327a.778.778 0 011.072-.454c.747.356 1.317.61 1.71.762 1.285.497 2.534.771 4.238.771 2.926 0 4.19-.926 4.19-2.377 0-3.428-12.477-1.42-12.477-9.542C41.69 3.397 44.432 0 51.27 0c1.673 0 3.474.193 5.113.547.446.096 1.022.254 1.729.473a.78.78 0 01.513.975l-.009.026-1.13 3.237a.777.777 0 01-.954.49 39.368 39.368 0 00-2.066-.562c-.97-.22-1.876-.338-3.01-.338-3.328 0-4.19 1.019-4.19 2.13 0 3.397 12.477 1.205 12.477 9.48zm-28.003 7.25h-3.468a.78.78 0 01-.779-.78V6.916a.78.78 0 01.779-.779h2.566a.78.78 0 01.768.649l.386 2.28h.088c1.227-2.226 3.214-3.397 5.61-3.397a7.7 7.7 0 01.965.06c.104.013.218.031.34.055a.778.778 0 01.593 1.008l-1.05 3.2a.781.781 0 01-.93.512 3.893 3.893 0 00-.347-.074 6.53 6.53 0 00-1.032-.076c-2.747 0-3.71 1.845-3.71 4.89v7.684c0 .43-.35.78-.78.78zm-8.094 0h-3.614a.75.75 0 01-.75-.75V7.85a.75.75 0 01.556-.724l3.614-.97a.75.75 0 01.943.724v16.077a.75.75 0 01-.749.75zM24.4.75v2.04a.75.75 0 01-.555.724l-3.612.97a.75.75 0 01-.943-.725V1.72a.75.75 0 01.555-.724l3.612-.969a.748.748 0 01.943.724zm86.326 23.247c-6.922-.165-10.02-3.485-10.02-9.4 0-5.36 2.892-9.02 8.94-9.02 5.083 0 8.355 2.9 8.355 8.346 0 .33-.026.795-.079 1.397a.778.778 0 01-.775.712h-11.241c.263 2.606 2.016 3.748 5.434 3.748 1.498 0 1.724-.02 3.302-.399a3.37 3.37 0 00.501-.172.777.777 0 011.018.42l.003.006.927 2.287a.778.778 0 01-.499 1.039c-2.43.726-4.385 1.07-5.866 1.036zm-4.827-11.04h7.625c-.058-2.284-1.46-3.368-3.74-3.368-2.6 0-3.651 1.084-3.885 3.368zM82.154 23.102l-.27-1.181C80.48 23.209 78.523 24 76.185 24c-3.827 0-6.194-1.933-6.194-5.857 0-3.162 2.484-5.534 7.187-5.534 1.549 0 2.893.234 4.003.527v-.879c0-1.727-1.052-2.606-3.857-2.606-1.554 0-2.217.13-3.055.423-.18.064-.455.165-.825.304a.778.778 0 01-.995-.433l-.95-2.32a.779.779 0 01.425-1.016l.043-.016a16.3 16.3 0 01.974-.308c1.607-.443 3.355-.675 5.29-.675 5.988 0 7.946 2.577 7.946 7.38v9.938a.78.78 0 01-.779.78h-2.487a.778.778 0 01-.758-.606zm-.948-4.93V16.27a11.372 11.372 0 00-3.068-.41c-2.367 0-3.418.762-3.418 2.196 0 1.611 1.227 2.197 2.921 2.197 1.87 0 3.565-.967 3.565-2.08zm-69.045 4.93l-.27-1.181C10.488 23.209 8.53 24 6.194 24 2.366 24 0 22.067 0 18.143c0-3.162 2.483-5.534 7.187-5.534 1.548 0 2.892.234 4.003.527v-.879c0-1.727-1.052-2.606-3.857-2.606-1.31 0-1.986.092-2.667.297-.256.077-.66.22-1.211.428a.778.778 0 01-.995-.433l-.948-2.31a.778.778 0 01.424-1.016c.017-.006.033-.013.05-.018a19.253 19.253 0 011.722-.505c1.396-.318 2.897-.484 4.53-.484 5.99 0 7.947 2.577 7.947 7.38v9.938a.78.78 0 01-.778.78H12.92a.78.78 0 01-.759-.606zm-.963-4.93V16.27a11.372 11.372 0 00-3.068-.41c-2.366 0-3.418.762-3.418 2.196 0 1.611 1.227 2.197 2.921 2.197 1.87 0 3.565-.967 3.565-2.08z"/></svg>
