<svg width="105" height="24" viewBox="0 0 105 24" fill="none" xmlns="http://www.w3.org/2000/svg">
<path fill-rule="evenodd" clip-rule="evenodd" d="M75.0183 4.49689C76.324 4.49689 77.769 4.65613 78.9598 5.18937L79.1236 5.27623C79.2233 5.336 79.3442 5.42022 79.4613 5.52855C79.4986 5.56309 80.1763 5.3908 81.4944 5.01167C81.7969 4.92466 82.1116 5.06797 82.25 5.33898L82.2933 5.44639L82.7561 6.97411C82.8389 7.28129 82.6864 7.59641 82.4089 7.72803L82.2992 7.76842L81.3451 8.02556C81.4268 8.5278 81.4676 8.91938 81.4676 9.20029C81.4676 12.0076 79.7445 13.8298 75.0429 13.8298C74.2798 13.8298 73.5167 13.7806 72.7782 13.6574C72.409 13.8298 72.2121 14.0761 72.2121 14.3716C72.2121 14.7102 72.481 14.9246 73.1136 15.0149L73.2952 15.0364L77.5291 15.2088C81.5907 15.3812 82.9938 16.7848 82.9938 19.0257C82.9938 22.0792 80.7537 24 75.166 24C70.2674 24 68.3228 22.227 68.3228 19.9369C68.3228 19.0257 68.7413 18.1885 69.529 17.5728C68.8643 17.0557 68.3967 16.317 68.3967 15.332C68.3967 14.3223 68.9874 13.3373 70.3905 12.6971C69.2582 12.0076 68.569 10.8994 68.569 9.20029C68.569 6.51615 70.2921 4.49689 75.0183 4.49689ZM72.5321 18.3855C72.089 18.7056 71.8921 19.1242 71.8921 19.469C71.8921 20.4347 72.7029 20.9273 74.7768 20.9683L75.0675 20.9711C78.4645 20.9957 79.2768 20.454 79.2768 19.6413C79.2768 19.0608 78.9124 18.7434 77.3393 18.6159L76.8152 18.5825L72.5321 18.3855ZM16.6817 0.651844C16.9997 0.651844 17.2642 0.881085 17.319 1.18339L17.3294 1.29987V12.3813C17.3294 17.4787 14.3756 19.9658 8.71396 19.9658C3.17542 19.9658 0.133944 17.5856 0.00432297 12.71L0 12.3813V2.09374C0 1.83089 0.157999 1.5982 0.393254 1.49778L0.498573 1.46313L3.85538 0.668265C3.90427 0.656687 3.95434 0.65084 4.00458 0.65084C4.32259 0.65084 4.58708 0.88008 4.64193 1.18239L4.65237 1.29887V12.3813C4.65237 14.8192 5.90777 15.9765 8.71396 15.9765C11.3996 15.9765 12.6166 14.9206 12.6974 12.6313L12.7017 12.3813V2.09311C12.7017 1.83052 12.8594 1.59798 13.0943 1.49741L13.1995 1.46269L16.5317 0.669447C16.5808 0.657752 16.6312 0.651844 16.6817 0.651844ZM59.4728 4.63945C63.7081 4.63945 66.4343 7.05117 66.4343 11.5823L66.427 11.894C66.4173 12.127 66.3979 12.4105 66.3688 12.7445C66.3396 13.0793 66.0594 13.3363 65.7235 13.3363H56.3572C56.5763 15.5044 58.0368 16.4544 60.8846 16.4544L61.4304 16.4518C62.2268 16.4407 62.5404 16.3855 63.6358 16.1229C63.7509 16.0954 63.8904 16.0474 64.0545 15.979C64.3481 15.8566 64.6803 15.9665 64.8472 16.2244L64.9038 16.3333L65.6762 18.2359C65.8108 18.5675 65.6512 18.9454 65.3198 19.0801L65.2611 19.1007C63.2366 19.7044 61.6074 19.9917 60.3735 19.9624C54.6062 19.8256 52.0246 17.0635 52.0246 12.1426C52.0246 7.68455 54.4343 4.63945 59.4728 4.63945ZM27.8951 0C29.2885 0 30.7891 0.160954 32.1545 0.455122C32.526 0.535176 33.0063 0.666443 33.5951 0.848923C33.8988 0.943129 34.0836 1.24035 34.0466 1.54531L34.0148 1.68187L33.0732 4.37484C32.9594 4.70048 32.6105 4.8798 32.2796 4.78281L31.2642 4.49431L30.8721 4.39077C30.7542 4.36079 30.6492 4.33532 30.557 4.31438C29.7493 4.13085 28.994 4.03297 28.0491 4.03297C25.2771 4.03297 24.5584 4.88066 24.5584 5.80542C24.5584 8.63106 34.9533 6.80724 34.9533 13.6915C34.9533 17.519 31.8733 19.9593 26.7657 19.9593C25.1767 19.9593 23.6822 19.7511 22.3166 19.3749C21.8349 19.2422 21.1945 19.0106 20.3954 18.6801C20.0798 18.5496 19.9197 18.1965 20.0294 17.873L20.9686 15.1046C21.0835 14.7656 21.4514 14.5841 21.7902 14.6991L21.8602 14.7275L22.3582 14.9608C22.743 15.1378 23.0525 15.2715 23.2867 15.3619C24.3573 15.7752 25.3973 16.0034 26.8171 16.0034C29.2554 16.0034 30.3077 15.2328 30.3077 14.0255C30.3077 11.1741 19.9128 12.8438 19.9128 6.08798C19.9128 2.82564 22.1971 0 27.8951 0ZM91.1352 4.65241C96.1251 4.65241 97.7559 6.79616 97.7559 10.7913V19.0593C97.7559 19.4172 97.4659 19.7074 97.1081 19.7074H95.0346C94.7326 19.7074 94.4707 19.4987 94.4032 19.2042L94.1778 18.2214C93.0095 19.2932 91.3786 19.951 89.4314 19.951C86.2428 19.951 84.2712 18.3432 84.2712 15.0788C84.2712 12.4479 86.3401 10.4746 90.259 10.4746C91.549 10.4746 92.6687 10.6695 93.5936 10.9131V10.1823C93.5936 8.74502 92.7174 8.0142 90.3807 8.0142C89.1933 8.0142 88.6302 8.10478 88.0073 8.30803L87.4791 8.49537C87.381 8.53168 87.2701 8.57306 87.1466 8.61951C86.8188 8.74293 86.4523 8.58323 86.3193 8.25907L85.5275 6.32953C85.3915 5.99843 85.5497 5.6198 85.8807 5.48387L85.9166 5.47035C86.2471 5.357 86.5177 5.27141 86.7282 5.21358C88.0677 4.84572 89.5242 4.65241 91.1352 4.65241ZM38.3999 0.650392L38.5151 0.670238L41.8966 1.5698C42.1449 1.63586 42.3271 1.84089 42.3688 2.08791L42.3779 2.19606V15.7234H50.2583C50.576 15.7234 50.8404 15.9522 50.8955 16.2542L50.9061 16.3705L50.9096 19.0646L50.8992 19.1811C50.8512 19.4456 50.6427 19.6542 50.3783 19.7022L50.2618 19.7126H38.3487C38.0306 19.7126 37.7662 19.4834 37.7113 19.1811L37.7009 19.0646V1.2965C37.7009 1.24028 37.7082 1.1843 37.7226 1.12996C37.7941 0.860947 38.0247 0.676654 38.2863 0.651307L38.3999 0.650392ZM100.984 1.94365C101.041 1.94365 101.097 1.95114 101.152 1.96592L104.092 2.75757C104.375 2.83374 104.571 3.0903 104.571 3.38332V19.0615C104.571 19.4194 104.281 19.7095 103.924 19.7095H100.984C100.626 19.7095 100.336 19.4194 100.336 19.0615V2.59168C100.336 2.23378 100.626 1.94365 100.984 1.94365ZM91.0575 13.1787C89.086 13.1787 88.2097 13.8121 88.2097 15.0057C88.2097 16.3456 89.232 16.8328 90.6438 16.8328C92.2016 16.8328 93.6133 16.0289 93.6133 15.1032V13.5197L93.3564 13.4522C92.8662 13.3309 92.0717 13.1787 91.0575 13.1787ZM75.0675 7.5504C73.3444 7.5504 72.7536 8.09216 72.7536 9.29879C72.7536 10.6778 73.6398 11.0225 74.969 11.0225C76.8644 11.0225 77.3814 10.53 77.3814 9.29879C77.3814 8.04291 76.7414 7.5504 75.0675 7.5504ZM59.5891 7.97688C57.4228 7.97688 56.5465 8.87823 56.3518 10.7784H62.7047C62.656 8.87823 61.4877 7.97688 59.5891 7.97688Z" fill="#840E18"/>
</svg>
