<svg xmlns="http://www.w3.org/2000/svg" width="100" height="22" viewBox="0 0 100 22"><path fill="#0777CF" d="M24.874 4.123c1.191 0 2.515.145 3.598.626.096.036.276.144.457.312.036.036.65-.12 1.853-.469a.573.573 0 01.686.3l.036.097.421 1.395a.592.592 0 01-.312.685l-.097.036-.866.228c.072.457.108.818.108 1.07 0 2.56-1.576 4.22-5.86 4.22-.698 0-1.396-.048-2.07-.156-.337.156-.518.384-.518.649 0 .312.241.505.819.589l.168.024 3.863.156c3.706.157 4.982 1.43 4.982 3.475 0 2.777-2.046 4.532-7.136 4.532-4.464-.012-6.233-1.623-6.233-3.715 0-.83.385-1.587 1.095-2.152-.602-.469-1.035-1.142-1.035-2.044 0-.913.541-1.815 1.817-2.404-1.035-.625-1.66-1.635-1.66-3.186 0-2.428 1.576-4.268 5.884-4.268zM22.61 16.77c-.409.289-.59.674-.59.986 0 .878.735 1.323 2.636 1.37h.265c3.092.013 3.839-.48 3.839-1.213 0-.53-.337-.818-1.781-.938l-.47-.024-3.899-.18zM72.948 4.063c4.766 0 6.787 2.393 6.787 7.081 0 4.689-2.021 7.045-6.787 7.045-4.741 0-6.81-2.344-6.81-7.045 0-4.7 2.069-7.08 6.81-7.08zM5.86 4.1c1.228 0 2.455.18 3.586.505l.361.109a.59.59 0 01.398.649l-.024.108-.614 1.767a.522.522 0 01-.518.349l-.096-.012-.24-.06c-1.06-.24-2.19-.361-3.009-.361-1.276 0-1.998.409-1.998 1.058 0 1.947 7.257.577 7.257 5.362 0 2.644-1.685 4.616-5.885 4.616-1.624 0-3.056-.228-4.284-.721l-.24-.108a.574.574 0 01-.337-.638l.024-.096.613-1.791a.48.48 0 01.506-.3l.096.023.41.145a11.08 11.08 0 003.272.517c1.553 0 2.203-.565 2.203-1.275C7.34 11.902 0 13.32 0 8.38 0 5.82 1.89 4.1 5.86 4.1zm10.927.962a.602.602 0 01.024.144v12.179a.565.565 0 01-.566.565h-2.743a.565.565 0 01-.566-.565V5.939c0-.253.169-.481.421-.553l2.744-.734a.58.58 0 01.686.41zm20.156-1.07l.037.096.493 1.816c1.191-.95 2.72-1.84 4.332-1.84 3.25 0 5.319 1.924 5.427 5.434v7.875a.582.582 0 01-.481.577l-.108.012h-2.684a.583.583 0 01-.578-.481l-.012-.108V9.798c0-1.683-.926-2.405-2.647-2.405-.963 0-2.01.662-2.635 1.347l-.133.144v8.488a.582.582 0 01-.481.577l-.108.012H34.68a.583.583 0 01-.578-.481l-.012-.108V4.712c0-.228.133-.444.337-.54l.097-.036 1.708-.47a.598.598 0 01.638.23l.072.095zM53.285.204l.072.085 7.088 9.881L60.41.661v-.06a.591.591 0 01.542-.529h.108l2.611.265a.575.575 0 01.518.493l.012.096v16.446a.583.583 0 01-.482.577l-.108.012h-1.973a.601.601 0 01-.422-.169l-.072-.084L53.406 6.18l.024 11.205a.583.583 0 01-.482.577l-.108.012h-2.635a.582.582 0 01-.578-.481l-.012-.108V.938a.59.59 0 01.433-.565l.096-.024L52.816.06c.168-.048.337.024.47.144zm27.678 3.871l2.84.746c.216.06.385.24.433.457l1.564 8.319.169 1.13.216-1.142 1.649-7.61c.06-.277.3-.469.59-.469l3.694.06a.57.57 0 01.566.469l1.6 7.562.168 1.106.193-1.106 1.613-8.151a.588.588 0 01.493-.469l2.563-.385a.596.596 0 01.674.493.494.494 0 01-.012.229l-2.972 12.19a.583.583 0 01-.578.445h-3.79a.594.594 0 01-.578-.457l-1.6-7.093-.17-1.19-.252 1.202-1.78 7.093a.585.585 0 01-.579.445H83.9a.605.605 0 01-.578-.457L80.253 4.785a.593.593 0 01.433-.71.541.541 0 01.277 0zm-8.015 3.042c-2.19 0-3.02.986-3.02 4.003 0 3.042.83 4.028 3.02 4.028 2.166 0 2.96-1.01 2.96-4.028 0-3.017-.782-4.003-2.96-4.003zM24.922 6.9c-1.577 0-2.106.492-2.106 1.586 0 1.25.806 1.575 2.022 1.575 1.732 0 2.202-.445 2.202-1.575-.012-1.142-.59-1.586-2.118-1.586zM16.787.42a.602.602 0 01.024.144v1.55a.577.577 0 01-.421.554l-2.744.733a.57.57 0 01-.698-.397.602.602 0 01-.024-.144V1.31a.58.58 0 01.421-.554L16.09.024a.57.57 0 01.698.397z"/></svg>
