<svg width="129" height="47" viewBox="0 0 129 47" fill="none" xmlns="http://www.w3.org/2000/svg">
<path fill-rule="evenodd" clip-rule="evenodd" d="M12.3377 11.7111C17.6295 11.7111 20.0586 14.894 20.0586 20.8837C20.0586 26.3236 17.5428 29.9406 12.3377 29.9406C10.485 29.9406 8.85666 29.3917 7.59163 28.4792L7.30621 28.2623L7.24838 28.3202L7.30026 33.4861C7.30332 33.7909 7.12518 34.0635 6.85514 34.1866L6.73404 34.2299L3.25927 35.1502C3.19573 35.167 3.13028 35.1755 3.06456 35.1755C2.69098 35.1755 2.38028 34.9062 2.31585 34.5509L2.30359 34.4141V12.8031C2.30359 12.4293 2.57278 12.1184 2.92777 12.0539L3.06456 12.0416H5.64511C5.93752 12.0416 6.19998 12.2086 6.32679 12.4645L6.37252 12.5794L6.72787 13.7366C8.08697 12.4635 9.82198 11.7111 12.3377 11.7111ZM38.261 6.51727C38.6346 6.51727 38.9453 6.78664 39.0097 7.14186L39.0219 7.27873V28.8897C39.0219 29.2636 38.7528 29.5745 38.3978 29.6389L38.261 29.6512H35.6804C35.388 29.6512 35.1256 29.4842 34.9988 29.2283L34.953 29.1134L34.5977 27.9562C33.2386 29.2293 31.5036 29.9817 28.9878 29.9817C23.696 29.9817 21.267 26.7988 21.267 20.8091C21.267 15.3692 23.7828 11.7522 28.9878 11.7522C30.8405 11.7522 32.4689 12.3011 33.7339 13.2136L34.0193 13.4305L34.0772 13.3726L34.0253 8.20668C34.0222 7.90188 34.2004 7.62928 34.4704 7.50618L34.5915 7.46291L38.0663 6.54262C38.1298 6.52579 38.1953 6.51727 38.261 6.51727ZM104.12 11.9396C109.095 11.9396 112.298 14.7734 112.298 20.0977L112.289 20.464C112.278 20.7378 112.255 21.0709 112.221 21.4633C112.187 21.8568 111.857 22.1587 111.463 22.1587H100.46C100.717 24.7063 102.433 25.8227 105.778 25.8227L106.42 25.8195C107.355 25.8065 107.724 25.7417 109.01 25.4331C109.146 25.4007 109.309 25.3444 109.502 25.264C109.847 25.1202 110.237 25.2493 110.433 25.5524L110.5 25.6804L111.407 27.916C111.565 28.3056 111.378 28.7497 110.989 28.908L110.92 28.9322C108.541 29.6416 106.628 29.9791 105.178 29.9447C98.4029 29.7839 95.3703 26.5383 95.3703 20.7561C95.3703 15.5177 98.2011 11.9396 104.12 11.9396ZM124.8 12.0287C125.135 12.0287 125.452 12.0504 125.745 12.0872L126.079 12.1414C126.492 12.221 126.762 12.6202 126.683 13.0331L126.658 13.1271L125.63 16.2547C125.505 16.6337 125.109 16.8522 124.722 16.7554L124.483 16.7015C124.447 16.6944 124.413 16.6883 124.381 16.6831C124.072 16.6335 123.743 16.6087 123.37 16.6087C120.682 16.6087 119.739 18.412 119.739 21.389V28.9002C119.739 29.3207 119.398 29.6616 118.978 29.6616H115.582C115.161 29.6616 114.821 29.3207 114.821 28.9002V13.2481C114.821 12.8276 115.161 12.4867 115.582 12.4867H118.095C118.467 12.4867 118.784 12.7545 118.846 13.1206L119.224 15.3492H119.31C120.511 13.1737 122.455 12.0287 124.8 12.0287ZM72.6054 12.9861L72.7355 13.0087L76.2752 13.9567C76.5553 14.0318 76.7608 14.2634 76.8078 14.5423L76.818 14.6644V28.929C76.818 29.2887 76.559 29.5878 76.2175 29.6498L76.0859 29.6616H72.5463C72.1868 29.6616 71.8879 29.4025 71.8259 29.0607L71.8141 28.929V13.7164C71.8141 13.6525 71.8225 13.5888 71.839 13.527C71.9203 13.223 72.1812 13.0151 72.4769 12.9869L72.6054 12.9861ZM69.3499 6.38089C69.4293 6.38089 69.5082 6.39332 69.5837 6.41773C69.9392 6.53259 70.1522 6.88446 70.1044 7.24231L70.074 7.37633L69.0435 10.5699C68.9566 10.8394 68.7292 11.0344 68.4581 11.0847L68.3194 11.0974H60.5178V15.4667H67.7087C68.0893 15.4706 68.3979 15.7432 68.4588 16.099L68.4696 16.236L68.4398 19.1113C68.4359 19.4824 68.1673 19.7892 67.8147 19.8528L67.6788 19.8649H60.5178V28.8897C60.5178 29.2636 60.2487 29.5745 59.8937 29.6389L59.7569 29.6512H56.3173C55.9437 29.6512 55.633 29.3818 55.5686 29.0266L55.5563 28.8897V8.41095C55.5563 7.35573 56.3609 6.48855 57.3897 6.39018L57.5851 6.38089H69.3499ZM50.508 6.48597C51.0149 6.48597 51.5392 6.52104 52.0443 6.58066C52.2866 6.60926 52.5824 6.65675 52.9315 6.72313L53.0235 6.7469C53.3649 6.85923 53.568 7.19885 53.5202 7.54288L53.4903 7.67166L52.9809 9.22208C52.8755 9.54302 52.5643 9.75015 52.2277 9.72359L52.1345 9.71695C51.9214 9.70387 51.7063 9.69782 51.4912 9.69782C49.4858 9.69782 48.707 10.3507 48.6342 11.3835L48.6284 11.5497V12.0995H52.2628C52.6364 12.0995 52.9471 12.3688 53.0115 12.7241L53.0238 12.8609V14.8682C53.0238 15.242 52.7546 15.5529 52.3996 15.6174L52.2628 15.6296H48.6284V28.8897C48.6284 29.2636 48.3592 29.5745 48.0043 29.6389L47.8675 29.6512H44.4157C44.0421 29.6512 43.7314 29.3818 43.667 29.0266L43.6547 28.8897V15.6296H41.8132C41.4396 15.6296 41.1289 15.3603 41.0645 15.005L41.0522 14.8682V12.8609C41.0522 12.4871 41.3214 12.1762 41.6764 12.1117L41.8132 12.0995H43.6258V11.5497C43.6258 8.85869 45.65 6.48597 50.508 6.48597ZM88.6281 8.77188C88.6949 8.77188 88.7614 8.78068 88.8259 8.79805L92.2793 9.72827C92.6115 9.81777 92.8424 10.1192 92.8424 10.4636V28.8861C92.8424 29.3066 92.5017 29.6476 92.0815 29.6476H88.6281C88.2078 29.6476 87.8671 29.3066 87.8671 28.8861V9.53334C87.8671 9.1128 88.2078 8.77188 88.6281 8.77188ZM80.6227 8.77188C80.6895 8.77188 80.756 8.78068 80.8205 8.79805L84.2739 9.72827C84.6061 9.81777 84.837 10.1192 84.837 10.4636V28.8861C84.837 29.3066 84.4963 29.6476 84.0761 29.6476H80.6227C80.2024 29.6476 79.8617 29.3066 79.8617 28.8861V9.53334C79.8617 9.1128 80.2024 8.77188 80.6227 8.77188ZM30.4336 16.0058C27.513 16.0058 26.4142 17.4236 26.4142 21.0116C26.4142 24.7154 27.3106 26.1622 30.4336 26.1622C32.2771 26.1622 33.3835 25.4501 33.9196 24.765L34.0193 24.6286V17.4526C33.3542 16.6134 32.0819 16.0058 30.4336 16.0058ZM10.8919 15.5306C9.04845 15.5306 7.94204 16.2427 7.40589 16.9278L7.30621 17.0642V24.2402C7.9713 25.0794 9.24364 25.687 10.8919 25.687C13.8125 25.687 14.9114 24.2692 14.9114 20.6812C14.9114 16.9774 14.0149 15.5306 10.8919 15.5306ZM104.257 15.8612C101.712 15.8612 100.682 16.9203 100.454 19.1531H107.917C107.859 16.9203 106.487 15.8612 104.257 15.8612ZM72.602 6.99251L72.7322 7.01518L76.2687 7.96293C76.5488 8.038 76.7542 8.26962 76.8012 8.54851L76.8114 8.67061V10.6651C76.8114 10.7291 76.803 10.7928 76.7865 10.8546C76.6935 11.202 76.366 11.4239 76.02 11.3954L75.8898 11.3728L72.3534 10.425C72.0733 10.35 71.8678 10.1183 71.8208 9.83945L71.8107 9.71735V7.72285C71.8107 7.65886 71.819 7.59514 71.8356 7.53332C71.9169 7.22934 72.1779 7.02145 72.4736 6.99332L72.602 6.99251Z" fill="#E8501F"/>
<path d="M78.3787 38.0961C79.1444 38.0961 79.7381 38.3584 80.1599 38.8831C80.5853 39.4041 80.798 40.1432 80.798 41.1003C80.798 42.0574 80.5835 42.8018 80.1546 43.3336C79.7292 43.8617 79.1373 44.1258 78.3787 44.1258C77.9994 44.1258 77.652 44.0567 77.3365 43.9184C77.0246 43.7767 76.7623 43.5604 76.5496 43.2697H76.4858L76.2997 44.0195H75.6669V35.7459H76.5496V37.7558C76.5496 38.206 76.5354 38.6101 76.507 38.9681H76.5496C76.9608 38.3868 77.5705 38.0961 78.3787 38.0961ZM78.2511 38.8352C77.6484 38.8352 77.2142 39.0089 76.9484 39.3563C76.6825 39.7001 76.5496 40.2815 76.5496 41.1003C76.5496 41.9192 76.686 42.5058 76.959 42.8603C77.2319 43.2113 77.6697 43.3867 78.2723 43.3867C78.8147 43.3867 79.2188 43.19 79.4847 42.7965C79.7505 42.3995 79.8834 41.8306 79.8834 41.0897C79.8834 40.3311 79.7505 39.7657 79.4847 39.3935C79.2188 39.0213 78.8076 38.8352 78.2511 38.8352ZM81.2107 38.1918H82.1572L83.4333 41.5151C83.7133 42.2737 83.887 42.8213 83.9544 43.1581H83.9969C84.043 42.9773 84.1387 42.6689 84.284 42.2329C84.4329 41.7933 84.915 40.4463 85.7303 38.1918H86.6768L84.1724 44.8277C83.9242 45.4835 83.6336 45.9478 83.3004 46.2208C82.9707 46.4973 82.5648 46.6355 82.0827 46.6355C81.8133 46.6355 81.5475 46.6054 81.2851 46.5451V45.8379C81.4801 45.8805 81.6981 45.9018 81.9392 45.9018C82.5453 45.9018 82.9778 45.5615 83.2365 44.8809L83.5609 44.0514L81.2107 38.1918ZM93.6169 44.0195L93.4415 43.19H93.3989C93.1083 43.5551 92.8176 43.8032 92.5269 43.9344C92.2398 44.062 91.88 44.1258 91.4475 44.1258C90.8697 44.1258 90.416 43.9769 90.0863 43.6792C89.7602 43.3814 89.5971 42.9578 89.5971 42.4084C89.5971 41.2315 90.5383 40.6147 92.4206 40.558L93.4096 40.5261V40.1645C93.4096 39.7072 93.3103 39.3705 93.1118 39.1542C92.9168 38.9345 92.6031 38.8246 92.1707 38.8246C91.685 38.8246 91.1356 38.9735 90.5223 39.2712L90.2511 38.5959C90.5383 38.44 90.852 38.3177 91.1923 38.229C91.5361 38.1404 91.88 38.0961 92.2238 38.0961C92.9186 38.0961 93.4326 38.2503 93.7658 38.5587C94.1026 38.8671 94.2709 39.3616 94.2709 40.0422V44.0195H93.6169ZM91.623 43.3974C92.1724 43.3974 92.6031 43.2467 92.9151 42.9454C93.2305 42.6441 93.3883 42.2223 93.3883 41.6799V41.1535L92.5056 41.1907C91.8038 41.2155 91.2969 41.3254 90.9849 41.5204C90.6765 41.7118 90.5223 42.0113 90.5223 42.419C90.5223 42.738 90.618 42.9808 90.8095 43.1475C91.0044 43.3141 91.2756 43.3974 91.623 43.3974ZM96.768 44.0195H95.8853V38.1918H96.768V44.0195ZM95.8109 36.6126C95.8109 36.4106 95.8605 36.2635 95.9598 36.1713C96.059 36.0756 96.1831 36.0277 96.332 36.0277C96.4738 36.0277 96.5961 36.0756 96.6989 36.1713C96.8017 36.267 96.8531 36.4141 96.8531 36.6126C96.8531 36.8111 96.8017 36.96 96.6989 37.0593C96.5961 37.155 96.4738 37.2028 96.332 37.2028C96.1831 37.2028 96.059 37.155 95.9598 37.0593C95.8605 36.96 95.8109 36.8111 95.8109 36.6126ZM101.089 38.0855C101.348 38.0855 101.58 38.1068 101.785 38.1493L101.663 38.9681C101.422 38.915 101.209 38.8884 101.025 38.8884C100.554 38.8884 100.149 39.0798 99.8127 39.4626C99.4795 39.8455 99.3129 40.3222 99.3129 40.893V44.0195H98.4302V38.1918H99.1587L99.2597 39.2712H99.3022C99.5185 38.8919 99.779 38.5995 100.084 38.3939C100.389 38.1883 100.724 38.0855 101.089 38.0855ZM107.186 41.9511C107.186 42.6352 106.937 43.1687 106.441 43.5516C105.945 43.9344 105.271 44.1258 104.421 44.1258C103.499 44.1258 102.79 44.0071 102.294 43.7696V42.8975C102.613 43.0322 102.96 43.1386 103.336 43.2166C103.712 43.2946 104.084 43.3336 104.453 43.3336C105.055 43.3336 105.509 43.2201 105.814 42.9933C106.119 42.7628 106.271 42.4438 106.271 42.0362C106.271 41.7668 106.216 41.547 106.106 41.3768C106 41.2031 105.819 41.0436 105.564 40.8983C105.312 40.7529 104.928 40.5881 104.41 40.4038C103.687 40.145 103.169 39.8384 102.857 39.4839C102.549 39.1294 102.395 38.6668 102.395 38.0961C102.395 37.497 102.62 37.0203 103.07 36.6658C103.52 36.3113 104.116 36.1341 104.857 36.1341C105.629 36.1341 106.34 36.2759 106.989 36.5594L106.707 37.3464C106.065 37.077 105.442 36.9423 104.835 36.9423C104.357 36.9423 103.983 37.0451 103.713 37.2507C103.444 37.4563 103.309 37.7416 103.309 38.1068C103.309 38.3762 103.359 38.5977 103.458 38.7714C103.557 38.9416 103.724 39.0993 103.958 39.2446C104.196 39.3864 104.557 39.5442 105.043 39.7179C105.858 40.0085 106.418 40.3205 106.723 40.6537C107.031 40.9869 107.186 41.4194 107.186 41.9511ZM109.316 44.0195H108.433V35.7459H109.316V44.0195ZM114.562 44.0195L114.386 43.19H114.344C114.053 43.5551 113.762 43.8032 113.472 43.9344C113.185 44.062 112.825 44.1258 112.392 44.1258C111.815 44.1258 111.361 43.9769 111.031 43.6792C110.705 43.3814 110.542 42.9578 110.542 42.4084C110.542 41.2315 111.483 40.6147 113.365 40.558L114.354 40.5261V40.1645C114.354 39.7072 114.255 39.3705 114.057 39.1542C113.862 38.9345 113.548 38.8246 113.115 38.8246C112.63 38.8246 112.08 38.9735 111.467 39.2712L111.196 38.5959C111.483 38.44 111.797 38.3177 112.137 38.229C112.481 38.1404 112.825 38.0961 113.169 38.0961C113.863 38.0961 114.377 38.2503 114.711 38.5587C115.047 38.8671 115.216 39.3616 115.216 40.0422V44.0195H114.562ZM112.568 43.3974C113.117 43.3974 113.548 43.2467 113.86 42.9454C114.175 42.6441 114.333 42.2223 114.333 41.6799V41.1535L113.45 41.1907C112.749 41.2155 112.242 41.3254 111.93 41.5204C111.621 41.7118 111.467 42.0113 111.467 42.419C111.467 42.738 111.563 42.9808 111.754 43.1475C111.949 43.3141 112.22 43.3974 112.568 43.3974ZM118.712 43.3974C118.868 43.3974 119.019 43.3867 119.164 43.3655C119.31 43.3406 119.425 43.3158 119.51 43.291V43.9663C119.414 44.0124 119.273 44.0496 119.085 44.078C118.9 44.1099 118.734 44.1258 118.585 44.1258C117.458 44.1258 116.894 43.5321 116.894 42.3446V38.8777H116.059V38.4524L116.894 38.0855L117.266 36.8413H117.777V38.1918H119.467V38.8777H117.777V42.3073C117.777 42.6583 117.86 42.9277 118.027 43.1155C118.193 43.3034 118.422 43.3974 118.712 43.3974ZM122.932 44.1258C122.071 44.1258 121.39 43.8635 120.89 43.3389C120.394 42.8142 120.146 42.0858 120.146 41.1535C120.146 40.2141 120.376 39.468 120.837 38.915C121.302 38.362 121.924 38.0855 122.704 38.0855C123.434 38.0855 124.012 38.3265 124.437 38.8086C124.862 39.2872 125.075 39.9199 125.075 40.7069V41.2652H121.061C121.078 41.9493 121.25 42.4686 121.576 42.8231C121.906 43.1776 122.369 43.3548 122.964 43.3548C123.592 43.3548 124.212 43.2237 124.825 42.9613V43.7483C124.513 43.883 124.217 43.9787 123.937 44.0354C123.661 44.0957 123.326 44.1258 122.932 44.1258ZM122.693 38.8246C122.225 38.8246 121.851 38.977 121.571 39.2819C121.295 39.5867 121.131 40.0085 121.082 40.5473H124.129C124.129 39.9908 124.005 39.5654 123.756 39.2712C123.508 38.9735 123.154 38.8246 122.693 38.8246Z" fill="#2C2C2C"/>
</svg>
