<svg width="16" height="16" viewBox="0 0 16 16" fill="none" xmlns="http://www.w3.org/2000/svg">
<path id="jpg" fill-rule="evenodd" clip-rule="evenodd" d="M13 0H3C1.34315 0 0 1.34315 0 3V13C0 14.6569 1.34315 16 3 16H13C14.6569 16 16 14.6569 16 13V3C16 1.34315 14.6569 0 13 0ZM2 3C2 2.44772 2.44772 2 3 2H13C13.5523 2 14 2.44772 14 3V10L11.6 8.2C11.2019 7.90141 10.6448 7.941 10.2929 8.29289L9 9.58579L5.70711 6.29289C5.28566 5.87145 4.59146 5.9099 4.21913 6.37531L2 9.14922V3ZM11.0938 10.3204L14 12.5V13C14 13.5523 13.5523 14 13 14H3C2.44772 14 2 13.5523 2 13V12.3508L5.08292 8.49713L8.29289 11.7071C8.68342 12.0976 9.31658 12.0976 9.70711 11.7071L11.0938 10.3204ZM10.5 7C11.3284 7 12 6.32843 12 5.5C12 4.67157 11.3284 4 10.5 4C9.67157 4 9 4.67157 9 5.5C9 6.32843 9.67157 7 10.5 7Z" fill="#899CEA"/>
</svg>
