<svg width="16" height="17" viewBox="0 0 16 17" fill="none" xmlns="http://www.w3.org/2000/svg">
<path fill-rule="evenodd" clip-rule="evenodd" d="M8.22762 1.17714C8.91286 0.00903868 10.5023 -0.35038 11.7778 0.374359C13.0532 1.0991 13.5317 2.63355 12.8464 3.80165L8.61856 11.0088C8.55338 11.1199 8.4607 11.2133 8.34794 11.2815L5.11416 13.2388C4.51541 13.6012 3.69526 13.1269 3.72677 12.4364L3.89555 8.7376C3.90127 8.6122 3.93689 8.49141 3.99975 8.38425L8.22762 1.17714ZM11.2927 2.91884C11.5009 2.56396 11.3808 2.10572 11.0284 1.85221L10.9431 1.79748C10.5257 1.56036 10.0057 1.67796 9.7815 2.06014L9.3519 2.79247L10.8631 3.65116L11.2927 2.91884ZM10.0539 5.03053L8.54272 4.17186L5.64915 9.10443L5.56619 10.9234L7.16439 9.95594L10.0539 5.03053ZM15.1111 14.2503C15.602 14.2503 16 14.6981 16 15.2503C16 15.7632 15.6569 16.1858 15.2148 16.2436L15.1111 16.2503H0.888889C0.397969 16.2503 0 15.8026 0 15.2503C0 14.7375 0.343147 14.3148 0.785226 14.2571L0.888889 14.2503H15.1111Z" fill="#899CEA"/>
</svg>
