<svg height="106" width="136" xmlns="http://www.w3.org/2000/svg"><g fill="none" fill-rule="evenodd"><path d="M26.32 9.514l2.32-2.361-3.206-.487L24 3.632l-1.434 3.034-3.206.487 2.32 2.361-.548 3.334L24 11.274l2.867 1.574zM24 13.792l-3.788 2.08c-.522.286-1.167.077-1.441-.468a1.158 1.158 0 0 1-.108-.707l.724-4.405-3.065-3.12a1.15 1.15 0 0 1-.019-1.575c.164-.176.378-.29.61-.325l4.236-.643L23.043.621c.26-.551.9-.778 1.43-.506.21.109.38.287.484.506L26.85 4.63l4.235.643c.583.088.988.654.903 1.263a1.14 1.14 0 0 1-.311.638l-3.065 3.12.723 4.404c.1.607-.29 1.183-.87 1.287-.232.041-.47.002-.678-.112z" fill="#83d0ab" fill-rule="nonzero"/><path d="M31 83h2a1 1 0 0 1 0 2h-2v2a1 1 0 0 1-2 0v-2h-7a1 1 0 0 1-1-1v-7h-2a1 1 0 1 1 0-2h2v-2a1 1 0 1 1 2 0v2h7a.997.997 0 0 1 1 1zm-2 0v-6h-6v6z" fill="#f7bd60" fill-rule="nonzero"/><path d="M33 0h16v16H33z"/><path d="M42 13v1h4v2H36a2 2 0 0 1-2-2V2a2 2 0 0 1 2-2h10a2 2 0 0 1 2 2v12a2 2 0 0 1-2 2V2h-4v2h2v1h-2v1h2v1h-2v2h2v4zm-2 0h-2V9h2V8h-2.001V7H40V6h-2.001V5H40V4h-2.001V3H40V2h-4v12h4zm-1-3v2h4v-2zm-28 8h3a2 2 0 0 1 2 2v3a2 2 0 0 1-2 2h-3a2 2 0 0 1-2-2v-3a2 2 0 0 1 2-2zm-9 0h3a2 2 0 0 1 2 2v3a2 2 0 0 1-2 2H2a2 2 0 0 1-2-2v-3a2 2 0 0 1 2-2zm9 9h3a2 2 0 0 1 2 2v3a2 2 0 0 1-2 2h-3a2 2 0 0 1-2-2v-3a2 2 0 0 1 2-2zm-9 0h3a2 2 0 0 1 2 2v3a2 2 0 0 1-2 2H2a2 2 0 0 1-2-2v-3a2 2 0 0 1 2-2zm0-7v3h3v-3zm9 0v3h3v-3zm0 9v3h3v-3zm-9 0v3h3v-3z" fill="#899cea" fill-rule="nonzero"/><path d="M20 20h3v-1a1 1 0 0 1 1-1h4a1 1 0 0 1 1 1v1h4.5a.5.5 0 0 1 .5.5v1a.5.5 0 0 1-.5.5H32v10a2 2 0 0 1-2 2h-8a2 2 0 0 1-2-2V22h-1.5a.5.5 0 0 1-.5-.5v-1a.5.5 0 0 1 .5-.5zm2 2v10h8V22zm2.5 1a.5.5 0 0 1 .5.5v7a.5.5 0 1 1-1 0v-7a.5.5 0 0 1 .5-.5zm3 0a.5.5 0 0 1 .5.5v7a.5.5 0 1 1-1 0v-7a.5.5 0 0 1 .5-.5z" fill="#f7bd60"/><path d="M55 11V2h-3a1 1 0 1 1-2 0V1a1 1 0 0 1 1-1h10a1 1 0 0 1 1 1v1a1 1 0 0 1-2 0h-3v9a1 1 0 0 1 0 2h-2a1 1 0 0 1 0-2zm5-3h5a1 1 0 0 1 0 2h-5a1 1 0 1 1 0-2zm0 3h5a1 1 0 0 1 0 2h-5a1 1 0 0 1 0-2zm0 3h5a1 1 0 0 1 0 2h-5a1 1 0 0 1 0-2z" fill="#f7bd60" fill-rule="nonzero"/><path d="M52 20v12h12V20zm0-2h12a2 2 0 0 1 2 2v12a2 2 0 0 1-2 2H52a2 2 0 0 1-2-2V20a2 2 0 0 1 2-2zm5 6h7v2h-7v6h-2V20h2z" fill="#b971c9" fill-rule="nonzero"/><path d="M12.586 39l-1.293-1.293a1 1 0 0 1 1.414-1.414l3 3a1 1 0 0 1 0 1.414l-3 3a1 1 0 0 1-1.414-1.414L12.586 41H12a5 5 0 0 0-5 5v1a1 1 0 0 1-2 0v-1a7 7 0 0 1 7-7zM5 39v2H2v9h12v-5h2v5a2 2 0 0 1-2 2H2a2 2 0 0 1-2-2v-9a2 2 0 0 1 2-2z" fill="#83d0ab" fill-rule="nonzero"/><path d="M18 35h16v16H18z"/><path d="M28 48h4V38H20v10zm0 2h-8a2 2 0 0 1-2-2V38a2 2 0 0 1 2-2h12a2 2 0 0 1 2 2v10a2 2 0 0 1-2 2zm-2-11h5v8h-5z" fill="#899cea" fill-rule="nonzero"/><path d="M76 0a1 1 0 0 1 1 1v14a1 1 0 0 1-2 0V1a1 1 0 0 1 1-1zm-2 3v2h-4v6h4v2h-4a2 2 0 0 1-2-2V5a2 2 0 0 1 2-2zm8 0a2 2 0 0 1 2 2v6a2 2 0 0 1-2 2h-4v-2h4V5h-4V3z" fill="#83d0ab" fill-rule="nonzero"/><path d="M67 18h16v16H67z"/><path d="M70 18h10a2 2 0 0 1 2 2v12a2 2 0 0 1-2 2H70a2 2 0 0 1-2-2V20a2 2 0 0 1 2-2zm0 2v12h10V20zm2 1h6a1 1 0 0 1 0 2h-6a1 1 0 1 1 0-2zm0 8h6a1 1 0 0 1 0 2h-6a1 1 0 0 1 0-2z" fill="#f7bd60" fill-rule="nonzero"/><path d="M72 48a.996.996 0 0 1-.707-.293l-3-3a1 1 0 0 1 0-1.414l3-3a1 1 0 1 1 1.414 1.414L70.414 44l2.293 2.292A.999.999 0 0 1 72 48zm8 0a.999.999 0 0 1-.706-1.708L81.585 44l-2.293-2.293a1 1 0 1 1 1.414-1.414l3 3a1 1 0 0 1 0 1.414l-3 3A.996.996 0 0 1 80 48zm-6.89 2.745l3.935-14.011a1 1 0 0 1 1.222-.696l.011.003a.988.988 0 0 1 .696 1.221l-3.936 14.012a1 1 0 0 1-1.221.696l-.011-.003a.988.988 0 0 1-.696-1.222z" fill="#b971c9" fill-rule="nonzero"/><path d="M14 64v-7a1 1 0 0 0-1-1H3a1 1 0 0 0-1 1v6.15l2.22-2.775a1 1 0 0 1 1.487-.082L9 63.586l1.293-1.293A1 1 0 0 1 11.6 62.2zm0 2.5l-2.906-2.18-1.387 1.387a1 1 0 0 1-1.414 0l-3.21-3.21L2 66.351V67a1 1 0 0 0 1 1h10a1 1 0 0 0 1-1zM3 54h10a3 3 0 0 1 3 3v10a3 3 0 0 1-3 3H3a3 3 0 0 1-3-3V57a3 3 0 0 1 3-3zm7.5 7a1.5 1.5 0 1 1 0-3 1.5 1.5 0 0 1 0 3z" fill="#b971c9"/><path d="M27 57.414v4.509c.031.188.098.5.212.896.213.748.512 1.495.906 2.185C29.204 66.904 30.771 68 33 68a1 1 0 0 1 0 2c-3.02 0-5.203-1.528-6.618-4.004-.137-.24-.264-.484-.382-.731-.117.247-.245.491-.382.731C24.204 68.472 22.021 70 19 70a1 1 0 0 1 0-2c2.23 0 3.796-1.097 4.882-2.996.394-.69.693-1.437.906-2.185.114-.396.18-.708.212-.896v-4.509l-1.293 1.293a1 1 0 1 1-1.414-1.414l3-3a1 1 0 0 1 1.414 0l3 3a1 1 0 0 1-1.414 1.414z" fill="#83d0ab"/><path d="M35 54h16v16H35z"/><path d="M37 59a1 1 0 1 1 0-2h10.993a1 1 0 0 1 0 2zm1 8c-.54 0-1-.448-1-1s.46-1 1-1h11.022A.99.99 0 0 1 50 66a.99.99 0 0 1-.978 1zm9.586-9l-2.293-2.293a1 1 0 0 1 1.414-1.414l3 3a1 1 0 0 1 0 1.414l-3 3a1 1 0 0 1-1.414-1.414zm-6.879 10.293a1 1 0 0 1-1.414 1.414l-3-3a1 1 0 0 1 0-1.414l3-3a1 1 0 0 1 1.414 1.414L38.414 66z" fill="#83d0ab" fill-rule="nonzero"/><path d="M66 56H54v12h12zm0-2a2 2 0 0 1 2 2v12a2 2 0 0 1-2 2H54a2 2 0 0 1-2-2V56a2 2 0 0 1 2-2zm-3 2v12h-2V56zm-7.53 8.47L57.94 62l-2.47-2.47a.75.75 0 1 1 1.06-1.06l3 3a.75.75 0 0 1 0 1.06l-3 3a.75.75 0 0 1-1.06-1.06z" fill="#899cea" fill-rule="nonzero"/><path d="M119 49h16v16h-16z"/><path d="M125.03 59h2.94l1-4h-2.94zm-.5 2l-.552 2.21a1 1 0 0 1-1.956-.42l.448-1.79H121a1 1 0 0 1 0-2h1.97l1-4H122a1 1 0 1 1 0-2h2.47l.552-2.21a1 1 0 1 1 1.956.42L126.53 53h2.94l.552-2.21a1 1 0 1 1 1.956.42L131.53 53H133a1 1 0 0 1 0 2h-1.97l-1 4H132a1 1 0 0 1 0 2h-2.47l-.552 2.21a1 1 0 1 1-1.956-.42l.448-1.79z" fill="#f7bd60" fill-rule="nonzero"/><path d="M85 0h16v16H85z"/><path d="M92 0h6a2 2 0 0 1 2 2v9a2 2 0 0 1-2 2h-6a2 2 0 0 1-2-2V2a2 2 0 0 1 2-2zm0 2v9h6V2zm-2 1v2h-2v9h6v-1h2v1a2 2 0 0 1-2 2h-6a2 2 0 0 1-2-2V5a2 2 0 0 1 2-2z" fill="#899cea" fill-rule="nonzero"/><path d="M2 74v12h12V74zm0-2h12a2 2 0 0 1 2 2v12a2 2 0 0 1-2 2H2a2 2 0 0 1-2-2V74a2 2 0 0 1 2-2zm6 4v4h4a4 4 0 1 1-4-4zm1 0h3v3H9z" fill="#b971c9" fill-rule="nonzero"/><path d="M-1 .001h16v16H-1z"/><path d="M12.66 1.833H12C8.975 1.833 7.845.378 7.809.335c-.371-.484-1.22-.42-1.608.05C6.155.442 5.027 1.833 2 1.833h-.66c-.752 0-1.34.412-1.34 1.26v2.858c0 .192.054 7.814 6.682 9.83.002 0 .211.052.318.052.106 0 .316-.051.318-.051C13.946 13.765 14 6.142 14 5.978V3.093c0-.848-.589-1.26-1.34-1.26zm-5.66 12c-4.947-1.96-5-7.681-5-7.926V3.833c2.556 0 4.15-.834 5-1.479.851.645 2.445 1.479 5 1.479v2.069c0 .065-.021 5.956-5 7.931zm3.213-8.404a1 1 0 0 1 .2 1.4L7.8 10.461a.998.998 0 0 1-1.507.107l-2-2a1 1 0 1 1 1.414-1.414l1.185 1.185 1.92-2.71c.332-.441.958-.53 1.4-.2z" fill="#a4aac9" fill-rule="nonzero"/><path d="M36 35h16v16H36z"/><path d="M43 39.531l-5-1.25v8.157l5 1.25zm2 0v8.157l5-1.25v-8.157zm-7.757-3.5l6.514 1.628a1 1 0 0 0 .486 0l6.514-1.629A1 1 0 0 1 52 37v10.22a1 1 0 0 1-.757.97l-7 1.75a1 1 0 0 1-.486 0l-7-1.75a1 1 0 0 1-.757-.97V37a1 1 0 0 1 1.243-.97zm2.484 4.81l1.94.483a.5.5 0 1 1-.241.97l-1.94-.483a.5.5 0 0 1 .241-.97zm8.622 0a.5.5 0 0 1 .242.97l-1.94.484a.5.5 0 0 1-.242-.97l1.94-.485zm-8.622 2l1.94.483a.5.5 0 1 1-.241.97l-1.94-.483a.5.5 0 0 1 .241-.97zm8.622 0a.5.5 0 0 1 .242.97l-1.94.484a.5.5 0 0 1-.242-.97l1.94-.485zM44 76v2h-6v4h6v2h-6a2 2 0 0 1-2-2v-4a2 2 0 0 1 2-2zm4 0h2a2 2 0 0 1 2 2v4a2 2 0 0 1-2 2h-2v-2h2v-4h-2zm-8 3h4v2h-4a1 1 0 1 1 0-2zm2 7h3V74h-3v-2h8v2h-3v12h3v2h-8z" fill="#f7bd60" fill-rule="nonzero"/><path d="M54 71h16v16H54z"/><path d="M61 73h8a1 1 0 0 1 0 2h-8a1 1 0 1 1 0-2zm0 5h8a1 1 0 0 1 0 2h-8a1 1 0 1 1 0-2zm0 5h8a1 1 0 0 1 0 2h-8a1 1 0 0 1 0-2zm-5-11a2 2 0 1 1 0 4 2 2 0 0 1 0-4zm0 5a2 2 0 1 1 0 4 2 2 0 0 1 0-4zm0 5a2 2 0 1 1 0 4 2 2 0 0 1 0-4z" fill="#83d0ab" fill-rule="nonzero"/><path d="M111 7h2a1 1 0 0 1 0 2h-2v2a1 1 0 0 1-2 0V9h-2a1 1 0 1 1 0-2h2V5a1 1 0 1 1 2 0zm-1 9a8 8 0 1 1 0-16 8 8 0 0 1 0 16zm0-2a6 6 0 1 0 0-12 6 6 0 0 0 0 12z" fill="#f7bd60"/><path d="M104 20v2h4v-2zm10.15 4.469c.092-1.863-.393-3.378-1.141-3.483-.661-.092-.996-.121-1.004-.087.452-.255.789-.408 1.01-.458 1.675-.38 3.108 1.817 3.035 4.023h.278a.5.5 0 0 1 .355.853l-1.33 1.33a.5.5 0 0 1-.707 0l-1.322-1.323a.5.5 0 0 1 .352-.854zM103 18h6a1 1 0 0 1 1 1v4a1 1 0 0 1-1 1h-6a1 1 0 0 1-1-1v-4a1 1 0 0 1 1-1zm0 10h14a1 1 0 0 1 1 1v4a1 1 0 0 1-1 1h-14a1 1 0 0 1-1-1v-4a1 1 0 0 1 1-1zm1 2v2h12v-2z" fill="#f7bd60" fill-rule="nonzero"/><path d="M119 33h16v16h-16z"/><path d="M132 36.114V35a1 1 0 0 1 2 0v4a1 1 0 0 1-1 1h-4a1 1 0 1 1 0-2h2.045c-.752-.956-2.344-2-4.045-2-2.319 0-3.865.966-5.105 3.447a1 1 0 0 1-1.79-.894C121.684 35.398 123.92 34 127 34c1.949 0 3.78.924 5 2.114zm-10 9.772V47a1 1 0 0 1-2 0v-4a1 1 0 0 1 1-1h4a1 1 0 1 1 0 2h-2.045c.753.956 2.344 2 4.045 2 2.32 0 3.865-.966 5.106-3.447a1 1 0 0 1 1.788.894C132.317 46.603 130.081 48 127 48c-1.949 0-3.78-.924-5-2.114z" fill="#f7bd60" fill-rule="nonzero"/><path d="M109.275 62.026c-.697 1.907-1.16 3.833-1.349 5.508-.018.158.06.194.11.055.658-1.777 1.2-3.918 1.569-6.164.023-.141-.04-.163-.092-.03-.082.209-.161.42-.238.63zm1.78.163c-.267 4.375-1.242 7.81-3.006 7.81-1.248 0-1.67-1.02-1.707-2.63-.026-1.15.17-2.624.543-4.07.499-1.942 1.21-3.584 2.116-4.7-.04-.36-.1-.717-.18-1.07-.244-1.048-.573-1.507-.84-1.525-2.33-.156-4.547 4.653-3.847 7.717a1 1 0 1 1-1.95.445c-.955-4.182 1.93-10.426 5.931-10.158 1.441.097 2.302 1.286 2.71 3.2a3.058 3.058 0 0 1 1.05-.185c1.49 0 2.354.75 2.741 2.013.328-.25.701-.378 1.137-.378 2.102 0 2.555 2.282 2.067 6.44a.987.987 0 0 1-1.096.877 1 1 0 0 1-.877-1.11c.31-2.645.132-3.936-.038-4.168-.12.14-.222.295-.304.46-.258.488-.511 1.194-.755 2.071a37.59 37.59 0 0 0-.528 2.214c-.127.593-.132.613-.17.77a3.776 3.776 0 0 1-.076.286c-.026.078-.026.078-.083.202-.028.109-.403.609-1.093.491-.69-.117-.795-.61-.81-.794-.013-.185-.013-.185-.005-.267.007-.069.019-.134.036-.215.02-.097.048-.21.103-.43.175-.7.226-.909.32-1.334.165-.757.287-1.459.356-2.112.217-2.07-.113-3.016-.926-3.016-.254 0-.52.112-.789.32.045.873.033 1.827-.03 2.846z" fill="#a4aac9" fill-rule="nonzero"/><path d="M109 80v6h-5V74h7v4h2v-4a2 2 0 0 0-2-2h-7a2 2 0 0 0-2 2v12a2 2 0 0 0 2 2h7v-8h5v6h-7v2h7.464c.848 0 1.536-.688 1.536-1.536v-6.928c0-.848-.688-1.536-1.536-1.536H111a2 2 0 0 0-2 2z" fill="#83d0ab"/><path d="M12.586 97l-1.293-1.293a1 1 0 0 1 1.414-1.414l3 3a1 1 0 0 1 0 1.414l-3 3a1 1 0 0 1-1.414-1.414L12.586 99H11a1 1 0 0 1 0-2zM8 90a1 1 0 0 1 1 1v14a1 1 0 0 1-2 0V91a1 1 0 0 1 1-1zm-4.586 7H5a1 1 0 1 1 0 2H3.414l1.293 1.293a1 1 0 0 1-1.414 1.414l-3-3a1 1 0 0 1 0-1.414l3-3a1 1 0 1 1 1.414 1.414z" fill="#83d0ab" fill-rule="nonzero"/><path d="M27 104h4a1 1 0 0 0 1-1V93a1 1 0 0 0-1-1H21a1 1 0 0 0-1 1v10a1 1 0 0 0 1 1zm0 2h-6a3 3 0 0 1-3-3V93a3 3 0 0 1 3-3h10a3 3 0 0 1 3 3v10a3 3 0 0 1-3 3zm0-10v5a1 1 0 0 1-2 0v-5h-2a1 1 0 1 1 0-2h6a1 1 0 0 1 0 2z" fill="#ef746c"/><path d="M119 17h16v16h-16z"/><path d="M132 20h-4v10h1a1 1 0 0 1 0 2h-4a1 1 0 0 1 0-2h1V20h-4v1a1 1 0 1 1-2 0v-3h14v3a1 1 0 0 1-2 0z" fill="#83d0ab"/><g fill="#ef746c"><path d="M56 92v12h12V92zm0-2h12a2 2 0 0 1 2 2v12a2 2 0 0 1-2 2H56a2 2 0 0 1-2-2V92a2 2 0 0 1 2-2zm5 6h7v2h-7v6h-2V92h2z" fill-rule="nonzero"/><path d="M86 100v-7a1 1 0 0 0-1-1H75a1 1 0 0 0-1 1v6.15l2.22-2.775a1 1 0 0 1 1.487-.082L81 99.586l1.293-1.293A1 1 0 0 1 83.6 98.2zm0 2.5l-2.906-2.18-1.387 1.387a1 1 0 0 1-1.414 0l-3.21-3.21L74 102.351V103a1 1 0 0 0 1 1h10a1 1 0 0 0 1-1zM75 90h10a3 3 0 0 1 3 3v10a3 3 0 0 1-3 3H75a3 3 0 0 1-3-3V93a3 3 0 0 1 3-3zm7.5 7a1.5 1.5 0 1 1 0-3 1.5 1.5 0 0 1 0 3z"/><path d="M92 92v12h12V92zm0-2h12a2 2 0 0 1 2 2v12a2 2 0 0 1-2 2H92a2 2 0 0 1-2-2V92a2 2 0 0 1 2-2zm6 4v4h4a4 4 0 1 1-4-4zm1 0h3v3h-3zm-61-2v12h12V92zm0-2h12a2 2 0 0 1 2 2v12a2 2 0 0 1-2 2H38a2 2 0 0 1-2-2V92a2 2 0 0 1 2-2zm8.816 11.5h-1.607L44 96.87l-1.21 4.63h-1.605L39 94.5h1.632l1.368 5 1.21-5h1.58l1.21 5 1.368-5H49z" fill-rule="nonzero"/></g><path d="M101 36h16v16h-16z"/><path d="M114 42h-8c0-2.654 1.346-4 3-4 .883 0 1.67.391 2.221 1 .186.221.306.377.359.467.192.33.44.506.915.506.485 0 .72-.16.917-.506.04-.068.078-.383 0-.688-.07-.276-.25-.54-.344-.673A4.987 4.987 0 0 0 109 36c-2.757 0-5 2.243-5 6-1.103 0-2 .897-2 2v6c0 1.104.897 2 2 2h10a2 2 0 0 0 2-2v-6c0-1.103-.896-2-2-2zm-.003 8H104v-6h10z" fill="#a4aac9" fill-rule="nonzero"/><path d="M69 54h16v16H69z"/><path d="M72 54h10a2 2 0 0 1 2 2v12a2 2 0 0 1-2 2H72a2 2 0 0 1-2-2V56a2 2 0 0 1 2-2zm0 2v12h10V56zm4.118 7h1.764L77 61.236zm2.764 2h-3.764l-.223.447a1 1 0 1 1-1.79-.894l3-6a1 1 0 0 1 1.79 0l3 6a1 1 0 1 1-1.79.894L78.883 65z" fill="#f7bd60" fill-rule="nonzero"/><path d="M122 2v12h12V2zm0-2h12a2 2 0 0 1 2 2v12a2 2 0 0 1-2 2h-12a2 2 0 0 1-2-2V2a2 2 0 0 1 2-2zm8.816 11.5h-1.607L128 6.87l-1.21 4.63h-1.605L123 4.5h1.632l1.368 5 1.21-5h1.58l1.21 5 1.368-5H133z" fill="#b971c9" fill-rule="nonzero"/></g></svg>